<?xml version="1.0" encoding="UTF-8" standalone="no"?>
<!-- Created with Inkscape (http://www.inkscape.org/) -->

<svg
   version="1.1"
   id="svg2"
   width="666.66669"
   height="666.66669"
   viewBox="0 0 666.66669 666.66669"
   sodipodi:docname="404.ai"
   xmlns:inkscape="http://www.inkscape.org/namespaces/inkscape"
   xmlns:sodipodi="http://sodipodi.sourceforge.net/DTD/sodipodi-0.dtd"
   xmlns="http://www.w3.org/2000/svg"
   xmlns:svg="http://www.w3.org/2000/svg">
  <defs
     id="defs6">
    <clipPath
       clipPathUnits="userSpaceOnUse"
       id="clipPath18">
      <path
         d="M 0,500 H 500 V 0 H 0 Z"
         id="path16" />
    </clipPath>
    <clipPath
       clipPathUnits="userSpaceOnUse"
       id="clipPath38">
      <path
         d="m 76.435,304.855 c -0.476,-3.175 -0.755,-6.215 -0.848,-9.128 v 0 c 2.937,-3.319 5.277,-5.337 5.277,-5.337 v 0 c -1.738,0.561 -3.578,1.564 -5.313,2.693 v 0 c 0.01,-4.08 0.321,-7.954 0.909,-11.637 v 0 c 4.106,-3.279 7.429,-5.153 7.429,-5.153 v 0 c -2.164,0.223 -4.603,1.054 -6.847,2.026 v 0 c 0.849,-4.2 2.043,-8.165 3.53,-11.926 v 0 c 4.896,-2.986 8.872,-4.521 8.872,-4.521 v 0 c -2.276,-0.113 -4.956,0.402 -7.407,1.086 v 0 c 1.756,-3.826 3.811,-7.444 6.164,-10.858 v 0 c 0.427,-0.617 0.88,-1.216 1.326,-1.82 v 0 c 5.183,-1.981 9.207,-2.736 9.207,-2.736 v 0 c -2.017,-0.503 -4.461,-0.534 -6.791,-0.367 v 0 c 2.711,-3.293 5.734,-6.372 9.11,-9.209 v 0 c 6.256,-0.897 11.125,-0.536 11.125,-0.536 v 0 c -2.094,-1.186 -4.895,-1.891 -7.485,-2.316 v 0 c 1.511,-1.111 3.066,-2.191 4.71,-3.208 v 0 c 1.878,-1.175 3.857,-2.278 5.935,-3.313 v 0 c 7.355,-1.387 13.506,-0.935 13.506,-0.935 v 0 c -1.831,-1.037 -4.202,-1.705 -6.5,-2.142 v 0 c 0.654,-0.25 1.315,-0.495 1.987,-0.732 v 0 c 2.79,-0.979 5.767,-1.83 8.95,-2.539 v 0 c 3.181,-0.71 6.538,-1.3 10.453,-1.505 v 0 c 1.212,3.73 1.863,7.075 2.34,10.3 v 0 c 0.477,3.225 0.748,6.31 0.834,9.265 v 0 c 0.018,0.712 0.027,1.418 0.028,2.118 v 0 c -1.231,-1.989 -2.704,-3.965 -4.327,-5.302 v 0 c 0,0 2.624,5.58 3.963,12.947 v 0 c -0.224,2.309 -0.544,4.553 -0.968,6.726 v 0 c -0.362,1.899 -0.815,3.738 -1.309,5.547 v 0 c -1.325,-2.266 -2.985,-4.63 -4.843,-6.161 v 0 c 0,0 2.081,4.418 3.483,10.581 v 0 c -1.439,4.168 -3.232,8.092 -5.336,11.802 v 0 c -0.678,-2.234 -1.582,-4.504 -2.775,-6.208 v 0 c 0,0 0.737,4.028 0.742,9.576 v 0 c -0.403,0.633 -0.8,1.27 -1.223,1.89 v 0 c -2.345,3.418 -4.989,6.634 -7.932,9.644 v 0 c -0.238,-2.535 -0.716,-5.221 -1.638,-7.306 v 0 c 0,0 -0.009,4.263 -1.044,9.903 v 0 c -2.98,2.736 -6.254,5.269 -9.871,7.566 v 0 c 0.104,-2.443 0.006,-5.018 -0.561,-7.119 v 0 c 0,0 -0.558,3.774 -2.151,8.782 v 0 c -3.228,1.868 -6.733,3.546 -10.54,5.015 v 0 c 0.433,-2.024 0.711,-4.1 0.612,-5.924 v 0 c 0,0 -1.045,2.908 -3.093,6.838 v 0 c -2.753,0.956 -5.691,1.784 -8.826,2.477 v 0 c -3.19,0.704 -6.557,1.287 -10.49,1.48 v 0 c -1.226,-3.74 -1.89,-7.094 -2.374,-10.324"
         id="path36" />
    </clipPath>
    <clipPath
       clipPathUnits="userSpaceOnUse"
       id="clipPath50">
      <path
         d="M 0,500 H 500 V 0 H 0 Z"
         id="path48" />
    </clipPath>
    <clipPath
       clipPathUnits="userSpaceOnUse"
       id="clipPath58">
      <path
         d="M 78.8091,315.179 H 146.936 V 220.742 H 78.8091 Z"
         id="path56" />
    </clipPath>
    <clipPath
       clipPathUnits="userSpaceOnUse"
       id="clipPath78">
      <path
         d="m 453.333,236.198 c -3.129,-0.72 -6.061,-1.575 -8.805,-2.554 v 0 c -2.011,-3.95 -3.031,-6.867 -3.031,-6.867 v 0 c -0.116,1.823 0.144,3.903 0.559,5.93 v 0 c -3.795,-1.503 -7.283,-3.212 -10.495,-5.109 v 0 c -1.547,-5.022 -2.074,-8.8 -2.074,-8.8 v 0 c -0.585,2.094 -0.704,4.668 -0.624,7.113 v 0 c -3.595,-2.329 -6.848,-4.892 -9.802,-7.653 v 0 c -0.986,-5.651 -0.956,-9.912 -0.956,-9.912 v 0 c -0.94,2.076 -1.442,4.759 -1.704,7.289 v 0 c -2.916,-3.034 -5.53,-6.272 -7.845,-9.713 v 0 c -0.418,-0.623 -0.808,-1.264 -1.206,-1.901 v 0 c 0.054,-5.548 0.827,-9.568 0.827,-9.568 v 0 c -1.207,1.692 -2.131,3.954 -2.831,6.183 v 0 c -2.07,-3.729 -3.827,-7.67 -5.229,-11.85 v 0 c 1.456,-6.149 3.575,-10.548 3.575,-10.548 v 0 c -1.87,1.514 -3.552,3.863 -4.896,6.116 v 0 c -0.478,-1.813 -0.914,-3.655 -1.259,-5.558 v 0 c -0.405,-2.177 -0.706,-4.423 -0.909,-6.736 v 0 c 1.405,-7.352 4.078,-12.909 4.078,-12.909 v 0 c -1.634,1.323 -3.125,3.285 -4.373,5.262 v 0 c 0.007,-0.699 0.022,-1.404 0.046,-2.116 v 0 c 0.112,-2.956 0.411,-6.036 0.917,-9.258 v 0 c 0.506,-3.221 1.186,-6.56 2.431,-10.278 v 0 c 3.912,0.24 7.264,0.859 10.439,1.597 v 0 c 3.177,0.737 6.145,1.616 8.928,2.618 v 0 c 0.669,0.245 1.328,0.494 1.979,0.751 v 0 c -2.301,0.416 -4.678,1.063 -6.518,2.082 v 0 c 0,0 6.154,-0.396 13.498,1.056 v 0 c 2.067,1.055 4.038,2.176 5.904,3.366 v 0 c 1.636,1.033 3.181,2.127 4.682,3.25 v 0 c -2.594,0.401 -5.402,1.083 -7.507,2.249 v 0 c 0,0 4.874,-0.317 11.122,0.637 v 0 c 3.35,2.865 6.345,5.971 9.027,9.288 v 0 c -2.329,-0.188 -4.772,-0.178 -6.794,0.307 v 0 c 0,0 4.017,0.791 9.183,2.818 v 0 c 0.439,0.608 0.887,1.212 1.31,1.83 v 0 c 2.321,3.437 4.344,7.074 6.066,10.914 v 0 c -2.446,-0.705 -5.12,-1.245 -7.396,-1.151 v 0 c 0,0 3.961,1.57 8.83,4.598 v 0 c 1.455,3.776 2.612,7.751 3.424,11.958 v 0 c -2.236,-0.992 -4.667,-1.845 -6.828,-2.088 v 0 c 0,0 3.306,1.904 7.382,5.22 v 0 c 0.556,3.689 0.832,7.564 0.805,11.645 v 0 c -1.725,-1.144 -3.556,-2.164 -5.289,-2.74 v 0 c 0,0 2.323,2.039 5.23,5.384 v 0 c -0.119,2.91 -0.425,5.949 -0.929,9.12 v 0 c -0.513,3.225 -1.206,6.572 -2.466,10.301 v 0 c -3.93,-0.228 -7.293,-0.841 -10.476,-1.573"
         id="path76" />
    </clipPath>
    <clipPath
       clipPathUnits="userSpaceOnUse"
       id="clipPath90">
      <path
         d="M 0,500 H 500 V 0 H 0 Z"
         id="path88" />
    </clipPath>
    <clipPath
       clipPathUnits="userSpaceOnUse"
       id="clipPath98">
      <path
         d="m 399.726,237.772 h 67.538 v -95.011 h -67.538 z"
         id="path96" />
    </clipPath>
    <clipPath
       clipPathUnits="userSpaceOnUse"
       id="clipPath158">
      <path
         d="M 124.672,247.164 H 103.35 L 70.612,94.199 c 27.154,-5.853 54.06,-5.853 54.06,-5.853 v 0 c 0,0 26.905,0 54.059,5.853 v 0 l -32.738,152.965 z"
         id="path156" />
    </clipPath>
    <clipPath
       clipPathUnits="userSpaceOnUse"
       id="clipPath178">
      <path
         d="M 0,500 H 500 V 0 H 0 Z"
         id="path176" />
    </clipPath>
    <clipPath
       clipPathUnits="userSpaceOnUse"
       id="clipPath186">
      <path
         d="m 133.364,247.164 h 45.367 V 88.5949 h -45.367 z"
         id="path184" />
    </clipPath>
    <clipPath
       clipPathUnits="userSpaceOnUse"
       id="clipPath202">
      <path
         d="M 82.0433,225.909 H 111.627 V 106.539 H 82.0433 Z"
         id="path200" />
    </clipPath>
  </defs>
  <sodipodi:namedview
     id="namedview4"
     pagecolor="#ffffff"
     bordercolor="#000000"
     borderopacity="0.25"
     inkscape:showpageshadow="2"
     inkscape:pageopacity="0.0"
     inkscape:pagecheckerboard="0"
     inkscape:deskcolor="#d1d1d1" />
  <g
     id="g8"
     inkscape:groupmode="layer"
     inkscape:label="404"
     transform="matrix(1.3333333,0,0,-1.3333333,0,666.66667)">
    <path
       d="M 0,0 H 500 V 500 H 0 Z"
       style="fill:#4c9aff;fill-opacity:1;fill-rule:nonzero;stroke:none"
       id="path10" />
    <g
       id="g12">
      <g
         id="g14"
         clip-path="url(#clipPath18)">
        <g
           id="g20"
           transform="translate(89.5723,214.1611)">
          <path
             d="m 0,0 c -0.256,0.346 -0.506,0.694 -0.764,1.038 -2.906,3.861 -5.99,7.589 -9.244,11.159 0.081,7.194 -0.091,34.4 -7.38,32.999 -6.732,-1.293 2.055,-22.833 5.803,-31.323 -1.42,1.512 -2.868,2.996 -4.351,4.446 -4.918,6.384 -21.453,26.944 -26.3,21.377 -4.491,-5.156 15.162,-16.536 23.799,-21.181 1.604,-1.531 3.18,-3.09 4.711,-4.692 -8.324,4.157 -29.077,13.764 -30.921,7.199 -2.001,-7.118 25.135,-8.624 32.508,-8.9 C -8.31,7.99 -4.713,3.646 -1.352,-0.881 -8.807,3.842 -29.441,16.171 -31.98,9.661 -34.701,2.687 -7.121,-1.484 -0.219,-2.414 3.408,-7.421 6.75,-12.638 9.815,-18.01 c -7.127,6.04 -24.93,20.234 -28.276,14.308 -3.633,-6.432 22.31,-14.338 29.437,-16.37 0.493,-0.893 0.987,-1.785 1.465,-2.687 2.428,-4.571 4.671,-9.254 6.734,-14.016 -6.46,6.331 -23.707,22.324 -27.52,16.556 -4.091,-6.19 21.488,-15.952 28.318,-18.424 3.055,-7.259 5.656,-14.71 7.769,-22.283 -5.518,7.186 -20.33,25.404 -24.91,20.232 -4.919,-5.555 19.043,-18.811 25.46,-22.217 0.086,-0.319 0.183,-0.637 0.266,-0.956 0.677,-2.597 1.336,-5.217 1.796,-7.863 0.176,-1.013 1.754,-0.77 1.578,0.245 -0.458,2.63 -1.048,5.248 -1.719,7.85 3.274,6.584 14.823,30.917 7.687,32.823 -6.495,1.735 -8.039,-20.555 -8.402,-30.165 -1.218,4.332 -2.644,8.613 -4.137,12.806 -1.069,3.003 -2.214,5.981 -3.425,8.934 2.251,6.758 10.44,32.828 3.055,33.72 -6.741,0.816 -5.044,-21.924 -4.06,-31.324 -2.362,5.546 -4.979,10.986 -7.857,16.282 1.774,6.899 8.121,33.48 0.691,33.854 C 6.911,13.641 10.338,-9.419 11.957,-18.533 8.82,-12.93 5.389,-7.492 1.656,-2.271 2.468,5.229 4.823,31.727 -2.488,31.053 -9.142,30.44 -3,9.234 0,0"
             style="fill:#ff735e;fill-opacity:1;fill-rule:nonzero;stroke:none"
             id="path22" />
        </g>
        <g
           id="g24"
           transform="translate(434.4297,257.9873)">
          <path
             d="M 0,0 C 0.181,0.39 0.368,0.776 0.546,1.167 2.55,5.565 4.351,10.055 5.933,14.619 12.291,17.985 36.107,31.135 31.395,36.87 27.043,42.165 12.318,24.155 6.651,16.806 c 0.65,1.969 1.262,3.951 1.828,5.946 3.257,7.371 13.418,31.72 6.212,33.318 C 8.016,57.551 7.409,34.849 7.455,25.043 6.877,22.902 6.26,20.773 5.585,18.662 5.259,27.961 3.783,50.782 -2.865,49.266 -10.074,47.622 1.568,23.065 4.848,16.455 3.049,11.117 0.949,5.882 -1.42,0.767 c 0.586,8.805 1.558,32.822 -5.374,31.942 -7.426,-0.942 2.087,-27.163 4.567,-33.67 -2.664,-5.579 -5.65,-11.007 -8.905,-16.267 1.901,9.148 5.862,31.569 -0.941,31.677 -7.386,0.117 -1.936,-26.449 -0.317,-33.681 -0.548,-0.861 -1.096,-1.72 -1.659,-2.571 -2.856,-4.318 -5.897,-8.525 -9.096,-12.613 2.475,8.699 8.284,31.493 1.396,32.086 -7.394,0.637 -3.747,-26.498 -2.655,-33.679 -4.917,-6.152 -10.219,-11.998 -15.863,-17.471 3.675,8.28 12.603,29.997 5.871,31.548 -7.23,1.668 -7.426,-25.715 -7.352,-32.981 -0.24,-0.228 -0.473,-0.464 -0.714,-0.69 -1.957,-1.835 -3.944,-3.666 -6.049,-5.335 -0.804,-0.638 0.163,-1.909 0.97,-1.268 2.092,1.658 4.109,3.428 6.075,5.26 7.348,0.27 34.241,1.751 32.507,8.93 -1.579,6.535 -21.898,-2.759 -30.514,-7.031 3.224,3.139 6.302,6.438 9.273,9.752 2.127,2.373 4.196,4.803 6.211,7.278 7.013,1.25 33.827,6.513 31.083,13.427 -2.505,6.312 -21.671,-6.045 -29.457,-11.399 3.743,4.723 7.271,9.623 10.549,14.681 6.907,1.738 33.291,8.863 30.07,15.568 -2.972,6.186 -21.592,-7.842 -28.824,-13.619 3.423,5.433 6.56,11.046 9.364,16.819 C 5.772,0.331 30.174,10.922 26.09,17.022 22.373,22.575 6.678,7.048 0,0"
             style="fill:#ff735e;fill-opacity:1;fill-rule:nonzero;stroke:none"
             id="path26" />
        </g>
        <g
           id="g28"
           transform="translate(142.6094,237.123)">
          <path
             d="M 0,0 C 0,0 2.624,5.58 3.963,12.946 3.739,15.256 3.418,17.5 2.994,19.673 2.632,21.572 2.18,23.411 1.686,25.22 0.361,22.954 -1.3,20.59 -3.157,19.06 c 0,0 2.08,4.418 3.483,10.58 -1.439,4.168 -3.232,8.092 -5.336,11.802 -0.679,-2.234 -1.583,-4.504 -2.775,-6.208 0,0 0.736,4.028 0.742,9.576 -0.404,0.632 -0.801,1.27 -1.223,1.89 -2.346,3.419 -4.989,6.634 -7.932,9.643 -0.239,-2.534 -0.717,-5.22 -1.638,-7.304 0,0 -0.009,4.261 -1.044,9.902 -2.98,2.736 -6.254,5.269 -9.871,7.566 0.104,-2.444 0.006,-5.018 -0.561,-7.119 0,0 -0.559,3.774 -2.151,8.783 -3.228,1.867 -6.733,3.545 -10.54,5.015 0.433,-2.024 0.711,-4.102 0.611,-5.925 0,0 -1.045,2.907 -3.092,6.838 -2.753,0.956 -5.692,1.784 -8.827,2.477 -3.189,0.704 -6.557,1.286 -10.489,1.48 -1.227,-3.741 -1.89,-7.094 -2.374,-10.324 -0.476,-3.175 -0.755,-6.215 -0.848,-9.127 2.937,-3.32 5.277,-5.337 5.277,-5.337 -1.738,0.56 -3.578,1.563 -5.313,2.692 0.01,-4.08 0.321,-7.954 0.908,-11.637 4.107,-3.28 7.43,-5.154 7.43,-5.154 -2.164,0.224 -4.603,1.055 -6.848,2.026 0.85,-4.199 2.043,-8.164 3.53,-11.925 4.896,-2.987 8.872,-4.521 8.872,-4.521 -2.276,-0.113 -4.955,0.402 -7.407,1.086 1.756,-3.825 3.812,-7.444 6.164,-10.858 0.428,-0.617 0.881,-1.216 1.326,-1.82 5.183,-1.981 9.207,-2.736 9.207,-2.736 -2.017,-0.503 -4.46,-0.533 -6.79,-0.367 2.711,-3.293 5.733,-6.372 9.109,-9.209 6.256,-0.897 11.126,-0.536 11.126,-0.536 -2.094,-1.186 -4.896,-1.891 -7.486,-2.316 1.512,-1.11 3.066,-2.19 4.711,-3.208 1.877,-1.175 3.857,-2.277 5.934,-3.313 7.356,-1.387 13.506,-0.936 13.506,-0.936 -1.83,-1.036 -4.201,-1.704 -6.499,-2.141 0.654,-0.249 1.315,-0.495 1.986,-0.732 2.791,-0.978 5.767,-1.83 8.95,-2.539 3.183,-0.71 6.538,-1.3 10.454,-1.505 1.211,3.73 1.862,7.075 2.339,10.3 0.477,3.226 0.748,6.31 0.834,9.266 C 4.317,3.896 4.325,4.602 4.326,5.302 3.096,3.313 1.623,1.337 0,0"
             style="fill:#6680e1;fill-opacity:1;fill-rule:nonzero;stroke:none"
             id="path30" />
        </g>
      </g>
    </g>
    <g
       id="g32">
      <g
         id="g34"
         clip-path="url(#clipPath38)">
        <g
           id="g40"
           transform="translate(132.7324,291.894)">
          <path
             d="m 0,0 -1.024,0.117 c -0.008,-0.179 -0.874,-17.908 -12.687,-34.439 l -8.873,12.905 c 12.162,16.916 10.644,38.652 10.627,38.871 l -1.022,-0.011 c 0.017,-0.214 1.488,-21.337 -10.251,-37.92 l -7.894,11.482 c 12.114,17.039 0.657,41.07 0.539,41.311 l -0.911,-0.417 c 0.114,-0.235 11.157,-23.426 -0.276,-39.95 l -8.464,12.31 c 4.45,16.923 -7.097,38.261 -7.215,38.475 l -0.885,-0.468 c 0.113,-0.207 11.077,-20.483 7.306,-36.852 l -17.435,25.36 -0.824,-0.566 17.435,-25.361 c -16.634,2.341 -31.64,19.838 -31.792,20.018 L -74.4,24.207 c 0.158,-0.187 15.946,-18.61 33.339,-20.514 l 8.464,-12.311 c -19.522,-4.758 -37.221,13.857 -37.4,14.048 l -0.715,-0.701 c 0.183,-0.197 18.517,-19.5 38.764,-14.291 l 7.894,-11.481 c -19.675,-5.019 -38.882,3.915 -39.076,4.006 l -0.376,-0.949 c 0.198,-0.095 19.949,-9.295 40.098,-3.997 l 8.872,-12.905 c -19.65,-5.106 -36.528,0.429 -36.698,0.486 l -0.257,-0.999 c 0.173,-0.057 17.512,-5.756 37.6,-0.425 l 6.675,-9.709 c -19.641,-5.194 -34.202,-3.059 -34.348,-3.037 l -0.084,-1.04 c 0.148,-0.023 15.061,-2.219 35.076,3.141 l 7.28,-10.589 c -16.458,-4.33 -28.65,-2.555 -28.773,-2.535 l -0.084,-1.04 c 0.126,-0.021 12.668,-1.861 29.502,2.637 l 6.065,-8.823 c -10.334,-2.753 -17.929,-1.742 -18.005,-1.731 l -0.073,-1.042 c 0.326,-0.046 8.022,-1.08 18.722,1.838 l 11.82,-17.194 0.824,0.567 -11.821,17.193 c 6.556,8.945 8.346,16.501 8.42,16.821 l -0.999,0.307 c -0.017,-0.076 -1.793,-7.529 -8.064,-16.192 l -6.065,8.823 c 10.227,14.106 13,26.475 13.027,26.6 l -1.002,0.295 C 14.176,-30.658 11.468,-42.678 1.531,-56.493 l -7.28,10.588 c 12.172,16.77 15.462,31.479 15.494,31.626 l -1.001,0.294 C 8.711,-14.129 5.491,-28.49 -6.392,-44.968 l -6.675,9.709 C -0.896,-18.412 -0.007,-0.183 0,0"
             style="fill:#abcafb;fill-opacity:1;fill-rule:nonzero;stroke:none"
             id="path42" />
        </g>
      </g>
    </g>
    <g
       id="g44">
      <g
         id="g46"
         clip-path="url(#clipPath50)">
        <g
           id="g52">
          <g
             id="g54" />
          <g
             id="g66">
            <g
               clip-path="url(#clipPath58)"
               opacity="0.100006"
               id="g64">
              <g
                 transform="translate(135.5664,281.9331)"
                 id="g62">
                <path
                   d="m 0,0 c -0.404,0.632 -0.801,1.27 -1.223,1.89 -2.346,3.419 -4.989,6.634 -7.932,9.643 -0.239,-2.534 -0.717,-5.22 -1.638,-7.304 0,0 -0.009,4.261 -1.044,9.902 -2.98,2.736 -6.254,5.269 -9.871,7.566 0.104,-2.444 0.006,-5.018 -0.561,-7.119 0,0 -0.559,3.774 -2.151,8.783 -3.228,1.867 -6.733,3.545 -10.54,5.014 0.433,-2.023 0.71,-4.101 0.611,-5.924 0,0 -1.045,2.907 -3.092,6.838 -2.753,0.956 -5.692,1.784 -8.827,2.477 -3.189,0.704 -6.557,1.286 -10.489,1.48 L 8.168,-61.191 c 1.211,3.73 1.862,7.075 2.339,10.3 0.477,3.225 0.748,6.309 0.834,9.265 0.019,0.712 0.027,1.417 0.028,2.118 -1.23,-1.99 -2.703,-3.965 -4.326,-5.302 0,0 2.624,5.58 3.963,12.946 -0.224,2.31 -0.545,4.554 -0.969,6.727 -0.362,1.899 -0.814,3.738 -1.308,5.547 -1.325,-2.266 -2.986,-4.63 -4.843,-6.16 0,0 2.08,4.417 3.483,10.58 -1.439,4.168 -3.232,8.092 -5.336,11.802 -0.679,-2.235 -1.583,-4.505 -2.775,-6.208 0,0 0.736,4.028 0.742,9.576"
                   style="fill:#0044a4;fill-opacity:1;fill-rule:nonzero;stroke:none"
                   id="path60" />
              </g>
            </g>
          </g>
        </g>
        <g
           id="g68"
           transform="translate(414.5557,149.8095)">
          <path
             d="m 0,0 c 0,0 6.153,-0.396 13.497,1.056 2.067,1.054 4.038,2.175 5.904,3.366 1.636,1.033 3.181,2.127 4.683,3.25 -2.595,0.401 -5.402,1.082 -7.507,2.249 0,0 4.873,-0.317 11.121,0.636 3.351,2.866 6.345,5.971 9.027,9.289 -2.329,-0.188 -4.772,-0.178 -6.793,0.306 0,0 4.016,0.791 9.182,2.819 0.44,0.607 0.887,1.211 1.31,1.83 2.321,3.436 4.345,7.073 6.066,10.914 -2.445,-0.706 -5.119,-1.246 -7.396,-1.152 0,0 3.962,1.57 8.831,4.599 1.454,3.776 2.611,7.75 3.424,11.957 -2.237,-0.992 -4.668,-1.845 -6.829,-2.087 0,0 3.306,1.904 7.382,5.22 0.556,3.688 0.832,7.563 0.805,11.644 -1.725,-1.144 -3.556,-2.164 -5.288,-2.74 0,0 2.322,2.039 5.229,5.384 -0.119,2.911 -0.425,5.949 -0.929,9.12 -0.513,3.226 -1.206,6.572 -2.466,10.302 -3.93,-0.229 -7.293,-0.841 -10.476,-1.573 -3.129,-0.721 -6.06,-1.576 -8.804,-2.555 -2.012,-3.949 -3.032,-6.866 -3.032,-6.866 -0.116,1.822 0.144,3.902 0.559,5.929 -3.794,-1.502 -7.283,-3.211 -10.495,-5.108 -1.547,-5.022 -2.073,-8.801 -2.073,-8.801 -0.585,2.095 -0.705,4.669 -0.624,7.114 C 10.712,73.772 7.46,71.21 4.505,68.448 3.52,62.798 3.549,58.536 3.549,58.536 2.609,60.612 2.107,63.295 1.846,65.826 -1.07,62.791 -3.685,59.553 -6,56.112 c -0.417,-0.623 -0.808,-1.263 -1.206,-1.9 0.055,-5.548 0.827,-9.568 0.827,-9.568 -1.207,1.692 -2.131,3.954 -2.83,6.182 -2.07,-3.728 -3.828,-7.669 -5.23,-11.849 1.457,-6.15 3.576,-10.548 3.576,-10.548 -1.87,1.513 -3.553,3.862 -4.897,6.116 -0.478,-1.814 -0.914,-3.655 -1.259,-5.559 -0.405,-2.176 -0.706,-4.423 -0.909,-6.735 1.406,-7.353 4.078,-12.91 4.078,-12.91 -1.634,1.323 -3.125,3.285 -4.373,5.263 0.007,-0.7 0.022,-1.405 0.046,-2.117 0.113,-2.955 0.411,-6.036 0.917,-9.258 0.506,-3.22 1.187,-6.559 2.431,-10.278 3.913,0.24 7.265,0.86 10.439,1.598 3.177,0.737 6.146,1.615 8.928,2.618 0.669,0.244 1.328,0.494 1.98,0.75 C 4.216,-1.667 1.839,-1.02 0,0"
             style="fill:#6680e1;fill-opacity:1;fill-rule:nonzero;stroke:none"
             id="path70" />
        </g>
      </g>
    </g>
    <g
       id="g72">
      <g
         id="g74"
         clip-path="url(#clipPath78)">
        <g
           id="g80"
           transform="translate(461.8994,179.0673)">
          <path
             d="M 0,0 -0.267,0.995 C -0.437,0.937 -17.249,-4.752 -36.959,0.183 l 8.757,12.984 c 20.195,-5.119 39.864,4.257 40.061,4.354 l -0.384,0.946 C 11.281,18.373 -7.834,9.265 -27.564,14.112 l 7.792,11.552 C 0.52,20.635 18.681,40.1 18.863,40.299 l -0.721,0.693 C 17.964,40.801 0.431,22.028 -19.133,26.613 l 8.354,12.386 c 17.377,2.059 33,20.621 33.156,20.81 l -0.76,0.651 C 21.466,60.278 6.617,42.648 -9.996,40.159 L 7.213,65.674 6.384,66.233 -10.825,40.719 c -3.916,16.335 6.866,36.708 6.978,36.916 l -0.888,0.46 C -4.852,77.88 -16.209,56.439 -11.608,39.558 l -8.354,-12.386 c -11.58,16.422 -0.744,39.71 -0.632,39.947 l -0.914,0.408 c -0.116,-0.243 -11.359,-24.374 0.906,-41.304 L -28.394,14.671 C -40.271,31.139 -38.996,52.283 -38.982,52.498 L -40.004,52.5 C -40.019,52.281 -41.343,30.532 -29.03,13.726 L -37.788,0.741 c -11.95,16.414 -12.984,34.147 -12.994,34.325 l -1.023,-0.126 c 0.009,-0.182 1.061,-18.403 13.38,-35.142 L -45.013,-9.97 C -57.042,6.403 -60.391,20.733 -60.424,20.878 l -0.998,-0.303 c 0.033,-0.147 3.454,-14.827 15.775,-31.486 l -7.186,-10.653 C -62.893,-7.838 -65.707,4.157 -65.734,4.279 l -0.999,-0.303 c 0.027,-0.125 2.911,-12.469 13.263,-26.485 l -5.987,-8.876 c -6.348,8.607 -8.189,16.044 -8.208,16.119 l -0.995,-0.314 c 0.076,-0.32 1.933,-7.859 8.568,-16.746 l -11.667,-17.298 0.829,-0.56 11.667,17.299 c 10.726,-2.823 18.411,-1.719 18.737,-1.671 l -0.081,1.041 c -0.077,-0.011 -7.663,-1.089 -18.021,1.572 l 5.987,8.876 c 16.873,-4.348 29.399,-2.397 29.524,-2.375 l -0.093,1.04 c -0.123,-0.021 -12.299,-1.906 -28.794,2.278 l 7.186,10.653 c 20.061,-5.18 34.953,-2.852 35.102,-2.828 l -0.094,1.039 c -0.145,-0.023 -14.687,-2.288 -34.374,2.731 l 6.588,9.768 C -17.46,-5.912 -0.173,-0.061 0,0"
             style="fill:#abcafb;fill-opacity:1;fill-rule:nonzero;stroke:none"
             id="path82" />
        </g>
      </g>
    </g>
    <g
       id="g84">
      <g
         id="g86"
         clip-path="url(#clipPath90)">
        <g
           id="g92">
          <g
             id="g94" />
          <g
             id="g106">
            <g
               clip-path="url(#clipPath98)"
               opacity="0.100006"
               id="g104">
              <g
                 transform="translate(453.6699,172.7802)"
                 id="g102">
                <path
                   d="m 0,0 c 0.439,0.607 0.887,1.211 1.31,1.83 2.321,3.437 4.344,7.073 6.066,10.914 -2.445,-0.706 -5.119,-1.246 -7.397,-1.151 0,0 3.962,1.569 8.832,4.598 1.454,3.776 2.611,7.75 3.423,11.957 -2.236,-0.992 -4.668,-1.844 -6.829,-2.086 0,0 3.307,1.903 7.383,5.219 0.556,3.689 0.832,7.564 0.805,11.645 -1.725,-1.145 -3.556,-2.164 -5.288,-2.74 0,0 2.322,2.039 5.229,5.383 -0.119,2.911 -0.426,5.95 -0.93,9.12 -0.512,3.226 -1.206,6.573 -2.465,10.302 L -53.943,-30.02 c 3.913,0.241 7.264,0.86 10.439,1.598 3.177,0.737 6.146,1.615 8.928,2.618 0.669,0.244 1.328,0.494 1.979,0.75 -2.301,0.416 -4.678,1.064 -6.517,2.083 0,0 6.153,-0.396 13.497,1.056 2.067,1.055 4.038,2.176 5.904,3.366 1.636,1.033 3.181,2.127 4.683,3.25 -2.595,0.402 -5.403,1.082 -7.507,2.249 0,0 4.873,-0.317 11.121,0.636 3.351,2.866 6.345,5.972 9.026,9.289 -2.328,-0.188 -4.771,-0.178 -6.793,0.307 0,0 4.017,0.791 9.183,2.818"
                   style="fill:#0044a4;fill-opacity:1;fill-rule:nonzero;stroke:none"
                   id="path100" />
              </g>
            </g>
          </g>
        </g>
        <g
           id="g108"
           transform="translate(479.709,83.3876)">
          <path
             d="m 0,0 c 0,-9.424 -102.845,-17.063 -229.709,-17.063 -126.865,0 -229.708,7.639 -229.708,17.063 0,9.425 102.843,17.064 229.708,17.064 C -102.845,17.064 0,9.425 0,0"
             style="fill:#ecf0fd;fill-opacity:1;fill-rule:nonzero;stroke:none"
             id="path110" />
        </g>
        <path
           d="M 420.413,92.427 H 128.93 V 353.91 h 291.483 z"
           style="fill:#f4f9ff;fill-opacity:1;fill-rule:nonzero;stroke:none"
           id="path112" />
        <path
           d="M 420.413,322.988 H 128.93 v 30.922 h 291.483 z"
           style="fill:#cddcf8;fill-opacity:1;fill-rule:nonzero;stroke:none"
           id="path114" />
        <g
           id="g116"
           transform="translate(152.4473,338.4492)">
          <path
             d="m 0,0 c 0,-3.28 -2.66,-5.939 -5.94,-5.939 -3.28,0 -5.939,2.659 -5.939,5.939 0,3.28 2.659,5.939 5.939,5.939 C -2.66,5.939 0,3.28 0,0"
             style="fill:#ff735e;fill-opacity:1;fill-rule:nonzero;stroke:none"
             id="path118" />
        </g>
        <g
           id="g120"
           transform="translate(172.4473,338.4492)">
          <path
             d="m 0,0 c 0,-3.28 -2.66,-5.939 -5.94,-5.939 -3.28,0 -5.939,2.659 -5.939,5.939 0,3.28 2.659,5.939 5.939,5.939 C -2.66,5.939 0,3.28 0,0"
             style="fill:#ffad36;fill-opacity:1;fill-rule:nonzero;stroke:none"
             id="path122" />
        </g>
        <g
           id="g124"
           transform="translate(192.4473,338.4492)">
          <path
             d="m 0,0 c 0,-3.28 -2.66,-5.939 -5.94,-5.939 -3.28,0 -5.939,2.659 -5.939,5.939 0,3.28 2.659,5.939 5.939,5.939 C -2.66,5.939 0,3.28 0,0"
             style="fill:#6680e1;fill-opacity:1;fill-rule:nonzero;stroke:none"
             id="path126" />
        </g>
        <g
           id="g128"
           transform="translate(377.7012,233.7138)">
          <path
             d="m 0,0 c 1.396,3.542 -0.575,6.44 -4.383,6.44 h -140.3 c -3.807,0 -8.065,-2.898 -9.462,-6.44 l -31.099,-78.866 c -1.396,-3.542 0.576,-6.44 4.383,-6.44 h 140.3 c 3.807,0 8.065,2.898 9.461,6.44 z"
             style="fill:#ffd06e;fill-opacity:1;fill-rule:nonzero;stroke:none"
             id="path130" />
        </g>
        <g
           id="g132"
           transform="translate(185.7319,161.5732)">
          <path
             d="m 0,0 31.099,78.867 c 1.397,3.541 5.654,6.44 9.462,6.44 h 110.137 v 6.988 c 0,3.808 -3.115,6.922 -6.922,6.922 h -49.13 c -3.808,0 -8.408,2.738 -10.225,6.084 l -6.689,12.323 c -1.816,3.346 -6.418,6.083 -10.225,6.083 H 4.383 c -3.807,0 -6.923,-3.115 -6.923,-6.922 V 0.482 c 0,-3.343 2.404,-6.151 5.567,-6.786 C 0.13,-5.694 -1.22,-3.093 0,0"
             style="fill:#ffd06e;fill-opacity:1;fill-rule:nonzero;stroke:none"
             id="path134" />
        </g>
        <g
           id="g136"
           transform="translate(300.4678,183.1416)">
          <path
             d="m 0,0 -3.77,-3.769 -9.029,9.03 -9.03,-9.03 -3.769,3.769 9.03,9.029 -9.03,9.03 3.769,3.769 9.03,-9.029 9.029,9.029 L 0,18.059 -9.03,9.029 Z m -12.799,35.188 c -14.446,0 -26.158,-11.712 -26.158,-26.159 0,-14.446 11.712,-26.157 26.158,-26.157 14.446,0 26.157,11.711 26.157,26.157 0,14.447 -11.711,26.159 -26.157,26.159"
             style="fill:#ff735e;fill-opacity:1;fill-rule:nonzero;stroke:none"
             id="path138" />
        </g>
        <g
           id="g140"
           transform="translate(200.5229,91.4843)">
          <path
             d="m 0,0 c 0,-6.846 -30.876,-12.395 -75.852,-12.395 -44.975,0 -75.851,5.549 -75.851,12.395 0,6.845 30.876,12.394 75.851,12.394 C -30.876,12.394 0,6.845 0,0"
             style="fill:#ff735e;fill-opacity:1;fill-rule:nonzero;stroke:none"
             id="path142" />
        </g>
        <g
           id="g144"
           transform="translate(145.9927,247.164)">
          <path
             d="m 0,0 h -21.321 -21.322 l -32.738,-152.966 c 27.154,-5.852 54.06,-5.852 54.06,-5.852 0,0 26.905,0 54.059,5.852 z"
             style="fill:#ffd06e;fill-opacity:1;fill-rule:nonzero;stroke:none"
             id="path146" />
        </g>
        <g
           id="g148"
           transform="translate(145.9927,247.164)">
          <path
             d="m 0,0 c 0,-1.792 -9.546,-3.245 -21.321,-3.245 -11.776,0 -21.322,1.453 -21.322,3.245 0,1.792 9.546,3.245 21.322,3.245 C -9.546,3.245 0,1.792 0,0"
             style="fill:#ff735e;fill-opacity:1;fill-rule:nonzero;stroke:none"
             id="path150" />
        </g>
      </g>
    </g>
    <g
       id="g152">
      <g
         id="g154"
         clip-path="url(#clipPath158)">
        <g
           id="g160"
           transform="translate(123.7427,100.9248)">
          <path
             d="m 0,0 c -43.89,0 -73.529,7.335 -75.37,7.803 l 6.106,24.047 -3.053,-12.024 3.04,12.027 c 0.629,-0.159 63.888,-15.662 141.086,0.126 L 76.78,7.672 C 48.669,1.923 22.466,0 0,0"
             style="fill:#ffad36;fill-opacity:1;fill-rule:nonzero;stroke:none"
             id="path162" />
        </g>
        <g
           id="g164"
           transform="translate(123.7427,154.9033)">
          <path
             d="m 0,0 c -43.89,0 -73.529,7.336 -75.37,7.803 l 6.106,24.047 -3.053,-12.024 3.04,12.028 C -68.648,31.695 -5.389,16.192 71.809,31.98 L 76.78,7.673 C 48.669,1.923 22.466,0 0,0"
             style="fill:#ffad36;fill-opacity:1;fill-rule:nonzero;stroke:none"
             id="path166" />
        </g>
        <g
           id="g168"
           transform="translate(123.7427,208.8818)">
          <path
             d="m 0,0 c -43.89,0 -73.529,7.336 -75.37,7.804 l 6.106,24.047 -3.053,-12.024 3.04,12.027 C -68.648,31.695 -5.389,16.192 71.809,31.98 L 76.78,7.673 C 48.669,1.924 22.466,0 0,0"
             style="fill:#ffad36;fill-opacity:1;fill-rule:nonzero;stroke:none"
             id="path170" />
        </g>
      </g>
    </g>
    <g
       id="g172">
      <g
         id="g174"
         clip-path="url(#clipPath178)">
        <g
           id="g180">
          <g
             id="g182" />
          <g
             id="g194">
            <g
               clip-path="url(#clipPath186)"
               opacity="0.100006"
               id="g192">
              <g
                 transform="translate(151.3228,173.3584)"
                 id="g190">
                <path
                   d="m 0,0 c 0,-33.261 -6.885,-63.305 -17.958,-84.764 10.109,0.464 27.682,1.792 45.366,5.604 L -5.33,73.806 h -7.638 C -4.855,53.59 0,27.931 0,0"
                   style="fill:#0044a4;fill-opacity:1;fill-rule:nonzero;stroke:none"
                   id="path188" />
              </g>
            </g>
          </g>
        </g>
        <g
           id="g196">
          <g
             id="g198" />
          <g
             id="g210">
            <g
               clip-path="url(#clipPath202)"
               opacity="0.300003"
               id="g208">
              <g
                 transform="translate(105.6655,223.5634)"
                 id="g206">
                <path
                   d="m 0,0 -2.338,-11.276 c -1.871,-9.029 -3.744,-18.058 -5.615,-27.086 -2.276,-10.977 -4.551,-21.953 -6.827,-32.93 -1.958,-9.445 -3.917,-18.891 -5.875,-28.336 -0.948,-4.573 -2.118,-9.159 -2.855,-13.772 -0.011,-0.065 -0.027,-0.129 -0.041,-0.194 -0.783,-3.781 5.109,-4.853 5.89,-1.084 0.78,3.758 1.559,7.517 2.338,11.276 1.872,9.028 3.744,18.057 5.615,27.086 2.276,10.976 4.552,21.953 6.828,32.929 1.958,9.446 3.916,18.891 5.874,28.336 0.948,4.573 2.118,9.159 2.856,13.773 0.01,0.065 0.026,0.13 0.04,0.194 C 6.674,2.696 0.782,3.77 0,0"
                   style="fill:#ffffff;fill-opacity:1;fill-rule:nonzero;stroke:none"
                   id="path204" />
              </g>
            </g>
          </g>
        </g>
        <g
           id="g212"
           transform="translate(407.1455,124.8203)">
          <path
             d="m 0,0 -141.392,-40.366 -2.479,8.684 141.392,40.367 z"
             style="fill:#6680e1;fill-opacity:1;fill-rule:nonzero;stroke:none"
             id="path214" />
        </g>
        <g
           id="g216"
           transform="translate(407.1455,124.8203)">
          <path
             d="m 0,0 -64.478,-18.408 -2.479,8.684 64.478,18.409 z"
             style="fill:#ff735e;fill-opacity:1;fill-rule:nonzero;stroke:none"
             id="path218" />
        </g>
        <g
           id="g220"
           transform="translate(449.4297,141.5878)">
          <path
             d="m 0,0 c 6.862,-24.037 -7.061,-49.086 -31.098,-55.948 -24.037,-6.863 -49.086,7.06 -55.948,31.097 -6.862,24.038 7.061,49.086 31.098,55.949 C -31.911,37.96 -6.862,24.037 0,0"
             style="fill:#ff735e;fill-opacity:1;fill-rule:nonzero;stroke:none"
             id="path222" />
        </g>
        <g
           id="g224"
           transform="translate(440.9414,139.165)">
          <path
             d="m 0,0 c 5.523,-19.35 -5.684,-39.513 -25.032,-45.037 -19.35,-5.525 -39.513,5.683 -45.037,25.032 -5.525,19.35 5.683,39.513 25.032,45.037 C -25.687,30.556 -5.524,19.349 0,0"
             style="fill:#cddcf8;fill-opacity:1;fill-rule:nonzero;stroke:none"
             id="path226" />
        </g>
        <g
           id="g228"
           transform="translate(433.2939,136.9814)">
          <path
             d="M 0,0 -4.343,-1.239 C -7.97,11.467 -21.26,18.854 -33.967,15.226 l -1.239,4.341 C -20.104,23.879 -4.312,15.101 0,0"
             style="fill:#ffffff;fill-opacity:1;fill-rule:nonzero;stroke:none"
             id="path230" />
        </g>
        <g
           id="g232"
           transform="translate(372.1729,355.5581)">
          <path
             d="m 0,0 -43.321,13.134 -26.05,-85.924 67.315,-20.408 18.98,62.605 z"
             style="fill:#e1e7ff;fill-opacity:1;fill-rule:nonzero;stroke:none"
             id="path234" />
        </g>
        <g
           id="g236"
           transform="translate(367.7969,321.5952)">
          <path
             d="m 0,0 -3.096,5.79 -13.87,-7.416 -7.417,13.869 -5.789,-3.096 7.417,-13.869 -13.87,-7.417 3.096,-5.789 13.87,7.417 7.417,-13.87 5.789,3.096 -7.417,13.869 z"
             style="fill:#c8d3fb;fill-opacity:1;fill-rule:nonzero;stroke:none"
             id="path238" />
        </g>
        <g
           id="g240"
           transform="translate(257.2139,414.3921)">
          <path
             d="m 0,0 -43.982,-10.714 21.249,-87.235 68.341,16.648 -15.482,63.559 z"
             style="fill:#e1e7ff;fill-opacity:1;fill-rule:nonzero;stroke:none"
             id="path242" />
        </g>
        <g
           id="g244"
           transform="translate(270.7109,382.9204)">
          <path
             d="m 0,0 -5.608,3.412 -8.174,-13.438 -13.439,8.173 -3.411,-5.608 13.438,-8.173 -8.174,-13.438 5.609,-3.411 8.174,13.437 13.438,-8.173 3.411,5.609 -13.438,8.173 z"
             style="fill:#c8d3fb;fill-opacity:1;fill-rule:nonzero;stroke:none"
             id="path246" />
        </g>
        <g
           id="g248"
           transform="translate(411.3369,406.5371)">
          <path
             d="M 0,0 H -11.181 V 11.181 H -15.16 V 0 h -11.18 v -3.979 h 11.18 v -11.18 h 3.979 v 11.18 l 11.181,0 z"
             style="fill:#e1e7ff;fill-opacity:1;fill-rule:nonzero;stroke:none"
             id="path250" />
        </g>
        <g
           id="g252"
           transform="translate(436.3779,368.0674)">
          <path
             d="M 0,0 H -6.091 V 6.09 H -8.258 V 0 h -6.09 v -2.167 h 6.09 v -6.09 h 2.167 v 6.09 H 0 Z"
             style="fill:#e1e7ff;fill-opacity:1;fill-rule:nonzero;stroke:none"
             id="path254" />
        </g>
        <g
           id="g256"
           transform="translate(369.1719,378.6928)">
          <path
             d="M 0,0 H -7.376 V 7.375 H -10 V 0 h -7.375 V -2.625 H -10 V -10 h 2.624 v 7.375 H 0 Z"
             style="fill:#e1e7ff;fill-opacity:1;fill-rule:nonzero;stroke:none"
             id="path258" />
        </g>
        <g
           id="g260"
           transform="translate(89.9624,379.8427)">
          <path
             d="m 0,0 h -11.181 v 11.181 h -3.98 V 0 H -26.34 v -3.979 h 11.179 V -15.16 h 3.98 v 11.181 l 11.181,0 z"
             style="fill:#e1e7ff;fill-opacity:1;fill-rule:nonzero;stroke:none"
             id="path262" />
        </g>
        <g
           id="g264"
           transform="translate(138.7627,386.5161)">
          <path
             d="M 0,0 H -6.09 V 6.09 H -8.258 V 0 h -6.089 v -2.167 h 6.089 v -6.09 h 2.168 v 6.09 H 0 Z"
             style="fill:#e1e7ff;fill-opacity:1;fill-rule:nonzero;stroke:none"
             id="path266" />
        </g>
        <g
           id="g268"
           transform="translate(101.6851,336.8535)">
          <path
             d="M 0,0 H -7.375 V 7.375 H -10 V 0 h -7.375 V -2.625 H -10 v -7.374 h 2.625 v 7.374 H 0 Z"
             style="fill:#e1e7ff;fill-opacity:1;fill-rule:nonzero;stroke:none"
             id="path270" />
        </g>
        <g
           id="g272"
           transform="translate(346.5303,425.0444)">
          <path
             d="m 0,0 c 0,-1.338 -1.086,-2.424 -2.424,-2.424 -1.339,0 -2.424,1.086 -2.424,2.424 0,1.338 1.085,2.424 2.424,2.424 C -1.086,2.424 0,1.338 0,0"
             style="fill:#c8d3fb;fill-opacity:1;fill-rule:nonzero;stroke:none"
             id="path274" />
        </g>
        <g
           id="g276"
           transform="translate(455.9824,337.8974)">
          <path
             d="m 0,0 c 0,-2.535 -2.055,-4.59 -4.59,-4.59 -2.535,0 -4.59,2.055 -4.59,4.59 0,2.535 2.055,4.59 4.59,4.59 C -2.055,4.59 0,2.535 0,0"
             style="fill:#c8d3fb;fill-opacity:1;fill-rule:nonzero;stroke:none"
             id="path278" />
        </g>
        <g
           id="g280"
           transform="translate(310.6934,399.7671)">
          <path
             d="m 0,0 c 0,-1.338 -1.085,-2.423 -2.424,-2.423 -1.339,0 -2.424,1.085 -2.424,2.423 0,1.339 1.085,2.424 2.424,2.424 C -1.085,2.424 0,1.339 0,0"
             style="fill:#c8d3fb;fill-opacity:1;fill-rule:nonzero;stroke:none"
             id="path282" />
        </g>
        <g
           id="g284"
           transform="translate(172.6587,425.0444)">
          <path
             d="m 0,0 c 0,-2.535 -2.055,-4.59 -4.589,-4.59 -2.536,0 -4.591,2.055 -4.591,4.59 0,2.535 2.055,4.59 4.591,4.59 C -2.055,4.59 0,2.535 0,0"
             style="fill:#c8d3fb;fill-opacity:1;fill-rule:nonzero;stroke:none"
             id="path286" />
        </g>
        <g
           id="g288"
           transform="translate(190.4927,376.3803)">
          <path
             d="m 0,0 c 0,-1.338 -1.085,-2.423 -2.424,-2.423 -1.338,0 -2.423,1.085 -2.423,2.423 0,1.339 1.085,2.424 2.423,2.424 C -1.085,2.424 0,1.339 0,0"
             style="fill:#c8d3fb;fill-opacity:1;fill-rule:nonzero;stroke:none"
             id="path290" />
        </g>
        <g
           id="g292"
           transform="translate(48.8652,329.4433)">
          <path
             d="m 0,0 c 0,-1.338 -1.085,-2.424 -2.424,-2.424 -1.338,0 -2.423,1.086 -2.423,2.424 0,1.339 1.085,2.424 2.423,2.424 C -1.085,2.424 0,1.339 0,0"
             style="fill:#c8d3fb;fill-opacity:1;fill-rule:nonzero;stroke:none"
             id="path294" />
        </g>
      </g>
    </g>
  </g>
</svg>
