<?xml version="1.0" encoding="utf-8"?>
<!-- Generator: Adobe Illustrator 19.0.0, SVG Export Plug-In . SVG Version: 6.00 Build 0)  -->
<svg version="1.1" id="layer" xmlns="http://www.w3.org/2000/svg" xmlns:xlink="http://www.w3.org/1999/xlink" x="0px" y="0px"
	 viewBox="-153 -46 652 652" style="enable-background:new -153 -46 652 652;" xml:space="preserve">
<style type="text/css">
	.st0{fill:#06BFFC;}
	.st1{fill:#0063FC;}
	.st2{fill:#FFFFFF;}
</style>
<path class="st0" d="M454.3,359.8V190.2c0-3.3-2.6-6.2-6.2-6.2H83.2c-3.3,0-6.2,2.6-6.2,6.2v175.4h371.4
	C451.7,365.7,454.3,363,454.3,359.8"/>
<path class="st1" d="M-58.6,184.3h-53.8c-3.3,0-5.9,2.6-5.9,5.9v169.6c0,3.3,2.6,6.2,6.2,6.2H63.7v-60
	C63.3,238.8,8.9,184.3-58.6,184.3"/>
<path class="st2" d="M448.4,170.7H83.2c-10.8,0-19.6,8.8-19.6,19.6V247c-22.2-45-68.8-76.3-122.3-76.3h-53.8
	c-10.8,0-19.6,8.8-19.6,19.6v169.6c0,10.8,8.8,19.6,19.6,19.6h560.9c10.8,0,19.6-8.8,19.6-19.6V190.2
	C468,179.5,459.2,170.7,448.4,170.7 M454.3,359.8c0,3.3-2.6,6.2-6.2,6.2H77V190.2c0-3.3,2.6-6.2,6.2-6.2h365.2
	c3.3,0,6.2,2.6,6.2,6.2v169.6H454.3z M-118.3,359.8V190.2c0-3.3,2.6-5.9,5.9-5.9h53.8c67.2,0,122,54.8,122,122V366h-175.8
	C-115.7,365.7-118.3,363-118.3,359.8"/>
<path class="st2" d="M227,239.5h-13.7c-2.3,0-3.9,1.6-3.9,3.9v62.9c0,2.3,1.6,3.9,3.9,3.9H227c2.3,0,3.9-1.6,3.9-3.9v-62.9
	C230.9,241.4,229,239.5,227,239.5 M187.9,239.5h-49.2c-2.3,0-3.9,1.6-3.9,3.9v62.9c0,2.3,1.6,3.9,3.9,3.9h13.7
	c2.3,0,3.9-1.6,3.9-3.9v-13h25.1c2.3,0,3.9-1.6,3.9-3.9v-10.4c0-2.3-1.6-3.9-3.9-3.9h-25.1v-16h31.6c2.3,0,3.9-1.6,3.9-3.9V243
	C191.8,241.4,189.8,239.5,187.9,239.5 M392.7,239.5H379c-2.3,0-3.9,1.6-3.9,3.9v31l-21.5-32.6c-1-1.3-2.6-2.3-4.2-2.3h-10.4
	c-2.3,0-3.9,1.6-3.9,3.9v62.9c0,2.3,1.6,3.9,3.9,3.9h13.7c2.3,0,3.9-1.6,3.9-3.9v-30.7l21.2,32c1,1.3,2.6,2.3,4.2,2.3H393
	c2.3,0,3.9-1.6,3.9-3.9v-62.6C396.6,241.4,395,239.5,392.7,239.5 M309.8,239.5h-13.7c-2.3,0-3.9,1.6-3.9,3.9v31l-21.5-32.6
	c-1-1.3-2.6-2.3-4.2-2.3H256c-2.3,0-3.9,1.6-3.9,3.9v62.9c0,2.3,1.6,3.9,3.9,3.9h13.7c2.3,0,3.9-1.6,3.9-3.9v-30.7l21.2,32
	c1,1.3,2.6,2.3,4.2,2.3h11.1c2.3,0,3.9-1.6,3.9-3.9v-62.6C313.8,241.4,312.1,239.5,309.8,239.5"/>
</svg>
