<?xml version="1.0" encoding="UTF-8" standalone="no"?>
<!-- Created with Inkscape (http://www.inkscape.org/) -->

<svg
   version="1.1"
   id="svg2"
   width="2730.6667"
   height="2730.6667"
   viewBox="0 0 2730.6667 2730.6667"
   sodipodi:docname="life_style_working_01.eps"
   xmlns:inkscape="http://www.inkscape.org/namespaces/inkscape"
   xmlns:sodipodi="http://sodipodi.sourceforge.net/DTD/sodipodi-0.dtd"
   xmlns="http://www.w3.org/2000/svg"
   xmlns:svg="http://www.w3.org/2000/svg">
  <defs
     id="defs6">
    <clipPath
       clipPathUnits="userSpaceOnUse"
       id="clipPath112">
      <path
         d="m 11278,10046.1 1671.1,-618.2 v -225.6 l -1300.9,160.2 c -211.4,26.1 -370.2,205.7 -370.2,418.7 z"
         id="path110" />
    </clipPath>
    <linearGradient
       x1="0"
       y1="0"
       x2="1"
       y2="0"
       gradientUnits="userSpaceOnUse"
       gradientTransform="matrix(-2314.6,450.06,450.06,2314.6,13414.4,9324.4)"
       spreadMethod="pad"
       id="linearGradient124">
      <stop
         style="stop-opacity:1;stop-color:#ffacac"
         offset="0"
         id="stop114" />
      <stop
         style="stop-opacity:1;stop-color:#ffacac"
         offset="0.163405"
         id="stop116" />
      <stop
         style="stop-opacity:1;stop-color:#ffacac"
         offset="0.3745366"
         id="stop118" />
      <stop
         style="stop-opacity:1;stop-color:#fa6964"
         offset="0.810084"
         id="stop120" />
      <stop
         style="stop-opacity:1;stop-color:#fa6964"
         offset="1"
         id="stop122" />
    </linearGradient>
    <clipPath
       clipPathUnits="userSpaceOnUse"
       id="clipPath134">
      <path
         d="m 10007.1,9447.7 -40.74,-722.2 h 1390.74 l 77.4,722.2 z"
         id="path132" />
    </clipPath>
    <linearGradient
       x1="0"
       y1="0"
       x2="1"
       y2="0"
       gradientUnits="userSpaceOnUse"
       gradientTransform="matrix(-7.67346,1166.49,1166.49,7.67346,10704.3,8495.2)"
       spreadMethod="pad"
       id="linearGradient146">
      <stop
         style="stop-opacity:1;stop-color:#ffacaa"
         offset="0"
         id="stop136" />
      <stop
         style="stop-opacity:1;stop-color:#ffacaa"
         offset="0.343433"
         id="stop138" />
      <stop
         style="stop-opacity:1;stop-color:#ffacaa"
         offset="0.54200513"
         id="stop140" />
      <stop
         style="stop-opacity:1;stop-color:#fb6b67"
         offset="0.84934"
         id="stop142" />
      <stop
         style="stop-opacity:1;stop-color:#fb6b67"
         offset="1"
         id="stop144" />
    </linearGradient>
    <clipPath
       clipPathUnits="userSpaceOnUse"
       id="clipPath156">
      <path
         d="m 11882.2,5899.9 -27,-327.5 c 0,0 -231.8,-69.5 -144.8,-211.1 86.9,-141.6 186.3,-192 180.3,-357.2 -6,-165.2 25.2,-353.2 137.9,-442.6 0,0 -58.2,-139.4 122.4,-200.4 l 293.7,1521.4 z"
         id="path154" />
    </clipPath>
    <linearGradient
       x1="0"
       y1="0"
       x2="1"
       y2="0"
       gradientUnits="userSpaceOnUse"
       gradientTransform="matrix(331.678,2056.42,2056.42,-331.678,11810.9,4063.8)"
       spreadMethod="pad"
       id="linearGradient168">
      <stop
         style="stop-opacity:1;stop-color:#ffacac"
         offset="0"
         id="stop158" />
      <stop
         style="stop-opacity:1;stop-color:#ffacac"
         offset="0.300635"
         id="stop160" />
      <stop
         style="stop-opacity:1;stop-color:#ffacac"
         offset="0.44368253"
         id="stop162" />
      <stop
         style="stop-opacity:1;stop-color:#fa6964"
         offset="0.738778"
         id="stop164" />
      <stop
         style="stop-opacity:1;stop-color:#fa6964"
         offset="1"
         id="stop166" />
    </linearGradient>
    <clipPath
       clipPathUnits="userSpaceOnUse"
       id="clipPath184">
      <path
         d="m 9427.88,10458.3 -214.81,-691.1 68.82,-18.4 c 220.25,-59.1 448.44,63.3 521.12,279.5 l 82.03,243.9 z"
         id="path182" />
    </clipPath>
    <linearGradient
       x1="0"
       y1="0"
       x2="1"
       y2="0"
       gradientUnits="userSpaceOnUse"
       gradientTransform="matrix(220.861,705.89,705.89,-220.861,9429.64,9640.3)"
       spreadMethod="pad"
       id="linearGradient194">
      <stop
         style="stop-opacity:1;stop-color:#ffacac"
         offset="0"
         id="stop186" />
      <stop
         style="stop-opacity:1;stop-color:#ffacac"
         offset="0.25939"
         id="stop188" />
      <stop
         style="stop-opacity:1;stop-color:#fa6964"
         offset="0.92417466"
         id="stop190" />
      <stop
         style="stop-opacity:1;stop-color:#fa6964"
         offset="1"
         id="stop192" />
    </linearGradient>
    <clipPath
       clipPathUnits="userSpaceOnUse"
       id="clipPath204">
      <path
         d="m 11102.8,10191.3 c -85.5,19.1 -282.5,-92.6 -282.5,-92.6 l -213.5,-36.2 -0.1,0.2 L 9379.93,9895 c -241.95,-33 -246.86,-382.9 -5.61,-420.8 392.87,-61.5 1156.78,310.9 1275.18,370.1 124.2,-118.4 293,14.9 293,14.9 l 53.5,-12.1 17.2,-25 c 24.1,-35.2 76.9,-35.7 100.2,0 6.3,9.9 9.9,17.2 9.9,17.2 73.2,5.9 59,79 59,79 76.3,10.5 53.7,76.4 53.7,76.4 120.4,40 -47.7,177.6 -133.2,196.6 z"
         id="path202" />
    </clipPath>
    <linearGradient
       x1="0"
       y1="0"
       x2="1"
       y2="0"
       gradientUnits="userSpaceOnUse"
       gradientTransform="matrix(-2124.6,543.5,543.5,2124.6,11023.2,9631.5)"
       spreadMethod="pad"
       id="linearGradient216">
      <stop
         style="stop-opacity:1;stop-color:#ffacac"
         offset="0"
         id="stop206" />
      <stop
         style="stop-opacity:1;stop-color:#ffacac"
         offset="0.300635"
         id="stop208" />
      <stop
         style="stop-opacity:1;stop-color:#ffacac"
         offset="0.44368253"
         id="stop210" />
      <stop
         style="stop-opacity:1;stop-color:#fa6964"
         offset="0.738778"
         id="stop212" />
      <stop
         style="stop-opacity:1;stop-color:#fa6964"
         offset="1"
         id="stop214" />
    </linearGradient>
    <clipPath
       clipPathUnits="userSpaceOnUse"
       id="clipPath232">
      <path
         d="m 10775.3,11081.7 v 0 c -135.3,24.3 -216.2,175.5 -173.1,323 l 168.4,341.6 300.5,-58.7 -20.9,-363.6 c -11,-153.3 -139.7,-266.7 -274.9,-242.3 z"
         id="path230" />
    </clipPath>
    <linearGradient
       x1="0"
       y1="0"
       x2="1"
       y2="0"
       gradientUnits="userSpaceOnUse"
       gradientTransform="matrix(143.592,796.553,796.553,-143.592,10745.9,10919.1)"
       spreadMethod="pad"
       id="linearGradient244">
      <stop
         style="stop-opacity:1;stop-color:#ffacac"
         offset="0"
         id="stop234" />
      <stop
         style="stop-opacity:1;stop-color:#ffacac"
         offset="0.0416207"
         id="stop236" />
      <stop
         style="stop-opacity:1;stop-color:#ffacac"
         offset="0.28841217"
         id="stop238" />
      <stop
         style="stop-opacity:1;stop-color:#fa6964"
         offset="0.797523"
         id="stop240" />
      <stop
         style="stop-opacity:1;stop-color:#fa6964"
         offset="1"
         id="stop242" />
    </linearGradient>
    <clipPath
       clipPathUnits="userSpaceOnUse"
       id="clipPath254">
      <path
         d="m 10970.8,11959 c 59.8,27 107.1,79.8 141.8,131.3 -87.7,-44.5 -218.7,-84 -395.7,-73.7 l -7.4,-30.5 c -3.1,0.4 -6.1,1.3 -9.3,1.5 -57.2,3.2 -106.2,-40.4 -109.5,-97.6 -2.7,-47.8 27.5,-89.4 70.8,-103.9 l -8.9,-37 c -36.5,-151.8 57,-304.4 208.8,-340.8 151.8,-36.5 304.4,57 340.9,208.8 l 65.8,274 c 17,70.9 5.4,141.8 -26.9,201.1 -91,-106.3 -270.4,-133.2 -270.4,-133.2 z"
         id="path252" />
    </clipPath>
    <linearGradient
       x1="0"
       y1="0"
       x2="1"
       y2="0"
       gradientUnits="userSpaceOnUse"
       gradientTransform="matrix(82.2236,1093.09,1093.09,-82.2236,10866.3,11027)"
       spreadMethod="pad"
       id="linearGradient266">
      <stop
         style="stop-opacity:1;stop-color:#ffacac"
         offset="0"
         id="stop256" />
      <stop
         style="stop-opacity:1;stop-color:#ffacac"
         offset="0.0416207"
         id="stop258" />
      <stop
         style="stop-opacity:1;stop-color:#ffacac"
         offset="0.32226583"
         id="stop260" />
      <stop
         style="stop-opacity:1;stop-color:#fa6964"
         offset="0.901214"
         id="stop262" />
      <stop
         style="stop-opacity:1;stop-color:#fa6964"
         offset="1"
         id="stop264" />
    </linearGradient>
    <clipPath
       clipPathUnits="userSpaceOnUse"
       id="clipPath276">
      <path
         d="m 13465,5778.2 193,-365.8 668.7,11 c 0,0 192.6,-24.3 70.5,-133.7 l -879.5,-463.9 c 0,0 -192.9,-128.7 -299.9,210.5 l -262.2,473.3 z"
         id="path274" />
    </clipPath>
    <linearGradient
       x1="0"
       y1="0"
       x2="1"
       y2="0"
       gradientUnits="userSpaceOnUse"
       gradientTransform="matrix(-149.805,1352.95,-1352.95,-149.805,13794.3,4551.7)"
       spreadMethod="pad"
       id="linearGradient288">
      <stop
         style="stop-opacity:1;stop-color:#ffacac"
         offset="0"
         id="stop278" />
      <stop
         style="stop-opacity:1;stop-color:#ffacac"
         offset="0.300635"
         id="stop280" />
      <stop
         style="stop-opacity:1;stop-color:#ffacac"
         offset="0.44368253"
         id="stop282" />
      <stop
         style="stop-opacity:1;stop-color:#fa6964"
         offset="0.738778"
         id="stop284" />
      <stop
         style="stop-opacity:1;stop-color:#fa6964"
         offset="1"
         id="stop286" />
    </linearGradient>
  </defs>
  <sodipodi:namedview
     id="namedview4"
     pagecolor="#ffffff"
     bordercolor="#000000"
     borderopacity="0.25"
     inkscape:showpageshadow="2"
     inkscape:pageopacity="0.0"
     inkscape:pagecheckerboard="0"
     inkscape:deskcolor="#d1d1d1" />
  <g
     id="g8"
     inkscape:groupmode="layer"
     inkscape:label="ink_ext_XXXXXX"
     transform="matrix(1.3333333,0,0,-1.3333333,0,2730.6667)">
    <g
       id="g10"
       transform="scale(0.1)">
      <path
         d="M 20480,0 H 0 V 20480 H 20480 V 0"
         style="fill:#4c9aff;fill-opacity:1;fill-rule:nonzero;stroke:none"
         id="path12" />
      <path
         d="m 17572.6,4349.9 c 858.6,1279.9 1359.5,2820 1359.5,4477 0,4444.2 -3602.7,8046.9 -8046.9,8046.9 -4444.15,0 -8046.84,-3602.7 -8046.84,-8046.9 0,-1666.5 506.63,-3214.8 1374.28,-4499.1 l 13359.96,22.1"
         style="fill:#e6eff2;fill-opacity:1;fill-rule:nonzero;stroke:none"
         id="path14" />
      <path
         d="m 5079.91,8812.5 c -138.59,374.2 -360.89,1073.9 -535.8,1599.7 v 0 c 0,0 51.36,396.4 20.93,749 151.49,-111.1 319.49,-165.3 403.69,-187.2 103.77,-428.2 462.2,-2623.8 462.2,-2623.8 0,-189.5 0,-369.6 0,-518.3 -139.33,352 -185.55,533.8 -351.02,980.6 z m 205.26,2904.8 c 61.45,-93.2 124.27,-166.2 171.52,-215.7 -24.57,-644 -25.7,-1460.1 -25.76,-1815 -122.58,577.2 -244.68,1027.1 -339.37,1341.2 121.07,151.7 182.51,437.1 193.61,689.5 z m 473.72,-4797 c -0.98,-3.3 -1.97,-6.5 -2.95,-9.8 -0.57,3 -1.24,6.1 -1.84,9.2 z M 9550.27,11920 c -371.67,-20.6 -309.73,0 -929.18,62 -619.44,61.9 -702.04,-495.6 -929.17,-598.8 -227.13,-103.3 -412.96,-268.4 -691.72,-607.8 -240.32,-292.5 -122.19,-917.6 -85.03,-1084.6 -255.84,-513.4 -501.73,-1124.5 -586.04,-1714.6 -47.22,-330.5 -164.96,-760.2 -302.11,-1189 134.23,761 334,1900.6 374.38,2169.8 36.21,241.4 150.04,821.4 279.6,1331.8 h 0.01 l 0.13,0.6 c 77.36,304.7 160.3,584.4 235.7,752.5 712.11,232.1 950.59,971 950.59,971 557.51,41.3 557.51,392.4 743.34,371.7 185.83,-20.6 330.37,103.3 495.56,165.2 165.18,62 309.72,-20.6 619.45,0 309.72,20.6 247.78,82.6 408.82,63.4 161.1,-19.1 344.8,-135.7 344.8,-135.7 -206.4,495.6 -1197.56,536.9 -1730.43,475.1 -532.88,-61.7 -478.9,-392.5 -932.75,-537 -453.85,-144.5 -1115.42,-722.7 -1280.6,-1094.4 -116.28,-261.6 3.12,-666.2 84.05,-883 -7.63,-28.8 -15.13,-57.9 -22.11,-87.4 -351.02,-1486.7 -516.21,-2168.1 -516.21,-2168.1 0,0 -95.23,-444.9 -226.21,-926.4 -6.79,91.6 -16.9,208.7 -31.89,358.6 -61.95,619.4 247.78,2746.2 309.72,3117.9 21.38,128.2 84.54,364.6 158.11,619.3 0.14,0.2 502.68,784.8 791.71,957.1 289.08,172.4 433.62,674.2 660.75,942.7 208.74,246.6 225.81,197 435.53,283.5 84.83,-64.2 204.56,-138 318.13,-149.3 206.49,-20.7 233.36,123.8 426.41,0 193.04,-123.9 69.15,-185.9 316.93,-206.5 247.79,-20.7 660.75,-144.6 660.75,-144.6 0,0 -227.13,289.1 -330.37,433.7 -103.24,144.5 -61.95,185.8 -247.79,247.7 -185.83,62 -29.33,343.7 -634.11,285.5 -196.78,-1.3 -494.85,3.5 -689.2,37.6 -311.54,54.6 -617.63,-219.8 -917.03,-270.4 -299.4,-50.6 -381.99,-424.3 -595.58,-698.5 -213.6,-274.1 -116.79,-365.9 -441.75,-655 -324.96,-289.1 -36.75,-645.2 -36.75,-645.2 -50.35,-146.6 43.61,-414.7 106.07,-565.6 -172.49,-737 -365.42,-1802.6 -473.82,-2424.8 -48.53,1133.8 -90.26,2517.6 -47.14,3256.4 92.65,133.6 278.57,386.9 451.53,534 242.76,206.4 190.86,227.2 376.8,558.1 185.94,331 247.68,639.6 578.05,881.2 330.38,241.7 289.08,604.9 516.21,708.2 227.13,103.2 629.77,485 629.77,485 196.16,10.2 602.79,168.4 602.79,168.4 138.2,-28 594.81,203.5 594.81,203.5 -516.2,227.1 -929.17,-41.3 -1486.68,-41.3 -557.5,0 -970.46,-413 -1238.89,-536.9 -268.43,-123.9 -474.91,-433.6 -516.21,-578.1 -15.53,-54.4 -45.65,-99.9 -95.84,-151 25.6,246.9 -42.12,475 -28.05,902.4 20.64,627.4 0,528.8 0,921.1 0,392.3 -195.74,534.6 -195.74,534.6 -154.44,59.8 -547.6,-224.9 -692.14,-514 -144.54,-289 -289.08,-784.6 -383.05,-1275.4 -93.97,-490.8 279.81,-541.6 114.62,-913.3 -42.39,-95.3 -69.74,-204.2 -87.1,-313.4 -91.79,295.5 -247.18,450.5 -430.03,670.7 -228.05,274.7 -226.21,241.5 -525.01,664.8 -298.81,423.3 -857.5,505.9 -1273.82,721 -416.32,215.2 -778.45,0 -778.45,0 0,0 554.67,-256.4 761.15,-545.5 206.48,-289.1 144.54,-351 351.03,-805.3 206.47,-454.2 433.61,-433.6 598.79,-887.8 165.19,-454.3 474.92,-681.4 640.1,-908.6 97.18,-133.6 101.48,-317.3 121.97,-533.4 -59.88,59.1 -149.28,120 -307.8,203.1 -433.62,227.1 -474.92,810 -1104.69,900.6 -629.77,90.5 -1104.68,28.5 -1290.52,-219.2 -185.83,-247.8 -289.08,-165.2 -516.205,-392.4 -227.133,-227.1 -360.942,-664.7 -360.942,-664.7 0,0 226.731,344.7 536.447,344.7 309.73,0 846.59,-20.7 1053.07,-20.7 206.48,0 392.32,-82.6 660.75,-103.2 268.42,-20.7 311.03,-51.5 444.59,-263.2 133.56,-211.7 546.53,-356.3 546.53,-356.3 l 441.56,-588.7 c 208.19,-710.6 815.26,-2801.9 900.57,-3313.8 56.25,-337.5 63.51,-576.7 88.48,-731.4 l -0.93,-20.6 h -20.78 c -242.75,695.5 -896.91,2418.8 -1140.39,3058.2 0.01,0 129.17,58.2 165.19,279.9 6.55,33.5 10.08,70 9.11,109.4 0.07,4.7 0.22,9.2 0.2,14 -0.43,152.3 -54.82,285.7 -135.9,385.6 -81.13,110 -191,175.7 -314.52,187.5 -7.87,0.9 -15.73,1.7 -23.57,2.1 -227.13,8.7 -226.71,190.7 -536.64,223.6 -309.94,32.9 -702.26,363.3 -950.04,136.1 -247.77,-227.1 -392.32,-61.9 -516.2,-309.7 -123.89,-247.8 -275.52,-34.6 -395.87,-368.3 -120.34,-333.7 -512.66,-437 -347.47,-829.3 0,0 196.16,340.7 505.88,382 309.72,41.3 247.78,227.1 474.91,185.8 227.13,-41.3 578.15,-27.7 722.69,141 144.54,168.8 350.2,-196.2 691.31,120.5 0,0 63.48,-25.6 151.5,-77.7 80.91,-66.3 172.34,-166 254.74,-264.6 L 5093.75,6759.6 h -834.67 c -93.91,0 -164.49,-85.7 -146.47,-177.8 l 431.5,-2207.2 h 2190.73 l 464.01,2205.1 c 19.52,92.7 -51.25,179.9 -146.04,179.9 h -863.57 c 197.46,917.3 512.04,2229.6 635.45,2558.7 104.6,279 248.45,557.9 380,789 0.09,0.1 208.55,191.9 562.93,304.9 354.45,113.1 677.96,589 677.96,589 536.86,0 309.73,309.7 660.75,309.7 351.02,0 268.43,227.1 784.64,289.1 516.23,61.9 753.63,-402.7 753.63,-402.7 0,764 -722.66,743.4 -1094.33,722.7"
         style="fill:#8bd0ca;fill-opacity:1;fill-rule:nonzero;stroke:none"
         id="path16" />
      <path
         d="m 5023.68,11000.6 c -9.72,0 -18.34,6.9 -20.14,16.8 -7.18,39.9 -739.08,3992.2 -2504.66,4629.4 -10.64,3.8 -16.14,15.6 -12.3,26.2 3.82,10.6 15.54,16.2 26.22,12.3 516.5,-186.4 1273.22,-784.9 1945.12,-2577.8 400.82,-1069.5 584.14,-2072.8 585.94,-2082.8 2,-11.1 -5.4,-21.8 -16.52,-23.8 -1.24,-0.2 -2.46,-0.3 -3.66,-0.3"
         style="fill:#f5faff;fill-opacity:1;fill-rule:nonzero;stroke:none"
         id="path18" />
      <path
         d="m 4402.12,10803 c -7.98,0 -15.56,4.7 -18.86,12.5 -5.58,13.1 -569.38,1321 -1663.76,1682.4 -568.68,187.7 -1183.12,90.7 -1826.258,-288.7 -9.762,-5.7 -22.301,-2.5 -28.043,7.2 -5.742,9.8 -2.5,22.3 7.242,28.1 653.879,385.6 1279.779,484 1860.099,292.2 1112.12,-367.3 1682.82,-1692 1688.44,-1705.3 4.4,-10.4 -0.48,-22.4 -10.88,-26.8 -2.6,-1.1 -5.32,-1.6 -7.98,-1.6"
         style="fill:#f5faff;fill-opacity:1;fill-rule:nonzero;stroke:none"
         id="path20" />
      <path
         d="m 5451.1,11863.3 -40.36,7 c 2.98,17.2 307.34,1732.1 1113.72,2607.6 807.12,876.3 2373.06,1128.5 2388.8,1131 l 6.28,-40.5 C 8903.96,15566 7351.92,15315.8 6554.58,14450.1 5756.44,13583.5 5454.06,11880.4 5451.1,11863.3"
         style="fill:#f5faff;fill-opacity:1;fill-rule:nonzero;stroke:none"
         id="path22" />
      <path
         d="m 5274.1,12675.9 c -10.3,0 -19.16,7.8 -20.34,18.2 -170.28,1525 353.46,3744.5 358.78,3766.8 2.64,11 13.74,17.7 24.68,15.1 11,-2.6 17.78,-13.6 15.16,-24.6 -5.3,-22.2 -527.4,-2234.9 -357.9,-3752.7 1.24,-11.3 -6.84,-21.4 -18.08,-22.7 -0.78,0 -1.54,-0.1 -2.3,-0.1"
         style="fill:#f5faff;fill-opacity:1;fill-rule:nonzero;stroke:none"
         id="path24" />
      <path
         d="m 6172.12,11332.6 c -2.58,0 -5.18,0.4 -7.72,1.5 -10.48,4.2 -15.52,16.2 -11.26,26.7 20.36,50 501.76,1228.4 787,1477 91.78,80.1 181.08,212.9 275.62,353.6 200.38,298 427.5,635.9 794.36,681.1 529.44,65.1 1222.44,-241 1586.62,-574.9 8.34,-7.6 8.9,-20.6 1.26,-28.9 -7.66,-8.3 -20.6,-8.9 -28.94,-1.3 -357.34,327.6 -1036.28,628.1 -1553.94,564.5 -348.3,-43 -569.86,-372.6 -765.36,-663.4 -96.1,-143 -186.86,-278 -282.7,-361.5 -277.92,-242.3 -771.02,-1449.5 -775.96,-1461.7 -3.24,-7.9 -10.9,-12.7 -18.98,-12.7"
         style="fill:#f5faff;fill-opacity:1;fill-rule:nonzero;stroke:none"
         id="path26" />
      <path
         d="m 1116.04,9863.2 c -4.02,0 -8.08,1.2 -11.64,3.7 -9.3,6.4 -11.62,19.2 -5.18,28.5 7.02,10.1 719.32,1015.2 2222.1,1025.9 0.04,0 0.1,0 0.14,0 11.24,0 20.4,-9.1 20.48,-20.4 0.08,-11.3 -9.02,-20.5 -20.34,-20.6 -773.64,-5.5 -1327.38,-279.2 -1655.66,-507.8 -356.06,-247.9 -531.32,-497.9 -533.04,-500.4 -3.98,-5.8 -10.36,-8.9 -16.86,-8.9"
         style="fill:#f5faff;fill-opacity:1;fill-rule:nonzero;stroke:none"
         id="path28" />
      <path
         d="m 6968.2,9942.9 c -2.56,0 -5.14,0.5 -7.66,1.5 -10.48,4.2 -15.56,16.2 -11.34,26.6 2.4,6 245.9,598.3 797.28,942.9 162.98,101.9 284.24,214.8 401.5,324.1 281.98,262.7 548.32,510.8 1332.98,577.8 11.4,1.3 21.18,-7.4 22.14,-18.7 0.96,-11.2 -7.38,-21.2 -18.66,-22.1 -770.58,-65.8 -1031.88,-309.3 -1308.54,-567 -118.68,-110.5 -241.4,-224.9 -407.7,-328.8 -539.78,-337.4 -778.66,-917.6 -781,-923.5 -3.22,-7.9 -10.9,-12.8 -19,-12.8"
         style="fill:#f5faff;fill-opacity:1;fill-rule:nonzero;stroke:none"
         id="path30" />
      <path
         d="m 6916.56,11110.7 -34.8,21.6 c 17.76,28.6 439.06,703.7 808.9,976.4 489.02,360.5 1233.94,827 2052.86,717.7 l -5.44,-40.6 c -803.88,107.5 -1539.8,-353.8 -2023.1,-710.1 -363.56,-268 -794.12,-958 -798.42,-965"
         style="fill:#e6eff2;fill-opacity:1;fill-rule:nonzero;stroke:none"
         id="path32" />
      <path
         d="m 14516.8,17748.3 h -3180.7 c -160.7,0 -291,-130.3 -291,-290.9 v -1340.7 c 0,-160.7 130.3,-290.9 291,-290.9 h 294.9 v -724.5 l 770.6,724.5 h 2115.2 c 160.7,0 291,130.2 291,290.9 v 1340.7 c 0,160.6 -130.3,290.9 -291,290.9"
         style="fill:#bbe0f8;fill-opacity:1;fill-rule:nonzero;stroke:none"
         id="path34" />
      <path
         d="m 14323.4,17027.6 h -2793.9 c -54.7,0 -99.1,44.4 -99.1,99.1 v 0 c 0,54.7 44.4,99.1 99.1,99.1 h 2793.9 c 54.7,0 99.1,-44.4 99.1,-99.1 v 0 c 0,-54.7 -44.4,-99.1 -99.1,-99.1"
         style="fill:#007cf4;fill-opacity:1;fill-rule:nonzero;stroke:none"
         id="path36" />
      <path
         d="m 14323.4,16692.3 h -2793.9 c -54.7,0 -99.1,44.4 -99.1,99.1 v 0 c 0,54.7 44.4,99.1 99.1,99.1 h 2793.9 c 54.7,0 99.1,-44.4 99.1,-99.1 v 0 c 0,-54.7 -44.4,-99.1 -99.1,-99.1"
         style="fill:#007cf4;fill-opacity:1;fill-rule:nonzero;stroke:none"
         id="path38" />
      <path
         d="m 13321.4,16357.1 h -1791.9 c -54.7,0 -99.1,44.3 -99.1,99 v 0 c 0,54.7 44.4,99.1 99.1,99.1 h 1791.9 c 54.7,0 99.1,-44.4 99.1,-99.1 v 0 c 0,-54.7 -44.4,-99 -99.1,-99"
         style="fill:#007cf4;fill-opacity:1;fill-rule:nonzero;stroke:none"
         id="path40" />
      <path
         d="m 11535.5,17695.7 c 0,-207.7 -168.4,-376.1 -376,-376.1 -207.7,0 -376.1,168.4 -376.1,376.1 0,207.6 168.4,376 376.1,376 207.6,0 376,-168.4 376,-376"
         style="fill:#007cf4;fill-opacity:1;fill-rule:nonzero;stroke:none"
         id="path42" />
      <path
         d="m 11117.2,17513.7 c -9.2,0 -18.2,3.5 -24.9,9.9 l -163.7,153.7 c -14.7,13.8 -15.4,36.9 -1.6,51.6 13.8,14.6 36.9,15.3 51.6,1.6 l 135.7,-127.5 223.3,261.8 c 13,15.4 36.1,17.2 51.4,4.1 15.4,-13.1 17.2,-36.1 4.1,-51.5 l -248.1,-290.9 c -6.5,-7.6 -15.8,-12.2 -25.7,-12.8 -0.7,0 -1.4,0 -2.1,0"
         style="fill:#f5faff;fill-opacity:1;fill-rule:nonzero;stroke:none"
         id="path44" />
      <path
         d="m 18506.9,14741.4 h -3540.1 c -178.8,0 -323.8,-145 -323.8,-323.8 v -1492.2 c 0,-178.8 145,-323.7 323.8,-323.7 h 328.2 v -806.3 l 857.7,806.3 h 2354.2 c 178.9,0 323.8,144.9 323.8,323.7 v 1492.2 c 0,178.8 -144.9,323.8 -323.8,323.8"
         style="fill:#bbe0f8;fill-opacity:1;fill-rule:nonzero;stroke:none"
         id="path46" />
      <path
         d="m 18291.7,13939.3 h -3109.6 c -60.9,0 -110.3,49.4 -110.3,110.3 v 0 c 0,60.9 49.4,110.2 110.3,110.2 h 3109.6 c 60.9,0 110.2,-49.3 110.2,-110.2 v 0 c 0,-60.9 -49.3,-110.3 -110.2,-110.3"
         style="fill:#007cf4;fill-opacity:1;fill-rule:nonzero;stroke:none"
         id="path48" />
      <path
         d="m 18291.7,13566.2 h -3109.6 c -60.9,0 -110.3,49.3 -110.3,110.2 v 0 c 0,60.9 49.4,110.3 110.3,110.3 h 3109.6 c 60.9,0 110.2,-49.4 110.2,-110.3 v 0 c 0,-60.9 -49.3,-110.2 -110.2,-110.2"
         style="fill:#007cf4;fill-opacity:1;fill-rule:nonzero;stroke:none"
         id="path50" />
      <path
         d="m 17176.4,13193 h -1994.3 c -60.9,0 -110.3,49.4 -110.3,110.2 v 0 c 0,60.9 49.4,110.3 110.3,110.3 h 1994.3 c 60.9,0 110.3,-49.4 110.3,-110.3 v 0 c 0,-60.8 -49.4,-110.2 -110.3,-110.2"
         style="fill:#007cf4;fill-opacity:1;fill-rule:nonzero;stroke:none"
         id="path52" />
      <path
         d="m 15188.8,14682.8 c 0,-231.1 -187.4,-418.5 -418.5,-418.5 -231.2,0 -418.5,187.4 -418.5,418.5 0,231.1 187.3,418.5 418.5,418.5 231.1,0 418.5,-187.4 418.5,-418.5"
         style="fill:#ff9e3e;fill-opacity:1;fill-rule:nonzero;stroke:none"
         id="path54" />
      <path
         d="m 15023.6,14505.2 -184.5,172.7 172.7,184.5 c 15.4,16.5 14.6,42.4 -2,57.8 -16.5,15.5 -42.4,14.7 -57.9,-1.9 l -172.6,-184.4 -184.5,172.6 c -16.6,15.5 -42.4,14.6 -57.9,-1.9 -15.5,-16.5 -14.6,-42.4 1.9,-57.9 l 184.5,-172.7 -172.7,-184.5 c -15.4,-16.5 -14.6,-42.4 1.9,-57.8 7.9,-7.4 18,-11.1 28,-11.1 10.9,0 21.9,4.4 29.9,13 l 172.7,184.5 184.5,-172.7 c 7.9,-7.4 18,-11.1 28,-11.1 10.9,0 21.8,4.4 29.9,13 15.5,16.5 14.6,42.4 -1.9,57.9"
         style="fill:#f5faff;fill-opacity:1;fill-rule:nonzero;stroke:none"
         id="path56" />
      <path
         d="m 17818.4,6530.4 -13.5,645.9 c 420,-207.3 931,429.5 931,429.5 -623,21.3 -852.5,-191.7 -933.4,-317.1 l -15.5,741.8 c 360.8,-194.7 806.5,360.6 806.5,360.6 -563.3,19.3 -750,-185.9 -808,-288.9 l -7.6,359.9 c 257.1,-64 459.6,350.9 459.6,350.9 -308.5,-58.7 -420.6,-181.3 -461.4,-263 l -4.6,218.5 c 45,12.3 202.9,80.7 229.9,436.6 0,0 -165.7,-105.3 -234,-241.4 l -14,668 c -3.9,188.3 -25.7,188.3 -29.7,0 l -15.5,-738.7 c -42.3,63.3 -116.9,136.2 -247,209.7 0,0 45.3,-351.6 243,-399.9 l -4.8,-230.7 c -79.8,90.1 -258.1,203.1 -648.8,189.8 0,0 346.6,-431.8 645.9,-326.9 l -13.1,-627.8 c -96,104.3 -305.4,231.1 -753.3,215.7 0,0 400.9,-499.3 749.7,-384 l -10.9,-520.7 c -113,122 -358.7,269.8 -882.4,251.8 0,0 469.4,-584.6 878.3,-450.7 l -6.7,-318 c -159.1,49.7 -500.6,66.1 -1011.8,-377 0,0 704.8,-153.4 1007.1,151.3 l -21.1,-1006.3 h 212.6 l -23.5,1118.4 c 416.8,-183 914.5,436.8 914.5,436.8 -586.3,20.1 -824.1,-167.5 -917.5,-294.1"
         style="fill:#8bd0ca;fill-opacity:1;fill-rule:nonzero;stroke:none"
         id="path58" />
      <path
         d="m 17926.6,4375.2 h -377.4 c -109.3,0 -197.9,88.6 -197.9,197.8 v 1158.8 c 0,42.2 34.3,76.4 76.5,76.4 h 620.1 c 42.2,0 76.5,-34.2 76.5,-76.4 V 4573 c 0,-109.2 -88.6,-197.8 -197.8,-197.8"
         style="fill:#72c4f4;fill-opacity:1;fill-rule:nonzero;stroke:none"
         id="path60" />
      <path
         d="m 18124.4,4607.1 h -773.1 v 32.1 h 773.1 v -32.1"
         style="fill:#f5faff;fill-opacity:1;fill-rule:nonzero;stroke:none"
         id="path62" />
      <path
         d="m 18124.4,4665.4 h -773.1 v 32.1 h 773.1 v -32.1"
         style="fill:#f5faff;fill-opacity:1;fill-rule:nonzero;stroke:none"
         id="path64" />
      <path
         d="m 18124.4,4725.2 h -773.1 v 32.1 h 773.1 v -32.1"
         style="fill:#f5faff;fill-opacity:1;fill-rule:nonzero;stroke:none"
         id="path66" />
      <path
         d="m 17788.9,8060 c -4.1,0 -7.9,2.4 -9.5,6.5 -2.1,5.2 0.5,11.2 5.7,13.3 l 753.2,296.9 c 5.3,2 11.2,-0.5 13.3,-5.8 2.1,-5.3 -0.5,-11.2 -5.8,-13.3 l -753.1,-296.9 c -1.3,-0.5 -2.5,-0.7 -3.8,-0.7"
         style="fill:#f5faff;fill-opacity:1;fill-rule:nonzero;stroke:none"
         id="path68" />
      <path
         d="m 17705.2,8386.5 c -1.3,0 -2.6,0.3 -3.9,0.8 l -596.9,246.3 c -5.3,2.2 -7.7,8.1 -5.6,13.4 2.2,5.2 8.2,7.7 13.4,5.5 l 596.9,-246.3 c 5.2,-2.1 7.7,-8.1 5.6,-13.4 -1.7,-3.9 -5.5,-6.3 -9.5,-6.3"
         style="fill:#f5faff;fill-opacity:1;fill-rule:nonzero;stroke:none"
         id="path70" />
      <path
         d="m 17691.1,7610 c -1.3,0 -2.6,0.3 -3.8,0.8 l -684.4,278.6 c -5.2,2.1 -7.7,8.1 -5.6,13.3 2.2,5.3 8.2,7.8 13.4,5.7 l 684.3,-278.6 c 5.2,-2.2 7.7,-8.1 5.6,-13.4 -1.6,-3.9 -5.4,-6.4 -9.5,-6.4"
         style="fill:#f5faff;fill-opacity:1;fill-rule:nonzero;stroke:none"
         id="path72" />
      <path
         d="m 17808.7,7218.5 c -4,0 -7.8,2.4 -9.4,6.3 -2.2,5.2 0.3,11.2 5.5,13.4 l 847.1,350.1 c 5.2,2.2 11.2,-0.3 13.4,-5.5 2.2,-5.3 -0.3,-11.2 -5.5,-13.4 l -847.2,-350.1 c -1.2,-0.6 -2.6,-0.8 -3.9,-0.8"
         style="fill:#f5faff;fill-opacity:1;fill-rule:nonzero;stroke:none"
         id="path74" />
      <path
         d="m 17691.1,6902.2 c -1.2,0 -2.5,0.3 -3.7,0.8 l -801.1,316.2 c -5.2,2.1 -7.8,8 -5.7,13.3 2,5.2 8,7.8 13.2,5.8 l 801.1,-316.3 c 5.2,-2.1 7.8,-8 5.7,-13.3 -1.5,-4 -5.4,-6.5 -9.5,-6.5"
         style="fill:#f5faff;fill-opacity:1;fill-rule:nonzero;stroke:none"
         id="path76" />
      <path
         d="m 17808.7,6439.2 c -4,0 -7.9,2.4 -9.5,6.4 -2.1,5.2 0.5,11.2 5.7,13.3 l 847.1,338.8 c 5.2,2.1 11.2,-0.4 13.4,-5.7 2.1,-5.2 -0.5,-11.2 -5.8,-13.3 l -847.1,-338.8 c -1.2,-0.5 -2.5,-0.7 -3.8,-0.7"
         style="fill:#f5faff;fill-opacity:1;fill-rule:nonzero;stroke:none"
         id="path78" />
      <path
         d="m 16743.3,6141.7 c -4.5,0 -8.7,3 -9.9,7.5 -1.5,5.5 1.7,11.1 7.1,12.6 l 918.7,252.3 c 5.4,1.5 11.1,-1.7 12.6,-7.2 1.5,-5.4 -1.7,-11.1 -7.2,-12.6 L 16746,6142.1 c -0.9,-0.3 -1.8,-0.4 -2.7,-0.4"
         style="fill:#f5faff;fill-opacity:1;fill-rule:nonzero;stroke:none"
         id="path80" />
      <path
         d="m 17780.5,8497.4 c -3.3,0 -6.6,1.6 -8.5,4.5 -3.2,4.7 -2,11 2.7,14.2 l 414.1,279.6 c 4.7,3.1 11,1.9 14.2,-2.8 3.2,-4.7 1.9,-11.1 -2.7,-14.2 l -414.1,-279.6 c -1.8,-1.2 -3.8,-1.7 -5.7,-1.7"
         style="fill:#f5faff;fill-opacity:1;fill-rule:nonzero;stroke:none"
         id="path82" />
      <path
         d="m 17713.2,8754.5 c -3.1,0 -6.2,1.4 -8.2,4.1 l -225.7,297.4 c -3.4,4.5 -2.5,11 2,14.4 4.5,3.4 10.9,2.5 14.3,-2 l 225.7,-297.5 c 3.5,-4.5 2.6,-10.9 -1.9,-14.3 -1.9,-1.4 -4,-2.1 -6.2,-2.1"
         style="fill:#f5faff;fill-opacity:1;fill-rule:nonzero;stroke:none"
         id="path84" />
      <path
         d="m 17770,8821.8 c -1.9,0 -3.9,0.5 -5.6,1.6 -4.7,3.1 -6.1,9.5 -3,14.2 l 209.3,321.4 c 3.1,4.7 9.4,6.1 14.2,3 4.7,-3.1 6,-9.5 3,-14.2 l -209.3,-321.4 c -2,-3 -5.3,-4.6 -8.6,-4.6"
         style="fill:#f5faff;fill-opacity:1;fill-rule:nonzero;stroke:none"
         id="path86" />
      <path
         d="m 14628.2,9797.2 h 160.9 v -389.7 h -160.9 z m 160.9,167.6 v -120.9 h -207.6 v -483 h 209 c 7.1,-117.7 103.9,-211.3 223.4,-211.3 h 164.7 c 124.2,0 224.8,100.6 224.8,224.8 v 590.4 h -614.3"
         style="fill:#72c4f4;fill-opacity:1;fill-rule:nonzero;stroke:none"
         id="path88" />
      <path
         d="m 8768.77,11452.1 h 1420.53 c 120.8,0 223.8,-87.3 243.8,-206.4 L 11014.5,7770 H 9221.31 l -745.34,3279.1 c -46.6,205.1 97.21,403 292.8,403"
         style="fill:#bbe0f8;fill-opacity:1;fill-rule:nonzero;stroke:none"
         id="path90" />
      <path
         d="m 9333.97,8208.3 c -7.94,0 -15.12,5.4 -17.02,13.5 l -699.68,2972.7 c -2.22,9.4 3.61,18.8 13.02,21.1 9.41,2.2 18.84,-3.7 21.05,-13.1 l 699.68,-2972.7 c 2.21,-9.4 -3.62,-18.8 -13.03,-21 -1.34,-0.3 -2.69,-0.5 -4.02,-0.5"
         style="fill:#007cf4;fill-opacity:1;fill-rule:nonzero;stroke:none"
         id="path92" />
      <path
         d="m 10428.8,7574.1 c -409.6,0 -772.65,269.5 -896.65,667.2 -314.3,1008.1 -788.94,3007.9 -98.88,3007.9 214.77,0 381.93,5 512.03,12.8 269.4,16.2 508.9,-169.7 561.8,-434.3 l 651.3,-3253.6 h -729.6"
         style="fill:#72c4f4;fill-opacity:1;fill-rule:nonzero;stroke:none"
         id="path94" />
      <path
         d="m 10708.7,4525.7 h -146.6 v 2557.8 h 146.6 V 4525.7"
         style="fill:#007cf4;fill-opacity:1;fill-rule:nonzero;stroke:none"
         id="path96" />
      <path
         d="m 10839.1,6852.2 h -386.6 v 858.6 h 386.6 v -858.6"
         style="fill:#bbe0f8;fill-opacity:1;fill-rule:nonzero;stroke:none"
         id="path98" />
      <path
         d="M 11877.5,7516.3 H 9386.4 c -105.21,0 -190.5,85.3 -190.5,190.5 v 0 c 0,92.3 74.8,167.1 167.06,167.1 h 2514.54 v -357.6"
         style="fill:#007cf4;fill-opacity:1;fill-rule:nonzero;stroke:none"
         id="path100" />
      <path
         d="M 11912.5,4361.1 H 9358.29 v 62.7 c 0,147.2 119.33,266.6 266.53,266.6 h 2021.08 c 147.2,0 266.6,-119.4 266.6,-266.6 v -62.7"
         style="fill:#bbe0f8;fill-opacity:1;fill-rule:nonzero;stroke:none"
         id="path102" />
      <path
         d="m 11092.5,12627.5 c 0,0 -450,292.6 -786.1,-328.5 -336.19,-621.1 -734.61,-571.4 -904.54,-825 -224.64,-335.3 -0.61,-756.3 1332.54,-790.6 1157.6,-29.7 1346.3,1944.1 358.1,1944.1"
         style="fill:#000000;fill-opacity:1;fill-rule:nonzero;stroke:none"
         id="path104" />
      <g
         id="g106">
        <g
           id="g108"
           clip-path="url(#clipPath112)">
          <path
             d="m 11278,10046.1 1671.1,-618.2 v -225.6 l -1300.9,160.2 c -211.4,26.1 -370.2,205.7 -370.2,418.7 v 264.9"
             style="fill:url(#linearGradient124);fill-opacity:1;fill-rule:nonzero;stroke:none"
             id="path126" />
        </g>
      </g>
      <g
         id="g128">
        <g
           id="g130"
           clip-path="url(#clipPath134)">
          <path
             d="m 10007.1,9447.7 -40.74,-722.2 h 1390.74 l 77.4,722.2 h -1427.4"
             style="fill:url(#linearGradient146);fill-opacity:1;fill-rule:nonzero;stroke:none"
             id="path148" />
        </g>
      </g>
      <g
         id="g150">
        <g
           id="g152"
           clip-path="url(#clipPath156)">
          <path
             d="m 11882.2,5899.9 -27,-327.5 c 0,0 -231.8,-69.5 -144.8,-211.1 86.9,-141.6 186.3,-192 180.3,-357.2 -6,-165.2 25.2,-353.2 137.9,-442.6 0,0 -58.2,-139.4 122.4,-200.4 l 293.7,1521.4 -562.5,17.4"
             style="fill:url(#linearGradient168);fill-opacity:1;fill-rule:nonzero;stroke:none"
             id="path170" />
        </g>
      </g>
      <path
         d="m 11894.9,7967.7 -301.6,-2224.5 h 900.4 c 0,0 1120,2601.9 329.4,3172.9 h -834.5 l -93.7,-948.4"
         style="fill:#050542;fill-opacity:1;fill-rule:nonzero;stroke:none"
         id="path172" />
      <path
         d="m 10570.3,11352.7 c 0,0 -1005.2,43.3 -1229.86,-858.8 l 561.71,-228.6 V 9381 c 0,-36.1 29.26,-65.4 65.37,-65.4 l 1490.08,-1 c 31.4,0 58.4,22.3 64.3,53.2 l 148.5,1163.4 c 40.2,314.7 -144.8,617.7 -445.8,717.9 -161.9,53.8 -374.9,94.6 -654.3,103.6"
         style="fill:#f54552;fill-opacity:1;fill-rule:nonzero;stroke:none"
         id="path174" />
      <path
         d="m 9894.83,10242.7 c -0.89,0 -1.8,0.2 -2.7,0.4 -5.33,1.5 -8.45,7 -6.95,12.4 l 146.12,522.5 c 1.5,5.4 7,8.5 12.4,7 5.3,-1.5 8.4,-7 6.9,-12.4 l -146.12,-522.5 c -1.23,-4.5 -5.26,-7.4 -9.65,-7.4"
         style="fill:#1f191a;fill-opacity:1;fill-rule:nonzero;stroke:none"
         id="path176" />
      <g
         id="g178">
        <g
           id="g180"
           clip-path="url(#clipPath184)">
          <path
             d="m 9427.88,10458.3 -214.81,-691.1 68.82,-18.4 c 220.25,-59.1 448.44,63.3 521.12,279.5 l 82.03,243.9 -457.16,186.1"
             style="fill:url(#linearGradient194);fill-opacity:1;fill-rule:nonzero;stroke:none"
             id="path196" />
        </g>
      </g>
      <g
         id="g198">
        <g
           id="g200"
           clip-path="url(#clipPath204)">
          <path
             d="m 11102.8,10191.3 c -85.5,19.1 -282.5,-92.6 -282.5,-92.6 l -213.5,-36.2 -0.1,0.2 L 9379.93,9895 c -241.95,-33 -246.86,-382.9 -5.61,-420.8 392.87,-61.5 1156.78,310.9 1275.18,370.1 124.2,-118.4 293,14.9 293,14.9 l 53.5,-12.1 17.2,-25 c 24.1,-35.2 76.9,-35.7 100.2,0 6.3,9.9 9.9,17.2 9.9,17.2 73.2,5.9 59,79 59,79 76.3,10.5 53.7,76.4 53.7,76.4 120.4,40 -47.7,177.6 -133.2,196.6"
             style="fill:url(#linearGradient216);fill-opacity:1;fill-rule:nonzero;stroke:none"
             id="path218" />
        </g>
      </g>
      <path
         d="m 11236,9984.5 c -2,0 -4.1,0.6 -5.9,1.9 l -128,90.8 c -4.6,3.3 -5.7,9.7 -2.4,14.3 3.3,4.6 9.7,5.7 14.3,2.4 l 127.9,-90.9 c 4.7,-3.2 5.7,-9.6 2.5,-14.2 -2,-2.8 -5.2,-4.3 -8.4,-4.3"
         style="fill:#1f191a;fill-opacity:1;fill-rule:nonzero;stroke:none"
         id="path220" />
      <path
         d="m 11182.3,9908.1 c -2.5,0 -4.9,0.9 -6.8,2.6 l -126.9,112.7 c -4.2,3.8 -4.6,10.3 -0.8,14.5 3.8,4.2 10.2,4.6 14.4,0.9 l 126.9,-112.8 c 4.2,-3.8 4.6,-10.2 0.8,-14.4 -2,-2.3 -4.8,-3.5 -7.6,-3.5"
         style="fill:#1f191a;fill-opacity:1;fill-rule:nonzero;stroke:none"
         id="path222" />
      <path
         d="m 11123.3,9829.1 c -2.6,0 -5.1,1 -7.1,2.9 l -117.1,113.8 c -4.1,4 -4.2,10.5 -0.2,14.5 3.9,4.1 10.4,4.1 14.5,0.2 l 117,-113.8 c 4.1,-4 4.2,-10.4 0.2,-14.5 -2,-2.1 -4.6,-3.1 -7.3,-3.1"
         style="fill:#1f191a;fill-opacity:1;fill-rule:nonzero;stroke:none"
         id="path224" />
      <g
         id="g226">
        <g
           id="g228"
           clip-path="url(#clipPath232)">
          <path
             d="m 10775.3,11081.7 v 0 c -135.3,24.3 -216.2,175.5 -173.1,323 l 168.4,341.6 300.5,-58.7 -20.9,-363.6 c -11,-153.3 -139.7,-266.7 -274.9,-242.3"
             style="fill:url(#linearGradient244);fill-opacity:1;fill-rule:nonzero;stroke:none"
             id="path246" />
        </g>
      </g>
      <g
         id="g248">
        <g
           id="g250"
           clip-path="url(#clipPath254)">
          <path
             d="m 10970.8,11959 c 59.8,27 107.1,79.8 141.8,131.3 -87.7,-44.5 -218.7,-84 -395.7,-73.7 l -7.4,-30.5 c -3.1,0.4 -6.1,1.3 -9.3,1.5 -57.2,3.2 -106.2,-40.4 -109.5,-97.6 -2.7,-47.8 27.5,-89.4 70.8,-103.9 l -8.9,-37 c -36.5,-151.8 57,-304.4 208.8,-340.8 151.8,-36.5 304.4,57 340.9,208.8 l 65.8,274 c 17,70.9 5.4,141.8 -26.9,201.1 -91,-106.3 -270.4,-133.2 -270.4,-133.2"
             style="fill:url(#linearGradient266);fill-opacity:1;fill-rule:nonzero;stroke:none"
             id="path268" />
        </g>
      </g>
      <g
         id="g270">
        <g
           id="g272"
           clip-path="url(#clipPath276)">
          <path
             d="m 13465,5778.2 193,-365.8 668.7,11 c 0,0 192.6,-24.3 70.5,-133.7 l -879.5,-463.9 c 0,0 -192.9,-128.7 -299.9,210.5 l -262.2,473.3 509.4,268.6"
             style="fill:url(#linearGradient288);fill-opacity:1;fill-rule:nonzero;stroke:none"
             id="path290" />
        </g>
      </g>
      <path
         d="m 9872.19,8916.1 h 2236.91 c 0,0 552,-132.9 1554,-3273.8 l -715.2,-297.2 -1506.7,2458.4 c 0,0 -2159.88,-607 -1569.01,1112.6"
         style="fill:#050542;fill-opacity:1;fill-rule:nonzero;stroke:none"
         id="path292" />
      <path
         d="m 12588.5,5915.5 c -5.4,0 -10.7,2.8 -13.7,7.7 L 11858,7092.7 c -4.6,7.5 -2.2,17.4 5.3,22 7.5,4.7 17.5,2.3 22.1,-5.3 L 12602.1,5940 c 4.7,-7.6 2.3,-17.5 -5.3,-22.1 -2.6,-1.6 -5.5,-2.4 -8.3,-2.4"
         style="fill:#bbe0f8;fill-opacity:1;fill-rule:nonzero;stroke:none"
         id="path294" />
      <path
         d="m 13006.2,7445.3 c -6.4,0 -12.4,3.9 -14.9,10.2 -1.9,4.9 -197,497.5 -525.1,1041.2 -4.6,7.6 -2.2,17.5 5.4,22 7.6,4.6 17.5,2.2 22.1,-5.4 329.5,-546.1 525.5,-1041.1 527.5,-1046.1 3.2,-8.2 -0.9,-17.5 -9.1,-20.8 -1.9,-0.7 -3.9,-1.1 -5.9,-1.1"
         style="fill:#bbe0f8;fill-opacity:1;fill-rule:nonzero;stroke:none"
         id="path296" />
      <path
         d="M 7950.14,8741.6 6968.21,4399.3 h 175.31 l 1188.7,4342.3 h -382.08"
         style="fill:#bbe0f8;fill-opacity:1;fill-rule:nonzero;stroke:none"
         id="path298" />
      <path
         d="m 8332.22,8741.6 -89.51,-327 H 7876.2 l 73.94,327 h 382.08"
         style="fill:#72c4f4;fill-opacity:1;fill-rule:nonzero;stroke:none"
         id="path300" />
      <path
         d="M 8858.13,8741.6 7876.2,4399.3 h 175.31 l 1188.7,4342.3 h -382.08"
         style="fill:#bbe0f8;fill-opacity:1;fill-rule:nonzero;stroke:none"
         id="path302" />
      <path
         d="m 9240.21,8741.6 -89.51,-327 h -366.52 l 73.95,327 h 382.08"
         style="fill:#72c4f4;fill-opacity:1;fill-rule:nonzero;stroke:none"
         id="path304" />
      <path
         d="M 15600.5,8692.2 16582.4,4350 h -175.3 l -1188.7,4342.2 h 382.1"
         style="fill:#bbe0f8;fill-opacity:1;fill-rule:nonzero;stroke:none"
         id="path306" />
      <path
         d="m 15218.4,8692.2 89.5,-326.9 h 366.6 l -74,326.9 h -382.1"
         style="fill:#72c4f4;fill-opacity:1;fill-rule:nonzero;stroke:none"
         id="path308" />
      <path
         d="m 14692.5,8692.2 982,-4342.2 h -175.4 l -1188.7,4342.2 h 382.1"
         style="fill:#bbe0f8;fill-opacity:1;fill-rule:nonzero;stroke:none"
         id="path310" />
      <path
         d="m 14310.4,8692.2 89.6,-326.9 h 366.5 l -74,326.9 h -382.1"
         style="fill:#72c4f4;fill-opacity:1;fill-rule:nonzero;stroke:none"
         id="path312" />
      <path
         d="M 15981.1,8562.3 H 7624.6 v 358.5 h 8356.5 v -358.5"
         style="fill:#bbe0f8;fill-opacity:1;fill-rule:nonzero;stroke:none"
         id="path314" />
      <path
         d="M 15981.1,8741.6 H 7624.6 v 179.2 h 8356.5 v -179.2"
         style="fill:#72c4f4;fill-opacity:1;fill-rule:nonzero;stroke:none"
         id="path316" />
      <path
         d="M 16223,8865.4 H 7382.7 v 291.9 H 16223 v -291.9"
         style="fill:#bbe0f8;fill-opacity:1;fill-rule:nonzero;stroke:none"
         id="path318" />
      <path
         d="m 13935.3,9786.3 h -2288.2 c -120.3,0 -212.3,107.2 -194.1,226.1 l 203.5,1322.3 c 14.7,95.8 97.1,166.5 194,166.5 h 2288.2 c 120.3,0 212.3,-107.3 194,-226.2 l -203.4,-1322.3 c -14.7,-95.7 -97.2,-166.4 -194,-166.4"
         style="fill:#bbe0f8;fill-opacity:1;fill-rule:nonzero;stroke:none"
         id="path320" />
      <path
         d="m 12595.2,10520.4 206,-1258.8 h -332.1 c -56.3,0 -102,-45.6 -102,-101.9 v -31.6 h 934.1 c 62.1,0 109.7,55 100.9,116.4 l -187.7,1306.9 c -7.2,50.2 -50.2,87.4 -100.9,87.4 h -417.7 c -62.9,0 -110.8,-56.3 -100.6,-118.4"
         style="fill:#72c4f4;fill-opacity:1;fill-rule:nonzero;stroke:none"
         id="path322" />
      <path
         d="m 11581.1,10051.2 c -0.8,0 -1.6,0.1 -2.4,0.2 -8.7,1.3 -14.6,9.4 -13.3,18.1 l 184.3,1197.6 c 1.3,8.7 9.4,14.6 18,13.3 8.7,-1.4 14.6,-9.5 13.3,-18.1 l -184.3,-1197.6 c -1.2,-7.9 -7.9,-13.5 -15.6,-13.5"
         style="fill:#007cf4;fill-opacity:1;fill-rule:nonzero;stroke:none"
         id="path324" />
      <path
         d="M 18991.2,4309 H 2779.25 c -22.62,0 -40.96,18.3 -40.96,41 0,22.6 18.34,40.9 40.96,40.9 H 18991.2 c 22.6,0 40.9,-18.3 40.9,-40.9 0,-22.7 -18.3,-41 -40.9,-41"
         style="fill:#000000;fill-opacity:1;fill-rule:nonzero;stroke:none"
         id="path326" />
    </g>
  </g>
</svg>
