<?xml version="1.0" encoding="UTF-8" standalone="no"?>
<!-- Created with Inkscape (http://www.inkscape.org/) -->

<svg
   version="1.1"
   id="svg2"
   width="2730.6667"
   height="2730.6667"
   viewBox="0 0 2730.6667 2730.6667"
   sodipodi:docname="life_style_working_16.eps"
   xmlns:inkscape="http://www.inkscape.org/namespaces/inkscape"
   xmlns:sodipodi="http://sodipodi.sourceforge.net/DTD/sodipodi-0.dtd"
   xmlns="http://www.w3.org/2000/svg"
   xmlns:svg="http://www.w3.org/2000/svg">
  <defs
     id="defs6">
    <clipPath
       clipPathUnits="userSpaceOnUse"
       id="clipPath58">
      <path
         d="m 10027.6,4184.2 c 39.5,-22.8 69.4,-59.7 84.5,-102.8 l 267.3,-760.5 c 53.7,-108.4 -32.8,-233.6 -153.2,-221.9 l -419.06,41 c -107.57,10.5 -195.36,90.6 -215.62,196.8 l 28.71,689.4 c 1.96,46.8 23.47,90.4 59.18,120.8 68.32,58.2 193.52,126.5 348.19,37.2 z"
         id="path56" />
    </clipPath>
    <linearGradient
       x1="0"
       y1="0"
       x2="1"
       y2="0"
       gradientUnits="userSpaceOnUse"
       gradientTransform="matrix(136.571,-1751.68,-1751.68,-136.571,9904.3,4442.8)"
       spreadMethod="pad"
       id="linearGradient70">
      <stop
         style="stop-opacity:1;stop-color:#ffacac"
         offset="0"
         id="stop60" />
      <stop
         style="stop-opacity:1;stop-color:#ffacac"
         offset="0.300635"
         id="stop62" />
      <stop
         style="stop-opacity:1;stop-color:#ffacac"
         offset="0.44368253"
         id="stop64" />
      <stop
         style="stop-opacity:1;stop-color:#fa6964"
         offset="0.738778"
         id="stop66" />
      <stop
         style="stop-opacity:1;stop-color:#fa6964"
         offset="1"
         id="stop68" />
    </linearGradient>
    <clipPath
       clipPathUnits="userSpaceOnUse"
       id="clipPath84">
      <path
         d="m 10704.4,10895.3 1046,697.1 c 137.3,91.5 166.8,280.8 64,409.7 l -7,8.8 c -48.7,61.1 -154.7,194 -330,79.7 l -1065.3,-828.7 z"
         id="path82" />
    </clipPath>
    <linearGradient
       x1="0"
       y1="0"
       x2="1"
       y2="0"
       gradientUnits="userSpaceOnUse"
       gradientTransform="matrix(1402.77,794.269,794.269,-1402.77,10678.1,11259.6)"
       spreadMethod="pad"
       id="linearGradient96">
      <stop
         style="stop-opacity:1;stop-color:#ffacac"
         offset="0"
         id="stop86" />
      <stop
         style="stop-opacity:1;stop-color:#ffacac"
         offset="0.163405"
         id="stop88" />
      <stop
         style="stop-opacity:1;stop-color:#ffacac"
         offset="0.3745366"
         id="stop90" />
      <stop
         style="stop-opacity:1;stop-color:#fa6964"
         offset="0.810084"
         id="stop92" />
      <stop
         style="stop-opacity:1;stop-color:#fa6964"
         offset="1"
         id="stop94" />
    </linearGradient>
    <clipPath
       clipPathUnits="userSpaceOnUse"
       id="clipPath106">
      <path
         d="m 8777.24,8277.5 1188,119.5 c 0,0 103.76,-3516.1 133.06,-4413.6 L 9662.47,3936 c 0,0 -481.94,1746.5 -885.23,4341.5 z"
         id="path104" />
    </clipPath>
    <linearGradient
       x1="0"
       y1="0"
       x2="1"
       y2="0"
       gradientUnits="userSpaceOnUse"
       gradientTransform="matrix(-428.399,3738.78,3738.78,428.399,9876.41,3928.4)"
       spreadMethod="pad"
       id="linearGradient118">
      <stop
         style="stop-opacity:1;stop-color:#ffacac"
         offset="0"
         id="stop108" />
      <stop
         style="stop-opacity:1;stop-color:#ffacac"
         offset="0.138187"
         id="stop110" />
      <stop
         style="stop-opacity:1;stop-color:#ffacac"
         offset="0.32909508"
         id="stop112" />
      <stop
         style="stop-opacity:1;stop-color:#fa6964"
         offset="0.722923"
         id="stop114" />
      <stop
         style="stop-opacity:1;stop-color:#fa6964"
         offset="1"
         id="stop116" />
    </linearGradient>
    <clipPath
       clipPathUnits="userSpaceOnUse"
       id="clipPath128">
      <path
         d="m 10534.9,6873.6 -343.7,-279 c -109.6,-89 -247.88,-128 -389.08,-128.8 -54.15,-0.3 -105.16,-23 -124.73,-97.9 -48.94,-187.4 -11.18,-311.6 -154.92,-439.8 -143.73,-128.2 -276.64,-306 -260.96,-472.8 0,0 -164.22,-63.6 -69.87,-264.5 l 1665.06,1083.1 1538.6,854.6 c 1375,649.6 456.8,1528.9 456.8,1528.9 l -1130,1159.8 -870.1,-889.6 1083.1,-952.5 -1400.2,-1101.5"
         id="path126" />
    </clipPath>
    <linearGradient
       x1="0"
       y1="0"
       x2="1"
       y2="0"
       gradientUnits="userSpaceOnUse"
       gradientTransform="matrix(4922.63,4663.83,4663.83,-4922.63,8123.96,4671.9)"
       spreadMethod="pad"
       id="linearGradient140">
      <stop
         style="stop-opacity:1;stop-color:#ffacac"
         offset="0"
         id="stop130" />
      <stop
         style="stop-opacity:1;stop-color:#ffacac"
         offset="0.300635"
         id="stop132" />
      <stop
         style="stop-opacity:1;stop-color:#ffacac"
         offset="0.44368253"
         id="stop134" />
      <stop
         style="stop-opacity:1;stop-color:#fa6964"
         offset="0.738778"
         id="stop136" />
      <stop
         style="stop-opacity:1;stop-color:#fa6964"
         offset="1"
         id="stop138" />
    </linearGradient>
    <clipPath
       clipPathUnits="userSpaceOnUse"
       id="clipPath154">
      <path
         d="m 8598.76,12842.9 -392.03,698.2 c -62.56,0.1 -3196.27,-484.8 -3196.27,-484.8 v 0 c -58.39,2.9 -284.24,10.2 -443.03,-41.3 h -324.64 c -18.17,0 -32.89,-14.7 -32.89,-32.9 0,-18.2 14.72,-32.9 32.89,-32.9 l 222.32,-51.1 5.83,-11.6 -332.79,-20.9 c -25.83,0 -46.77,-20.9 -46.77,-46.7 0,-25.9 20.94,-46.8 46.77,-46.8 l 327.24,-29.8 -355.08,-72.5 c -25.83,0 -46.77,-20.9 -46.77,-46.8 0,-25.8 20.94,-46.7 46.77,-46.7 3.77,0 7.4,0.5 10.91,1.4 l 0.17,-1.4 373.18,25 -234.94,-109.8 c -2.53,-0.9 -4.93,-2.1 -7.23,-3.4 l -1.42,-0.7 0.04,-0.1 c -13.33,-8.2 -22.29,-22.8 -22.29,-39.6 0,-25.9 20.93,-46.8 46.76,-46.8 5.63,0 10.95,1.1 15.95,3 l 0.05,-0.1 359.88,114.5 c 30.87,9.8 63.23,14.1 95.6,12.6 l 114.84,-5.4 c 0,0 -121.06,-140.3 -74.99,-269.6 9.82,-27.5 46.52,-33.2 64.19,-9.8 l 363.37,479.7 -0.33,0.6 z"
         id="path152" />
    </clipPath>
    <linearGradient
       x1="0"
       y1="0"
       x2="1"
       y2="0"
       gradientUnits="userSpaceOnUse"
       gradientTransform="matrix(4863.41,649.082,649.082,-4863.41,3680.56,12509.5)"
       spreadMethod="pad"
       id="linearGradient166">
      <stop
         style="stop-opacity:1;stop-color:#ffacac"
         offset="0"
         id="stop156" />
      <stop
         style="stop-opacity:1;stop-color:#ffacac"
         offset="0.300635"
         id="stop158" />
      <stop
         style="stop-opacity:1;stop-color:#ffacac"
         offset="0.55767912"
         id="stop160" />
      <stop
         style="stop-opacity:1;stop-color:#fa6964"
         offset="0.941757"
         id="stop162" />
      <stop
         style="stop-opacity:1;stop-color:#fa6964"
         offset="1"
         id="stop164" />
    </linearGradient>
    <clipPath
       clipPathUnits="userSpaceOnUse"
       id="clipPath182">
      <path
         d="m 9882.31,13712 v 0 c -156.52,0 -277.9,153.1 -259.33,327.2 l 35.02,328.3 h 448.6 l 35.1,-328.3 c 18.5,-174.1 -102.9,-327.2 -259.39,-327.2 z"
         id="path180" />
    </clipPath>
    <linearGradient
       x1="0"
       y1="0"
       x2="1"
       y2="0"
       gradientUnits="userSpaceOnUse"
       gradientTransform="matrix(0,812.185,812.185,0,9882.32,13546.2)"
       spreadMethod="pad"
       id="linearGradient192">
      <stop
         style="stop-opacity:1;stop-color:#ffacaa"
         offset="0"
         id="stop184" />
      <stop
         style="stop-opacity:1;stop-color:#ffacaa"
         offset="0.26065499"
         id="stop186" />
      <stop
         style="stop-opacity:1;stop-color:#fb6b67"
         offset="0.664077"
         id="stop188" />
      <stop
         style="stop-opacity:1;stop-color:#fb6b67"
         offset="1"
         id="stop190" />
    </linearGradient>
    <clipPath
       clipPathUnits="userSpaceOnUse"
       id="clipPath202">
      <path
         d="m 10142.8,14822.4 c -191.51,0 -307.81,64.8 -378.21,150.4 26.78,-82.9 61.73,-150.4 61.73,-150.4 -120.49,72.9 -159.94,189.2 -172.87,255.6 -74.81,-51.7 -123.9,-138 -123.9,-235.9 v -82.2 c -2.9,0.3 -5.69,0.9 -8.65,0.9 -56.51,0 -102.32,-45.8 -102.32,-102.3 0,-56.5 45.81,-102.3 102.32,-102.3 2.96,0 5.75,0.6 8.65,0.8 v -11.8 c 0,-197.2 155.55,-417.4 352.76,-417.4 197.19,0 361.39,220.2 361.39,417.4 v 11 c 56.5,0 102.4,45.8 102.4,102.3 0,56.5 -45.9,102.3 -102.4,102.3 v 69.3 c -30,-4.8 -63.3,-7.7 -100.9,-7.7 z"
         id="path200" />
    </clipPath>
    <linearGradient
       x1="0"
       y1="0"
       x2="1"
       y2="0"
       gradientUnits="userSpaceOnUse"
       gradientTransform="matrix(23.0138,1304.11,1304.11,-23.0138,9865.05,13680.3)"
       spreadMethod="pad"
       id="linearGradient212">
      <stop
         style="stop-opacity:1;stop-color:#ffacaa"
         offset="0"
         id="stop204" />
      <stop
         style="stop-opacity:1;stop-color:#fb6b67"
         offset="0.92274149"
         id="stop206" />
      <stop
         style="stop-opacity:1;stop-color:#fb6b67"
         offset="0.95011"
         id="stop208" />
      <stop
         style="stop-opacity:1;stop-color:#fb6b67"
         offset="1"
         id="stop210" />
    </linearGradient>
  </defs>
  <sodipodi:namedview
     id="namedview4"
     pagecolor="#ffffff"
     bordercolor="#000000"
     borderopacity="0.25"
     inkscape:showpageshadow="2"
     inkscape:pageopacity="0.0"
     inkscape:pagecheckerboard="0"
     inkscape:deskcolor="#d1d1d1" />
  <g
     id="g8"
     inkscape:groupmode="layer"
     inkscape:label="ink_ext_XXXXXX"
     transform="matrix(1.3333333,0,0,-1.3333333,0,2730.6667)">
    <g
       id="g10"
       transform="scale(0.1)">
      <path
         d="M 20480,0 H 0 V 20480 H 20480 V 0"
         style="fill:#f5faff;fill-opacity:1;fill-rule:nonzero;stroke:none"
         id="path12" />
      <path
         d="m 4358.01,3097.3 c 0,0 -1827.09,2901.6 -2786.91,6451.8 -1527.3891,5649.6 3012.7,10849 10468.6,7655.7 9395.2,-4023.8 7584.6,-5814.6 4525,-14063.1 L 4358.01,3097.3"
         style="fill:#e6eff2;fill-opacity:1;fill-rule:nonzero;stroke:none"
         id="path14" />
      <path
         d="m 6060.6,11279.9 c -24.93,0 -45.27,20.3 -45.27,45.2 v 505.8 c 0,24.9 20.34,45.2 45.27,45.2 h 339.86 v -596.2 z m 1170.18,889 h -830.32 v -230 H 6060.6 c -59.64,0 -107.99,-48.4 -107.99,-108 v -505.8 c 0,-59.6 48.32,-107.9 107.93,-107.9 h 339.92 v -201.4 h 830.32 v 1153.1"
         style="fill:#72c4f4;fill-opacity:1;fill-rule:nonzero;stroke:none"
         id="path16" />
      <path
         d="m 7038.19,11661.5 c 0,61.6 -49.92,111.5 -111.5,111.5 -61.58,0 -111.5,-49.9 -111.5,-111.5 0,61.6 -49.92,111.5 -111.5,111.5 -61.59,0 -111.51,-49.9 -111.51,-111.5 0,0 -21.66,-173.5 223.01,-278.4 244.66,104.9 223,278.4 223,278.4"
         style="fill:#e6eff2;fill-opacity:1;fill-rule:nonzero;stroke:none"
         id="path18" />
      <path
         d="m 14684.5,3133.7 h -1644.9 v 1762.2 h 1644.9 V 3133.7"
         style="fill:#72c4f4;fill-opacity:1;fill-rule:nonzero;stroke:none"
         id="path20" />
      <path
         d="m 14954.9,4895.9 h -2185.7 v 0 c 0,123.3 100,223.2 223.2,223.2 h 1739.4 c 123.2,0 223.1,-99.9 223.1,-223.2 v 0"
         style="fill:#bbe0f8;fill-opacity:1;fill-rule:nonzero;stroke:none"
         id="path22" />
      <path
         d="m 14217.7,5119.1 h -81.5 v 60.2 c 0,45 -36.6,81.5 -81.5,81.5 h -385.2 c -45,0 -81.5,-36.5 -81.5,-81.5 v -60.2 h -81.5 v 60.2 c 0,89.9 73.1,163 163,163 h 385.2 c 89.9,0 163,-73.1 163,-163 v -60.2"
         style="fill:#72c4f4;fill-opacity:1;fill-rule:nonzero;stroke:none"
         id="path24" />
      <path
         d="m 13277.3,3180.7 h -40.8 v 1715.2 h 40.8 V 3180.7"
         style="fill:#bbe0f8;fill-opacity:1;fill-rule:nonzero;stroke:none"
         id="path26" />
      <path
         d="m 13587.3,3180.7 h -40.7 v 1715.2 h 40.7 V 3180.7"
         style="fill:#bbe0f8;fill-opacity:1;fill-rule:nonzero;stroke:none"
         id="path28" />
      <path
         d="m 13897.3,3180.7 h -40.7 v 1715.2 h 40.7 V 3180.7"
         style="fill:#bbe0f8;fill-opacity:1;fill-rule:nonzero;stroke:none"
         id="path30" />
      <path
         d="m 14207.3,3180.7 h -40.7 v 1715.2 h 40.7 V 3180.7"
         style="fill:#bbe0f8;fill-opacity:1;fill-rule:nonzero;stroke:none"
         id="path32" />
      <path
         d="m 14517.3,3180.7 h -40.7 v 1715.2 h 40.7 V 3180.7"
         style="fill:#bbe0f8;fill-opacity:1;fill-rule:nonzero;stroke:none"
         id="path34" />
      <path
         d="m 6220.58,4207.7 c 0,0 491.68,2081 1146.88,1969.8 655.2,-111.3 -924.06,-2051 -924.06,-2051 l -222.82,81.2"
         style="fill:#bbdedc;fill-opacity:1;fill-rule:nonzero;stroke:none"
         id="path36" />
      <path
         d="m 6307.13,4168.4 c -1.24,0 -2.5,0.3 -3.68,0.9 -3.78,2.1 -5.19,6.8 -3.16,10.6 l 991.5,1843.1 c 2.04,3.8 6.75,5.2 10.54,3.2 3.78,-2.1 5.19,-6.8 3.16,-10.6 l -991.5,-1843.1 c -1.41,-2.6 -4.08,-4.1 -6.86,-4.1"
         style="fill:#000000;fill-opacity:1;fill-rule:nonzero;stroke:none"
         id="path38" />
      <path
         d="m 6311.45,4184.7 c 0,0 -417.13,2097.2 -1075.88,2009.4 -658.75,-87.8 850.29,-2082.7 850.29,-2082.7 l 225.59,73.3"
         style="fill:#bbdedc;fill-opacity:1;fill-rule:nonzero;stroke:none"
         id="path40" />
      <path
         d="m 6154.26,4296 c -2.8,0 -5.51,1.5 -6.89,4.2 l -925,1769.2 c -1.99,3.8 -0.51,8.5 3.29,10.5 3.8,2 8.5,0.5 10.5,-3.3 l 924.98,-1769.2 c 1.99,-3.8 0.52,-8.5 -3.28,-10.5 -1.16,-0.6 -2.39,-0.9 -3.6,-0.9"
         style="fill:#000000;fill-opacity:1;fill-rule:nonzero;stroke:none"
         id="path42" />
      <path
         d="m 6346.21,4034.7 c 0,0 600.26,2734.7 -45.28,2894.3 C 5655.38,7088.6 6104.9,4036.5 6104.9,4036.5 l 241.31,-1.8"
         style="fill:#9bcdca;fill-opacity:1;fill-rule:nonzero;stroke:none"
         id="path44" />
      <path
         d="m 6219.95,4027 c -0.06,0 -0.12,0 -0.16,0 -4.3,0 -7.71,3.6 -7.62,7.9 l 56.39,2731.3 c 0.09,4.3 4.01,7.5 7.93,7.6 4.3,-0.1 7.71,-3.6 7.62,-7.9 l -56.4,-2731.3 c -0.08,-4.3 -3.54,-7.6 -7.76,-7.6"
         style="fill:#000000;fill-opacity:1;fill-rule:nonzero;stroke:none"
         id="path46" />
      <path
         d="m 6413.9,3141.7 h -325.78 c -189.46,0 -353.29,132.1 -393.48,317.2 l -94.39,434.9 c -54.46,251 136.7,488.1 393.47,488.1 h 510.75 c 255.38,0 446.24,-234.7 394.18,-484.7 l -90.57,-435 c -38.89,-186.7 -203.45,-320.5 -394.18,-320.5"
         style="fill:#72c4f4;fill-opacity:1;fill-rule:nonzero;stroke:none"
         id="path48" />
      <path
         d="M 6883.79,4204.3 H 5585.33 c -44.48,0 -80.53,36 -80.53,80.5 v 16.5 c 0,44.5 36.05,80.6 80.53,80.6 h 1298.46 c 44.48,0 80.54,-36.1 80.54,-80.6 v -16.5 c 0,-44.5 -36.06,-80.5 -80.54,-80.5"
         style="fill:#bbe0f8;fill-opacity:1;fill-rule:nonzero;stroke:none"
         id="path50" />
      <g
         id="g52">
        <g
           id="g54"
           clip-path="url(#clipPath58)">
          <path
             d="m 10027.6,4184.2 c 39.5,-22.8 69.4,-59.7 84.5,-102.8 l 267.3,-760.5 c 53.7,-108.4 -32.8,-233.6 -153.2,-221.9 l -419.06,41 c -107.57,10.5 -195.36,90.6 -215.62,196.8 l 28.71,689.4 c 1.96,46.8 23.47,90.4 59.18,120.8 68.32,58.2 193.52,126.5 348.19,37.2"
             style="fill:url(#linearGradient70);fill-opacity:1;fill-rule:nonzero;stroke:none"
             id="path72" />
        </g>
      </g>
      <path
         d="m 10226.2,3078.7 c -9.4,0 -17.9,6.5 -19.9,16.1 l -55,257.3 c -2.3,11 4.7,21.8 15.7,24.1 11,2.5 21.8,-4.6 24.2,-15.6 l 54.9,-257.3 c 2.4,-11 -4.6,-21.8 -15.6,-24.2 -1.5,-0.3 -2.9,-0.4 -4.3,-0.4"
         style="fill:#000000;fill-opacity:1;fill-rule:nonzero;stroke:none"
         id="path74" />
      <path
         d="m 11667.7,11634.3 31.1,10.1 c 142,46.5 219.5,199.2 173,341.2 l -214.6,656.8 -573.3,-93 242.6,-742 c 46.4,-142.1 199.1,-219.5 341.2,-173.1"
         style="fill:#fa6964;fill-opacity:1;fill-rule:nonzero;stroke:none"
         id="path76" />
      <g
         id="g78">
        <g
           id="g80"
           clip-path="url(#clipPath84)">
          <path
             d="m 10704.4,10895.3 1046,697.1 c 137.3,91.5 166.8,280.8 64,409.7 l -7,8.8 c -48.7,61.1 -154.7,194 -330,79.7 l -1065.3,-828.7 292.3,-366.6"
             style="fill:url(#linearGradient96);fill-opacity:1;fill-rule:nonzero;stroke:none"
             id="path98" />
        </g>
      </g>
      <g
         id="g100">
        <g
           id="g102"
           clip-path="url(#clipPath106)">
          <path
             d="m 8777.24,8277.5 1188,119.5 c 0,0 103.76,-3516.1 133.06,-4413.6 L 9662.47,3936 c 0,0 -481.94,1746.5 -885.23,4341.5"
             style="fill:url(#linearGradient118);fill-opacity:1;fill-rule:nonzero;stroke:none"
             id="path120" />
        </g>
      </g>
      <g
         id="g122">
        <g
           id="g124"
           clip-path="url(#clipPath128)">
          <path
             d="m 10534.9,6873.6 -343.7,-279 c -109.6,-89 -247.88,-128 -389.08,-128.8 -54.15,-0.3 -105.16,-23 -124.73,-97.9 -48.94,-187.4 -11.18,-311.6 -154.92,-439.8 -143.73,-128.2 -276.64,-306 -260.96,-472.8 0,0 -164.22,-63.6 -69.87,-264.5 l 1665.06,1083.1 1538.6,854.6 c 1375,649.6 456.8,1528.9 456.8,1528.9 l -1130,1159.8 -870.1,-889.6 1083.1,-952.5 -1400.2,-1101.5"
             style="fill:url(#linearGradient140);fill-opacity:1;fill-rule:nonzero;stroke:none"
             id="path142" />
        </g>
      </g>
      <path
         d="M 12107.3,9573.5 C 11517,10653.8 10802,10829 10802,10829 H 9905.01 9731.38 9008.04 C 8606.13,10343.1 8368.01,9450.9 8694.12,8269.2 l 1422.78,143 26.6,982.5 572.8,-563"
         style="fill:#050542;fill-opacity:1;fill-rule:nonzero;stroke:none"
         id="path144" />
      <path
         d="m 10527.7,14871.4 c -128.6,280.7 -161.3,607.5 -654.79,590.2 -493.52,17.3 -526.14,-309.5 -654.78,-590.2 -129.77,-283.1 -619.37,-318.5 -619.37,-1085.3 0,-722.3 1141.54,-706.7 1274.15,-702.5 132.59,-4.2 1274.19,-19.8 1274.19,702.5 0,766.8 -489.6,802.2 -619.4,1085.3"
         style="fill:#000000;fill-opacity:1;fill-rule:nonzero;stroke:none"
         id="path146" />
      <g
         id="g148">
        <g
           id="g150"
           clip-path="url(#clipPath154)">
          <path
             d="m 8598.76,12842.9 -392.03,698.2 c -62.56,0.1 -3196.27,-484.8 -3196.27,-484.8 v 0 c -58.39,2.9 -284.24,10.2 -443.03,-41.3 h -324.64 c -18.17,0 -32.89,-14.7 -32.89,-32.9 0,-18.2 14.72,-32.9 32.89,-32.9 l 222.32,-51.1 5.83,-11.6 -332.79,-20.9 c -25.83,0 -46.77,-20.9 -46.77,-46.7 0,-25.9 20.94,-46.8 46.77,-46.8 l 327.24,-29.8 -355.08,-72.5 c -25.83,0 -46.77,-20.9 -46.77,-46.8 0,-25.8 20.94,-46.7 46.77,-46.7 3.77,0 7.4,0.5 10.91,1.4 l 0.17,-1.4 373.18,25 -234.94,-109.8 c -2.53,-0.9 -4.93,-2.1 -7.23,-3.4 l -1.42,-0.7 0.04,-0.1 c -13.33,-8.2 -22.29,-22.8 -22.29,-39.6 0,-25.9 20.93,-46.8 46.76,-46.8 5.63,0 10.95,1.1 15.95,3 l 0.05,-0.1 359.88,114.5 c 30.87,9.8 63.23,14.1 95.6,12.6 l 114.84,-5.4 c 0,0 -121.06,-140.3 -74.99,-269.6 9.82,-27.5 46.52,-33.2 64.19,-9.8 l 363.37,479.7 -0.33,0.6 3384.71,116.5"
             style="fill:url(#linearGradient166);fill-opacity:1;fill-rule:nonzero;stroke:none"
             id="path168" />
        </g>
      </g>
      <path
         d="m 11496.8,13229.9 c -100.2,194.7 -252,356.8 -435.4,475.5 -179.9,116.6 -384.1,191.7 -592.2,240.2 -104.8,24.4 -209.1,46.5 -317,46.5 -68.4,0 -136.9,0 -205.31,0 -71.06,0 -142.13,0 -213.19,0 -68.73,0 -138.28,7.1 -206.6,-3.2 -419.78,-3.2 -1736.28,-399.5 -1736.28,-399.5 l 976.95,-1063.9 126.36,-1370.4 h 1937.17 l 122.8,1367.9 808.5,137.3 -265.8,569.6"
         style="fill:#f54552;fill-opacity:1;fill-rule:nonzero;stroke:none"
         id="path170" />
      <path
         d="m 8767.79,12516.6 c -0.53,0 -1.06,0 -1.59,0.1 -4.83,0.9 -8.04,5.5 -7.18,10.3 l 136.83,762.5 c 0.87,4.8 5.48,8 10.32,7.2 4.84,-0.9 8.05,-5.5 7.18,-10.4 l -136.83,-762.4 c -0.77,-4.3 -4.51,-7.3 -8.73,-7.3"
         style="fill:#000000;fill-opacity:1;fill-rule:nonzero;stroke:none"
         id="path172" />
      <path
         d="m 10945.9,12516.6 c -3.9,0 -7.5,2.6 -8.6,6.6 l -201.8,762.4 c -1.3,4.8 1.5,9.6 6.3,10.9 4.7,1.3 9.6,-1.6 10.9,-6.3 l 201.8,-762.5 c 1.3,-4.7 -1.6,-9.6 -6.3,-10.8 -0.8,-0.2 -1.5,-0.3 -2.3,-0.3"
         style="fill:#000000;fill-opacity:1;fill-rule:nonzero;stroke:none"
         id="path174" />
      <g
         id="g176">
        <g
           id="g178"
           clip-path="url(#clipPath182)">
          <path
             d="m 9882.31,13712 v 0 c -156.52,0 -277.9,153.1 -259.33,327.2 l 35.02,328.3 h 448.6 l 35.1,-328.3 c 18.5,-174.1 -102.9,-327.2 -259.39,-327.2"
             style="fill:url(#linearGradient192);fill-opacity:1;fill-rule:nonzero;stroke:none"
             id="path194" />
        </g>
      </g>
      <g
         id="g196">
        <g
           id="g198"
           clip-path="url(#clipPath202)">
          <path
             d="m 10142.8,14822.4 c -191.51,0 -307.81,64.8 -378.21,150.4 26.78,-82.9 61.73,-150.4 61.73,-150.4 -120.49,72.9 -159.94,189.2 -172.87,255.6 -74.81,-51.7 -123.9,-138 -123.9,-235.9 v -82.2 c -2.9,0.3 -5.69,0.9 -8.65,0.9 -56.51,0 -102.32,-45.8 -102.32,-102.3 0,-56.5 45.81,-102.3 102.32,-102.3 2.96,0 5.75,0.6 8.65,0.8 v -11.8 c 0,-197.2 155.55,-417.4 352.76,-417.4 197.19,0 361.39,220.2 361.39,417.4 v 11 c 56.5,0 102.4,45.8 102.4,102.3 0,56.5 -45.9,102.3 -102.4,102.3 v 69.3 c -30,-4.8 -63.3,-7.7 -100.9,-7.7"
             style="fill:url(#linearGradient212);fill-opacity:1;fill-rule:nonzero;stroke:none"
             id="path214" />
        </g>
      </g>
      <path
         d="m 10143.5,9376.8 c -9.2,0 -17.1,7.1 -17.8,16.5 l -33.6,431.6 c -0.8,9.8 6.6,18.4 16.4,19.2 9.8,0.8 18.5,-6.6 19.2,-16.4 l 33.7,-431.6 c 0.7,-9.9 -6.6,-18.5 -16.5,-19.3 -0.4,0 -0.9,0 -1.4,0"
         style="fill:#f5faff;fill-opacity:1;fill-rule:nonzero;stroke:none"
         id="path216" />
      <path
         d="M 8233.33,18255.5 H 4992.25 c -111.04,0 -201.06,-90 -201.06,-201.1 v -88.2 h 3643.2 v 88.2 c 0,111.1 -90.01,201.1 -201.06,201.1"
         style="fill:#72c4f4;fill-opacity:1;fill-rule:nonzero;stroke:none"
         id="path218" />
      <path
         d="m 5139.43,18101.3 c 0,-39.4 -31.92,-71.3 -71.28,-71.3 -39.37,0 -71.28,31.9 -71.28,71.3 0,39.3 31.91,71.2 71.28,71.2 39.36,0 71.28,-31.9 71.28,-71.2"
         style="fill:#f5faff;fill-opacity:1;fill-rule:nonzero;stroke:none"
         id="path220" />
      <path
         d="m 5328.16,18101.3 c 0,-39.4 -31.91,-71.3 -71.28,-71.3 -39.37,0 -71.28,31.9 -71.28,71.3 0,39.3 31.91,71.2 71.28,71.2 39.37,0 71.28,-31.9 71.28,-71.2"
         style="fill:#f5faff;fill-opacity:1;fill-rule:nonzero;stroke:none"
         id="path222" />
      <path
         d="m 5512.88,18101.3 c 0,-39.4 -31.92,-71.3 -71.28,-71.3 -39.37,0 -71.28,31.9 -71.28,71.3 0,39.3 31.91,71.2 71.28,71.2 39.36,0 71.28,-31.9 71.28,-71.2"
         style="fill:#f5faff;fill-opacity:1;fill-rule:nonzero;stroke:none"
         id="path224" />
      <path
         d="m 4791.19,17966.2 v -2280.1 c 0,-111 90.02,-201 201.06,-201 h 2085.54 l 749.09,-972.4 c 32.67,-42.4 100.52,-19.3 100.52,34.2 v 938.2 h 305.93 c 111.05,0 201.06,90 201.06,201.1 v 2280 h -3643.2"
         style="fill:#bbe0f8;fill-opacity:1;fill-rule:nonzero;stroke:none"
         id="path226" />
      <path
         d="m 7153.25,17065.7 c -26.63,0 -52.57,-2.9 -77.62,-8.2 -76.01,213.6 -279.39,366.8 -519.08,366.8 -172.04,0 -325.61,-78.9 -426.74,-202.4 -39.68,11.2 -81.38,17.6 -124.64,17.6 -253.54,0 -459.08,-205.5 -459.08,-459 0,-253.6 205.54,-459.1 459.08,-459.1 h 1148.08 c 205.53,0 372.15,166.6 372.15,372.1 0,205.6 -166.62,372.2 -372.15,372.2"
         style="fill:#f5faff;fill-opacity:1;fill-rule:nonzero;stroke:none"
         id="path228" />
      <path
         d="m 6784.1,16694.4 v 0 c -11.78,20.4 -37.85,27.3 -58.23,15.6 l -147.5,-85.2 v 468.2 c 0,23.5 -19.08,42.6 -42.62,42.6 v 0 c -23.54,0 -42.62,-19.1 -42.62,-42.6 v -468.2 l -147.5,85.2 c -20.39,11.7 -46.46,4.8 -58.23,-15.6 v 0 c -11.77,-20.4 -4.79,-46.5 15.6,-58.3 l 232.75,-134.3 v 0 0 l 232.75,134.3 c 20.38,11.8 27.37,37.9 15.6,58.3"
         style="fill:#72c4f4;fill-opacity:1;fill-rule:nonzero;stroke:none"
         id="path230" />
      <path
         d="m 9685.57,18746.7 h 2276.93 c 78.1,0 141.3,-63.2 141.3,-141.2 v -62.1 H 9544.31 v 62.1 c 0,78 63.24,141.2 141.26,141.2"
         style="fill:#72c4f4;fill-opacity:1;fill-rule:nonzero;stroke:none"
         id="path232" />
      <path
         d="m 11859.2,18638.4 c 0,-27.7 22.4,-50.1 50,-50.1 27.7,0 50.1,22.4 50.1,50.1 0,27.6 -22.4,50 -50.1,50 -27.6,0 -50,-22.4 -50,-50"
         style="fill:#f5faff;fill-opacity:1;fill-rule:nonzero;stroke:none"
         id="path234" />
      <path
         d="m 11726.6,18638.4 c 0,-27.7 22.4,-50.1 50,-50.1 27.7,0 50.1,22.4 50.1,50.1 0,27.6 -22.4,50 -50.1,50 -27.6,0 -50,-22.4 -50,-50"
         style="fill:#f5faff;fill-opacity:1;fill-rule:nonzero;stroke:none"
         id="path236" />
      <path
         d="m 11596.8,18638.4 c 0,-27.7 22.4,-50.1 50.1,-50.1 27.6,0 50,22.4 50,50.1 0,27.6 -22.4,50 -50,50 -27.7,0 -50.1,-22.4 -50.1,-50"
         style="fill:#f5faff;fill-opacity:1;fill-rule:nonzero;stroke:none"
         id="path238" />
      <path
         d="m 12103.8,18543.4 v -1601.8 c 0,-78 -63.2,-141.2 -141.3,-141.2 h -1465.1 l -526.29,-683.2 c -22.95,-29.8 -70.61,-13.5 -70.61,24.1 v 659.1 h -214.93 c -78.02,0 -141.26,63.2 -141.26,141.3 v 1601.7 h 2559.49"
         style="fill:#bbe0f8;fill-opacity:1;fill-rule:nonzero;stroke:none"
         id="path240" />
      <path
         d="m 11221.1,17188.9 h -807.2 c -79.9,0 -144.6,64.8 -144.6,144.6 v 807.3 c 0,79.8 64.7,144.6 144.6,144.6 h 807.2 c 79.9,0 144.7,-64.8 144.7,-144.6 v -807.3 c 0,-79.8 -64.8,-144.6 -144.7,-144.6"
         style="fill:#f5faff;fill-opacity:1;fill-rule:nonzero;stroke:none"
         id="path242" />
      <path
         d="m 10814.4,17636.3 288.9,400.1 c 13,17.9 9.5,42.9 -7.9,56.6 -17.4,13.7 -42.5,11.2 -56.9,-5.7 l -322.8,-378.1 c 22.4,0 44.9,-6.7 63.9,-21.6 17.3,-13.6 28.9,-31.7 34.8,-51.3"
         style="fill:#72c4f4;fill-opacity:1;fill-rule:nonzero;stroke:none"
         id="path244" />
      <path
         d="m 10781.2,17594.1 c -5.9,19.6 -17.5,37.7 -34.8,51.3 -19,14.9 -41.5,21.6 -63.9,21.5 -30.4,-0.1 -60.5,-13.1 -80.8,-38.9 -5.4,-6.9 -9.5,-14.4 -12.9,-22.2 -45.3,-70.6 -116.5,-113.3 -116.5,-113.3 129.8,-67.8 213.1,-45.1 256.1,-20.2 10,5 19.1,11.7 27.2,20 5.4,5 8.2,8.4 8.2,8.4 21.5,27.4 26.8,62.4 17.4,93.4"
         style="fill:#72c4f4;fill-opacity:1;fill-rule:nonzero;stroke:none"
         id="path246" />
      <path
         d="m 11694.9,16487.4 h 2277 c 78,0 141.2,-63.2 141.2,-141.2 v -62 h -2559.5 v 62 c 0,78 63.3,141.2 141.3,141.2"
         style="fill:#72c4f4;fill-opacity:1;fill-rule:nonzero;stroke:none"
         id="path248" />
      <path
         d="m 13868.5,16379.1 c 0,-27.7 22.4,-50.1 50,-50.1 27.7,0 50.1,22.4 50.1,50.1 0,27.6 -22.4,50.1 -50.1,50.1 -27.6,0 -50,-22.5 -50,-50.1"
         style="fill:#f5faff;fill-opacity:1;fill-rule:nonzero;stroke:none"
         id="path250" />
      <path
         d="m 13735.9,16379.1 c 0,-27.7 22.4,-50.1 50,-50.1 27.7,0 50.1,22.4 50.1,50.1 0,27.6 -22.4,50.1 -50.1,50.1 -27.6,0 -50,-22.5 -50,-50.1"
         style="fill:#f5faff;fill-opacity:1;fill-rule:nonzero;stroke:none"
         id="path252" />
      <path
         d="m 13606.1,16379.1 c 0,-27.7 22.4,-50.1 50.1,-50.1 27.6,0 50.1,22.4 50.1,50.1 0,27.6 -22.5,50.1 -50.1,50.1 -27.7,0 -50.1,-22.5 -50.1,-50.1"
         style="fill:#f5faff;fill-opacity:1;fill-rule:nonzero;stroke:none"
         id="path254" />
      <path
         d="m 14113.1,16284.2 v -1601.8 c 0,-78 -63.2,-141.3 -141.2,-141.3 h -1465.2 l -526.3,-683.2 c -22.9,-29.7 -70.6,-13.5 -70.6,24.1 v 659.1 h -214.9 c -78,0 -141.3,63.3 -141.3,141.3 v 1601.8 h 2559.5"
         style="fill:#bbe0f8;fill-opacity:1;fill-rule:nonzero;stroke:none"
         id="path256" />
      <path
         d="m 13230.4,14929.6 h -807.2 c -79.9,0 -144.6,64.8 -144.6,144.7 v 807.2 c 0,79.9 64.7,144.6 144.6,144.6 h 807.2 c 79.9,0 144.7,-64.7 144.7,-144.6 v -807.2 c 0,-79.9 -64.8,-144.7 -144.7,-144.7"
         style="fill:#f5faff;fill-opacity:1;fill-rule:nonzero;stroke:none"
         id="path258" />
      <path
         d="m 12981.5,15361.3 27.7,232 -50.5,33.3 -36.9,24.3 -50.5,33.3 -202.4,-116.7 -70.3,-400.8 162.3,245.9 c -7.1,15.2 -6.5,33.5 3.4,48.5 15.2,23 46.1,29.3 69.2,14.2 23,-15.2 29.3,-46.2 14.1,-69.2 -10.3,-15.5 -27.8,-23.3 -45.2,-22 l -161.7,-245.2 340.8,222.4"
         style="fill:#72c4f4;fill-opacity:1;fill-rule:nonzero;stroke:none"
         id="path260" />
      <path
         d="m 13022.9,15612.5 -137.1,90.4 45.3,68.7 137.1,-90.4 -45.3,-68.7"
         style="fill:#72c4f4;fill-opacity:1;fill-rule:nonzero;stroke:none"
         id="path262" />
      <path
         d="M 10894.9,10868.8 H 8886.47 c -37.81,0 -69.4,28.8 -72.89,66.5 l -152.54,1645 c -3.98,43 29.79,80 72.9,80 h 2342.56 c 43.6,0 77.5,-37.9 72.7,-81.2 L 10967.7,10934 c -4.1,-37.1 -35.5,-65.2 -72.8,-65.2"
         style="fill:#bbe0f8;fill-opacity:1;fill-rule:nonzero;stroke:none"
         id="path264" />
      <path
         d="m 10109.9,11764.6 c 0,-112.7 -91.3,-204 -203.99,-204 -112.65,0 -203.99,91.3 -203.99,204 0,112.6 91.34,204 203.99,204 112.69,0 203.99,-91.4 203.99,-204"
         style="fill:#72c4f4;fill-opacity:1;fill-rule:nonzero;stroke:none"
         id="path266" />
      <path
         d="M 11043.9,12597.3 H 8761.34 v 19.1 h 2282.56 v -19.1"
         style="fill:#72c4f4;fill-opacity:1;fill-rule:nonzero;stroke:none"
         id="path268" />
      <path
         d="M 10976.7,10995.4 H 8806.12 c -11.25,0 -20.37,9.1 -20.37,20.4 0,11.2 9.12,20.3 20.37,20.3 h 2170.58 c 11.3,0 20.4,-9.1 20.4,-20.3 0,-11.3 -9.1,-20.4 -20.4,-20.4"
         style="fill:#72c4f4;fill-opacity:1;fill-rule:nonzero;stroke:none"
         id="path270" />
      <path
         d="M 15350,10407.2 H 4602.7 v 608.6 H 15350 v -608.6"
         style="fill:#72c4f4;fill-opacity:1;fill-rule:nonzero;stroke:none"
         id="path272" />
      <path
         d="M 15848.3,10829 H 4104.4 c -51.56,0 -93.36,41.8 -93.36,93.4 v 0 c 0,51.6 41.8,93.4 93.36,93.4 h 11743.9 c 51.5,0 93.3,-41.8 93.3,-93.4 v 0 c 0,-51.6 -41.8,-93.4 -93.3,-93.4"
         style="fill:#bbe0f8;fill-opacity:1;fill-rule:nonzero;stroke:none"
         id="path274" />
      <path
         d="m 4190.75,3097.3 h -365.63 l 1566.51,7309.9 h 365.63 L 4190.75,3097.3"
         style="fill:#bbe0f8;fill-opacity:1;fill-rule:nonzero;stroke:none"
         id="path276" />
      <path
         d="m 15803.9,3097.3 h 365.6 L 14603,10407.2 h -365.6 l 1566.5,-7309.9"
         style="fill:#bbe0f8;fill-opacity:1;fill-rule:nonzero;stroke:none"
         id="path278" />
      <path
         d="M 18144.3,3073.3 H 2344.17 c -13.8,0 -25,11.2 -25,25 0,13.8 11.2,25 25,25 H 18144.3 c 13.8,0 25,-11.2 25,-25 0,-13.8 -11.2,-25 -25,-25"
         style="fill:#000000;fill-opacity:1;fill-rule:nonzero;stroke:none"
         id="path280" />
      <path
         d="m 16015.1,12339.4 h -1013.5 c 0,0 -562.1,-1355.5 506.7,-1303.2 1068.8,-52.3 506.8,1303.2 506.8,1303.2"
         style="fill:#bbe0f8;fill-opacity:1;fill-rule:nonzero;stroke:none"
         id="path282" />
      <path
         d="m 16217,11018.4 h -1407.2 l -58.7,88.1 h 1514.4 l -48.5,-88.1"
         style="fill:#72c4f4;fill-opacity:1;fill-rule:nonzero;stroke:none"
         id="path284" />
      <path
         d="m 18011.7,10055.9 c -30,0 -61.3,0.6 -94,2 -257.9,10.8 -650,73 -1053.9,307.7 -250.2,145.4 -408.3,378.2 -483.3,711.9 -65,289.6 -58.8,615.9 -53.3,903.9 4.4,229.7 8.6,446.7 -23.7,610.7 -21.2,107.3 -66.8,171.5 -135.6,190.9 -102.1,28.8 -260.5,-39.4 -458.2,-197.2 -150.7,-120.3 -271.8,-251.2 -273,-252.5 -3.4,-3.6 -9,-3.8 -12.6,-0.5 -3.6,3.3 -3.8,9 -0.5,12.6 19.9,21.6 490.2,527.7 749.2,454.7 75.7,-21.3 125.6,-90.2 148.1,-204.5 32.7,-166 28.5,-383.8 24.1,-614.5 -5.5,-287 -11.7,-612.2 52.9,-899.7 73.8,-328.6 229.2,-557.7 474.9,-700.4 766.8,-445.6 1501.5,-274.5 1508.9,-272.7 4.7,1.1 9.6,-1.8 10.7,-6.6 1.2,-4.7 -1.8,-9.5 -6.5,-10.7 -1.7,-0.4 -147.6,-35.1 -374.2,-35.1"
         style="fill:#000000;fill-opacity:1;fill-rule:nonzero;stroke:none"
         id="path286" />
      <path
         d="m 16866.7,11824.5 c 100.9,19.4 167,116.9 147.7,217.9 -19.4,100.9 -116.9,167 -217.9,147.7 101,19.3 167.1,116.9 147.8,217.8 -19.4,101 -116.9,167.1 -217.9,147.7 0,0 -291.2,-19 -386.3,-453.1 248.9,-368 526.6,-278 526.6,-278"
         style="fill:#8bd0ca;fill-opacity:1;fill-rule:nonzero;stroke:none"
         id="path288" />
      <path
         d="m 16366.4,12100.1 c -3.5,0 -6.6,2.5 -7.3,6.1 -0.8,4 1.8,7.9 5.9,8.7 l 456.4,87.5 c 4.1,0.8 8,-1.8 8.7,-5.9 0.8,-4 -1.8,-7.9 -5.9,-8.7 l -456.4,-87.5 c -0.5,-0.1 -0.9,-0.2 -1.4,-0.2"
         style="fill:#000000;fill-opacity:1;fill-rule:nonzero;stroke:none"
         id="path290" />
      <path
         d="m 16018.2,12257.7 c -97.7,32.1 -202.8,-21 -234.9,-118.7 -32.1,-97.6 21,-202.8 118.6,-234.9 -97.6,32.1 -202.8,-21 -234.9,-118.7 -32.1,-97.6 21.1,-202.8 118.7,-234.9 0,0 263.8,-124.8 557.7,208.5 -38.8,442.6 -325.2,498.7 -325.2,498.7"
         style="fill:#8bd0ca;fill-opacity:1;fill-rule:nonzero;stroke:none"
         id="path292" />
      <path
         d="m 16318,11759.9 c -0.7,0 -1.5,0.1 -2.3,0.3 l -441.5,145.2 c -3.9,1.2 -6,5.5 -4.7,9.4 1.2,3.9 5.5,6 9.4,4.7 l 441.5,-145.1 c 3.9,-1.3 6,-5.5 4.7,-9.4 -1,-3.2 -3.9,-5.1 -7.1,-5.1"
         style="fill:#000000;fill-opacity:1;fill-rule:nonzero;stroke:none"
         id="path294" />
      <path
         d="m 16884.5,11071.5 c 99,27.6 157,130.2 129.5,229.2 -27.6,99 -130.2,157 -229.2,129.5 99,27.5 157,130.1 129.5,229.1 -27.5,99 -130.1,157 -229.2,129.5 0,0 -288.7,-42.7 -348,-483.1 278,-346.6 547.4,-234.2 547.4,-234.2"
         style="fill:#8bd0ca;fill-opacity:1;fill-rule:nonzero;stroke:none"
         id="path296" />
      <path
         d="m 16362.8,11305.4 c -3.2,0 -6.2,2.2 -7.1,5.5 -1.1,4 1.2,8.1 5.1,9.2 l 447.8,124.4 c 4,1.1 8.1,-1.2 9.2,-5.2 1.1,-3.9 -1.2,-8 -5.2,-9.2 l -447.8,-124.4 c -0.6,-0.2 -1.3,-0.3 -2,-0.3"
         style="fill:#000000;fill-opacity:1;fill-rule:nonzero;stroke:none"
         id="path298" />
      <path
         d="m 15807.4,11183.6 c -83.9,-59.4 -103.8,-175.5 -44.5,-259.4 59.4,-83.9 175.6,-103.8 259.5,-44.4 -83.9,-59.4 -103.8,-175.6 -44.5,-259.5 59.4,-83.9 175.5,-103.8 259.5,-44.4 0,0 257.3,137.8 164.3,572.3 -378.8,232.2 -594.3,35.4 -594.3,35.4"
         style="fill:#8bd0ca;fill-opacity:1;fill-rule:nonzero;stroke:none"
         id="path300" />
      <path
         d="m 16000.6,10856.9 c -2.4,0 -4.7,1 -6.1,3.1 -2.4,3.4 -1.6,8 1.7,10.4 l 379.4,268.4 c 3.4,2.4 8,1.6 10.4,-1.8 2.4,-3.3 1.6,-8 -1.8,-10.4 l -379.3,-268.4 c -1.4,-0.9 -2.9,-1.3 -4.3,-1.3"
         style="fill:#000000;fill-opacity:1;fill-rule:nonzero;stroke:none"
         id="path302" />
      <path
         d="m 17004,10357.4 c 80.1,16.6 131.6,95 115,175.1 -16.5,80.1 -94.9,131.7 -175.1,115.1 80.2,16.6 131.7,95 115.1,175.1 -16.6,80.1 -95,131.7 -175.1,115.1 0,0 -231.6,-18.5 -302.3,-365.1 202.4,-290.2 422.4,-215.3 422.4,-215.3"
         style="fill:#8bd0ca;fill-opacity:1;fill-rule:nonzero;stroke:none"
         id="path304" />
      <path
         d="m 16602.5,10571 c -2.8,0 -5.3,1.9 -5.8,4.8 -0.7,3.2 1.3,6.3 4.6,7 l 362.3,74.9 c 3.2,0.7 6.3,-1.4 7,-4.6 0.7,-3.2 -1.4,-6.3 -4.6,-7 l -362.3,-74.9 c -0.4,-0.1 -0.8,-0.2 -1.2,-0.2"
         style="fill:#000000;fill-opacity:1;fill-rule:nonzero;stroke:none"
         id="path306" />
      <path
         d="m 16818.7,10045.8 c -8,-57.8 32.4,-111.3 90.3,-119.3 57.9,-8 111.3,32.5 119.3,90.3 -8,-57.8 32.4,-111.2 90.3,-119.3 57.9,-7.9 111.3,32.5 119.3,90.4 0,0 42.9,160.2 -173.4,290.6 -243.6,-66.8 -245.8,-232.7 -245.8,-232.7"
         style="fill:#8bd0ca;fill-opacity:1;fill-rule:nonzero;stroke:none"
         id="path308" />
      <path
         d="m 17026.2,9995.9 c -0.3,0 -0.5,0 -0.8,0 -3.3,0.5 -5.5,3.5 -5.1,6.7 l 36.2,261.7 c 0.5,3.3 3.5,5.5 6.7,5.1 3.2,-0.5 5.5,-3.5 5.1,-6.7 l -36.2,-261.7 c -0.4,-3 -3,-5.1 -5.9,-5.1"
         style="fill:#000000;fill-opacity:1;fill-rule:nonzero;stroke:none"
         id="path310" />
      <path
         d="m 17639.9,10238.4 c 36.4,45.8 28.8,112.3 -17,148.7 -45.7,36.3 -112.3,28.7 -148.6,-17 36.3,45.7 28.7,112.3 -17,148.6 -45.8,36.4 -112.3,28.8 -148.7,-17 0,0 -118.5,-116.1 1.3,-338.5 243.7,-66.5 330,75.2 330,75.2"
         style="fill:#8bd0ca;fill-opacity:1;fill-rule:nonzero;stroke:none"
         id="path312" />
      <path
         d="m 17319.4,10169.2 c -1.3,0 -2.6,0.4 -3.7,1.3 -2.6,2 -3,5.8 -1,8.3 l 164.4,206.9 c 2,2.5 5.8,3 8.3,0.9 2.6,-2 3,-5.8 1,-8.3 l -164.4,-206.9 c -1.1,-1.4 -2.9,-2.2 -4.6,-2.2"
         style="fill:#000000;fill-opacity:1;fill-rule:nonzero;stroke:none"
         id="path314" />
      <path
         d="m 18030.4,10190.1 c 17,36.3 1.4,79.4 -34.8,96.4 -36.3,17 -79.4,1.4 -96.4,-34.8 17,36.2 1.4,79.4 -34.9,96.4 -36.2,16.9 -79.4,1.3 -96.4,-34.9 0,0 -60.6,-96.2 54.5,-225.4 172.9,-5.8 208,102.3 208,102.3"
         style="fill:#8bd0ca;fill-opacity:1;fill-rule:nonzero;stroke:none"
         id="path316" />
      <path
         d="m 17826.8,10091.3 c -0.9,0 -1.7,0.1 -2.5,0.5 -3,1.4 -4.3,4.9 -2.9,7.9 l 76.8,163.9 c 1.4,3 5,4.2 7.9,2.9 3,-1.4 4.3,-5 2.9,-7.9 l -76.9,-163.9 c -1,-2.2 -3.1,-3.4 -5.3,-3.4"
         style="fill:#000000;fill-opacity:1;fill-rule:nonzero;stroke:none"
         id="path318" />
      <path
         d="m 17641.6,9848.2 c 19.1,-35.2 63.1,-48.3 98.3,-29.2 35.2,19.1 48.2,63.1 29.2,98.3 19,-35.2 63,-48.3 98.2,-29.2 35.2,19.1 48.3,63.1 29.2,98.3 0,0 -41.4,105.9 -213.7,90 -107.3,-135.7 -41.2,-228.2 -41.2,-228.2"
         style="fill:#8bd0ca;fill-opacity:1;fill-rule:nonzero;stroke:none"
         id="path320" />
      <path
         d="m 17774,9902.2 c -2.1,0 -4.1,1.1 -5.2,3.1 l -86.2,159.1 c -1.6,2.9 -0.5,6.5 2.3,8.1 2.9,1.5 6.5,0.5 8.1,-2.4 l 86.2,-159.1 c 1.6,-2.9 0.5,-6.5 -2.3,-8.1 -0.9,-0.5 -1.9,-0.7 -2.9,-0.7"
         style="fill:#000000;fill-opacity:1;fill-rule:nonzero;stroke:none"
         id="path322" />
      <path
         d="m 18179.3,9885.4 c 14.7,-27 48.4,-37 75.3,-22.4 27,14.6 37,48.3 22.4,75.3 14.6,-27 48.4,-37 75.3,-22.4 27,14.7 37,48.4 22.4,75.3 0,0 -31.7,81.2 -163.8,69 -82.2,-104 -31.6,-174.8 -31.6,-174.8"
         style="fill:#8bd0ca;fill-opacity:1;fill-rule:nonzero;stroke:none"
         id="path324" />
      <path
         d="m 18280.8,9925.3 c -2.1,0 -4.1,1.2 -5.2,3.2 l -66.1,121.9 c -1.6,2.9 -0.5,6.5 2.4,8 2.9,1.6 6.5,0.5 8,-2.3 l 66.1,-122 c 1.6,-2.9 0.5,-6.5 -2.3,-8 -0.9,-0.5 -1.9,-0.8 -2.9,-0.8"
         style="fill:#000000;fill-opacity:1;fill-rule:nonzero;stroke:none"
         id="path326" />
      <path
         d="m 18536.3,10102.9 c 22.6,20.8 24,55.9 3.2,78.5 -20.8,22.6 -55.9,24 -78.5,3.2 22.6,20.8 24,55.9 3.2,78.5 -20.8,22.5 -55.9,23.9 -78.5,3.1 0,0 -70.9,-50.6 -26.6,-175.7 121,-54.1 177.2,12.4 177.2,12.4"
         style="fill:#8bd0ca;fill-opacity:1;fill-rule:nonzero;stroke:none"
         id="path328" />
      <path
         d="m 18364.9,10090 c -1.6,0 -3.2,0.7 -4.3,1.9 -2.3,2.4 -2.1,6.2 0.3,8.4 l 102,94.1 c 2.4,2.2 6.1,2 8.4,-0.4 2.2,-2.4 2,-6.1 -0.4,-8.4 l -102,-94 c -1.1,-1.1 -2.5,-1.6 -4,-1.6"
         style="fill:#000000;fill-opacity:1;fill-rule:nonzero;stroke:none"
         id="path330" />
      <path
         d="m 15316.1,12330.5 c -4.5,0 -8.4,3.3 -8.9,7.9 -1.2,11.5 -132,1160.3 -519.4,1433.1 -4,2.8 -5,8.4 -2.1,12.4 2.8,4 8.3,5 12.3,2.1 165.7,-116.6 304.8,-395.6 413.3,-829.1 80.6,-322 113.3,-613.7 113.6,-616.6 0.6,-4.9 -3,-9.2 -7.8,-9.8 -0.4,0 -0.7,0 -1,0"
         style="fill:#000000;fill-opacity:1;fill-rule:nonzero;stroke:none"
         id="path332" />
      <path
         d="m 15662.1,12993.2 c 75.9,44.7 101.2,142.6 56.5,218.5 -44.8,76 -142.7,101.2 -218.6,56.5 75.9,44.7 101.2,142.6 56.4,218.5 -44.7,76 -142.6,101.2 -218.5,56.5 0,0 -229.7,-99.4 -181.2,-477.4 307.2,-225.5 505.4,-72.6 505.4,-72.6"
         style="fill:#8bd0ca;fill-opacity:1;fill-rule:nonzero;stroke:none"
         id="path334" />
      <path
         d="m 15156.7,13058.3 c -2.6,0 -5.1,1.3 -6.5,3.7 -2.1,3.6 -0.9,8.1 2.7,10.2 l 343.3,202.4 c 3.6,2.1 8.1,0.9 10.2,-2.6 2.1,-3.6 0.9,-8.2 -2.6,-10.2 l -343.4,-202.4 c -1.2,-0.7 -2.5,-1.1 -3.7,-1.1"
         style="fill:#000000;fill-opacity:1;fill-rule:nonzero;stroke:none"
         id="path336" />
      <path
         d="m 14978.1,13057.3 c -84.7,24.4 -173.1,-24.5 -197.5,-109.2 -24.4,-84.7 24.5,-173.2 109.2,-197.5 -84.7,24.3 -173.1,-24.6 -197.5,-109.3 -24.4,-84.7 24.5,-173.1 109.2,-197.5 0,0 230.2,-98.5 471.3,196.5 -47.4,378.1 -294.7,417 -294.7,417"
         style="fill:#8bd0ca;fill-opacity:1;fill-rule:nonzero;stroke:none"
         id="path338" />
      <path
         d="m 15272.8,12632.9 c -0.6,0 -1.3,0.1 -2,0.3 l -383,110.2 c -4,1.1 -6.3,5.3 -5.1,9.2 1.1,4 5.3,6.3 9.2,5.1 l 383,-110.2 c 4,-1.1 6.2,-5.3 5.1,-9.2 -0.9,-3.3 -3.9,-5.4 -7.2,-5.4"
         style="fill:#000000;fill-opacity:1;fill-rule:nonzero;stroke:none"
         id="path340" />
      <path
         d="m 14760.1,13548.5 c -65.3,-6.1 -113.4,-64.1 -107.3,-129.5 6.2,-65.3 64.1,-113.4 129.5,-107.2 -65.4,-6.2 -113.4,-64.1 -107.3,-129.5 6.1,-65.4 64.1,-113.4 129.5,-107.3 0,0 186.3,-5.7 273.4,264.4 -135.7,249.3 -317.8,209.1 -317.8,209.1"
         style="fill:#8bd0ca;fill-opacity:1;fill-rule:nonzero;stroke:none"
         id="path342" />
      <path
         d="m 14782.3,13306.2 c -2.8,0 -5.3,2.2 -5.5,5 -0.3,3.1 1.9,5.8 5,6.1 l 295.5,27.6 c 3.1,0.4 5.8,-1.9 6.1,-5 0.3,-3 -2,-5.7 -5,-6 l -295.6,-27.7 c -0.2,0 -0.3,0 -0.5,0"
         style="fill:#000000;fill-opacity:1;fill-rule:nonzero;stroke:none"
         id="path344" />
      <path
         d="m 15334.2,13719.9 c 17.8,63.2 -19.1,128.8 -82.3,146.5 -63.2,17.8 -128.9,-19.1 -146.6,-82.3 17.7,63.2 -19.1,128.9 -82.3,146.6 -63.3,17.7 -128.9,-19.1 -146.6,-82.3 0,0 -72.2,-171.9 148.7,-350.1 281.4,37.2 309.1,221.6 309.1,221.6"
         style="fill:#8bd0ca;fill-opacity:1;fill-rule:nonzero;stroke:none"
         id="path346" />
      <path
         d="m 15025.1,13492.8 c -0.5,0 -1,0 -1.5,0.2 -3,0.8 -4.7,3.9 -3.9,6.8 l 80.3,285.8 c 0.8,3 3.8,4.7 6.8,3.9 3,-0.9 4.7,-3.9 3.8,-6.9 l -80.2,-285.8 c -0.7,-2.4 -2.9,-4 -5.3,-4"
         style="fill:#000000;fill-opacity:1;fill-rule:nonzero;stroke:none"
         id="path348" />
      <path
         d="m 14702.7,14128.2 c -53.6,38 -127.8,25.4 -165.8,-28.2 -38,-53.5 -25.4,-127.7 28.2,-165.7 -53.6,38 -127.8,25.4 -165.8,-28.2 -38,-53.5 -25.4,-127.7 28.2,-165.7 0,0 137.5,-125.9 379.7,22.1 59.7,277.4 -104.5,365.7 -104.5,365.7"
         style="fill:#8bd0ca;fill-opacity:1;fill-rule:nonzero;stroke:none"
         id="path350" />
      <path
         d="m 14807.2,13756.9 c -1.2,0 -2.3,0.4 -3.3,1 l -242,171.9 c -2.5,1.7 -3.1,5.2 -1.4,7.7 1.8,2.5 5.3,3.1 7.8,1.3 l 242.1,-171.8 c 2.5,-1.8 3.1,-5.2 1.3,-7.7 -1.1,-1.6 -2.8,-2.4 -4.5,-2.4"
         style="fill:#000000;fill-opacity:1;fill-rule:nonzero;stroke:none"
         id="path352" />
      <path
         d="m 13592.5,11451.8 784.5,431.7 v -93.7 l -784.5,-536.8 v 198.8"
         style="fill:#bbe0f8;fill-opacity:1;fill-rule:nonzero;stroke:none"
         id="path354" />
      <path
         d="m 14526,11750.1 c 8.1,-14.2 1.4,-32.5 -13.9,-38 -79,-27.9 -169,3.9 -211.6,79.3 -42.7,75.4 -23.7,169 40.9,222.3 12.6,10.4 31.7,6.6 39.7,-7.6 l 144.9,-256"
         style="fill:#72c4f4;fill-opacity:1;fill-rule:nonzero;stroke:none"
         id="path356" />
      <path
         d="m 12903.4,11089 c -376.2,0 -589.3,165.1 -665,328.7 -73.8,159.8 -38.6,336.4 94,472.4 76.5,78.4 160.8,111.1 250.2,97 219.3,-34.3 379.6,-351.1 386.3,-364.6 l -98.1,-49 c -38.9,77.8 -169.6,284.1 -305.3,305.3 -53.1,8.1 -103.7,-13.2 -154.5,-65.3 -99.7,-102.2 -126.9,-232.9 -73,-349.7 66.4,-143.6 272,-288.2 650.8,-262.1 l 7.4,-109.5 c -31.9,-2.2 -62.9,-3.2 -92.8,-3.2"
         style="fill:#bbe0f8;fill-opacity:1;fill-rule:nonzero;stroke:none"
         id="path358" />
      <path
         d="m 13726.3,11020.1 h -1049 l 236,863.4 h 598.5 l 214.5,-863.4"
         style="fill:#72c4f4;fill-opacity:1;fill-rule:nonzero;stroke:none"
         id="path360" />
      <path
         d="m 13530.5,11787.9 h -637.7 c -11.4,0 -20.6,9.2 -20.6,20.5 0,11.4 9.2,20.6 20.6,20.6 h 637.7 c 11.4,0 20.6,-9.2 20.6,-20.6 0,-11.3 -9.2,-20.5 -20.6,-20.5"
         style="fill:#e6eff2;fill-opacity:1;fill-rule:nonzero;stroke:none"
         id="path362" />
    </g>
  </g>
</svg>
