<?xml version="1.0" encoding="UTF-8"?>
<svg width="100pt" height="100pt" version="1.1" viewBox="0 0 100 100" xmlns="http://www.w3.org/2000/svg">
 <path d="m68.062 85.266h-49.582c-2.7461 0-5.2422-1.125-7.0547-2.9336-1.8203-1.8203-2.9414-4.3164-2.9414-7.0625v-16.262c-0.87109-0.46875-1.668-1.0625-2.3633-1.7578-1.8203-1.8203-2.9414-4.3164-2.9414-7.0625v-23.543c0-2.7461 1.125-5.2422 2.9336-7.0547 1.8203-1.8203 4.3164-2.9414 7.0625-2.9414h15.195v-7.6953c0-1.1055 0.89453-2 2-2h29.82c1.1055 0 2 0.89453 2 2v7.6953h15.195c2.7461 0 5.2422 1.125 7.0547 2.9336 1.8203 1.8203 2.9414 4.3164 2.9414 7.0625v1.7031c1.0703 0.74609 2.0742 1.5859 2.9922 2.5078 3.9844 3.9844 6.4453 9.4844 6.4453 15.562s-2.4648 11.582-6.4453 15.562c-3.5391 3.5391-8.2812 5.8789-13.562 6.3555v1.1914h0.75391c1.1016 0 2.1016 0.44922 2.8281 1.1719 0.72266 0.72266 1.1719 1.7227 1.1719 2.8281v15.531c0 1.1016-0.44922 2.1016-1.1719 2.8281-0.72266 0.72266-1.7227 1.1719-2.8281 1.1719h-5.5039c-1.1016 0-2.1016-0.44922-2.8281-1.1719-0.72266-0.72266-1.1719-1.7227-1.1719-2.8281zm-27.969-34.27h10.375c1.1055 0 2 0.89453 2 2v3.1875h2.6211c-1.4609-2.9453-2.2812-6.2617-2.2812-9.7695 0-6.0781 2.4648-11.582 6.4453-15.562 3.9844-3.9844 9.4883-6.4453 15.562-6.4453 3.0312 0 5.918 0.61328 8.5469 1.7227-0.125-1.4453-0.76562-2.7539-1.7383-3.7266-1.0859-1.0859-2.5898-1.7617-4.2383-1.7617h-64.211c-1.6523 0-3.1523 0.67578-4.2383 1.7617-1.0859 1.0859-1.7617 2.5898-1.7617 4.2383v23.543c0 1.6523 0.67578 3.1523 1.7617 4.2383 1.1289 1.125 2.6484 1.7617 4.2383 1.7617h24.918v-3.1875c0-1.1055 0.89453-2 2-2zm12.375 9.1875v3.1875c0 1.1055-0.89453 2-2 2h-10.375c-1.1055 0-2-0.89453-2-2v-3.1875h-24.918c-0.23438 0-0.46484-0.007813-0.69141-0.023438v15.109c0 1.6523 0.67578 3.1523 1.7617 4.2383 1.0859 1.0859 2.5898 1.7617 4.2383 1.7617h49.582v-7.7422c0-1.1016 0.44922-2.1016 1.1719-2.8281 0.72266-0.72266 1.7227-1.1719 2.8281-1.1719h0.75391v-1.1914c-5.2812-0.47656-10.023-2.8164-13.562-6.3555-0.56641-0.56641-1.1016-1.168-1.6094-1.793h-5.1797zm-4-5.1875h-6.375v6.375h6.375zm-16.098-38.355h25.82v-5.6953h-25.82zm45.199 56.883h-5.5078v15.531h5.5039v-15.531zm9.9844-39.848c-3.3672-3.3672-7.9219-5.2734-12.734-5.2734-4.9727 0-9.4766 2.0156-12.734 5.2734-3.2578 3.2578-5.2734 7.7617-5.2734 12.734 0 4.8242 1.9141 9.375 5.2734 12.734 3.2578 3.2578 7.7617 5.2734 12.734 5.2734 4.9727 0 9.4766-2.0156 12.734-5.2734 3.2578-3.2578 5.2734-7.7617 5.2734-12.734s-2.0156-9.4766-5.2734-12.734z" fill='#eda35a'/>
</svg>
