<?xml version="1.0" encoding="UTF-8" standalone="no"?>
<!-- Created with Inkscape (http://www.inkscape.org/) -->

<svg
   version="1.1"
   id="svg2"
   width="4000"
   height="2666.6667"
   viewBox="0 0 4000 2666.6667"
   sodipodi:docname="Multitasking_2.eps"
   xmlns:inkscape="http://www.inkscape.org/namespaces/inkscape"
   xmlns:sodipodi="http://sodipodi.sourceforge.net/DTD/sodipodi-0.dtd"
   xmlns="http://www.w3.org/2000/svg"
   xmlns:svg="http://www.w3.org/2000/svg">
  <defs
     id="defs6" />
  <sodipodi:namedview
     id="namedview4"
     pagecolor="#bbe0f8"
     bordercolor="#000000"
     borderopacity="0.25"
     inkscape:showpageshadow="2"
     inkscape:pageopacity="0.0"
     inkscape:pagecheckerboard="0"
     inkscape:deskcolor="#d1d1d1" />
  <g
     id="g8"
     inkscape:groupmode="layer"
     inkscape:label="ink_ext_XXXXXX"
     transform="matrix(1.3333333,0,0,-1.3333333,0,2666.6667)">
    <g
       id="g10"
       transform="scale(0.1)">
      <path
         d="M 0,0 H 30000 V 20000 H 0 Z"
         style="fill:#4c9aff;fill-opacity:1;fill-rule:nonzero;stroke:none"
         id="path12" />
      <path
         d="m 20052.8,3444.3 62.6,314 c 90.4,451.1 -116.1,1221.2 -386.5,1964.8 527.6,79.1 1083.3,211.1 1645.2,386.9 v 0 0 c 602.4,188.5 1212.2,427.6 1802.5,706.1 110,-769.7 -88.5,-1561.9 -677,-2153.7 -623.6,-626.8 -1495.8,-994.7 -2446.8,-1218.1 m -10558.86,91.2 c -227.48,97.1 -439.17,208.8 -631.5,337 -902.63,601.2 -1426.79,1443.3 -1604.83,2345.5 428.02,-138.7 848.51,-246.6 1260.99,-322.3 v 0 0 c 468.98,-85.8 927.55,-130 1375.3,-130 14.62,0 29.13,0.1 43.73,0.2 C 9643.6,4878.2 9418.94,3995.7 9493.94,3535.5 m -748.23,4184.7 c -465.4,0 -948.39,39.3 -1448.87,118.4 70.09,291.8 173.74,578.7 309.97,855 908.83,1843.4 3270.89,2991.1 5586.69,3197.6 295.3,26.4 591.4,39.1 886.6,39.1 103.6,0 207,-1.6 310.4,-4.7 l -149.6,-1006.3 c 436.3,-413 1003,-843.4 1510.7,-843.4 90.7,0 179.6,13.7 265.4,43.8 376.7,131.4 483.1,400.4 485.6,733.7 v 0 c 0,3.6 0,7.3 0,10.9 0,183.6 -30.3,386.6 -63.9,596.9 -11.5,71.9 -23.4,144.7 -34.6,217.9 1289.4,-274 2527,-755.8 3641.3,-1364.2 980.7,-535.4 1905.6,-1192.5 2507.2,-2022 -619.4,-154.6 -1320.4,-300 -2062.4,-379 -363.7,-38.9 -737.1,-61.7 -1115.7,-61.7 -239,0 -480,9.1 -721.7,28.9 -219.7,281.1 -473.4,526.8 -764.8,701.1 -648.7,387.9 -1135.9,506.7 -1853.6,724 l -841.2,-250.2 -771.7,236.3 -172.6,-130.7 -475.6,165.5 -1119.1,-372.4 c -512.2,-170.4 -974,-437.5 -1361.9,-778.8 -670.6,-259.4 -1390.08,-408.8 -2158.84,-446.4 -127.9,-6.2 -257.09,-9.3 -387.75,-9.3"
         style="fill:#e6eff2;fill-opacity:1;fill-rule:nonzero;stroke:none"
         id="path14" />
      <path
         d="m 5878.77,8155.8 c -210.55,60.2 -423.66,126.1 -639.76,198.8 -101.35,34.1 -183.33,110.8 -226.6,210.2 -125.56,288.4 -428.19,864.7 -435.31,602.4 -13.35,-491.6 173.1,-1282.7 361.86,-1774.1 53.54,-139.4 155.95,-254.1 287.41,-321.1 240.48,-122.6 478.88,-236.8 715.34,-343 60.94,466.8 51.2,917.1 -62.94,1426.8"
         style="fill:#ff9e9b;fill-opacity:1;fill-rule:nonzero;stroke:none"
         id="path16" />
      <path
         d="m 11846.9,6076.4 c -1038.2,-348.8 -2150.72,-396.3 -3328.3,-180.7 -828,151.9 -1688.14,433.9 -2577.05,833.5 60.9,466.8 51.31,916.8 -62.57,1426.6 1169.65,-334.1 2254.19,-474.7 3254.48,-426.3 919.34,45 1768.24,249.8 2547.44,611.5 l 166,-2264.6"
         style="fill:#007cf4;fill-opacity:1;fill-rule:nonzero;stroke:none"
         id="path18" />
      <path
         d="m 9893.9,5765.7 c -447.75,0 -906.32,44.2 -1375.3,130 274.9,565.7 502.65,1211.4 614.86,1833.8 768.76,37.6 1488.24,187 2158.84,446.4 -455.3,-400.6 -808.8,-903.5 -1022,-1471.9 -112.8,-300.5 -227.2,-619.6 -332.67,-938.1 -14.6,-0.1 -29.11,-0.2 -43.73,-0.2"
         style="fill:#050542;fill-opacity:1;fill-rule:nonzero;stroke:none"
         id="path20" />
      <path
         d="m 4745.24,7149.4 -897.56,-203.5 c -156.09,-35.4 -312,59.8 -351.88,214.8 l -547.14,2126.7 1521.85,335.5 497.28,-2117.3 c 37.55,-160 -62.36,-319.8 -222.55,-356.2"
         style="fill:#e6eff2;fill-opacity:1;fill-rule:nonzero;stroke:none"
         id="path22" />
      <path
         d="m 2436,9332.8 c 266.5,148.3 533.01,296.6 799.52,444.9 -19.03,5 -38.06,10 -57.08,15 364.44,-723.8 728.87,-1447.6 1093.31,-2171.4 51.53,-102.3 103.08,-204.7 154.62,-307.1 24.14,-47.9 96.14,-5.8 72.04,42.1 -364.44,723.8 -728.87,1447.6 -1093.31,2171.4 -51.54,102.4 -103.08,204.7 -154.62,307.1 -10.28,20.4 -38.36,25.4 -57.07,15 -266.5,-148.3 -533.01,-296.7 -799.52,-445 -46.91,-26.1 -4.89,-98.2 42.11,-72"
         style="fill:#013d55;fill-opacity:1;fill-rule:nonzero;stroke:none"
         id="path24" />
      <path
         d="m 3901.55,7167.4 c -91.48,0 -172.95,56.5 -195.21,142 l -360.39,1383.7 389.25,-6.2 c 178.86,-355.2 357.69,-710.4 536.55,-1065.6 51.53,-102.3 103.08,-204.7 154.62,-307.1 7.52,-14.9 19.68,-21.1 32.14,-21.1 27.53,0 56.5,30.3 39.9,63.2 -223.08,443.1 -446.14,886.1 -669.22,1329.1 l 669.59,-10.6 247.72,-1122.9 c 24.57,-104.1 -47.62,-209.7 -160.8,-235.4 l -634.18,-143.4 c -16.78,-3.8 -33.54,-5.7 -49.97,-5.7"
         style="fill:#73c4f4;fill-opacity:1;fill-rule:nonzero;stroke:none"
         id="path26" />
      <path
         d="m 4458.51,7293.1 c -12.46,0 -24.62,6.2 -32.14,21.1 -51.54,102.4 -103.09,204.8 -154.62,307.1 -178.86,355.2 -357.69,710.4 -536.55,1065.6 l 93.99,-1.5 c 223.08,-443 446.14,-886 669.22,-1329.1 16.6,-32.9 -12.37,-63.2 -39.9,-63.2"
         style="fill:#4e5353;fill-opacity:1;fill-rule:nonzero;stroke:none"
         id="path28" />
      <path
         d="m 3397.55,8226.8 c 7.01,-95.6 -175.76,-167.6 -262.8,-174 -87.04,-6.4 -163.28,65.9 -170.29,161.6 -7.01,95.6 57.86,178.3 144.9,184.6 87.04,6.4 281.18,-76.6 288.19,-172.2"
         style="fill:#ff9e9b;fill-opacity:1;fill-rule:nonzero;stroke:none"
         id="path30" />
      <path
         d="m 3507.13,7976.1 c 26.05,-102.2 -135.48,-209.7 -218.03,-230.8 -82.56,-21 -170.59,44.8 -196.64,147 -26.05,102.2 19.75,202.1 102.31,223.1 82.55,21.1 286.31,-37.1 312.36,-139.3"
         style="fill:#ff9e9b;fill-opacity:1;fill-rule:nonzero;stroke:none"
         id="path32" />
      <path
         d="m 3598.59,7664.5 c 26.05,-102.2 -135.47,-209.7 -218.03,-230.7 -82.55,-21.1 -170.59,44.7 -196.64,146.9 -26.05,102.2 19.76,202.1 102.31,223.1 82.55,21.1 286.32,-37.1 312.36,-139.3"
         style="fill:#ff9e9b;fill-opacity:1;fill-rule:nonzero;stroke:none"
         id="path34" />
      <path
         d="m 27218.7,9836.6 c 685.2,-591.7 761,-1626.8 169.3,-2312 -29.7,-34.3 -60.7,-66.7 -92.5,-98 L 26147.3,8596 27218.7,9836.6"
         style="fill:#ff9f3e;fill-opacity:1;fill-rule:nonzero;stroke:none"
         id="path36" />
      <path
         d="m 26147.3,8596 1148.2,-1169.4 c -602.3,-592.7 -1568.7,-633.3 -2219.5,-71.3 -685.2,591.7 -761,1626.9 -169.3,2312.1 293.6,339.9 696.3,529.7 1111.3,562.5 L 26147.3,8596"
         style="fill:#bbe0f8;fill-opacity:1;fill-rule:nonzero;stroke:none"
         id="path38" />
      <path
         d="m 26018,10229.9 c 421.5,33.3 855.5,-95.1 1200.7,-393.3 L 26147.3,8596 26018,10229.9"
         style="fill:#73c4f4;fill-opacity:1;fill-rule:nonzero;stroke:none"
         id="path40" />
      <path
         d="m 23591.1,7019.8 c -716.4,-366.5 -1472.4,-676.8 -2217,-909.8 -915.7,-286.5 -1814.9,-456.7 -2603.2,-470.9 l -1621.6,1926.7 -720.4,855.9 c 295.5,-129 595.8,-232.3 898.2,-313.3 1061.6,-286.5 2150.6,-302.8 3163.1,-194.5 1063.6,113.3 2043,363 2818.5,580.4 -30.2,-553.7 68.6,-1042.6 282.4,-1474.5"
         style="fill:#007cf4;fill-opacity:1;fill-rule:nonzero;stroke:none"
         id="path42" />
      <path
         d="m 25524.1,9368.9 c -123.2,19.2 -490.7,-176.6 -776.2,-343.5 -270.3,-157.9 -555.7,-279 -850.8,-363.2 -179.3,-51.2 -376.4,-108.3 -588.7,-167.8 -30,-553.7 68.8,-1042.8 282.6,-1474.4 500.7,256.2 982.1,539.6 1426.6,843.7 68.4,140.5 50.7,339.6 -58.3,600.9 -35.9,86.2 -15.8,188.8 50.3,243.6 243.8,201.9 688.9,633.6 514.5,660.7"
         style="fill:#ff9e9b;fill-opacity:1;fill-rule:nonzero;stroke:none"
         id="path44" />
      <path
         d="m 24612.3,8772.1 c -8.6,-43.4 -28,-82.7 -52.8,-119.1 -20.5,-30 -57.3,-83 -94.5,-94.6 -107,-33.4 -18.6,205.1 -4.7,243.7 9.2,25.2 -31.1,36.1 -40.2,11 -24.9,-68.7 -59.5,-139.7 -47.9,-214.9 5.9,-37.7 23.7,-80.9 66.5,-86.6 50.3,-6.8 95.6,43.6 124.6,77.9 41.7,49.5 76.5,107.4 89.2,171.5 5.2,26.2 -35,37.4 -40.2,11.1"
         style="fill:#bf643a;fill-opacity:1;fill-rule:nonzero;stroke:none"
         id="path46" />
      <path
         d="m 24993.7,8351.3 c -83.2,-15.8 -165.2,-36.5 -249.4,-46.4 -43.1,-5.1 -96.5,-13.8 -139.4,-3 -108.3,27.4 48.2,113.2 92.5,130.5 27.2,10.6 15.4,54.9 -12.2,44.2 -61.2,-23.9 -172.6,-67.9 -166.6,-152.3 3.3,-46.3 45.9,-61.8 86,-68.3 131.1,-21.3 273.6,26.8 401.2,51.1 29,5.6 16.7,49.8 -12.1,44.2"
         style="fill:#bf643a;fill-opacity:1;fill-rule:nonzero;stroke:none"
         id="path48" />
      <path
         d="m 25014.3,8153.4 c -86.1,-17.6 -175.3,-48.8 -263.5,-49.5 -13.4,-0.1 -26.9,0.3 -40.1,1.5 -47.5,4.6 -48.8,1.1 -61,48.1 -12.1,46.7 -4.9,47.1 30.3,72.3 14.6,10.4 29.9,19.7 45.1,29.2 23.8,15 1.8,53 -22.2,37.9 -62.4,-39.2 -190.2,-129.8 -89.4,-204.1 106.6,-78.5 302.7,-0.2 412.5,22.2 27.7,5.7 16,48 -11.7,42.4"
         style="fill:#bf643a;fill-opacity:1;fill-rule:nonzero;stroke:none"
         id="path50" />
      <path
         d="m 25024.7,7902.8 c -86.9,4.5 -174.6,5.4 -261.3,13.6 -47.2,4.5 -101.9,39.8 -56.9,90.3 21.2,23.7 48,42 77,54.5 24.6,10.7 3.3,46.6 -21.1,36.1 -58.1,-25.3 -168.1,-114.7 -106.8,-185.6 24.3,-28.1 66.8,-33 101.4,-36.5 88.7,-9 178.7,-9.5 267.7,-14.2 26.8,-1.4 26.7,40.4 0,41.8"
         style="fill:#bf643a;fill-opacity:1;fill-rule:nonzero;stroke:none"
         id="path52" />
      <path
         d="m 19728.9,5723.1 c -115.9,318.4 -243.4,632 -364.4,913.5 -180.6,420.2 -415,864.7 -711.7,1244.5 241.7,-19.8 482.7,-28.9 721.7,-28.9 378.6,0 752,22.8 1115.7,61.7 199,-675 498.9,-1287.3 883.9,-1803.9 -561.9,-175.8 -1117.6,-307.8 -1645.2,-386.9"
         style="fill:#050542;fill-opacity:1;fill-rule:nonzero;stroke:none"
         id="path54" />
      <path
         d="m 4635.69,15521.7 v -2251.2 c 0,-325.1 263.63,-588.7 588.72,-588.7 h 2969.14 c 325.46,0 589.09,263.6 589.09,588.7 v 2251.2 c 0,325.1 -263.63,588.8 -589.09,588.8 H 5224.41 c -325.09,0 -588.72,-263.7 -588.72,-588.8"
         style="fill:#ff9f3e;fill-opacity:1;fill-rule:nonzero;stroke:none"
         id="path56" />
      <path
         d="m 4635.69,15521.7 v -186.2 h 4146.95 v 186.2 c 0,325.1 -263.63,588.8 -589.09,588.8 H 5224.41 c -325.09,0 -588.72,-263.7 -588.72,-588.8"
         style="fill:#e6eff2;fill-opacity:1;fill-rule:nonzero;stroke:none"
         id="path58" />
      <path
         d="m 5743.62,14698.8 c 0,-113.2 -91.77,-205 -204.99,-205 -113.21,0 -204.99,91.8 -204.99,205 0,113.2 91.78,205 204.99,205 113.22,0 204.99,-91.8 204.99,-205"
         style="fill:#e6eff2;fill-opacity:1;fill-rule:nonzero;stroke:none"
         id="path60" />
      <path
         d="M 5889.17,14035.2 H 5188.1 v 172.5 c 0,97.2 78.79,176 175.99,176 h 349.09 c 97.2,0 175.99,-78.8 175.99,-176 v -172.5"
         style="fill:#e6eff2;fill-opacity:1;fill-rule:nonzero;stroke:none"
         id="path62" />
      <path
         d="M 5968.35,13558.9 H 5186.6 v 95.2 h 781.75 v -95.2"
         style="fill:#e6eff2;fill-opacity:1;fill-rule:nonzero;stroke:none"
         id="path64" />
      <path
         d="M 5728.72,13370.3 H 5186.6 v 95.1 h 542.12 v -95.1"
         style="fill:#e6eff2;fill-opacity:1;fill-rule:nonzero;stroke:none"
         id="path66" />
      <path
         d="M 5911.44,13181.6 H 5186.6 v 95.2 h 724.84 v -95.2"
         style="fill:#e6eff2;fill-opacity:1;fill-rule:nonzero;stroke:none"
         id="path68" />
      <path
         d="m 8565.43,13462.7 h -2089.5 v 95.2 h 2089.5 v -95.2"
         style="fill:#e6eff2;fill-opacity:1;fill-rule:nonzero;stroke:none"
         id="path70" />
      <path
         d="M 7651.33,13274 H 6473.25 v 95.2 h 1178.08 v -95.2"
         style="fill:#e6eff2;fill-opacity:1;fill-rule:nonzero;stroke:none"
         id="path72" />
      <path
         d="M 8097.52,13953.4 H 6589.8 c -63.3,0 -114.61,51.3 -114.61,114.6 v 803.4 c 0,63.3 51.31,114.6 114.61,114.6 h 1507.72 c 63.31,0 114.62,-51.3 114.62,-114.6 V 14068 c 0,-63.3 -51.31,-114.6 -114.62,-114.6"
         style="fill:#e6eff2;fill-opacity:1;fill-rule:nonzero;stroke:none"
         id="path74" />
      <path
         d="m 5157.61,15834.4 c -69.01,0 -125.14,-56.1 -125.14,-125.1 0,-69.1 56.13,-125.2 125.14,-125.2 69,0 125.14,56.1 125.14,125.2 0,69 -56.14,125.1 -125.14,125.1 z m 0,-271.1 c -80.5,0 -146,65.5 -146,146 0,80.5 65.5,146 146,146 80.49,0 145.99,-65.5 145.99,-146 0,-80.5 -65.5,-146 -145.99,-146"
         style="fill:#013d55;fill-opacity:1;fill-rule:nonzero;stroke:none"
         id="path76" />
      <path
         d="m 5679.02,15834.4 c -69,0 -125.13,-56.1 -125.13,-125.1 0,-69.1 56.13,-125.2 125.13,-125.2 69.01,0 125.15,56.1 125.15,125.2 0,69 -56.14,125.1 -125.15,125.1 z m 0,-271.1 c -80.49,0 -145.99,65.5 -145.99,146 0,80.5 65.5,146 145.99,146 80.5,0 146,-65.5 146,-146 0,-80.5 -65.5,-146 -146,-146"
         style="fill:#013d55;fill-opacity:1;fill-rule:nonzero;stroke:none"
         id="path78" />
      <path
         d="m 8907.86,12513.1 c -287.38,-373.7 -692.66,-657 -1180.42,-877 1022.93,-1656.9 3147.66,-3657 4483.96,-3971.4 l 2759.4,1348.2 c -2650.1,332.6 -4754.4,2215.9 -6062.94,3500.2"
         style="fill:#050542;fill-opacity:1;fill-rule:nonzero;stroke:none"
         id="path80" />
      <path
         d="m 8907.86,12513.1 c -182.06,178.7 -348.83,345.9 -499.41,495.6 -222.37,221.1 -404.38,413.2 -568.13,684 -172.97,286.1 -367.7,595.9 -487.38,642.2 -169.42,65.7 35.19,-428.2 153.54,-722.7 32.08,-79.9 -71.15,-176.5 -145.9,-231.2 -226.63,-165.6 -340.82,-325 -349.02,-478.5 211.92,-413.6 452.93,-840.5 715.88,-1266.4 487.76,220 893.04,503.3 1180.42,877"
         style="fill:#ff9e9b;fill-opacity:1;fill-rule:nonzero;stroke:none"
         id="path82" />
      <path
         d="m 7886.15,13384.8 c -29.97,-60.1 -39.53,-128.8 -36.56,-195.5 2.09,-46.9 6.53,-116.3 51.59,-143.5 43.02,-26 90.93,6.1 120.19,38.4 49.26,54.3 64.86,129.2 86.54,196.9 8.44,26.4 -32.97,37.7 -41.38,11.5 -13.33,-41.7 -23.4,-85.3 -42.03,-125 -18.37,-39.2 -81.17,-131.7 -118.15,-58.5 -34.51,68.3 -15.56,189.1 16.85,254 12.29,24.7 -24.71,46.4 -37.05,21.7"
         style="fill:#bf643a;fill-opacity:1;fill-rule:nonzero;stroke:none"
         id="path84" />
      <path
         d="m 7313.37,13231.9 c 88.44,-99.3 171.15,-219.6 287.84,-288.1 36.17,-21.2 83.93,-38.2 116.75,-2.4 58.67,64 -2.03,169.4 -37.24,227.5 -15.72,25.9 -56.52,2.2 -40.72,-23.8 19.83,-32.7 102.39,-195.8 10.76,-173.7 -45.72,11 -90.6,61.4 -122.83,92.6 -65.09,63.1 -121.07,133.7 -181.21,201.2 -20.23,22.7 -53.49,-10.7 -33.35,-33.3"
         style="fill:#bf643a;fill-opacity:1;fill-rule:nonzero;stroke:none"
         id="path86" />
      <path
         d="m 7173.5,13085 c 77.64,-89.4 182,-267.1 318.76,-274 129.24,-6.4 83.84,148.9 57.87,219.3 -9.98,27 -53.67,15.3 -43.58,-12 11.4,-30.9 25.3,-63.1 29.46,-96 11.47,-90.5 -73,-62.5 -120.75,-30.6 -84.73,56.6 -143.91,149.3 -209.81,225.3 -19.09,22 -50.94,-10.1 -31.95,-32"
         style="fill:#bf643a;fill-opacity:1;fill-rule:nonzero;stroke:none"
         id="path88" />
      <path
         d="m 7017.54,12881.6 c 72.01,-49.6 142.61,-101.7 216.1,-149.1 35.39,-22.8 82.87,-53.1 126.82,-36.3 82.03,31.2 46.53,162.6 15.85,217.5 -13.49,24.1 -50.56,2.5 -37.05,-21.7 15.59,-27.8 27.18,-62.5 27.44,-94.9 0.3,-36.2 -3.87,-67.9 -55.79,-58 -16.76,3.2 -35.05,17.6 -49.28,26.4 -76.41,47.1 -148.49,102.2 -222.43,153.2 -22.8,15.7 -44.28,-21.5 -21.66,-37.1"
         style="fill:#bf643a;fill-opacity:1;fill-rule:nonzero;stroke:none"
         id="path90" />
      <path
         d="m 20503.7,14408.5 2849.2,-1948 1501.5,2199.4 -2885.1,1830.7 -1465.6,-2082.1"
         style="fill:#bbe0f8;fill-opacity:1;fill-rule:nonzero;stroke:none"
         id="path92" />
      <path
         d="m 20738.8,14460.9 c 985.7,-702.4 1905.5,-1458.3 2544.7,-1628.4 438.4,258.6 928,1118.4 1317.6,1860.5 L 22034,16303.3 20738.8,14460.9"
         style="fill:#e6eff2;fill-opacity:1;fill-rule:nonzero;stroke:none"
         id="path94" />
      <path
         d="m 21283.4,15061.3 431.7,573.2 -510,345 -379.3,-533.1 457.6,-385.1"
         style="fill:#73c4f4;fill-opacity:1;fill-rule:nonzero;stroke:none"
         id="path96" />
      <path
         d="m 22634.4,15425.2 -796,-1150.5 -213.3,147.6 796,1150.4 213.3,-147.5"
         style="fill:#73c4f4;fill-opacity:1;fill-rule:nonzero;stroke:none"
         id="path98" />
      <path
         d="m 23203.5,15409.4 -1149.7,-1661.7 -74.9,51.8 1149.7,1661.7 74.9,-51.8"
         style="fill:#73c4f4;fill-opacity:1;fill-rule:nonzero;stroke:none"
         id="path100" />
      <path
         d="m 23087.7,14800.2 -828.6,-1197.7 -74.9,51.9 828.6,1197.6 74.9,-51.8"
         style="fill:#73c4f4;fill-opacity:1;fill-rule:nonzero;stroke:none"
         id="path102" />
      <path
         d="m 23625.9,15121.8 -1152.6,-1666 -88.4,61.2 1152.6,1665.9 88.4,-61.1"
         style="fill:#73c4f4;fill-opacity:1;fill-rule:nonzero;stroke:none"
         id="path104" />
      <path
         d="m 23653.3,14734.1 -979.3,-1415.5 -74.8,51.7 979.4,1415.5 74.7,-51.7"
         style="fill:#bbe0f8;fill-opacity:1;fill-rule:nonzero;stroke:none"
         id="path106" />
      <path
         d="m 23366.9,13877.9 -486.1,-702.5 -74.9,51.9 486,702.5 75,-51.9"
         style="fill:#bbe0f8;fill-opacity:1;fill-rule:nonzero;stroke:none"
         id="path108" />
      <path
         d="m 22042,12110.6 c 97,237.5 190.1,483.3 279,738.6 63.6,182.8 -0.5,385.1 -156,500.4 -117.4,87 -259.2,159.4 -423.5,218.3 0,0 211.9,735.2 58.5,741 -153.5,5.9 -431.9,-788.5 -431.9,-788.5 -126.3,-253.5 -275,-511.6 -443.9,-769.7 300.7,-290 674.3,-502.2 1117.8,-640.1"
         style="fill:#ff9e9b;fill-opacity:1;fill-rule:nonzero;stroke:none"
         id="path110" />
      <path
         d="M 20924.2,12750.7 C 19930.2,11232 18212.4,9712.8 15945.7,9141.2 l 366.9,-885.7 2129.5,-514.4 c 1544.6,833.2 2734.9,2251.4 3599.9,4369.5 -443.5,137.9 -817.1,350.1 -1117.8,640.1"
         style="fill:#050542;fill-opacity:1;fill-rule:nonzero;stroke:none"
         id="path112" />
      <path
         d="m 21915.2,13275.1 c 112.8,-107.8 149.4,-315.6 97.5,-459.7 -9.2,-25.3 31.1,-36.2 40.2,-11.1 56.9,158 14.9,382.7 -108.2,500.3 -19.5,18.6 -49,-10.9 -29.5,-29.5"
         style="fill:#bf643a;fill-opacity:1;fill-rule:nonzero;stroke:none"
         id="path114" />
      <path
         d="m 15955.7,9275 -854.3,-698.8 -983.2,667.5 116,1675.6 1612.2,-445.1 8.4,-89.7 69.6,-765 31.3,-344.5"
         style="fill:#ff9e9b;fill-opacity:1;fill-rule:nonzero;stroke:none"
         id="path116" />
      <path
         d="m 15924.4,9619.5 c -480.5,134.3 -954,361.7 -1280.6,979.9 l 1211,-214.9 69.6,-765"
         style="fill:#013d55;fill-opacity:1;fill-rule:nonzero;stroke:none"
         id="path118" />
      <path
         d="m 16502.6,10853.4 c -2.5,-333.3 -108.9,-602.3 -485.6,-733.7 -566.5,-198.2 -1261.8,312.8 -1776.1,799.6 l 194.3,1306.9 695.4,500.5 1223.5,-389.1 c -13.8,-285.4 38.3,-587.8 84.6,-876.4 34.2,-214.4 65.1,-421.3 63.9,-607.8"
         style="fill:#ff9e9b;fill-opacity:1;fill-rule:nonzero;stroke:none"
         id="path120" />
      <path
         d="m 14386.7,11572.7 c 131.6,371.3 341.1,655.7 695.2,778.6 760.9,-296.7 1348.8,-410.2 1932.8,208.6 0,0 -396.3,-153 -994.2,514.5 -510.9,570.3 -1606,111.2 -1724.2,-173.8 0,0 -882.9,-187.8 -361.5,-1188.9 l 451.9,-139"
         style="fill:#013d55;fill-opacity:1;fill-rule:nonzero;stroke:none"
         id="path122" />
      <path
         d="m 14598.5,11499 c -229.4,260.7 -667.4,385.8 -834.3,83.4 -166.8,-302.4 149.5,-716.1 528.4,-702.2 378.9,13.9 305.9,618.8 305.9,618.8"
         style="fill:#ff9e9b;fill-opacity:1;fill-rule:nonzero;stroke:none"
         id="path124" />
      <path
         d="m 13934.7,11403.2 c 142.1,9.3 266.5,-67.2 317.1,-201.1 9.4,-24.9 49.7,-14.1 40.2,11.1 -56.9,150.6 -195.8,242.3 -357.3,231.7 -26.6,-1.7 -26.8,-43.4 0,-41.7"
         style="fill:#013d55;fill-opacity:1;fill-rule:nonzero;stroke:none"
         id="path126" />
      <path
         d="m 15537.3,11506.6 c 0,-48 -38.9,-86.9 -86.9,-86.9 -48,0 -86.9,38.9 -86.9,86.9 0,48 38.9,86.9 86.9,86.9 48,0 86.9,-38.9 86.9,-86.9"
         style="fill:#013d55;fill-opacity:1;fill-rule:nonzero;stroke:none"
         id="path128" />
      <path
         d="m 16098.7,11515.3 c 0,-48 -38.9,-86.9 -86.9,-86.9 -48,0 -86.9,38.9 -86.9,86.9 0,48 38.9,86.9 86.9,86.9 48,0 86.9,-38.9 86.9,-86.9"
         style="fill:#013d55;fill-opacity:1;fill-rule:nonzero;stroke:none"
         id="path130" />
      <path
         d="m 15749,11388 c 42.2,-44.2 85.1,-87.8 126.7,-132.6 33.4,-36.1 75,-66.4 42.5,-127.7 -22.8,-42.8 -81.1,-58.6 -122.7,-72.2 -25.4,-8.3 -14.5,-48.6 11.1,-40.3 72.6,23.8 171.2,65.7 166.5,158.8 -2,38.2 -25.8,65 -49.9,91.9 -46.4,52.1 -96.6,101.2 -144.8,151.6 -18.5,19.4 -48,-10.1 -29.4,-29.5"
         style="fill:#013d55;fill-opacity:1;fill-rule:nonzero;stroke:none"
         id="path132" />
      <path
         d="m 15453.9,10849.6 542.3,-31.2 c 0,0 -245.1,-526.7 -542.3,31.2"
         style="fill:#e6eff2;fill-opacity:1;fill-rule:nonzero;stroke:none"
         id="path134" />
      <path
         d="m 15552.9,11759.2 c -42.8,-10.7 -87.4,-8 -130.3,-19.7 -34.7,-9.4 -69.6,-18.3 -105.1,-23.8 -29.2,-4.5 -134.6,-22.3 -119.6,51.4 8.1,40 66.4,66.1 96.5,71 68.9,11.1 137.4,21.5 206.2,33.3 41.5,7.2 125.5,-32.5 78.3,-96 -6.6,-8.8 -15.7,-13.6 -26,-16.2"
         style="fill:#013d55;fill-opacity:1;fill-rule:nonzero;stroke:none"
         id="path136" />
      <path
         d="m 15894.6,11745.9 c 41.6,-8.3 82.6,-4.6 124.6,-13.7 33.8,-7.3 67.9,-14.1 101.9,-18 27.9,-3.1 129.1,-15.8 102.5,49 -14.4,35.1 -73.2,56.5 -102,59.9 -66.1,7.9 -131.6,15.1 -197.7,23.6 -39.8,5.1 -111.2,-32.4 -56.4,-87.2 7.6,-7.6 17,-11.6 27.1,-13.6"
         style="fill:#013d55;fill-opacity:1;fill-rule:nonzero;stroke:none"
         id="path138" />
      <path
         d="m 15075.8,10827.1 c -169.4,0 -306.7,137.3 -306.7,306.8 0,169.4 137.3,306.7 306.7,306.7 169.4,0 306.7,-137.3 306.7,-306.7 0,-169.5 -137.3,-306.8 -306.7,-306.8"
         style="fill:#ffab99;fill-opacity:1;fill-rule:nonzero;stroke:none"
         id="path140" />
      <path
         d="m 16445.4,10848 c -169.3,0 -306.6,137.2 -306.6,306.6 0,167.2 133.5,303.2 299.9,306.6 33.6,-210.3 63.9,-413.3 63.9,-596.9 0,-3.6 0,-7.3 0,-10.9 v 0 c -18.4,-3.8 -37.6,-5.4 -57.2,-5.4"
         style="fill:#ffab99;fill-opacity:1;fill-rule:nonzero;stroke:none"
         id="path142" />
      <path
         d="m 16034.4,9306.2 c 717.7,-217.3 1204.9,-336.1 1853.6,-724 685.1,-409.8 1162.3,-1214.4 1476.5,-1945.6 403.5,-938.9 880,-2234.1 750.9,-2878.3 l -354.6,-1779.7 h -8245.4 l 500.6,1376.5 -903.8,597.9 1418.3,3907.2 1891,1432.1 771.7,-236.3 841.2,250.2"
         style="fill:#007cf4;fill-opacity:1;fill-rule:nonzero;stroke:none"
         id="path144" />
      <path
         d="m 18343.8,5044.3 -667.4,1807.5 39.1,14.4 667.4,-1807.5 -39.1,-14.4"
         style="fill:#013d55;fill-opacity:1;fill-rule:nonzero;stroke:none"
         id="path146" />
      <path
         d="m 15457.4,8576.2 -264.2,479.8 732.6,563.1 c 90.5,-81.5 336.5,-292.8 451,-414.5 -251.4,-280.9 -545.3,-506.6 -919.4,-628.4"
         style="fill:#e6eff2;fill-opacity:1;fill-rule:nonzero;stroke:none"
         id="path148" />
      <path
         d="m 13769.4,4140.6 c -1769.5,191.8 -2304,48.8 -2304,48.8 l 1004,2544.5 1963.1,2363.8 -659.2,229.4 -1119.1,-372.4 C 11540.9,8584.2 10665.1,7756.7 10270.3,6704 9815.87,5492.6 9333.83,3978.8 9520.66,3424.6 9784.24,2642.9 10588,2413.1 13341.5,2937.4 c -153.2,369.2 23.3,956.9 427.9,1203.2"
         style="fill:#007cf4;fill-opacity:1;fill-rule:nonzero;stroke:none"
         id="path150" />
      <path
         d="m 14072.9,4106 c -105.3,12.7 -205.9,24 -303.5,34.6 -404.6,-246.3 -581.1,-834 -427.9,-1203.2 27.8,5.3 55.4,10.6 83.6,16 218.4,42.2 443.8,42.9 662.5,2.1 371.3,-69.1 937.1,-175.7 1094.2,-212.2 239.8,-55.6 479.5,-55.6 584.4,41.7 104.9,97.4 63.7,1108.9 -1693.3,1321"
         style="fill:#ff9e9b;fill-opacity:1;fill-rule:nonzero;stroke:none"
         id="path152" />
      <path
         d="m 15193.2,9056 c -330,193.1 -744.2,505.5 -1074.1,698.7 l -385.9,-427.6 c 236.4,-305.9 660.5,-639.6 1015,-799.5 l 445,528.4"
         style="fill:#e6eff2;fill-opacity:1;fill-rule:nonzero;stroke:none"
         id="path154" />
      <path
         d="m 15394.3,2726.1 c -267.6,145.8 -534.7,292.6 -802.4,438.5 -23.6,12.8 -44.6,-23.2 -21,-36.1 267.6,-145.8 534.7,-292.6 802.4,-438.4 23.6,-12.9 44.6,23.2 21,36"
         style="fill:#bf643a;fill-opacity:1;fill-rule:nonzero;stroke:none"
         id="path156" />
      <path
         d="m 15663.1,2746.9 c -217.8,313.5 -565.2,511.5 -890.4,695.7 -23.4,13.3 -44.5,-22.7 -21.1,-36 318.7,-180.5 662.1,-373.6 875.5,-680.8 15.2,-21.9 51.3,-1 36,21.1"
         style="fill:#bf643a;fill-opacity:1;fill-rule:nonzero;stroke:none"
         id="path158" />
      <path
         d="m 15807.2,2903.6 c -246,328.9 -561.2,594.8 -927.8,780.3 -23.9,12.1 -45,-23.8 -21.1,-36 359.9,-182.1 671.3,-442.3 912.9,-765.4 15.9,-21.2 52.1,-0.4 36,21.1"
         style="fill:#bf643a;fill-opacity:1;fill-rule:nonzero;stroke:none"
         id="path160" />
      <path
         d="m 13739,5773 c -144.3,0 -286,25 -414.1,97.1 -50.9,-11 -103.2,-16.3 -154.7,-16.3 -34.2,0 -68,2.3 -100.8,6.8 -303,41.9 -542.4,263.6 -757.7,462.9 -1.2,1.1 -2.1,2.1 -2.9,3.2 l 5,12.9 8.4,18.5 c 1.7,0.4 3.4,0.7 5.1,0.7 4.7,0 9.5,-1.7 13.9,-5.8 191,-176.9 395.9,-368.7 655,-435.7 56.1,-14.5 116.5,-22.2 177.6,-22.2 33.3,0 66.7,2.3 99.7,7.1 -179.8,124.1 -287,341.9 -194.7,554.4 56,128.8 180.6,223.4 310.8,223.4 56.6,0 114.3,-17.9 167.8,-58.6 147.3,-111.9 198.3,-343.7 113.8,-507.6 -59.5,-115.4 -165.4,-188.9 -285.2,-227.3 86.7,-39.9 182.4,-62.7 273.6,-69.6 31.6,-2.4 63.6,-3.5 95.7,-3.5 208,0 424.9,47.1 621.5,102.6 31.5,8.9 63.3,19.1 94.6,30.8 -139.7,104.6 -240.1,262.3 -221,442.2 18.2,171.5 182.2,329.6 356.5,329.6 27,0 54.3,-3.8 81.3,-11.9 203,-61.2 238.8,-310.8 170.1,-483.8 -55,-138.6 -168.1,-226.3 -299,-285.5 136.3,-76.8 300,-101.2 458.4,-101.2 9,0 18,0 27,0.2 164.8,2.8 348.4,14.8 509.3,72.9 -63.7,42.7 -119.4,98.2 -162.9,169.4 -118.9,194.6 -55.1,459.5 164.8,549.5 36.5,14.9 72.1,21.8 105.9,21.8 149.6,0 265.6,-133.4 277.8,-292.4 16,-210.7 -115.7,-366.9 -292.4,-452.9 42.2,-21.9 85.7,-38.8 127.7,-49.8 82.9,-21.6 170,-30.5 258.3,-30.4 164.8,0 333.9,30.6 487.2,65.5 35.8,8.2 72,18.1 107.7,30 -167.3,113.2 -281.4,336.5 -192.5,530.6 56.3,122.8 197,210.6 333.8,210.6 51,0 101.3,-12.1 146.6,-39.1 196.1,-117 159.8,-399.3 32.9,-552.8 -57.1,-69.1 -131,-120.1 -213.9,-158.2 65.3,-26.2 135.6,-37.9 206.8,-37.9 116.8,0 236.1,31.4 340,81.5 213.9,103.1 379.9,279.7 540.7,449.6 4.3,4.6 9.2,6.5 13.9,6.5 1,0 2,-0.1 3,-0.3 l 13,-35.3 c -0.1,-0.1 -0.2,-0.2 -0.4,-0.4 -107.9,-114 -216.5,-228.5 -341.1,-324.7 -159.5,-123.1 -366,-220.7 -571.1,-220.7 -82.4,0 -164.6,15.8 -243.4,51.9 -5,2.4 -10.1,4.8 -15.1,7.3 -175.3,-66.8 -380.6,-85 -549.3,-97.9 -34.5,-2.7 -69.6,-4.1 -104.9,-4.1 -149.4,0 -302.2,25.9 -429.5,96.2 -8.9,-3.5 -17.9,-6.9 -26.9,-10.1 -154,-54.4 -337.6,-85.6 -517.4,-85.6 -132.9,0 -263.7,17.1 -379.1,54.3 -55.3,17.9 -110.1,43.8 -161.1,76.5 -98.7,-38.9 -204.6,-63.8 -301.5,-83.6 -151.5,-31.1 -313.7,-61.3 -472.6,-61.3 m -361.7,868.5 c -207.6,0 -336.8,-278.2 -272.9,-465.2 39.9,-116.7 125,-203.4 228.6,-262.6 114.9,28 219.3,88.8 284.5,190.3 106.7,166 44.4,451.5 -153.3,521.8 -30.2,10.8 -59.2,15.7 -86.9,15.7 m 2297.9,-36.5 c -127.7,0 -265.8,-109 -298.8,-248 -42.5,-179.2 77.6,-335.3 227.5,-427.8 31.6,13.8 62.1,29.7 91.1,47.9 163.7,102.9 260,308.2 173.4,494.1 -44.2,94.8 -116.8,133.8 -193.2,133.8 m 1081.8,10.8 c -51.9,0 -107.1,-15 -160.8,-48.1 -213,-131.4 -171,-408.7 -8,-562.8 28,-26.5 58.2,-48.6 90.1,-66.6 158,62.8 295.4,170.1 328.3,350.2 34.7,189.9 -92.5,327.3 -249.6,327.3 m -2153.4,60 c -40.6,0 -84.6,-10.9 -130.8,-35.4 -228.4,-121 -220.5,-399.8 -66.4,-578.5 32.9,-38.1 69.6,-70.3 109.2,-97.4 153.6,65.8 289.3,171.9 325.6,345.3 38,181.2 -70.5,366 -237.6,366"
         style="fill:#000;fill-opacity:1;fill-rule:nonzero;stroke:none"
         id="path162" />
      <path
         d="m 17852.4,6375.2 -13,35.3 c 14.2,-2.4 25.7,-21.3 13,-35.3"
         style="fill:#006286;fill-opacity:1;fill-rule:nonzero;stroke:none"
         id="path164" />
      <path
         d="m 12308.8,6326.7 c -0.2,0.3 -0.4,0.5 -0.5,0.7 l 5.5,12.2 -5,-12.9"
         style="fill:##050542;fill-opacity:1;fill-rule:nonzero;stroke:none"
         id="path166" />
      <path
         d="m 13747.3,4126.7 v 0 c 7.3,4.8 14.6,9.4 22.1,13.9 -27.9,3 -55.5,6 -82.8,8.8 -862.9,316.7 -1767.2,379.2 -2082.5,391.5 l 16.2,41.1 c 340.5,-14.2 1279.5,-83.7 2156.6,-421.9 l -7.5,-19.5 v 0 c -7.5,-4.5 -14.8,-9.1 -22.1,-13.9 m -1426.3,2231.1 148.4,376.1 19,-8.6 -166.2,-367.2 c -0.4,-0.1 -0.8,-0.2 -1.2,-0.3"
         style="fill:#015575;fill-opacity:1;fill-rule:nonzero;stroke:none"
         id="path168" />
      <path
         d="m 13747.3,4126.7 c -20.2,7.7 -40.4,15.3 -60.7,22.7 27.3,-2.8 54.9,-5.8 82.8,-8.8 -7.5,-4.5 -14.8,-9.1 -22.1,-13.9 m -2143.2,414.2 c -72.9,2.9 -114.3,3 -116.5,3 h -32.3 l 995.1,2198.6 19,-8.6 v 0 L 12321,6357.8 c -12.1,-4 -20.8,-18.5 -12.7,-30.4 l -788.5,-1742.2 c 22.5,-0.5 56.5,-1.4 100.5,-3.2 l -16.2,-41.1"
         style="fill:#015575;fill-opacity:1;fill-rule:nonzero;stroke:none"
         id="path170" />
      <path
         d="m 13761.9,4121.1 c -4.8,1.9 -9.7,3.8 -14.6,5.6 7.3,4.8 14.6,9.4 22.1,13.9 v 0 l -7.5,-19.5"
         style="fill:#345663;fill-opacity:1;fill-rule:nonzero;stroke:none"
         id="path172" />
      <path
         d="m 12313.8,6339.6 7.2,18.2 c 0.4,0.1 0.8,0.2 1.2,0.3 l -8.4,-18.5"
         style="fill:#014e6b;fill-opacity:1;fill-rule:nonzero;stroke:none"
         id="path174" />
      <path
         d="m 12308.3,6327.4 c -8.1,11.9 0.6,26.4 12.7,30.4 l -7.2,-18.2 -5.5,-12.2"
         style="fill:#014e6b;fill-opacity:1;fill-rule:nonzero;stroke:none"
         id="path176" />
      <path
         d="m 11785.1,2709.3 -11,40.2 c 304.1,83 1514,203.6 1565.4,208.8 l 4.1,-41.6 c -12.6,-1.2 -1257.8,-125.4 -1558.5,-207.4"
         style="fill:#013d55;fill-opacity:1;fill-rule:nonzero;stroke:none"
         id="path178" />
      <path
         d="m 15756.3,15527 c 0,676.6 -607,1225.1 -1355.7,1225.1 -748.7,0 -1355.7,-548.5 -1355.7,-1225.1 0,-676.6 607,-1225.1 1355.7,-1225.1 105.4,0 207.8,11.2 306.3,31.8 202.8,-165.4 486.3,-383.4 486.3,-383.4 l -89.6,528.9 c 391.3,214.9 652.7,603.7 652.7,1047.8"
         style="fill:#e6eff2;fill-opacity:1;fill-rule:nonzero;stroke:none"
         id="path180" />
      <path
         d="m 14004.7,15384.9 c 127.4,-116.7 254.7,-233.3 382,-350 24.2,-22.1 74.6,-24.2 89.9,11.6 134,313.5 330,589.8 574.1,827.4 52.8,51.5 -28.2,132.4 -81,80.9 -250.4,-243.7 -454.4,-528.6 -591.9,-850.6 30,3.9 59.9,7.8 89.9,11.6 -127.4,116.7 -254.7,233.4 -382,350 -54.2,49.7 -135.4,-31 -81,-80.9"
         style="fill:#ff9f3e;fill-opacity:1;fill-rule:nonzero;stroke:none"
         id="path182" />
      <path
         d="m 17393.6,2333.1 h -3295.4 v 354.2 h 3295.4 v -354.2"
         style="fill:#013d55;fill-opacity:1;fill-rule:nonzero;stroke:none"
         id="path184" />
      <path
         d="M 20293.1,2333.1 H 16334.2 L 17679,5748 h 3958.9 L 20293.1,2333.1"
         style="fill:#bbe0f8;fill-opacity:1;fill-rule:nonzero;stroke:none"
         id="path186" />
      <path
         d="m 18733.2,3788.3 h 565.7 l 191.6,505 h -565.7 z m 592.6,-39 h -649.1 l 221.1,583 h 649.2 l -221.2,-583"
         style="fill:#251930;fill-opacity:1;fill-rule:nonzero;stroke:none"
         id="path188" />
      <path
         d="M 21841.1,1553.1 H 8784.82 v 787 H 21841.1 v -787"
         style="fill:#4c9aff;fill-opacity:1;fill-rule:nonzero;stroke:none"
         id="path190" />
      <path
         d="M 21827.2,2306.7 H 8784.82 v 39 H 21827.2 v -39"
         style="fill:#013d55;fill-opacity:1;fill-rule:nonzero;stroke:none"
         id="path192" />
      <path
         d="m 6530.71,3678.3 c -51.14,0 -102.29,-19.3 -141.23,-58 -37.7,-37.4 -58.46,-87.1 -58.46,-140 0,-52.9 20.76,-102.7 58.46,-140.2 77.84,-77.4 204.59,-77.4 282.44,0 37.7,37.5 58.46,87.3 58.46,140.2 0,52.9 -20.76,102.6 -58.46,140 -38.92,38.7 -90.06,58 -141.21,58 z m 0,-424.4 c -58.33,0 -116.69,22.1 -161.11,66.2 -43.06,42.8 -66.79,99.7 -66.77,160.2 0,60.5 23.71,117.3 66.77,160.1 88.87,88.2 233.37,88.1 322.2,0 43.06,-42.8 66.76,-99.6 66.76,-160.1 0.02,-60.5 -23.7,-117.4 -66.76,-160.2 -44.42,-44.1 -102.76,-66.2 -161.09,-66.2"
         style="fill:#bfa564;fill-opacity:1;fill-rule:nonzero;stroke:none"
         id="path194" />
      <path
         d="m 11380.4,14380.8 c -51.2,0 -102.3,-19.3 -141.2,-58 -37.7,-37.4 -58.5,-87.2 -58.5,-140.1 0,-52.9 20.8,-102.7 58.5,-140.1 77.8,-77.3 204.5,-77.3 282.4,0 37.7,37.4 58.5,87.2 58.5,140.1 0,52.9 -20.8,102.7 -58.5,140.1 -38.9,38.7 -90.1,58 -141.2,58 z m 0,-424.4 c -58.4,0 -116.7,22.1 -161.1,66.2 -43.1,42.8 -66.8,99.6 -66.8,160.1 0,60.5 23.7,117.4 66.8,160.1 88.8,88.3 233.3,88.3 322.2,0 43,-42.7 66.8,-99.6 66.7,-160.1 0,-60.5 -23.7,-117.3 -66.7,-160.1 -44.4,-44.1 -102.8,-66.2 -161.1,-66.2"
         style="fill:#bfa564;fill-opacity:1;fill-rule:nonzero;stroke:none"
         id="path196" />
      <path
         d="m 24302.4,4565.4 c -51.1,0 -102.3,-19.3 -141.2,-58 -37.7,-37.4 -58.5,-87.2 -58.5,-140.1 0,-52.9 20.8,-102.7 58.5,-140.1 77.9,-77.4 204.6,-77.3 282.5,0 37.6,37.4 58.4,87.2 58.4,140.1 0,52.9 -20.8,102.7 -58.4,140.1 -38.9,38.6 -90.1,58 -141.3,58 z m 0,-424.4 c -58.3,0 -116.6,22.1 -161.1,66.2 -43,42.7 -66.7,99.6 -66.7,160.1 0,60.5 23.7,117.4 66.7,160.1 88.9,88.2 233.5,88.1 322.2,0 43.1,-42.7 66.8,-99.6 66.8,-160.1 0,-60.5 -23.7,-117.4 -66.8,-160.1 -44.4,-44.1 -102.7,-66.2 -161.1,-66.2"
         style="fill:#bfa564;fill-opacity:1;fill-rule:nonzero;stroke:none"
         id="path198" />
      <path
         d="m 23967.1,10780.3 h 305.5 v 305.5 h -305.5 z m 333.7,-28.2 h -361.9 v 361.9 h 361.9 v -361.9"
         style="fill:#bfa564;fill-opacity:1;fill-rule:nonzero;stroke:none"
         id="path200" />
      <path
         d="m 18314.2,13790.4 216.1,-216 216,216 -216,216.1 z m 216.1,-255.9 -255.9,255.9 255.9,255.9 255.9,-255.9 -255.9,-255.9"
         style="fill:#bfa564;fill-opacity:1;fill-rule:nonzero;stroke:none"
         id="path202" />
      <path
         d="m 6033.85,10164.1 216.03,-216 216.02,216 -216.02,216.1 z m 216.03,-255.9 -255.91,255.9 255.91,255.9 255.9,-255.9 -255.9,-255.9"
         style="fill:#bfa564;fill-opacity:1;fill-rule:nonzero;stroke:none"
         id="path204" />
    </g>
  </g>
</svg>
