<?xml version="1.0" encoding="UTF-8" standalone="no"?>
<!-- Created with Inkscape (http://www.inkscape.org/) -->

<svg
   version="1.1"
   id="svg2"
   width="4000"
   height="2400"
   viewBox="0 0 4000 2400"
   sodipodi:docname="na_feb_25.eps"
   xmlns:inkscape="http://www.inkscape.org/namespaces/inkscape"
   xmlns:sodipodi="http://sodipodi.sourceforge.net/DTD/sodipodi-0.dtd"
   xmlns="http://www.w3.org/2000/svg"
   xmlns:svg="http://www.w3.org/2000/svg">
  <defs
     id="defs6">
    <clipPath
       clipPathUnits="userSpaceOnUse"
       id="clipPath70">
      <path
         d="m 6040.6,8895.18 802.83,-648.09 151.52,1328.34 342.97,34.16 100.42,-1687.09 c 7.73,-129.8 -40.47,-256.7 -132.42,-348.6 v 0 c -133.25,-133.3 -334.87,-170.6 -506.97,-93.8 l -1062,451.4 z"
         id="path68" />
    </clipPath>
    <clipPath
       clipPathUnits="userSpaceOnUse"
       id="clipPath86">
      <path
         d="m 5640.19,8959.36 44.98,421.05 0.1,-0.04 c -406.22,474.66 228.71,1101.13 622.17,590.27 222.17,-319.92 155.88,-854.85 -270.04,-799.53 l 66.68,-325.28 z"
         id="path84" />
    </clipPath>
  </defs>
  <sodipodi:namedview
     id="namedview4"
     pagecolor="#4c9aff"
     bordercolor="#000000"
     borderopacity="0.25"
     inkscape:showpageshadow="2"
     inkscape:pageopacity="0.0"
     inkscape:pagecheckerboard="0"
     inkscape:deskcolor="#d1d1d1" />
  <g
     id="g8"
     inkscape:groupmode="layer"
     inkscape:label="ink_ext_XXXXXX"
     transform="matrix(1.3333333,0,0,-1.3333333,0,2400)">
    <g
       id="g10"
       transform="scale(0.1)">
      <path
         d="M 30000,0 H 0 V 18000 H 30000 V 0"
         style="fill:#4c9aff;fill-opacity:1;fill-rule:nonzero;stroke:none"
         id="path12" />
      <path
         d="M 2958.83,1649.4 H 27357.7 c -312.8,3294.7 577.7,9028.4 -3481.1,10413.9 C 17967.1,14811.2 17383.3,14341 12299.3,10584.1 10953.5,9575.4 9208.36,9712.56 7714.85,10291.9 5730.18,10931.8 3957.26,9744.69 2911.96,8110.43 1330.97,6437.1 2568.84,3542.8 2958.83,1649.4"
         style="fill:#dcecfd;fill-opacity:1;fill-rule:nonzero;stroke:none"
         id="path14" />
      <path
         d="M 19313.3,8998.5 H 15319 c 121.2,252.57 244.6,281.06 488,345.5 50.4,33.72 65.2,99.42 83.2,157.26 302.5,840.04 1463.9,664.64 1910.4,28.85 176.7,85.12 399.8,166.64 555.2,46.94 93.9,-72.38 140.8,-207.1 254.1,-242.46 80.3,-25.09 165.7,10.07 249.7,16.45 161.1,12.25 403.5,-198.96 453.7,-352.54"
         style="fill:#ffffff;fill-opacity:1;fill-rule:nonzero;stroke:none"
         id="path16" />
      <path
         d="m 20482.5,12085.4 h -2160.2 c 45.5,92.1 140,148.2 241.9,161.2 112.6,466.7 742.9,441.6 1020.1,129.2 99.2,147.4 289.1,21.1 364.2,-91.8 191.9,187.4 459.4,26.5 534,-198.6"
         style="fill:#ffffff;fill-opacity:1;fill-rule:nonzero;stroke:none"
         id="path18" />
      <path
         d="m 14293.6,7684.9 h -2305.9 c 55.3,84.1 110.5,131.4 207.5,158.3 143.8,554.62 894,554.25 1242.9,185.24 129.4,172.67 415.9,82.93 423.8,-132.64 152.2,56.3 372.5,-59.8 431.7,-210.9"
         style="fill:#ffffff;fill-opacity:1;fill-rule:nonzero;stroke:none"
         id="path20" />
      <path
         d="m 15255.5,1649.3 c -760.3,3.5 -1359.4,-142.5 -1746.7,698.9 310.7,7 583.9,-191 830.6,-379.9 -288.7,253.6 -363.9,675.6 -340.8,1059.2 320.5,-272.4 626.8,-580.7 791.7,-967.6 -24.7,288.1 -48.3,586 45.4,859.6 319.7,-299.3 492.4,-838.2 419.8,-1270.2"
         style="fill:#324d90;fill-opacity:1;fill-rule:nonzero;stroke:none"
         id="path22" />
      <path
         d="M 20487.7,9332.28 19265.1,7659.4 17495,7296.5 V 4591.7 L 14647.1,1649.4 h 5980.7 l 1270.6,5858.9 -1410.7,1823.98"
         style="fill:#4292f3;fill-opacity:1;fill-rule:nonzero;stroke:none"
         id="path24" />
      <path
         d="M 22802.3,11114.4 20487.7,9332.28 20973.9,7508.3 19055.6,6378.1 18855.1,3568.4 16282.3,1649.4 h 9017.3 l 546.6,4732.5 -1234,1173.7 -485.2,2378.16 -1324.7,1180.64"
         style="fill:#bedbfa;fill-opacity:1;fill-rule:nonzero;stroke:none"
         id="path26" />
      <path
         d="m 24127,9933.76 -1845.4,-1893.68 387.2,-583.68 v -2371 l 1315.9,-374.1 62.3,218.6 -934.6,519.1 263.2,2075.3 -706.8,446.1 1614.2,1198.87 -156,764.49"
         style="fill:#4292f3;fill-opacity:1;fill-rule:nonzero;stroke:none"
         id="path28" />
      <path
         d="m 19313.3,1649.4 1815.9,2312.1 2824.4,309 -931.2,-436.1 L 24283,2903.2 22020.5,3421.9 20724,2960 20476.5,1649.4 h -1163.2"
         style="fill:#4292f3;fill-opacity:1;fill-rule:nonzero;stroke:none"
         id="path30" />
      <path
         d="m 20973.9,7508.3 537.5,261.8 286.7,-724.1 -1011.9,-1988.7 h 278.1 L 22344,7112.1 21798.1,8374.45 H 21001 l -513.3,957.83 486.2,-1823.98"
         style="fill:#dcecfd;fill-opacity:1;fill-rule:nonzero;stroke:none"
         id="path32" />
      <path
         d="m 24047,4929.9 117.4,483.2 651.4,-701.8 -235.3,-1433.4 -199,72.4 144.8,1361 -479.3,218.6"
         style="fill:#dcecfd;fill-opacity:1;fill-rule:nonzero;stroke:none"
         id="path34" />
      <path
         d="m 19468,6621.1 261.4,-1909.8 -416.1,-1433.4 -1219.9,-1347.8 761.7,1638.3 200.5,2809.7 412.4,243"
         style="fill:#dcecfd;fill-opacity:1;fill-rule:nonzero;stroke:none"
         id="path36" />
      <path
         d="m 25846.2,6381.9 703.1,-2243 -67,-2489.5 h -1182.7 l 546.6,4732.5"
         style="fill:#4292f3;fill-opacity:1;fill-rule:nonzero;stroke:none"
         id="path38" />
      <path
         d="m 26222.7,1649.4 c 0,0 842.6,193.2 1013,865.4 0,0 -624.2,-123.9 -814.2,-331.4 0,0 501.8,568 463.9,1287.6 0,0 -757.4,-416.6 -804.7,-956.2 0,0 -23,735.9 -607.9,1324.2 0,0 -159,-917.1 77.7,-1513.6 0,0 -473.4,426 -975.2,520.7 0,0 -9.4,-738.4 748,-861.5 0,0 -388.2,170.4 -871,142 477.3,-481.4 929.2,-509.1 1770.4,-477.2"
         style="fill:#324d90;fill-opacity:1;fill-rule:nonzero;stroke:none"
         id="path40" />
      <path
         d="m 22943.6,11166.4 659.6,-1445.76 h -329.8 l -554.7,1195.96 224.9,249.8"
         style="fill:#2a437d;fill-opacity:1;fill-rule:nonzero;stroke:none"
         id="path42" />
      <path
         d="m 21869.4,11166.4 -659.5,-1445.76 h 329.8 l 554.6,1195.96 -224.9,249.8"
         style="fill:#2a437d;fill-opacity:1;fill-rule:nonzero;stroke:none"
         id="path44" />
      <path
         d="m 23237.7,13311.5 c -1270,302.1 -2676.5,-3110 -1134.3,-3457.76 1269.9,-302.05 2676.5,3110.06 1134.3,3457.76"
         style="fill:#f08f3c;fill-opacity:1;fill-rule:nonzero;stroke:none"
         id="path46" />
      <path
         d="m 21885.3,9874.47 c -1542.3,347.93 -135.2,3760.23 1134.4,3457.63 1542.2,-347.8 135.2,-3760.22 -1134.4,-3457.63"
         style="fill:#ff9f3e;fill-opacity:1;fill-rule:nonzero;stroke:none"
         id="path48" />
      <path
         d="m 22010,10254.5 c -1203.3,271.4 -105.5,2933.7 885,2697.6 1203.2,-271.4 105.5,-2933.7 -885,-2697.6"
         style="fill:#ffffff;fill-opacity:1;fill-rule:nonzero;stroke:none"
         id="path50" />
      <path
         d="m 22134.6,10634.5 c -864.2,195 -75.7,2107.2 635.7,1937.5 864.2,-194.9 75.8,-2107.1 -635.7,-1937.5"
         style="fill:#ff9f3e;fill-opacity:1;fill-rule:nonzero;stroke:none"
         id="path52" />
      <path
         d="m 22259.3,11014.5 c -525.2,118.5 -46,1280.6 386.4,1177.5 525.1,-118.4 46,-1280.5 -386.4,-1177.5"
         style="fill:#ffffff;fill-opacity:1;fill-rule:nonzero;stroke:none"
         id="path54" />
      <path
         d="m 22586,11582.6 c -37.8,-115.2 -128.3,-199.5 -202,-188 -186.3,41.8 -16.3,454.2 137,417.4 73.7,-11.4 102.8,-114.1 65,-229.4"
         style="fill:#ff9f3e;fill-opacity:1;fill-rule:nonzero;stroke:none"
         id="path56" />
      <path
         d="m 6338.02,2054.6 35.7,-125.1 385.73,-165.3 c 45.94,-19.7 75.74,-64.9 75.74,-114.9 h -796.58 l 30.22,405.3 h 269.19"
         style="fill:#152e60;fill-opacity:1;fill-rule:nonzero;stroke:none"
         id="path58" />
      <path
         d="m 4549.73,2054.6 35.71,-125.1 385.72,-165.3 c 45.95,-19.7 75.74,-64.9 75.74,-114.9 h -796.57 l 30.21,405.3 h 269.19"
         style="fill:#152e60;fill-opacity:1;fill-rule:nonzero;stroke:none"
         id="path60" />
      <path
         d="m 6040.6,8895.18 802.83,-648.09 151.52,1328.34 342.97,34.16 100.42,-1687.09 c 7.73,-129.8 -40.47,-256.7 -132.42,-348.6 v 0 c -133.25,-133.3 -334.87,-170.6 -506.97,-93.8 l -1062,451.4 303.65,963.68"
         style="fill:#4292f3;fill-opacity:1;fill-rule:nonzero;stroke:none"
         id="path62" />
      <g
         id="g64">
        <g
           id="g66"
           clip-path="url(#clipPath70)">
          <path
             d="m 6104.08,8845.83 c 0,0 609.85,-691.71 694.87,-1365.73 85.03,-674 0,0 0,0 l -768.97,218.3 74.1,1147.43"
             style="fill:#3c7ed7;fill-opacity:1;fill-rule:nonzero;stroke:none"
             id="path72" />
        </g>
      </g>
      <path
         d="m 6819.53,4934.4 -388.05,1826.2 c -472.16,0 -1189.09,0 -1658.45,0 l -522.7,-4778 h 379.18 l 997.92,3535.8 394.83,-856.6 10.81,-2693.1 h 398.41 l 396.18,2713.1 c 12.27,84 9.52,169.5 -8.13,252.6"
         style="fill:#324d90;fill-opacity:1;fill-rule:nonzero;stroke:none"
         id="path74" />
      <path
         d="m 5627.43,5518.4 146.86,571.4 c 679.61,-1650.1 579,-1252.4 254.2,-2979.1 l -6.23,1551.1 -394.83,856.6"
         style="fill:#2a437d;fill-opacity:1;fill-rule:nonzero;stroke:none"
         id="path76" />
      <path
         d="m 5640.19,8959.36 44.98,421.05 0.1,-0.04 c -406.22,474.66 228.71,1101.13 622.17,590.27 222.17,-319.92 155.88,-854.85 -270.04,-799.53 l 66.68,-325.28 -463.89,113.53"
         style="fill:#f4d2c6;fill-opacity:1;fill-rule:nonzero;stroke:none"
         id="path78" />
      <g
         id="g80">
        <g
           id="g82"
           clip-path="url(#clipPath86)">
          <path
             d="m 6037.4,9171.11 c 0,0 -93.31,40.1 -113.46,94.14 0,0 264.07,-111 425.91,17.14 161.84,128.13 0,0 0,0 0,0 -105.48,-168.35 -312.45,-111.28"
             style="fill:#eda19d;fill-opacity:1;fill-rule:nonzero;stroke:none"
             id="path88" />
          <path
             d="m 5963.37,9760.61 c 0,0 149.33,219.56 445.6,114.02 0,0 -135.04,226.77 -194.62,251.97 -59.58,25.3 -212.08,-139.17 -212.08,-139.17 l -38.9,-226.82"
             style="fill:#eda19d;fill-opacity:1;fill-rule:nonzero;stroke:none"
             id="path90" />
        </g>
      </g>
      <path
         d="m 5986.22,9773.06 c 0,0 96.59,313.14 242.16,288.24 -226.73,370.1 -976.76,-56.8 -778.89,-458.35 80.09,-140.98 227.72,-297.02 227.72,-297.02 0,0 143.93,22.89 145.89,41.64 1.95,18.75 53.14,258.35 53.14,258.35 l 109.98,167.14"
         style="fill:#59445a;fill-opacity:1;fill-rule:nonzero;stroke:none"
         id="path92" />
      <path
         d="m 6025.52,9661.54 c -36.18,-122.77 -228.15,-63.14 -188.38,58.52 36.17,122.75 228.13,63.13 188.38,-58.52"
         style="fill:#f4d2c6;fill-opacity:1;fill-rule:nonzero;stroke:none"
         id="path94" />
      <path
         d="m 6518.16,6776.2 -406.38,2145.31 -475.21,271.53 C 4842.09,9055.95 4640.79,6673.3 4607.7,6439.5 c 0,0 962.79,-310.8 1910.46,336.7"
         style="fill:#4292f3;fill-opacity:1;fill-rule:nonzero;stroke:none"
         id="path96" />
      <path
         d="m 6111.78,8921.51 -46.13,-35.88 162.73,-1321.93 397.22,-325.9 -26.72,512.9 -487.1,1170.81"
         style="fill:#324d90;fill-opacity:1;fill-rule:nonzero;stroke:none"
         id="path98" />
      <path
         d="M 9044.72,9845.81 7707,9657.34 l -87.38,620.26 1337.72,188.4 87.38,-620.19"
         style="fill:#324d90;fill-opacity:1;fill-rule:nonzero;stroke:none"
         id="path100" />
      <path
         d="m 7697.55,9743.45 -807.43,-113.76 -63.23,448.71 807.44,113.8 63.22,-448.75"
         style="fill:#2a437d;fill-opacity:1;fill-rule:nonzero;stroke:none"
         id="path102" />
      <path
         d="m 6873.61,9746.87 -615.03,-86.65 -30.2,214.38 615.02,86.65 30.21,-214.38"
         style="fill:#152e60;fill-opacity:1;fill-rule:nonzero;stroke:none"
         id="path104" />
      <path
         d="m 9145.27,9780.16 -135.96,-19.16 -110.15,781.8 135.97,19.1 110.14,-781.74"
         style="fill:#152e60;fill-opacity:1;fill-rule:nonzero;stroke:none"
         id="path106" />
      <path
         d="m 9035.47,7032 -1152.9,-187.5 c -126.61,-20.6 -235.16,-101.8 -290.65,-217.4 l -322.19,-671.5 149.91,-200.5 373.12,720.6 c 36.31,70.2 99.73,122.4 175.52,144.6 l 1123.16,329.2 c 24,40.1 -9.84,90 -55.97,82.5"
         style="fill:#f08f3c;fill-opacity:1;fill-rule:nonzero;stroke:none"
         id="path108" />
      <path
         d="m 5152.43,4127.7 505.55,1052.9 c 55.52,115.7 164.09,196.9 290.71,217.4 l 735.16,119.4 149.92,-200.5 -796.65,-154.3 c -77.54,-15 -145.56,-61.1 -188.29,-127.5 l -633.12,-984.4 c -45.25,-11.7 -83.51,34.9 -63.28,77"
         style="fill:#f08f3c;fill-opacity:1;fill-rule:nonzero;stroke:none"
         id="path110" />
      <path
         d="m 6836.76,5312.9 -152.91,204.5 585.88,438.2 152.91,-204.5 -585.88,-438.2"
         style="fill:#2a437d;fill-opacity:1;fill-rule:nonzero;stroke:none"
         id="path112" />
      <path
         d="M 9091.44,6949.5 C 7855.52,6013.5 6462.85,4971.7 5215.71,4050.7 6451.58,4986.8 7844.34,6028.4 9091.44,6949.5 v 0"
         style="fill:#324d90;fill-opacity:1;fill-rule:nonzero;stroke:none"
         id="path114" />
      <path
         d="M 6111.78,8921.51 5966.4,8808.45 c 0,0 -436.88,185.97 -329.83,384.59 l 475.21,-271.53"
         style="fill:#ffffff;fill-opacity:1;fill-rule:nonzero;stroke:none"
         id="path116" />
      <path
         d="m 7028.65,9578.78 c 7.52,6.51 -215.07,363.89 -24.58,231.95 0.01,0 130.85,-146.55 130.85,-146.55 l 220.15,31.01 -48.62,-88.74 -277.8,-27.67"
         style="fill:#f4d2c6;fill-opacity:1;fill-rule:nonzero;stroke:none"
         id="path118" />
      <path
         d="M 5736.95,8591.41 5822,7237.8 7061.74,5881.1 l -298.22,-228 c -158.09,132.3 -1407.82,950 -1487.19,1115.4 v 0 C 5037.12,7032.7 5087.2,7912 5035.58,8240.56 l 701.37,350.85"
         style="fill:#4292f3;fill-opacity:1;fill-rule:nonzero;stroke:none"
         id="path120" />
      <path
         d="m 5689.42,6418.3 c -578,426.6 -568.86,617.5 -612.97,1277.4 -118.71,-702.9 -356.31,-922.1 466.31,-1304.2 l 146.66,26.8"
         style="fill:#3c7ed7;fill-opacity:1;fill-rule:nonzero;stroke:none"
         id="path122" />
      <path
         d="m 6345.63,6668.6 -523.63,569.2 -34,541.2 206.4,-541.2 444.76,-513.4 -93.53,-55.8"
         style="fill:#3c7ed7;fill-opacity:1;fill-rule:nonzero;stroke:none"
         id="path124" />
      <path
         d="m 7006.23,5854.4 c 0,0 177.02,-27 202.01,-58.3 15.95,-19.9 40.4,-140 55.99,-224.3 9.13,-49.3 -15.91,-98.6 -61.16,-120.2 -336.55,-177.1 -248.66,-91.4 -413.62,221.3 l 216.78,181.5"
         style="fill:#f4d2c6;fill-opacity:1;fill-rule:nonzero;stroke:none"
         id="path126" />
      <path
         d="m 8047.26,3730.6 -26.17,-91.8 -179.21,178.1 26.17,91.8 179.21,-178.1"
         style="fill:#4292f3;fill-opacity:1;fill-rule:nonzero;stroke:none"
         id="path128" />
      <path
         d="m 8073.59,3822.9 -26.17,-91.8 -179.21,178.2 26.17,91.7 179.21,-178.1"
         style="fill:#ffffff;fill-opacity:1;fill-rule:nonzero;stroke:none"
         id="path130" />
      <path
         d="m 8099.69,3914.4 -26.17,-91.8 -179.22,178.2 26.18,91.7 179.21,-178.1"
         style="fill:#4292f3;fill-opacity:1;fill-rule:nonzero;stroke:none"
         id="path132" />
      <path
         d="m 8125.51,4004.9 -26.17,-91.7 -179.21,178.1 26.17,91.8 179.21,-178.2"
         style="fill:#ffffff;fill-opacity:1;fill-rule:nonzero;stroke:none"
         id="path134" />
      <path
         d="m 8151.61,4096.4 -26.18,-91.7 -179.21,178.1 26.18,91.8 179.21,-178.2"
         style="fill:#4292f3;fill-opacity:1;fill-rule:nonzero;stroke:none"
         id="path136" />
      <path
         d="m 8392.11,4055.6 26.17,91.8 -246.21,-56.8 -26.18,-91.8 246.22,56.8"
         style="fill:#4292f3;fill-opacity:1;fill-rule:nonzero;stroke:none"
         id="path138" />
      <path
         d="m 8365.78,3963.3 26.17,91.8 -246.22,-56.8 -26.17,-91.8 246.22,56.8"
         style="fill:#ffffff;fill-opacity:1;fill-rule:nonzero;stroke:none"
         id="path140" />
      <path
         d="m 8339.68,3871.8 26.18,91.8 -246.22,-56.8 -26.18,-91.8 246.22,56.8"
         style="fill:#4292f3;fill-opacity:1;fill-rule:nonzero;stroke:none"
         id="path142" />
      <path
         d="m 8313.86,3781.3 26.18,91.7 -246.22,-56.8 -26.17,-91.7 246.21,56.8"
         style="fill:#ffffff;fill-opacity:1;fill-rule:nonzero;stroke:none"
         id="path144" />
      <path
         d="m 8287.77,3689.8 26.17,91.7 -246.22,-56.8 -26.17,-91.7 246.22,56.8"
         style="fill:#4292f3;fill-opacity:1;fill-rule:nonzero;stroke:none"
         id="path146" />
      <path
         d="m 8190.67,4086.4 -695.07,-2437 -61.83,-0.4 699.84,2453.7 57.06,-16.3"
         style="fill:#152e60;fill-opacity:1;fill-rule:nonzero;stroke:none"
         id="path148" />
      <path
         d="m 7742.77,4749.3 6.51,95.2 c -311.46,-137.1 -173.19,-146 -462.6,31.6 l -6.5,-95.2 v 0 l -6.4,-93.6 v 0 l -6.49,-94.9 v 0 l -6.51,-95.3 194.09,-125.1 -0.05,-0.6 -194.07,125.2 -6.51,-95.2 194.08,-125.2 -142.28,-2626.8 h 57.98 l 143.51,2622.8 209.3,97.5 6.51,95.3 v 0 l 6.49,94.9 v 0 l 6.42,93.9 v 0 l 6.48,94.9 -209.31,-97.6 0.04,0.6 209.31,97.6"
         style="fill:#152e60;fill-opacity:1;fill-rule:nonzero;stroke:none"
         id="path150" />
      <path
         d="m 7085.26,3817.5 1.45,-95.4 -223.03,118.7 -1.45,95.4 223.03,-118.7"
         style="fill:#4292f3;fill-opacity:1;fill-rule:nonzero;stroke:none"
         id="path152" />
      <path
         d="m 7083.8,3913.5 1.45,-95.4 -223.03,118.7 -1.45,95.4 223.03,-118.7"
         style="fill:#ffffff;fill-opacity:1;fill-rule:nonzero;stroke:none"
         id="path154" />
      <path
         d="m 7082.35,4008.6 1.45,-95.4 -223.03,118.8 -1.45,95.4 223.03,-118.8"
         style="fill:#4292f3;fill-opacity:1;fill-rule:nonzero;stroke:none"
         id="path156" />
      <path
         d="m 7080.92,4102.7 1.45,-95.4 -223.03,118.8 -1.45,95.4 223.03,-118.8"
         style="fill:#ffffff;fill-opacity:1;fill-rule:nonzero;stroke:none"
         id="path158" />
      <path
         d="m 7079.47,4197.9 1.45,-95.5 -223.02,118.8 -1.45,95.4 223.02,-118.7"
         style="fill:#4292f3;fill-opacity:1;fill-rule:nonzero;stroke:none"
         id="path160" />
      <path
         d="m 7321.51,4228.3 -1.45,95.4 -219.31,-125.5 1.45,-95.4 219.31,125.5"
         style="fill:#4292f3;fill-opacity:1;fill-rule:nonzero;stroke:none"
         id="path162" />
      <path
         d="m 7322.97,4132.3 -1.45,95.4 -219.31,-125.5 1.45,-95.4 219.31,125.5"
         style="fill:#ffffff;fill-opacity:1;fill-rule:nonzero;stroke:none"
         id="path164" />
      <path
         d="m 7324.42,4037.1 -1.45,95.5 -219.32,-125.5 1.45,-95.5 219.32,125.5"
         style="fill:#4292f3;fill-opacity:1;fill-rule:nonzero;stroke:none"
         id="path166" />
      <path
         d="m 7325.85,3943 -1.45,95.4 -219.32,-125.5 1.45,-95.4 219.32,125.5"
         style="fill:#ffffff;fill-opacity:1;fill-rule:nonzero;stroke:none"
         id="path168" />
      <path
         d="m 7327.29,3847.9 -1.45,95.4 -219.31,-125.5 1.45,-95.4 219.31,125.5"
         style="fill:#4292f3;fill-opacity:1;fill-rule:nonzero;stroke:none"
         id="path170" />
      <path
         d="m 7119.76,4199.6 38.78,-2551.3 -59.34,-0.9 -38.77,2551.3 59.33,0.9"
         style="fill:#152e60;fill-opacity:1;fill-rule:nonzero;stroke:none"
         id="path172" />
      <path
         d="m 1102,1652.5 c 8889.49,61.3 17994.4,61.8 26883.9,0 -8889.4,-61.8 -17994.4,-61.3 -26883.9,0 v 0"
         style="fill:#152e60;fill-opacity:1;fill-rule:nonzero;stroke:none"
         id="path174" />
    </g>
  </g>
</svg>
