<?xml version="1.0" encoding="UTF-8" standalone="no"?>
<!-- Created with Inkscape (http://www.inkscape.org/) -->

<svg
   version="1.1"
   id="svg2"
   width="4666.6665"
   height="2666.6667"
   viewBox="0 0 4666.6665 2666.6667"
   sodipodi:docname="NA_October_06.eps"
   xmlns:inkscape="http://www.inkscape.org/namespaces/inkscape"
   xmlns:sodipodi="http://sodipodi.sourceforge.net/DTD/sodipodi-0.dtd"
   xmlns="http://www.w3.org/2000/svg"
   xmlns:svg="http://www.w3.org/2000/svg">
  <defs
     id="defs6">
    <clipPath
       clipPathUnits="userSpaceOnUse"
       id="clipPath130">
      <path
         d="m 21729.9,7162.5 -210.3,1624.7 -3781.5,-236.9 -1293.3,-113.4 c -170.1,0 -332.2,-34.5 -479.5,-96.8 -516.5,-218.5 -811.4,-767.6 -722.6,-1321.3 l 439.9,-5198.1 4335.3,21.4 23.4,5023.1 z"
         id="path128" />
    </clipPath>
  </defs>
  <sodipodi:namedview
     id="namedview4"
     pagecolor="#ffffff"
     bordercolor="#000000"
     borderopacity="0.25"
     inkscape:showpageshadow="2"
     inkscape:pageopacity="0.0"
     inkscape:pagecheckerboard="0"
     inkscape:deskcolor="#d1d1d1" />
  <g
     id="g8"
     inkscape:groupmode="layer"
     inkscape:label="ink_ext_XXXXXX"
     transform="matrix(1.3333333,0,0,-1.3333333,0,2666.6667)">
    <g
       id="g10"
       transform="scale(0.1)">
      <path
         d="M 35000,0 H 0 V 20000 H 35000 V 0"
         style="fill:#ffffff;fill-opacity:1;fill-rule:nonzero;stroke:none"
         id="path12" />
      <path
         d="M 6399.22,1820.7 H 29170.7 c 658.5,1489.3 996.7,3138.1 1198.9,4753.9 70.3,561.6 107.5,1155.5 -126.1,1671 -228.4,504 -685,864.2 -1147.8,1167.6 -1202.6,788.6 -2564.5,1333.2 -3979.2,1591.2 -854.9,156 -1779.8,229.5 -2458.1,772.8 -504.7,404.2 -794.6,1010.7 -1177.4,1531.8 -910.7,1240.2 -2388.6,2003 -3914.2,2202.8 -1525.7,199.8 -3090.5,-129.9 -4492.1,-764.7 -724.4,-328.1 -1425.6,-748.1 -1939.6,-1355 C 10334.8,12447.1 10079,11173 9789.58,9969 9500.2,8765 9098.74,7494.7 8127.24,6726.9 7216.58,6007.1 5840.42,5747 5390.09,4677.1 4990.28,3727.3 5814.11,2669 6399.22,1820.7"
         style="fill:#f3f6fd;fill-opacity:1;fill-rule:nonzero;stroke:none"
         id="path14" />
      <path
         d="m 24207.2,14199 c 0,-1317.1 -1067.8,-2384.9 -2384.9,-2384.9 -1317.2,0 -2385,1067.8 -2385,2384.9 0,1317.2 1067.8,2385 2385,2385 1317.1,0 2384.9,-1067.8 2384.9,-2385"
         style="fill:#102a54;fill-opacity:1;fill-rule:nonzero;stroke:none"
         id="path16" />
      <path
         d="m 24019,14199 c 0,-1289.8 -1045.6,-2335.5 -2335.5,-2335.5 -1289.8,0 -2335.5,1045.7 -2335.5,2335.5 0,1289.9 1045.7,2335.5 2335.5,2335.5 1289.9,0 2335.5,-1045.6 2335.5,-2335.5"
         style="fill:#80c0fe;fill-opacity:1;fill-rule:nonzero;stroke:none"
         id="path18" />
      <path
         d="m 23112.8,14199 c 0,-789.3 -639.9,-1429.2 -1429.3,-1429.2 -789.3,0 -1429.2,639.9 -1429.2,1429.2 0,789.4 639.9,1429.3 1429.2,1429.3 789.4,0 1429.3,-639.9 1429.3,-1429.3"
         style="fill:#ffffff;fill-opacity:1;fill-rule:nonzero;stroke:none"
         id="path20" />
      <path
         d="m 22357,14199 c 0,-371.9 -301.5,-673.4 -673.5,-673.4 -371.9,0 -673.5,301.5 -673.5,673.4 0,372 301.6,673.5 673.5,673.5 372,0 673.5,-301.5 673.5,-673.5"
         style="fill:#80c0fe;fill-opacity:1;fill-rule:nonzero;stroke:none"
         id="path22" />
      <path
         d="m 7892.3,13429.6 c 0,-1406.9 1140.46,-2547.3 2547.3,-2547.3 1406.8,0 2547.3,1140.4 2547.3,2547.3 0,1406.8 -1140.5,2547.3 -2547.3,2547.3 -1406.84,0 -2547.3,-1140.5 -2547.3,-2547.3"
         style="fill:#102a54;fill-opacity:1;fill-rule:nonzero;stroke:none"
         id="path24" />
      <path
         d="m 8093.32,13429.6 c 0,-1377.7 1116.82,-2494.5 2494.48,-2494.5 1377.7,0 2494.5,1116.8 2494.5,2494.5 0,1377.6 -1116.8,2494.5 -2494.5,2494.5 -1377.66,0 -2494.48,-1116.9 -2494.48,-2494.5"
         style="fill:#80c0fe;fill-opacity:1;fill-rule:nonzero;stroke:none"
         id="path26" />
      <path
         d="m 9061.24,13429.6 c 0,-843.1 683.46,-1526.6 1526.56,-1526.6 843.1,0 1526.6,683.5 1526.6,1526.6 0,843.1 -683.5,1526.5 -1526.6,1526.5 -843.1,0 -1526.56,-683.4 -1526.56,-1526.5"
         style="fill:#ffffff;fill-opacity:1;fill-rule:nonzero;stroke:none"
         id="path28" />
      <path
         d="m 9868.48,13429.6 c 0,-397.3 322.02,-719.3 719.32,-719.3 397.3,0 719.3,322 719.3,719.3 0,397.2 -322,719.3 -719.3,719.3 -397.3,0 -719.32,-322.1 -719.32,-719.3"
         style="fill:#80c0fe;fill-opacity:1;fill-rule:nonzero;stroke:none"
         id="path30" />
      <path
         d="m 12694.8,13548.6 c 0,0 -296.1,74 -419.5,64.1 -123.4,-9.8 -190.5,-468 -132.3,-584.3 58.3,-116.4 487.6,-387.8 487.6,-387.8 0,0 266.5,123.3 330.6,251.6 64.2,128.4 54.3,547.8 54.3,547.8 l -320.7,108.6"
         style="fill:#ffc0b1;fill-opacity:1;fill-rule:nonzero;stroke:none"
         id="path32" />
      <path
         d="m 10820.9,13370 3664.7,152.9 296.3,-260.3 995,41.5 -347.5,305.3 320.9,333.3 -876.3,-36.6 -374.8,-288.3 -3682.3,-153.7 4,-94.1"
         style="fill:#102a54;fill-opacity:1;fill-rule:nonzero;stroke:none"
         id="path34" />
      <path
         d="m 14820.5,9716.1 -1582.3,3446.1 c 0,0 7.4,504.9 -187.8,530.7 -195.1,25.8 -631.9,-71.7 -631.9,-71.7 0,0 54.3,-207.3 229.2,-191.5 h 180.7 c 0,0 -151.7,-326 -130.5,-542.9 l -208.1,-106 922.5,-3039 c 115.3,-379.8 298.9,-735.3 542,-1049 l 1238.8,-1599.4 1181.3,807.6 -1553.9,1815.1"
         style="fill:#ffc0b1;fill-opacity:1;fill-rule:nonzero;stroke:none"
         id="path36" />
      <path
         d="m 14020.9,9444.4 c -7.7,0 -15.2,3.8 -19.7,10.7 -7,10.9 -3.9,25.4 7,32.4 397.5,255.4 795.8,252.3 812.7,252.1 12.9,-0.2 23.2,-10.9 23,-23.8 -0.2,-13 -11.1,-23 -23.8,-23.1 -4,0 -401.4,2.8 -786.5,-244.6 -3.9,-2.5 -8.3,-3.7 -12.7,-3.7"
         style="fill:#102a54;fill-opacity:1;fill-rule:nonzero;stroke:none"
         id="path38" />
      <path
         d="m 12797.6,12884.9 c -9.4,0 -18.2,5.7 -21.8,15 -47.6,122.6 -36.6,262.7 -19,358.7 11.3,61.1 26.2,111.8 36.8,143.7 -322.6,-26.6 -390.9,191.4 -391.5,193.7 -3.7,12.4 3.4,25.4 15.8,29.1 12.4,3.7 25.4,-3.4 29.1,-15.7 2.6,-8.3 64.7,-198.6 378.3,-156.4 8.2,1.1 16.5,-2.3 21.6,-8.9 5.1,-6.6 6.4,-15.4 3.2,-23.2 -1.1,-2.8 -114.4,-288.1 -30.6,-504 4.7,-12.1 -1.3,-25.7 -13.4,-30.4 -2.8,-1.1 -5.6,-1.6 -8.5,-1.6"
         style="fill:#102a54;fill-opacity:1;fill-rule:nonzero;stroke:none"
         id="path40" />
      <path
         d="m 12658.6,13188.9 c -4,0 -7.9,0.3 -11.8,0.9 -281.6,45.9 -490.2,239.3 -498.9,247.5 -9.4,8.9 -9.9,23.7 -1,33.2 8.8,9.4 23.7,9.9 33.1,1 2.1,-1.9 207.2,-191.9 474.3,-235.3 7.4,-1.3 15.1,0.7 21.1,5.3 6,4.5 9.7,10.9 10.5,18.1 3.1,27 -0.5,73.1 -35.6,138.7 -6.1,11.4 -1.8,25.6 9.6,31.7 11.4,6.2 25.6,1.8 31.8,-9.6 32.7,-61.2 46.4,-117.1 40.8,-166.2 -2.3,-20 -12.5,-37.8 -28.7,-50.1 -13.1,-9.9 -29.1,-15.2 -45.2,-15.2"
         style="fill:#102a54;fill-opacity:1;fill-rule:nonzero;stroke:none"
         id="path42" />
      <path
         d="m 12659,13067 v 0 z m -28.3,-48.9 c -106.8,0 -312.4,57.7 -351.4,80.9 -80.7,48 -168.9,121.7 -172.6,124.9 -9.9,8.3 -11.2,23.1 -2.9,33 8.3,9.9 23.1,11.2 33.1,2.9 0.9,-0.7 89,-74.5 166.4,-120.4 59.5,-35.4 319.7,-88.5 355.2,-72.6 12.6,12.9 -1,77 -29.1,136.1 -5.6,11.7 -0.6,25.7 11.1,31.3 11.7,5.5 25.7,0.6 31.2,-11.1 65.2,-136.6 29.1,-182 16.5,-192.7 -10.2,-8.7 -30.8,-12.3 -57.5,-12.3"
         style="fill:#102a54;fill-opacity:1;fill-rule:nonzero;stroke:none"
         id="path44" />
      <path
         d="m 12565.6,12865.7 c -95.1,0 -300.8,68 -320.8,77 -36,16.2 -111.1,63.8 -114.3,65.9 -11,6.9 -14.2,21.4 -7.3,32.3 7,11 21.5,14.2 32.4,7.3 0.8,-0.5 75.5,-47.9 108.4,-62.7 14.5,-6.5 86,-29.9 159.2,-48.5 111.6,-28.3 146.8,-25.6 156,-23.7 8.4,27.5 2.9,81.4 -2.9,110.7 -2.6,12.7 5.7,25 18.4,27.5 12.7,2.6 25,-5.7 27.6,-18.3 1.9,-9.7 18.2,-95.5 -1.4,-142.5 -2.6,-6.4 -8.6,-15 -21.8,-20.3 -8.2,-3.2 -19.7,-4.7 -33.5,-4.7"
         style="fill:#102a54;fill-opacity:1;fill-rule:nonzero;stroke:none"
         id="path46" />
      <path
         d="M 6012.92,8767 C 6758.15,8898.5 7618.61,7552.6 7934.8,5760.8 8251,3969.1 7903.2,2409.9 7157.98,2278.4 6412.75,2146.9 5552.3,3492.8 5236.1,5284.6 4919.9,7076.3 5267.7,8635.5 6012.92,8767"
         style="fill:#102a54;fill-opacity:1;fill-rule:nonzero;stroke:none"
         id="path48" />
      <path
         d="M 5421.8,5295.9 C 5738,3504.2 6598.45,2158.3 7343.68,2289.8 8088.91,2421.3 8436.7,3980.4 8120.5,5772.2 7804.31,7563.9 6943.85,8909.8 6198.63,8778.3 5453.4,8646.8 5105.6,7087.7 5421.8,5295.9"
         style="fill:#80c0fe;fill-opacity:1;fill-rule:nonzero;stroke:none"
         id="path50" />
      <path
         d="m 6057.32,5413.9 c 193,-1093.6 718.2,-1915.1 1173.06,-1834.8 454.86,80.2 667.15,1031.9 474.15,2125.5 -192.99,1093.7 -718.19,1915.2 -1173.06,1834.9 -454.86,-80.3 -667.15,-1031.9 -474.15,-2125.6"
         style="fill:#ffffff;fill-opacity:1;fill-rule:nonzero;stroke:none"
         id="path52" />
      <path
         d="m 6576.94,5513.1 c 95.04,-538.5 353.65,-943 577.64,-903.5 223.98,39.5 328.51,508.2 233.48,1046.7 -95.04,538.5 -353.65,943 -577.64,903.5 -223.98,-39.5 -328.52,-508.1 -233.48,-1046.7"
         style="fill:#80c0fe;fill-opacity:1;fill-rule:nonzero;stroke:none"
         id="path54" />
      <path
         d="m 30173.4,14766.4 c -937.2,165.4 -2019.2,-1527.1 -2416.9,-3780.3 -397.6,-2253.3 39.8,-4213.9 976.9,-4379.3 937.2,-165.4 2019.2,1527.1 2416.9,3780.4 397.6,2253.2 -39.8,4213.8 -976.9,4379.2"
         style="fill:#102a54;fill-opacity:1;fill-rule:nonzero;stroke:none"
         id="path56" />
      <path
         d="m 30916.7,10401.4 c -397.6,-2253.2 -1479.6,-3945.7 -2416.8,-3780.3 -937.1,165.4 -1374.5,2126 -976.9,4379.2 397.7,2253.2 1479.7,3945.8 2416.9,3780.4 937.1,-165.4 1374.5,-2126.1 976.8,-4379.3"
         style="fill:#e6515c;fill-opacity:1;fill-rule:nonzero;stroke:none"
         id="path58" />
      <path
         d="m 30117.6,10549.8 c -242.7,-1375.3 -903.2,-2408.3 -1475.2,-2307.4 -572,101 -839,1297.7 -596.3,2673 242.7,1375.3 903.2,2408.3 1475.2,2307.4 572,-100.9 839,-1297.7 596.3,-2673"
         style="fill:#ffffff;fill-opacity:1;fill-rule:nonzero;stroke:none"
         id="path60" />
      <path
         d="m 29464.1,10674.6 c -119.5,-677.2 -444.7,-1185.9 -726.4,-1136.2 -281.7,49.7 -413.1,639 -293.6,1316.2 119.5,677.2 444.7,1185.9 726.4,1136.2 281.7,-49.7 413.1,-639 293.6,-1316.2"
         style="fill:#e6515c;fill-opacity:1;fill-rule:nonzero;stroke:none"
         id="path62" />
      <path
         d="m 25383.4,11553.9 c 0,0 250.1,301.2 334.4,328.8 84.3,27.7 825.4,-275.1 824,-311.6 -1.5,-36.4 -201.7,-496.6 -667.4,-604.8 l -491,587.6"
         style="fill:#ffc0b1;fill-opacity:1;fill-rule:nonzero;stroke:none"
         id="path64" />
      <path
         d="m 25383.4,11553.9 515.8,-558.5 -2573,-3024 c -25.4,-31.6 -53.1,-60.8 -82.7,-87.8 l 0.1,-0.1 v 0 c -178.1,-224.1 -434,-372.9 -716.8,-417 l -817.4,-145.1 -172,1327.7 644.4,78.1 3201.6,2826.7"
         style="fill:#ffc0b1;fill-opacity:1;fill-rule:nonzero;stroke:none"
         id="path66" />
      <path
         d="m 29139.1,10588.7 -3958.6,1497.3 -196.5,410.5 -1074.8,406.5 230.4,-481.4 -491.4,-208.4 946.5,-358 528.4,136.3 3977.5,-1504.5 38.5,101.7"
         style="fill:#102a54;fill-opacity:1;fill-rule:nonzero;stroke:none"
         id="path68" />
      <path
         d="m 25302.9,11445.4 c 0,0 654.8,408.2 733.1,427.3 78.4,19.1 47,-149 -9.9,-249.1 -56.9,-100 -346.3,-324.8 -346.3,-324.8 l -376.9,146.6"
         style="fill:#ffc0b1;fill-opacity:1;fill-rule:nonzero;stroke:none"
         id="path70" />
      <path
         d="m 25373.6,11465.7 c -7.9,0 -15.7,4.1 -20.1,11.3 -6.7,11.1 -3.2,25.5 7.9,32.3 l 397.9,240.9 c 11,6.7 25.5,3.2 32.2,-7.9 6.7,-11.1 3.1,-25.5 -7.9,-32.2 l -397.9,-241 c -3.8,-2.3 -8,-3.4 -12.1,-3.4"
         style="fill:#102a54;fill-opacity:1;fill-rule:nonzero;stroke:none"
         id="path72" />
      <path
         d="m 25756.7,11337.1 c -7.9,0 -15.7,4.1 -20.1,11.4 -6.7,11.1 -3,25.5 8.1,32.2 267.6,160.2 315.4,301.8 315.8,303.2 4,12.3 17.1,19.2 29.4,15.3 12.3,-3.8 19.2,-16.8 15.5,-29.1 -2,-6.4 -51.2,-158.9 -336.6,-329.7 -3.8,-2.2 -8,-3.3 -12.1,-3.3"
         style="fill:#102a54;fill-opacity:1;fill-rule:nonzero;stroke:none"
         id="path74" />
      <path
         d="m 26112.5,11777.7 c 0,0 3.4,-123 -46.4,-187.7 -49.8,-64.6 -116.9,-152.3 -116.9,-152.3 0,0 45.7,-326.6 214.8,-343.3 0,0 226.1,149.1 356.2,314.7 67.6,86 40.7,212.8 -56.2,263.3 -77.3,40.2 -190.9,82.1 -351.5,105.3"
         style="fill:#ffc0b1;fill-opacity:1;fill-rule:nonzero;stroke:none"
         id="path76" />
      <path
         d="m 25859.6,11248 c -20.1,0 -32.1,8.2 -38.7,15.3 -47.6,51 -26.5,132.8 -1.4,164.2 8.1,10.1 22.9,11.8 33,3.7 10.1,-8.1 11.8,-22.9 3.7,-33 -15.4,-19.2 -27.8,-74.2 -1,-102.9 7.9,-4.2 52.7,6.6 138.3,68.8 65.3,47.4 133.4,109.9 162,148.6 59.6,80.6 93.8,171.5 94.2,172.4 4.5,12.2 18,18.3 30.2,13.8 12.1,-4.5 18.3,-18 13.7,-30.2 -1.4,-3.9 -36.7,-97.8 -100.4,-183.9 -55.3,-74.9 -242.6,-231.7 -329.1,-236.6 -1.5,-0.1 -3,-0.2 -4.5,-0.2"
         style="fill:#102a54;fill-opacity:1;fill-rule:nonzero;stroke:none"
         id="path78" />
      <path
         d="m 25907.2,11147.3 h 0.1 z m -3,-46.4 c -8.7,0 -13.4,2.2 -17,3.9 -55.6,26.2 -28,138.8 -18.3,172.7 3.6,12.4 16.6,19.6 29.1,16 12.4,-3.6 19.6,-16.6 16,-29 -16.7,-58.1 -16.2,-108.6 -7.9,-116.5 13.4,0.3 63.4,18.2 174.6,85.4 80.7,48.8 160,103.5 183.4,124 40.9,35.8 124.6,169.7 153.4,218.2 6.6,11.2 21,14.8 32.2,8.2 11.1,-6.6 14.8,-21 8.2,-32.1 -4.4,-7.4 -108,-181.5 -162.9,-229.6 -30.1,-26.4 -119.2,-86.5 -198.6,-134 -122,-72.9 -170.1,-87.2 -192.2,-87.2"
         style="fill:#102a54;fill-opacity:1;fill-rule:nonzero;stroke:none"
         id="path80" />
      <path
         d="m 22470.3,7879.2 c -7.7,0 -15.3,3.8 -19.7,10.7 -342.7,531.7 -294.1,829.1 -291.9,841.5 2.3,12.8 14.6,21.2 27.3,18.9 12.7,-2.3 21.2,-14.5 18.9,-27.2 -0.7,-4 -45.4,-295 285.1,-807.8 7,-10.9 3.9,-25.4 -7,-32.4 -3.9,-2.5 -8.3,-3.7 -12.7,-3.7"
         style="fill:#102a54;fill-opacity:1;fill-rule:nonzero;stroke:none"
         id="path82" />
      <path
         d="m 8893.72,6648.5 -96.07,-754 3850.05,-970.4 c 39,-11 78.6,-18.7 118.3,-23.5 v -0.1 0 c 275.1,-79.2 569.9,-52 825.8,76.2 l 520.1,327.2 -646,1102.8 -324.5,-203 -4247.68,444.8"
         style="fill:#ffc0b1;fill-opacity:1;fill-rule:nonzero;stroke:none"
         id="path84" />
      <path
         d="m 8124.92,6696.2 c 0,0 -526.69,-351.1 -501.61,-480.1 25.08,-129 308.81,-443.7 503.74,-481.6 194.93,-37.9 723.86,146.5 723.86,146.5 0,0 87.32,431.8 44.33,507.1 -43,75.2 -770.32,308.1 -770.32,308.1"
         style="fill:#ffc0b1;fill-opacity:1;fill-rule:nonzero;stroke:none"
         id="path86" />
      <path
         d="m 8178.88,6545.4 1789.99,1893.6 454.53,23.1 789.4,835.1 -533.1,-27.2 -2.9,533.8 -695.12,-735.4 -77.91,-540.1 -1795.92,-1893.4 71.03,-89.5"
         style="fill:#102a54;fill-opacity:1;fill-rule:nonzero;stroke:none"
         id="path88" />
      <path
         d="m 7713.43,6053 -651.94,-689.6 -78.99,74.6 669.08,707.8 61.85,-92.8"
         style="fill:#102a54;fill-opacity:1;fill-rule:nonzero;stroke:none"
         id="path90" />
      <path
         d="m 9074.27,6629.6 c -28.69,3 -318.51,161.5 -429.87,172.7 -111.35,11.1 -433.99,-10 -592.78,-38 -19.89,-3.5 47.81,-186.7 127.04,-202.7 361.87,-73.2 770.32,-245.2 770.32,-245.2 l 125.29,313.2"
         style="fill:#ffc0b1;fill-opacity:1;fill-rule:nonzero;stroke:none"
         id="path92" />
      <path
         d="m 8735.23,5943.5 c -8.2,0 -16.16,4.3 -20.46,11.9 -43.94,78.2 -70.25,174.4 -78.2,286 -0.41,5.7 -0.73,11.9 -1.07,18.6 -2.2,43 -5.53,108 -41.77,119.4 -1.17,0.4 -421.89,133.2 -469.86,148.4 l 14.13,44.7 c 0,0 466.87,-147.4 469.83,-148.3 67.33,-21.3 71.83,-109.3 74.52,-161.8 0.33,-6.3 0.63,-12.3 1.01,-17.6 7.46,-104.7 31.79,-194.3 72.29,-266.3 6.36,-11.3 2.35,-25.6 -8.94,-32 -3.63,-2 -7.58,-3 -11.48,-3"
         style="fill:#102a54;fill-opacity:1;fill-rule:nonzero;stroke:none"
         id="path94" />
      <path
         d="m 8582.87,6368.6 h 0.1 z m -111.58,-154 c -50.25,0 -191.44,17.2 -585.02,121.7 -12.52,3.4 -19.97,16.2 -16.65,28.7 3.33,12.5 16.18,19.9 28.69,16.7 257.05,-68.3 545.23,-131.8 582.65,-120.1 48.26,15.2 90.98,85.6 95.94,110.5 -53.59,27.3 -365.21,128.6 -558.85,189.1 -12.36,3.9 -19.26,17.1 -15.39,29.4 3.86,12.4 16.99,19.3 29.39,15.4 1.4,-0.4 142.21,-44.4 282.72,-90.7 292.81,-96.4 298.72,-107.4 304.98,-119 7.1,-13.1 5.84,-31.1 -3.85,-55 -16.14,-39.8 -61.66,-105.8 -120.86,-124.4 -3.56,-1.1 -10.49,-2.3 -23.75,-2.3"
         style="fill:#102a54;fill-opacity:1;fill-rule:nonzero;stroke:none"
         id="path96" />
      <path
         d="m 8486.37,6215.9 h 0.1 z m -183.3,-179 c -195.17,0 -622.03,101.3 -642.32,106.2 -12.6,3 -20.38,15.6 -17.37,28.2 3.01,12.6 15.68,20.4 28.27,17.4 189.79,-45.3 576.67,-124.8 682.46,-100.9 39.59,9 96.07,92.1 111.26,130.2 -136.45,16.7 -556.67,111.4 -575.52,115.6 -12.64,2.9 -20.57,15.4 -17.72,28.1 2.85,12.6 15.38,20.5 28.05,17.7 4.85,-1.1 486.36,-109.6 589.45,-116.7 14.62,-1.1 25.24,-12.1 26.42,-27.6 3.2,-41.8 -80.78,-177 -151.61,-193 -15.94,-3.6 -36.83,-5.2 -61.37,-5.2"
         style="fill:#102a54;fill-opacity:1;fill-rule:nonzero;stroke:none"
         id="path98" />
      <path
         d="m 8160.18,5886.3 c -86.13,0 -305.67,43 -378.13,57.7 -12.7,2.5 -20.91,14.9 -18.33,27.6 2.57,12.7 14.91,20.9 27.65,18.3 166.88,-33.8 355.65,-64 382.59,-56.1 112.61,33.9 93.84,117.3 92.98,120.8 -3.04,12.6 4.69,25.3 17.28,28.3 12.63,3.1 25.27,-4.7 28.32,-17.3 0.32,-1.3 29.57,-130.1 -125.05,-176.7 -6.06,-1.8 -15.43,-2.6 -27.31,-2.6"
         style="fill:#102a54;fill-opacity:1;fill-rule:nonzero;stroke:none"
         id="path100" />
      <path
         d="m 13407.3,5534.5 c -12.2,0 -22.5,9.5 -23.4,21.9 -15.6,229.5 -84.7,388.4 -140,481.2 -59.8,100.5 -116.8,147.4 -117.3,147.9 -10.1,8.1 -11.6,22.9 -3.5,33 8.2,10 22.9,11.6 33,3.5 9.9,-8.1 243.3,-201.5 274.6,-662.4 0.9,-13 -8.9,-24.2 -21.8,-25 -0.5,-0.1 -1.1,-0.1 -1.6,-0.1"
         style="fill:#102a54;fill-opacity:1;fill-rule:nonzero;stroke:none"
         id="path102" />
      <path
         d="m 8205.49,6532.5 c -2.69,0 -5.43,0.5 -8.11,1.5 -175.63,64.7 -169.27,229.8 -169.19,231.5 0.67,12.9 11.9,22.8 24.63,22.2 12.91,-0.7 22.85,-11.7 22.23,-24.6 -0.24,-5.7 -3.77,-132.6 138.57,-185.1 12.15,-4.5 18.37,-18 13.88,-30.1 -3.49,-9.5 -12.46,-15.4 -22.01,-15.4"
         style="fill:#102a54;fill-opacity:1;fill-rule:nonzero;stroke:none"
         id="path104" />
      <path
         d="m 18678.4,8285.9 1005.4,2167.6 674,3870.6 703.8,-125.1 -29,-3340 c -8.3,-396.8 -89,-788.8 -238.2,-1156.5 l -760.3,-1874.7 -1355.7,458.1"
         style="fill:#ffc0b1;fill-opacity:1;fill-rule:nonzero;stroke:none"
         id="path106" />
      <path
         d="m 20442.6,10234.7 c -4.1,0 -8.2,1.1 -12,3.3 -572.9,339.5 -728.7,200.4 -730.2,199 -8.9,-9.4 -23.6,-9.6 -33,-0.6 -9.3,8.9 -9.5,24 -0.5,33.3 6.8,7.2 175.1,171.7 787.6,-191.3 11.2,-6.6 14.9,-21 8.3,-32.2 -4.4,-7.3 -12.2,-11.5 -20.2,-11.5"
         style="fill:#102a54;fill-opacity:1;fill-rule:nonzero;stroke:none"
         id="path108" />
      <path
         d="m 21777.6,14205.1 -3196,1799.7 -114.8,377.3 -867.8,488.7 134.7,-442.6 -448.3,-114.3 764.2,-430.4 470.5,47.8 3211.3,-1808.3 46.2,82.1"
         style="fill:#102a54;fill-opacity:1;fill-rule:nonzero;stroke:none"
         id="path110" />
      <path
         d="m 21132.3,14777.6 c -11.5,82.2 -155,184.7 -244,241.1 53.3,48.6 81.2,108.5 47.1,128.5 -57.8,34 -554,-16 -642.7,-67.4 -88.7,-51.4 65.1,-755.7 65.1,-755.7 l 703.8,-125.1 c 0,0 87.5,458.6 70.7,578.6"
         style="fill:#ffc0b1;fill-opacity:1;fill-rule:nonzero;stroke:none"
         id="path112" />
      <path
         d="m 20888.3,14323.8 c -10.2,0 -19.5,6.6 -22.5,16.8 -39.4,132.5 -110.7,202.4 -163.5,237.7 -74.8,50 -127.4,126.5 -148.1,215.4 l -31,133.6 23.6,4.8 c 114.4,23.4 330.8,107.6 332.9,108.4 12.1,4.8 25.7,-1.2 30.4,-13.3 4.7,-12 -1.2,-25.6 -13.3,-30.4 -8.5,-3.3 -196.1,-76.3 -317.1,-105.4 l 20.2,-87.1 c 18,-77.3 63.6,-143.7 128.5,-187 59.2,-39.6 139,-117.4 182.4,-263.4 3.6,-12.4 -3.4,-25.4 -15.8,-29.1 -2.3,-0.7 -4.5,-1 -6.7,-1"
         style="fill:#102a54;fill-opacity:1;fill-rule:nonzero;stroke:none"
         id="path114" />
      <path
         d="m 20688.3,14786.2 h 0.1 z m -1.5,-45.5 c -13.7,0 -21.2,3.8 -27,8.2 -46.6,35.7 -42.6,147.3 -41.4,169.4 0.8,12.9 11.8,22.8 24.8,22 12.9,-0.7 22.8,-11.8 22.1,-24.7 -2.4,-42 2.8,-110.3 21.4,-128 27,-3.2 159,52.3 330.6,149.7 11.2,6.4 25.5,2.5 31.9,-8.8 6.4,-11.3 2.5,-25.6 -8.8,-32 -0.8,-0.4 -80.5,-45.6 -164,-86.5 -110.9,-54.3 -162.4,-69.3 -189.6,-69.3"
         style="fill:#102a54;fill-opacity:1;fill-rule:nonzero;stroke:none"
         id="path116" />
      <path
         d="m 20771.8,14607.3 c -16.2,0 -28.8,2.6 -36.5,8.6 -35.2,27.7 -75.3,123.9 -83,142.9 -4.9,12 0.9,25.7 12.9,30.5 12,4.9 25.7,-0.9 30.6,-12.9 16.8,-41.6 48.4,-106.1 67.3,-122.6 31.4,-8.4 245.3,52.6 359.1,121.9 11.1,6.8 25.5,3.3 32.3,-7.8 6.7,-11 3.2,-25.5 -7.9,-32.2 -66.3,-40.4 -280.9,-128.4 -374.8,-128.4"
         style="fill:#102a54;fill-opacity:1;fill-rule:nonzero;stroke:none"
         id="path118" />
      <path
         d="m 20867.4,14453.4 c -7.4,0 -13.9,0.6 -19.5,1.9 -12.9,3 -77.7,25.4 -80.2,174.1 -0.2,12.9 10.1,23.6 23.1,23.8 0.1,0 0.3,0 0.4,0 12.8,0 23.2,-10.2 23.4,-23 0.9,-48.3 15.4,-122.7 43.9,-129.2 36.2,-8.4 178,38.6 267.1,74.7 12,4.8 25.7,-1 30.6,-13 4.8,-12 -1,-25.6 -13,-30.5 -34.8,-14.1 -199,-78.8 -275.8,-78.8"
         style="fill:#102a54;fill-opacity:1;fill-rule:nonzero;stroke:none"
         id="path120" />
      <path
         d="m 21729.9,7162.5 -210.3,1624.7 -3781.5,-236.9 -1293.3,-113.4 c -170.1,0 -332.2,-34.5 -479.5,-96.8 -516.5,-218.5 -811.4,-767.6 -722.6,-1321.3 l 439.9,-5198.1 4335.3,21.4 23.4,5023.1 1688.6,297.3"
         style="fill:#3c94f8;fill-opacity:1;fill-rule:nonzero;stroke:none"
         id="path122" />
      <g
         id="g124">
        <g
           id="g126"
           clip-path="url(#clipPath130)">
          <path
             d="m 20556.4,6536 -5609.1,-476.6 -27.9,329.2 5609,476.6 28,-329.2"
             style="fill:#ffffff;fill-opacity:1;fill-rule:nonzero;stroke:none"
             id="path132" />
          <path
             d="m 20556.7,5715.8 -5609.1,-476.6 -27.9,329.2 5609,476.5 28,-329.1"
             style="fill:#ffffff;fill-opacity:1;fill-rule:nonzero;stroke:none"
             id="path134" />
          <path
             d="m 20557,4895.6 -5609.1,-476.6 -27.9,329.2 5609,476.5 28,-329.1"
             style="fill:#ffffff;fill-opacity:1;fill-rule:nonzero;stroke:none"
             id="path136" />
        </g>
      </g>
      <path
         d="m 15671.9,8162.6 -2264.6,-1655.9 891.9,-1522.5 1142.7,670.8 c 223.6,131.3 354.8,376.9 339.7,635.8 l -109.7,1871.8"
         style="fill:#3c94f8;fill-opacity:1;fill-rule:nonzero;stroke:none"
         id="path138" />
      <path
         d="m 20041.3,6841.7 c -13,0 -23.4,10.5 -23.4,23.5 v 636.7 c 0,13 10.4,23.5 23.4,23.5 13,0 23.5,-10.5 23.5,-23.5 v -636.7 c 0,-13 -10.5,-23.5 -23.5,-23.5"
         style="fill:#102a54;fill-opacity:1;fill-rule:nonzero;stroke:none"
         id="path140" />
      <path
         d="m 15441.9,5631.6 c -7.1,0 -14.1,3.2 -18.7,9.3 -7.8,10.3 -5.8,25 4.5,32.8 v 0 c 1.1,0.9 112.3,86.4 201.2,243.8 118.7,210.2 143.8,442.1 74.6,689.4 -3.5,12.5 3.8,25.5 16.3,29 12.4,3.5 25.4,-3.8 28.9,-16.3 90.8,-324.5 6.7,-574.4 -79.9,-726.9 -93.9,-165.3 -208,-252.7 -212.8,-256.4 -4.2,-3.2 -9.2,-4.7 -14.1,-4.7"
         style="fill:#102a54;fill-opacity:1;fill-rule:nonzero;stroke:none"
         id="path142" />
      <path
         d="m 18645,9570.9 c 79.6,236.7 53.9,510.1 3.6,735.2 -105.1,470.5 -158.7,951 -168.2,1433 l -2.8,139.3 -2201.9,-340.5 c -2.6,-869.6 160.1,-1452.8 382.9,-1842.7 l 93.3,-1227.6 c 0,0 -469.2,-20.5 -673.9,-86.2 0,0 110.9,-976.5 1476.9,-925.3 0,0 913.5,107.2 1048.6,1148.4 l -865.3,-54.2 c 0.2,-1 0.5,-2.1 -0.1,0 l -97.3,393.8 c 434.5,-65.9 860.4,199.1 1004.2,626.8"
         style="fill:#ffc0b1;fill-opacity:1;fill-rule:nonzero;stroke:none"
         id="path144" />
      <path
         d="m 17738.1,8550.3 h 0.1 c -0.3,1.1 -0.5,2.2 -0.1,0"
         style="fill:#ffc0b1;fill-opacity:1;fill-rule:nonzero;stroke:none"
         id="path146" />
      <path
         d="m 17640.9,8920.7 c -1.3,0 -2.6,0.1 -3.8,0.3 -13.8,2.2 -340.6,57.7 -594.6,277.1 -9.8,8.5 -10.9,23.3 -2.4,33.1 8.4,9.8 23.3,10.9 33.1,2.5 243.6,-210.6 568.2,-265.9 571.4,-266.4 12.8,-2.1 21.5,-14.2 19.4,-26.9 -1.9,-11.6 -11.8,-19.7 -23.1,-19.7"
         style="fill:#102a54;fill-opacity:1;fill-rule:nonzero;stroke:none"
         id="path148" />
      <path
         d="m 16524,11490.5 c 0,0 151.4,-769.9 -14.5,-920.6 -166,-150.6 -263.5,74.7 -263.5,74.7 0,0 -384.6,751.9 10,992.5 241.7,147.4 268,-146.6 268,-146.6"
         style="fill:#102a54;fill-opacity:1;fill-rule:nonzero;stroke:none"
         id="path150" />
      <path
         d="m 16556.6,10642.2 c 30.8,-199.2 -54.4,-377.7 -190.3,-398.8 -135.9,-21 -271.1,123.5 -301.9,322.7 -30.8,199.2 54.4,377.7 190.3,398.8 135.9,21 271.1,-123.5 301.9,-322.7"
         style="fill:#ffc0b1;fill-opacity:1;fill-rule:nonzero;stroke:none"
         id="path152" />
      <path
         d="m 17757.5,10117.8 c -11.4,0 -21.4,8.2 -23.2,19.8 -2,12.8 6.8,24.8 19.6,26.8 l 203.4,31.4 c 17.5,2.8 32.5,13.3 40.9,28.9 8.5,15.7 9.2,33.9 1.9,50.1 l -275,609.6 c -5.3,11.8 0,25.7 11.8,31 11.8,5.3 25.7,0.1 31,-11.7 l 274.9,-609.6 c 13.4,-29.7 12.2,-63.1 -3.3,-91.7 -15.5,-28.7 -42.9,-47.9 -75.1,-52.9 l -203.3,-31.5 c -1.2,-0.2 -2.4,-0.2 -3.6,-0.2"
         style="fill:#102a54;fill-opacity:1;fill-rule:nonzero;stroke:none"
         id="path154" />
      <path
         d="m 17488.8,10786.4 c 9.6,-61.7 -32.7,-119.5 -94.5,-129.1 -61.7,-9.5 -119.5,32.8 -129.1,94.5 -9.5,61.8 32.8,119.6 94.5,129.1 61.8,9.6 119.6,-32.7 129.1,-94.5"
         style="fill:#102a54;fill-opacity:1;fill-rule:nonzero;stroke:none"
         id="path156" />
      <path
         d="m 18282.9,10931.8 c 9.5,-61.7 -32.8,-119.5 -94.5,-129.1 -61.8,-9.5 -119.6,32.8 -129.1,94.5 -9.6,61.8 32.7,119.6 94.5,129.1 61.7,9.6 119.5,-32.7 129.1,-94.5"
         style="fill:#102a54;fill-opacity:1;fill-rule:nonzero;stroke:none"
         id="path158" />
      <path
         d="m 16994.4,10834 c -26.1,0 -50.1,17.1 -57.7,43.5 -9.1,31.8 9.3,65 41.2,74.2 341.5,98.1 400,229.3 400.6,230.7 -0.5,-1.2 -0.7,-1.8 -0.7,-1.8 l 113.5,-39.2 c -6.6,-19 -75.9,-188.9 -480.3,-305 -5.6,-1.6 -11.1,-2.4 -16.6,-2.4"
         style="fill:#102a54;fill-opacity:1;fill-rule:nonzero;stroke:none"
         id="path160" />
      <path
         d="m 17902.5,11139.7 c -8.7,0 -17.5,1.9 -25.9,5.9 -29.9,14.3 -42.5,50.2 -28.2,80 50.8,105.8 210,291.6 449.1,237.5 32.3,-7.3 52.6,-39.4 45.3,-71.7 -7.3,-32.3 -39.5,-52.6 -71.8,-45.3 -206.6,46.7 -313.3,-170.2 -314.4,-172.4 -10.3,-21.5 -31.8,-34 -54.1,-34"
         style="fill:#102a54;fill-opacity:1;fill-rule:nonzero;stroke:none"
         id="path162" />
      <path
         d="m 17900.6,9842 c -197.8,0 -247.2,125.2 -249.5,131.5 -4.5,12.2 1.6,25.7 13.8,30.2 12.1,4.5 25.5,-1.6 30.1,-13.6 2.5,-6.4 60.9,-146 328.5,-86.3 12.6,2.9 25.1,-5.1 28,-17.8 2.8,-12.6 -5.2,-25.2 -17.8,-28 -50.5,-11.3 -94.6,-16 -133.1,-16"
         style="fill:#102a54;fill-opacity:1;fill-rule:nonzero;stroke:none"
         id="path164" />
      <path
         d="m 16140.4,11496.5 c -68.6,248.6 2,530.8 179.6,717.7 177.6,186.9 455.8,271.9 707.6,216.2 17,-3.8 34.7,-8.2 51.6,-4.2 19.2,4.4 34.3,18.5 48.7,31.8 201.3,185.2 457.6,304.7 723.9,367.5 266.3,62.8 543,71 816,52.4 53.3,-198.7 106.1,-406.2 91.8,-611.4 -14.2,-205.2 -99.9,-414.7 -267.9,-533.5 -59,-41.8 -126,-71 -194.3,-94.9 -241.6,-84.6 -500.5,-104.2 -756,-119.9 -456.5,-27.9 -943.8,-13.9 -1401,-21.7"
         style="fill:#102a54;fill-opacity:1;fill-rule:nonzero;stroke:none"
         id="path166" />
      <path
         d="m 16464.1,10472.8 c -10.8,0 -20.5,7.5 -22.9,18.5 -60,280.9 -175.7,371.3 -176.9,372.2 -10.3,7.8 -12.4,22.4 -4.6,32.8 7.7,10.3 22.3,12.5 32.6,4.8 5.3,-3.9 130.6,-99.6 194.8,-400 2.7,-12.7 -5.4,-25.1 -18.1,-27.8 -1.6,-0.4 -3.3,-0.5 -4.9,-0.5"
         style="fill:#102a54;fill-opacity:1;fill-rule:nonzero;stroke:none"
         id="path168" />
      <path
         d="M 31711.1,1780.7 H 2448.64 c -22.09,0 -40,17.9 -40,40 0,22.1 17.91,40 40,40 H 31711.1 c 22.1,0 40,-17.9 40,-40 0,-22.1 -17.9,-40 -40,-40"
         style="fill:#102a54;fill-opacity:1;fill-rule:nonzero;stroke:none"
         id="path170" />
      <path
         d="m 8234.73,11535.4 c -1.46,0 -2.94,0.3 -4.34,1 -4.97,2.4 -7.07,8.3 -4.67,13.3 17.28,35.9 35.21,72.1 53.3,107.7 2.5,4.9 8.52,6.9 13.45,4.4 4.92,-2.5 6.88,-8.5 4.38,-13.4 -18.02,-35.5 -35.89,-71.6 -53.11,-107.4 -1.72,-3.5 -5.29,-5.6 -9.01,-5.6 z m -99.38,-218.4 c -1.32,0 -2.66,0.3 -3.94,0.8 -5.08,2.2 -7.43,8.1 -5.25,13.2 15.71,36.6 32.06,73.6 48.59,109.9 2.29,5 8.22,7.2 13.24,4.9 5.03,-2.2 7.25,-8.2 4.96,-13.2 -16.47,-36.2 -32.76,-73 -48.41,-109.5 -1.62,-3.8 -5.32,-6.1 -9.19,-6.1 z m -89.67,-222.5 c -1.17,0 -2.37,0.2 -3.53,0.7 -5.16,1.9 -7.77,7.7 -5.82,12.8 13.99,37.1 28.68,74.8 43.67,112 2.06,5.1 7.89,7.6 13.01,5.6 5.13,-2.1 7.6,-7.9 5.54,-13.1 -14.93,-37 -29.57,-74.6 -43.51,-111.5 -1.51,-4 -5.32,-6.5 -9.36,-6.5 z m -79.57,-226.4 c -1.03,0 -2.07,0.2 -3.1,0.5 -5.25,1.8 -8.12,7.4 -6.41,12.7 12.39,38 25.37,76.3 38.58,113.8 1.83,5.2 7.51,7.9 12.75,6.1 5.21,-1.8 7.94,-7.5 6.11,-12.7 -13.15,-37.4 -26.08,-75.6 -38.43,-113.5 -1.37,-4.2 -5.29,-6.9 -9.5,-6.9 z m -69.1,-229.7 c -0.88,0 -1.78,0.1 -2.66,0.3 -5.33,1.5 -8.46,7 -6.99,12.3 10.62,38.6 21.82,77.4 33.29,115.5 1.6,5.3 7.2,8.3 12.46,6.7 5.29,-1.6 8.29,-7.1 6.69,-12.4 -11.42,-38 -22.58,-76.7 -33.16,-115.1 -1.22,-4.4 -5.24,-7.3 -9.63,-7.3 z m -58.32,-232.8 c -0.73,0 -1.47,0.1 -2.21,0.2 -5.39,1.2 -8.77,6.6 -7.55,12 8.75,38.8 18.12,78.1 27.84,116.9 1.34,5.4 6.73,8.7 12.14,7.3 5.35,-1.3 8.6,-6.8 7.27,-12.1 -9.69,-38.7 -19.02,-77.9 -27.74,-116.5 -1.05,-4.7 -5.18,-7.8 -9.75,-7.8 z m -47.26,-235.3 c -0.58,0 -1.16,0 -1.75,0.1 -5.44,1 -9.07,6.2 -8.11,11.6 6.93,39.3 14.43,79.1 22.28,118.2 1.09,5.4 6.35,8.9 11.77,7.8 5.42,-1.1 8.93,-6.3 7.84,-11.7 -7.83,-39 -15.29,-78.6 -22.2,-117.8 -0.85,-4.8 -5.07,-8.2 -9.83,-8.2 z m -36,-237.3 c -0.42,0 -0.85,0 -1.28,0.1 -5.47,0.7 -9.35,5.7 -8.65,11.1 5.05,39.7 10.64,79.7 16.61,119.1 0.83,5.5 5.99,9.3 11.39,8.4 5.46,-0.8 9.22,-5.9 8.39,-11.3 -5.96,-39.3 -11.52,-79.2 -16.55,-118.7 -0.64,-5 -4.95,-8.7 -9.91,-8.7 z m -24.6,-238.8 c -0.26,0 -0.52,0 -0.79,0 -5.5,0.5 -9.62,5.3 -9.19,10.8 3.13,39.7 6.79,80 10.89,119.8 0.56,5.5 5.36,9.4 10.97,8.9 5.49,-0.6 9.49,-5.5 8.92,-11 -4.08,-39.6 -7.72,-79.8 -10.83,-119.3 -0.42,-5.2 -4.8,-9.2 -9.97,-9.2 z m -13.11,-239.7 c -0.1,0 -0.2,0 -0.31,0 -5.51,0.1 -9.86,4.8 -9.69,10.3 1.22,39.8 2.95,80.2 5.13,120.2 0.3,5.5 5.01,9.7 10.53,9.4 5.52,-0.3 9.75,-5 9.44,-10.5 -2.17,-39.8 -3.88,-80.1 -5.11,-119.7 -0.16,-5.5 -4.61,-9.7 -9.99,-9.7 z m -1.63,-240.1 c -5.44,0 -9.9,4.3 -10,9.8 -0.48,28.6 -0.73,57.5 -0.73,86.2 0,11.4 0.04,22.7 0.12,34.1 0.04,5.5 4.5,9.9 10,9.9 0.02,0 0.04,0 0.07,0 5.52,0 9.97,-4.5 9.93,-10 -0.08,-11.4 -0.12,-22.7 -0.12,-34 0,-28.5 0.24,-57.4 0.73,-85.8 0.1,-5.6 -4.3,-10.1 -9.83,-10.2 -0.05,0 -0.11,0 -0.17,0 z m 9.83,-239.7 c -5.23,0 -9.63,4.1 -9.97,9.3 -2.6,39.9 -4.73,80.3 -6.36,120.1 -0.23,5.5 4.06,10.1 9.58,10.4 5.68,0.4 10.18,-4.1 10.4,-9.6 1.62,-39.6 3.75,-79.9 6.34,-119.6 0.35,-5.5 -3.82,-10.2 -9.33,-10.6 -0.22,0 -0.44,0 -0.66,0 z m 21.31,-239 c -5.02,0 -9.34,3.8 -9.93,8.9 -4.51,39.8 -8.58,80 -12.11,119.6 -0.48,5.5 3.58,10.4 9.08,10.8 5.64,0.5 10.36,-3.5 10.85,-9 3.5,-39.4 7.57,-79.5 12.06,-119.1 0.62,-5.5 -3.32,-10.5 -8.81,-11.1 -0.38,0 -0.76,-0.1 -1.14,-0.1 z m 32.75,-237.6 c -4.82,0 -9.07,3.4 -9.87,8.4 -6.38,39.4 -12.39,79.4 -17.82,118.8 -0.76,5.5 3.07,10.6 8.53,11.3 5.48,0.8 10.53,-3.1 11.28,-8.5 5.42,-39.4 11.39,-79.2 17.76,-118.4 0.88,-5.5 -2.82,-10.6 -8.27,-11.5 -0.55,-0.1 -1.09,-0.1 -1.61,-0.1 z m 44.04,-235.9 c -4.62,0 -8.78,3.2 -9.77,7.9 -8.27,39.1 -16.17,78.8 -23.47,117.9 -1.02,5.5 2.56,10.7 7.99,11.7 5.45,1 10.65,-2.6 11.66,-8 7.28,-39 15.15,-78.5 23.39,-117.4 1.14,-5.4 -2.32,-10.8 -7.72,-11.9 -0.7,-0.1 -1.39,-0.2 -2.08,-0.2 z m 55.19,-233.5 c -4.44,0 -8.49,2.9 -9.67,7.4 -10.1,38.7 -19.87,78 -29.02,116.7 -1.27,5.4 2.06,10.8 7.43,12 5.36,1.3 10.76,-2 12.03,-7.4 9.12,-38.6 18.85,-77.7 28.91,-116.2 1.4,-5.4 -1.8,-10.8 -7.14,-12.2 -0.85,-0.2 -1.7,-0.3 -2.54,-0.3 z m 66.06,-230.7 c -4.26,0 -8.21,2.7 -9.54,7 -11.93,38.2 -23.51,77 -34.44,115.2 -1.52,5.3 1.55,10.8 6.86,12.3 5.32,1.6 10.85,-1.5 12.37,-6.8 10.88,-38.1 22.42,-76.7 34.3,-114.8 1.64,-5.2 -1.3,-10.8 -6.57,-12.5 -0.99,-0.3 -2,-0.4 -2.98,-0.4 z m 76.64,-227.5 c -4.09,0 -7.93,2.6 -9.4,6.6 -13.64,37.6 -26.99,75.8 -39.69,113.5 -1.77,5.3 1.05,10.9 6.28,12.7 5.25,1.8 10.91,-1.1 12.67,-6.3 12.65,-37.5 25.95,-75.6 39.54,-113 1.88,-5.2 -0.8,-11 -5.99,-12.9 -1.13,-0.4 -2.28,-0.6 -3.41,-0.6 z m 86.86,-223.7 c -3.93,0 -7.65,2.3 -9.24,6.2 -15.33,37 -30.39,74.5 -44.77,111.6 -2,5.1 0.55,10.9 5.7,12.9 5.16,2 10.95,-0.5 12.94,-5.7 14.33,-36.9 29.33,-74.3 44.6,-111.2 2.12,-5.1 -0.31,-10.9 -5.41,-13 -1.25,-0.5 -2.55,-0.8 -3.82,-0.8 z m 96.69,-219.7 c -3.76,0 -7.36,2.2 -9.06,5.8 -16.89,36.2 -33.59,73 -49.65,109.5 -2.22,5.1 0.07,11 5.13,13.2 5.05,2.2 10.95,-0.1 13.17,-5.1 16,-36.4 32.64,-73.1 49.47,-109.1 2.33,-5 0.17,-11 -4.83,-13.3 -1.37,-0.7 -2.81,-1 -4.23,-1"
         style="fill:#102a54;fill-opacity:1;fill-rule:nonzero;stroke:none"
         id="path172" />
      <path
         d="m 8264.77,7004 c -3.69,0 -7.23,2 -8.97,5.6 -17.88,35.9 -35.48,72.4 -52.32,108.2 -2.35,5 -0.2,10.9 4.8,13.3 4.98,2.3 10.95,0.2 13.3,-4.8 16.77,-35.7 34.32,-72 52.13,-107.9 2.46,-4.9 0.44,-10.9 -4.51,-13.4 -1.43,-0.7 -2.94,-1 -4.43,-1"
         style="fill:#102a54;fill-opacity:1;fill-rule:nonzero;stroke:none"
         id="path174" />
      <path
         d="m 24115.3,12801.6 c -2.8,0 -5.7,1.2 -7.7,3.5 -25.6,30.6 -51.8,61.3 -78,91.4 -3.6,4.1 -3.1,10.4 1,14.1 4.2,3.6 10.5,3.1 14.1,-1 26.2,-30.2 52.6,-61 78.3,-91.6 3.5,-4.2 3,-10.5 -1.3,-14.1 -1.8,-1.6 -4.1,-2.3 -6.4,-2.3 z m 151.2,-187.1 c -3,0 -5.9,1.3 -7.9,3.9 -24.5,31.4 -49.6,63 -74.6,94 -3.5,4.3 -2.8,10.6 1.5,14.1 4.2,3.5 10.6,2.8 14,-1.5 25.2,-31.1 50.3,-62.8 74.9,-94.3 3.4,-4.4 2.6,-10.7 -1.8,-14.1 -1.8,-1.4 -4,-2.1 -6.1,-2.1 z m 144.1,-192.5 c -3.1,0 -6.2,1.4 -8.1,4.2 -23.2,32.2 -47.1,64.7 -71.1,96.7 -3.3,4.5 -2.4,10.7 2.1,14 4.4,3.4 10.7,2.4 14,-2 24,-32.1 48,-64.8 71.2,-97.1 3.2,-4.4 2.2,-10.7 -2.3,-13.9 -1.7,-1.3 -3.8,-1.9 -5.8,-1.9 z m 136.6,-197.8 c -3.2,0 -6.4,1.5 -8.3,4.4 -22.1,33.3 -44.7,66.8 -67.3,99.5 -3.1,4.5 -2,10.7 2.6,13.9 4.5,3.1 10.8,2 13.9,-2.6 22.6,-32.7 45.3,-66.3 67.5,-99.7 3,-4.6 1.8,-10.8 -2.8,-13.9 -1.7,-1.1 -3.7,-1.6 -5.6,-1.6 z m 128.8,-203.1 c -3.4,0 -6.7,1.8 -8.6,4.8 -20.7,34.2 -42,68.5 -63.2,102 -3,4.7 -1.6,10.9 3,13.8 4.7,3 10.9,1.6 13.8,-3.1 21.4,-33.6 42.7,-68 63.5,-102.3 2.9,-4.7 1.4,-10.9 -3.4,-13.7 -1.6,-1 -3.4,-1.5 -5.1,-1.5 z m 120.3,-208 c -3.5,0 -6.9,1.9 -8.7,5.2 -19.3,34.8 -39.1,70 -59.1,104.4 -2.7,4.8 -1.1,10.9 3.7,13.7 4.8,2.8 10.9,1.1 13.6,-3.6 20.1,-34.6 40,-69.9 59.3,-104.9 2.6,-4.8 0.9,-10.9 -3.9,-13.5 -1.6,-0.9 -3.2,-1.3 -4.9,-1.3 z m 111.6,-212.8 c -3.7,0 -7.2,2 -9,5.5 -17.7,35.7 -36,71.6 -54.5,106.9 -2.6,4.8 -0.7,10.9 4.2,13.5 4.9,2.5 10.9,0.6 13.5,-4.3 18.5,-35.3 37,-71.4 54.7,-107.1 2.5,-5 0.5,-11 -4.5,-13.4 -1.4,-0.8 -2.9,-1.1 -4.4,-1.1 z m 102.3,-217.3 c -3.8,0 -7.4,2.2 -9.1,5.9 -16.1,36.3 -32.9,72.9 -49.9,109 -2.4,5 -0.2,11 4.8,13.3 5,2.4 10.9,0.2 13.3,-4.8 17,-36.2 33.9,-73 50.1,-109.4 2.2,-5 -0.1,-10.9 -5.1,-13.2 -1.3,-0.5 -2.7,-0.8 -4.1,-0.8 z m 92.8,-221.6 c -4,0 -7.8,2.5 -9.3,6.4 -14.6,37.1 -29.8,74.5 -45.1,111.1 -2.1,5 0.3,10.9 5.4,13 5.1,2.2 10.9,-0.2 13.1,-5.3 15.3,-36.7 30.5,-74.2 45.2,-111.5 2,-5.1 -0.5,-11 -5.7,-13 -1.2,-0.4 -2.4,-0.7 -3.6,-0.7 z m 82.6,-225.4 c -4.1,0 -8,2.7 -9.4,6.8 -12.8,37.5 -26.3,75.5 -40,113 -1.9,5.1 0.7,10.9 5.9,12.8 5.2,1.9 11,-0.8 12.9,-6 13.8,-37.5 27.3,-75.7 40.1,-113.3 1.8,-5.2 -1,-10.9 -6.2,-12.7 -1.1,-0.4 -2.2,-0.6 -3.3,-0.6 z m 72.3,-228.8 c -4.3,0 -8.3,2.8 -9.6,7.2 -11,38 -22.7,76.6 -34.7,114.6 -1.7,5.3 1.2,10.9 6.5,12.6 5.2,1.6 10.9,-1.3 12.5,-6.6 12.1,-38.1 23.8,-76.8 34.9,-115 1.6,-5.3 -1.5,-10.9 -6.8,-12.4 -0.9,-0.3 -1.9,-0.4 -2.8,-0.4 z m 61.6,-231.9 c -4.5,0 -8.6,3.1 -9.7,7.6 -9.4,38.8 -19.3,77.9 -29.4,116.1 -1.4,5.4 1.8,10.8 7.1,12.3 5.4,1.4 10.8,-1.8 12.2,-7.2 10.2,-38.3 20.1,-77.5 29.5,-116.5 1.3,-5.3 -2,-10.7 -7.4,-12 -0.8,-0.2 -1.6,-0.3 -2.3,-0.3 z m 50.5,-234.4 c -4.7,0 -8.9,3.3 -9.8,8.1 -7.4,38.9 -15.4,78.3 -23.8,117.3 -1.2,5.3 2.2,10.7 7.6,11.8 5.5,1.2 10.7,-2.2 11.9,-7.6 8.4,-39.1 16.5,-78.7 24,-117.8 1,-5.4 -2.6,-10.6 -8,-11.7 -0.6,-0.1 -1.3,-0.1 -1.9,-0.1 z m 39.4,-236.5 c -4.9,0 -9.2,3.6 -9.9,8.5 -5.6,39.5 -11.8,79.3 -18.2,118.3 -1,5.4 2.7,10.6 8.2,11.5 5.5,0.9 10.6,-2.8 11.5,-8.2 6.5,-39.2 12.6,-79.1 18.3,-118.7 0.7,-5.5 -3,-10.6 -8.5,-11.4 -0.5,0 -1,0 -1.4,0 z m 28,-238.1 c -5.2,0 -9.5,3.9 -10,9.1 -3.7,39.6 -7.9,79.6 -12.5,118.9 -0.7,5.5 3.2,10.5 8.7,11.1 5.6,0.7 10.5,-3.2 11.1,-8.7 4.7,-39.6 8.9,-79.7 12.6,-119.4 0.5,-5.5 -3.5,-10.4 -9,-10.9 -0.3,0 -0.6,-0.1 -0.9,-0.1 z m 16.5,-238.9 c -5.3,0 -9.7,4.2 -10,9.5 -1.8,39.6 -4.1,79.7 -6.8,119.4 -0.4,5.5 3.8,10.3 9.3,10.6 5.4,0.3 10.3,-3.7 10.6,-9.2 2.8,-39.8 5.1,-80.2 6.9,-119.9 0.3,-5.5 -4,-10.1 -9.5,-10.4 -0.2,0 -0.3,0 -0.5,0 z m 5.1,-239.7 v 0 c -5.5,0 -10,4.5 -10,10 v 12.7 c 0,35.7 -0.4,71.7 -1.1,107.1 -0.1,5.5 4.3,10.1 9.8,10.2 5.4,0.3 10.1,-4.3 10.2,-9.8 0.7,-35.5 1.1,-71.6 1.1,-107.5 v -12.7 c 0,-5.5 -4.5,-10 -10,-10 z m -6.3,-239.8 c -0.2,0 -0.3,0 -0.5,0 -5.5,0.3 -9.8,5 -9.5,10.5 2,39.6 3.6,79.9 4.6,119.6 0.1,5.5 4.8,9.9 10.3,9.8 5.5,-0.2 9.8,-4.8 9.7,-10.3 -1.1,-39.9 -2.6,-80.3 -4.6,-120.1 -0.3,-5.3 -4.7,-9.5 -10,-9.5 z m -17.8,-239.2 c -0.3,0 -0.7,0 -1,0.1 -5.5,0.5 -9.5,5.4 -9,10.9 3.9,39.5 7.4,79.6 10.4,119.3 0.4,5.5 4.9,9.6 10.7,9.2 5.5,-0.4 9.6,-5.2 9.2,-10.7 -3,-39.9 -6.4,-80.1 -10.4,-119.8 -0.5,-5.1 -4.8,-9 -9.9,-9 z m -29.4,-238.8 c -0.4,0 -0.9,0.1 -1.4,0.1 -5.5,0.8 -9.3,5.9 -8.5,11.4 5.9,39.3 11.3,79.3 16.1,118.9 0.7,5.5 5.5,9.5 11.2,8.7 5.4,-0.7 9.3,-5.6 8.7,-11.1 -4.9,-39.8 -10.3,-79.9 -16.2,-119.4 -0.7,-5 -5,-8.6 -9.9,-8.6 z m -40.6,-236.7 c -0.7,0 -1.3,0.1 -2,0.2 -5.4,1.1 -8.9,6.3 -7.9,11.7 7.8,39.3 15.1,79 21.7,117.9 1,5.4 6.2,9 11.6,8.1 5.4,-0.9 9.1,-6.1 8.2,-11.5 -6.8,-39.1 -14.1,-78.9 -21.8,-118.3 -1,-4.8 -5.1,-8.1 -9.8,-8.1 z M 25313,8099 c -0.7,0 -1.6,0.1 -2.4,0.3 -5.3,1.4 -8.6,6.8 -7.3,12.1 9.5,38.5 18.7,77.7 27.3,116.5 1.2,5.4 6.5,8.8 11.9,7.6 5.4,-1.1 8.8,-6.5 7.6,-11.9 -8.6,-39 -17.8,-78.3 -27.4,-116.9 -1.1,-4.6 -5.2,-7.7 -9.7,-7.7 z m -62.6,-231.1 c -1,0 -1.9,0.1 -2.9,0.4 -5.3,1.6 -8.3,7.2 -6.7,12.5 11.3,38 22.2,76.7 32.6,114.9 1.4,5.3 6.9,8.5 12.3,7 5.3,-1.4 8.4,-6.9 7,-12.2 -10.4,-38.4 -21.4,-77.3 -32.7,-115.4 -1.3,-4.4 -5.3,-7.2 -9.6,-7.2 z m -73.2,-227.7 c -1.1,0 -2.2,0.2 -3.3,0.6 -5.2,1.8 -8,7.5 -6.1,12.7 12.9,37.3 25.6,75.3 37.8,113.2 1.7,5.2 7.3,8.1 12.6,6.4 5.2,-1.6 8.1,-7.3 6.4,-12.5 -12.2,-38 -25,-76.3 -37.9,-113.7 -1.5,-4.1 -5.4,-6.7 -9.5,-6.7 z m -83.5,-224.4 c -1.3,0 -2.5,0.3 -3.7,0.8 -5.2,2 -7.7,7.8 -5.6,12.9 14.8,37.2 29.2,74.8 43,111.8 1.9,5.2 7.8,7.8 12.9,5.9 5.1,-2 7.8,-7.7 5.9,-12.9 -13.9,-37.2 -28.4,-74.9 -43.2,-112.2 -1.6,-3.9 -5.4,-6.3 -9.3,-6.3 z M 25000,7195 c -1.3,0 -2.7,0.3 -4.1,0.8 -5,2.3 -7.3,8.2 -5,13.3 16.3,36.2 32.5,73.2 48,109.7 2.1,5.1 8,7.4 13.1,5.3 5.1,-2.2 7.4,-8 5.3,-13.1 -15.6,-36.7 -31.8,-73.7 -48.1,-110.1 -1.7,-3.7 -5.4,-5.9 -9.2,-5.9 z m -103.2,-216.6 c -1.5,0 -3,0.3 -4.5,1 -4.9,2.5 -6.9,8.5 -4.4,13.5 17.9,35.5 35.6,71.6 52.7,107.5 2.3,5 8.3,7.1 13.3,4.7 5,-2.3 7.1,-8.3 4.7,-13.3 -17.1,-36 -34.9,-72.3 -52.8,-107.9 -1.8,-3.5 -5.3,-5.5 -9,-5.5 z m -112.3,-212 c -1.6,0 -3.3,0.4 -4.9,1.2 -4.8,2.7 -6.5,8.8 -3.8,13.6 19.3,34.8 38.6,70.2 57.1,105.3 2.6,4.8 8.7,6.7 13.6,4.1 4.8,-2.6 6.7,-8.6 4.1,-13.5 -18.6,-35.2 -37.9,-70.7 -57.3,-105.6 -1.9,-3.3 -5.3,-5.1 -8.8,-5.1 z m -121,-207.2 c -1.8,0 -3.6,0.5 -5.2,1.5 -4.7,2.8 -6.2,9 -3.3,13.7 20.8,34 41.5,68.6 61.4,102.8 2.8,4.8 9,6.4 13.7,3.6 4.8,-2.8 6.4,-8.9 3.6,-13.7 -20,-34.3 -40.8,-69 -61.7,-103.1 -1.9,-3.1 -5.1,-4.8 -8.5,-4.8 z m -129.3,-202.1 c -1.9,0 -3.8,0.5 -5.5,1.6 -4.6,3.1 -5.9,9.3 -2.8,13.9 22.2,33.2 44.2,67 65.5,100.3 3,4.6 9.2,6 13.9,3 4.6,-3 6,-9.2 3,-13.8 -21.4,-33.4 -43.5,-67.3 -65.8,-100.6 -1.9,-2.9 -5.1,-4.4 -8.3,-4.4 z m -137.1,-197 c -2,0 -4.1,0.6 -5.8,1.9 -4.5,3.3 -5.5,9.5 -2.3,14 23.5,32.3 46.8,65.1 69.4,97.6 3.2,4.6 9.4,5.7 14,2.5 4.5,-3.1 5.6,-9.4 2.4,-13.9 -22.7,-32.6 -46.1,-65.6 -69.6,-98 -1.9,-2.6 -5,-4.1 -8.1,-4.1 z m -144.5,-191.5 c -2.1,0 -4.3,0.6 -6.1,2.1 -4.4,3.4 -5.1,9.7 -1.7,14 24.6,31.4 49.1,63.3 73,95 3.3,4.4 9.6,5.3 14,2 4.4,-3.4 5.3,-9.6 2,-14.1 -24,-31.7 -48.6,-63.7 -73.3,-95.2 -2,-2.5 -4.9,-3.8 -7.9,-3.8 z m -151.4,-186.2 c -2.3,0 -4.6,0.8 -6.5,2.4 -4.2,3.5 -4.7,9.8 -1.1,14.1 25.6,30.4 51.4,61.4 76.4,92.2 3.5,4.3 9.8,4.9 14.1,1.4 4.3,-3.4 4.9,-9.7 1.4,-14 -25.1,-30.9 -50.9,-62 -76.7,-92.5 -1.9,-2.4 -4.8,-3.6 -7.6,-3.6 z m -158,-180.6 c -2.4,0 -4.8,0.9 -6.8,2.6 -4,3.7 -4.4,10.1 -0.6,14.2 26.7,29.5 53.5,59.6 79.6,89.4 3.7,4.2 10,4.6 14.2,1 4.1,-3.7 4.5,-10 0.9,-14.1 -26.2,-30 -53.1,-60.2 -79.9,-89.8 -2,-2.2 -4.7,-3.3 -7.4,-3.3 z M 23779,5426.9 c -2.5,0 -5.1,0.9 -7,2.8 -4,3.8 -4.1,10.2 -0.2,14.1 27.6,28.4 55.4,57.6 82.7,86.7 3.8,4 10.1,4.2 14.2,0.4 4,-3.7 4.2,-10.1 0.4,-14.1 -27.4,-29.2 -55.3,-58.4 -83,-86.9 -1.9,-2 -4.5,-3 -7.1,-3 z M 9448.93,5372.4 c -2.58,0 -5.15,0.9 -7.1,2.9 -16.9,17 -33.69,34.1 -50.37,51.3 -3.85,3.9 -3.77,10.3 0.19,14.1 3.96,3.9 10.3,3.8 14.15,-0.2 16.63,-17.1 33.38,-34.1 50.22,-51.1 3.9,-3.9 3.87,-10.3 -0.05,-14.1 -1.95,-2 -4.5,-2.9 -7.04,-2.9 z M 23609,5257.5 c -2.7,0 -5.3,1 -7.2,3 -3.9,4 -3.8,10.4 0.2,14.2 29,27.9 57.8,56.2 85.6,83.9 3.9,3.9 10.2,3.9 14.2,-0.1 3.9,-3.9 3.8,-10.2 -0.1,-14.1 -27.9,-27.8 -56.7,-56.1 -85.8,-84.1 -1.9,-1.9 -4.4,-2.8 -6.9,-2.8 z M 9620.83,5204.7 c -2.47,0 -4.93,0.9 -6.87,2.7 -28.95,27.3 -58.12,55.3 -86.7,83.2 -3.95,3.8 -4.03,10.2 -0.18,14.1 3.86,4 10.19,4.1 14.15,0.2 28.5,-27.8 57.59,-55.7 86.46,-83 4.02,-3.8 4.2,-10.1 0.41,-14.1 -1.97,-2.1 -4.61,-3.1 -7.27,-3.1 z M 23433.5,5093.8 c -2.7,0 -5.5,1.1 -7.4,3.3 -3.7,4.1 -3.4,10.4 0.7,14.1 29.5,26.6 59.2,53.9 88.3,81 4,3.8 10.3,3.6 14.1,-0.4 3.8,-4.1 3.6,-10.4 -0.5,-14.2 -29.2,-27.2 -58.9,-54.5 -88.5,-81.2 -1.9,-1.8 -4.3,-2.6 -6.7,-2.6 z m -13635.54,-51 c -2.35,0 -4.72,0.8 -6.62,2.5 -30.02,26.6 -60.07,53.6 -89.33,80.3 -4.08,3.8 -4.36,10.1 -0.64,14.2 3.73,4 10.06,4.3 14.13,0.6 29.18,-26.7 59.16,-53.6 89.1,-80.1 4.13,-3.7 4.52,-10 0.85,-14.2 -1.97,-2.2 -4.72,-3.3 -7.49,-3.3 z M 23252.9,4935.7 c -2.8,0 -5.6,1.2 -7.6,3.6 -3.6,4.2 -3.1,10.5 1.2,14.1 30.3,25.7 60.9,52.1 90.7,78.2 4.2,3.6 10.5,3.2 14.2,-1 3.6,-4.1 3.2,-10.4 -1,-14.1 -29.9,-26.2 -60.5,-52.5 -91,-78.4 -1.9,-1.6 -4.2,-2.4 -6.5,-2.4 z M 9980.11,4886.5 c -2.25,0 -4.52,0.8 -6.38,2.3 -30.48,25.4 -61.36,51.4 -91.81,77.5 -4.19,3.6 -4.67,9.9 -1.08,14.1 3.6,4.2 9.92,4.7 14.1,1.1 30.37,-26 61.18,-52 91.57,-77.3 4.25,-3.5 4.83,-9.8 1.3,-14.1 -1.98,-2.4 -4.83,-3.6 -7.7,-3.6 z M 23067.5,4783.3 c -2.9,0 -5.8,1.3 -7.8,3.8 -3.4,4.3 -2.7,10.6 1.6,14.1 31.1,24.8 62.5,50.1 93.2,75.4 4.2,3.5 10.5,2.9 14,-1.4 3.5,-4.3 2.9,-10.6 -1.4,-14.1 -30.7,-25.3 -62.1,-50.7 -93.3,-75.6 -1.9,-1.4 -4.1,-2.2 -6.3,-2.2 z M 10167,4735.9 c -2.2,0 -4.4,0.7 -6.2,2.1 -31.7,24.8 -63.3,49.9 -94.1,74.7 -4.3,3.5 -5,9.8 -1.5,14.1 3.5,4.3 9.8,5 14,1.5 30.8,-24.7 62.3,-49.8 93.9,-74.5 4.4,-3.4 5.1,-9.7 1.7,-14 -1.9,-2.6 -4.9,-3.9 -7.8,-3.9 z m 12710.6,-99.3 c -3,0 -6,1.4 -8,4 -3.3,4.4 -2.4,10.7 2,14 31.6,23.6 63.7,48.1 95.4,72.6 4.4,3.4 10.7,2.5 14,-1.8 3.4,-4.4 2.6,-10.7 -1.8,-14 -31.8,-24.6 -63.9,-49.1 -95.6,-72.8 -1.8,-1.4 -3.9,-2 -6,-2 z M 10358.2,4591 c -2,0 -4.1,0.6 -5.9,1.9 -32.2,23.7 -64.6,47.9 -96.3,71.9 -4.4,3.3 -5.2,9.6 -1.9,14 3.3,4.4 9.6,5.2 14,1.9 31.6,-23.9 63.9,-48 96.1,-71.7 4.4,-3.2 5.4,-9.5 2.1,-13.9 -2,-2.7 -5,-4.1 -8.1,-4.1 z m 12325.4,-95.5 c -3.2,0 -6.3,1.5 -8.2,4.2 -3.2,4.5 -2.1,10.8 2.4,14 32.4,22.8 65.2,46.3 97.4,69.7 4.5,3.3 10.7,2.3 14,-2.2 3.2,-4.4 2.2,-10.7 -2.2,-13.9 -32.3,-23.5 -65.2,-47.1 -97.7,-70 -1.7,-1.2 -3.8,-1.8 -5.7,-1.8 z m -12130,-43.9 c -1.9,0 -3.9,0.6 -5.7,1.8 -33.1,22.9 -66.2,46.1 -98.3,69.1 -4.5,3.2 -5.5,9.4 -2.3,13.9 3.2,4.5 9.4,5.6 13.9,2.3 32.1,-22.8 65.1,-46 98.1,-68.8 4.5,-3.2 5.7,-9.4 2.5,-14 -1.9,-2.8 -5,-4.3 -8.2,-4.3 z m 11931.9,-91.7 c -3.2,0 -6.4,1.6 -8.3,4.5 -3.1,4.6 -1.8,10.8 2.8,13.9 33.4,22.1 66.8,44.7 99.3,67 4.6,3.1 10.8,1.9 13.9,-2.7 3.2,-4.5 2,-10.7 -2.6,-13.9 -32.6,-22.3 -66.1,-44.9 -99.6,-67.1 -1.7,-1.1 -3.6,-1.7 -5.5,-1.7 z m -11732.6,-42 c -1.9,0 -3.8,0.5 -5.5,1.6 -33.4,21.8 -67.2,44.1 -100.2,66.3 -4.6,3 -5.8,9.2 -2.7,13.8 3.1,4.6 9.3,5.8 13.9,2.8 32.9,-22.2 66.5,-44.4 99.9,-66.2 4.7,-3 6,-9.2 3,-13.8 -2,-2.9 -5.2,-4.5 -8.4,-4.5 z M 22283.8,4230 c -3.4,0 -6.6,1.6 -8.5,4.7 -3,4.7 -1.5,10.8 3.1,13.7 33.7,21.1 67.8,42.7 101.3,64.3 4.6,2.9 10.8,1.6 13.8,-3 3,-4.7 1.6,-10.9 -3,-13.9 -33.6,-21.6 -67.7,-43.2 -101.4,-64.3 -1.7,-1 -3.5,-1.5 -5.3,-1.5 z m -11328.1,-40.3 c -1.7,0 -3.5,0.4 -5.2,1.4 -34.2,21 -68.6,42.4 -102,63.5 -4.6,3 -6,9.1 -3.1,13.8 3,4.7 9.2,6.1 13.8,3.1 33.3,-21 67.6,-42.3 101.8,-63.3 4.7,-2.9 6.2,-9 3.3,-13.8 -1.9,-3 -5.2,-4.7 -8.6,-4.7 z m 11122.8,-84.2 c -3.4,0 -6.7,1.8 -8.6,4.9 -2.8,4.8 -1.2,10.9 3.6,13.7 34.6,20.4 69.2,41.1 102.9,61.5 4.7,2.8 10.8,1.4 13.7,-3.4 2.9,-4.7 1.4,-10.8 -3.4,-13.7 -33.7,-20.4 -68.4,-41.2 -103.1,-61.6 -1.6,-0.9 -3.3,-1.4 -5.1,-1.4 z M 11162,4067 c -1.7,0 -3.4,0.4 -5,1.3 -34.9,20.2 -69.8,40.6 -103.6,60.7 -4.8,2.9 -6.3,9 -3.5,13.8 2.8,4.7 9,6.3 13.7,3.4 33.8,-20.1 68.6,-40.4 103.4,-60.6 4.8,-2.7 6.4,-8.8 3.7,-13.6 -1.9,-3.2 -5.2,-5 -8.7,-5 z m 10708.1,-80.4 c -3.5,0 -6.9,1.8 -8.8,5.1 -2.6,4.9 -0.9,10.9 3.9,13.6 34.7,19.2 69.9,39 104.5,58.7 4.9,2.8 10.9,1.1 13.7,-3.7 2.7,-4.8 1.1,-10.9 -3.7,-13.6 -34.8,-19.8 -70,-39.6 -104.8,-58.9 -1.5,-0.8 -3.2,-1.2 -4.8,-1.2 z m -10498.7,-36.8 c -1.6,0 -3.2,0.4 -4.7,1.2 -35.2,19.1 -70.6,38.6 -105.2,58 -4.9,2.7 -6.6,8.8 -3.9,13.6 2.7,4.8 8.8,6.5 13.6,3.8 34.6,-19.3 69.9,-38.8 105,-57.8 4.9,-2.7 6.7,-8.7 4,-13.6 -1.8,-3.3 -5.2,-5.2 -8.8,-5.2 z m 10287.2,-76.7 c -3.6,0 -7.1,2 -8.9,5.4 -2.5,4.9 -0.6,10.9 4.3,13.5 35.3,18.3 70.9,37.2 106,56 4.9,2.6 10.9,0.7 13.5,-4.1 2.6,-4.9 0.8,-10.9 -4.1,-13.5 -35.1,-18.9 -70.8,-37.8 -106.2,-56.2 -1.4,-0.7 -3,-1.1 -4.6,-1.1 z M 11583.8,3838 c -1.5,0 -3.1,0.4 -4.5,1.1 -35.6,18.2 -71.5,36.8 -106.7,55.3 -4.9,2.6 -6.7,8.6 -4.2,13.5 2.6,4.9 8.6,6.8 13.5,4.2 35.1,-18.5 70.9,-37 106.5,-55.2 4.9,-2.5 6.9,-8.5 4.3,-13.4 -1.7,-3.5 -5.2,-5.5 -8.9,-5.5 z m 9860.5,-73 c -3.7,0 -7.2,2.1 -9,5.6 -2.4,5 -0.3,11 4.6,13.4 36,17.6 72.2,35.5 107.4,53.3 4.9,2.5 11,0.5 13.4,-4.4 2.5,-4.9 0.6,-11 -4.4,-13.4 -35.3,-17.8 -71.5,-35.8 -107.6,-53.5 -1.4,-0.6 -2.9,-1 -4.4,-1 z M 11799,3731.7 c -1.5,0 -2.9,0.3 -4.3,1 -35.9,17.2 -72.3,34.8 -108.1,52.5 -4.9,2.5 -6.9,8.5 -4.5,13.4 2.5,5 8.5,7 13.4,4.6 35.7,-17.7 72,-35.3 107.8,-52.5 5,-2.4 7.1,-8.3 4.7,-13.3 -1.7,-3.6 -5.3,-5.7 -9,-5.7 z m 9428.4,-69.4 c -3.8,0 -7.4,2.2 -9.1,5.9 -2.3,5 -0.1,10.9 4.9,13.2 36.1,16.5 72.6,33.6 108.7,50.7 5,2.3 11,0.2 13.3,-4.8 2.4,-5 0.3,-11 -4.7,-13.3 -36.2,-17.1 -72.8,-34.2 -108.9,-50.7 -1.4,-0.7 -2.8,-1 -4.2,-1 z m -9210.7,-31.6 c -1.4,0 -2.8,0.3 -4.1,0.9 -36.9,16.6 -73.7,33.4 -109.3,49.9 -5,2.3 -7.2,8.2 -4.8,13.3 2.3,5 8.2,7.2 13.2,4.8 35.5,-16.5 72.2,-33.2 109.1,-49.8 5,-2.2 7.3,-8.1 5,-13.2 -1.6,-3.7 -5.3,-5.9 -9.1,-5.9 z M 21008,3565 c -3.8,0 -7.5,2.3 -9.2,6.1 -2.1,5 0.2,10.9 5.3,13.1 37,15.9 73.9,32 109.9,48 5,2.2 10.9,-0.1 13.2,-5.1 2.2,-5.1 -0.1,-11 -5.1,-13.2 -36,-16 -73.1,-32.2 -110.1,-48.1 -1.3,-0.5 -2.7,-0.8 -4,-0.8 z m -8771.2,-29.9 c -1.3,0 -2.6,0.2 -3.8,0.8 -36.6,15.3 -73.8,31.2 -110.5,47.2 -5.1,2.2 -7.4,8.1 -5.2,13.1 2.2,5.1 8.1,7.4 13.2,5.2 36.6,-15.9 73.7,-31.8 110.2,-47.1 5.1,-2.1 7.5,-8 5.3,-13.1 -1.6,-3.8 -5.3,-6.1 -9.2,-6.1 z m 8549.6,-62.1 c -4,0 -7.7,2.4 -9.3,6.3 -2.1,5.1 0.4,10.9 5.6,13 37.1,14.9 74.4,30.1 111,45.3 5.1,2.1 10.9,-0.3 13,-5.4 2.1,-5.1 -0.3,-11 -5.4,-13.1 -36.6,-15.2 -74,-30.5 -111.2,-45.4 -1.2,-0.5 -2.5,-0.7 -3.7,-0.7 z m -8327.2,-28.2 c -1.3,0 -2.5,0.2 -3.7,0.6 -37.4,14.7 -74.9,29.7 -111.5,44.6 -5.2,2.1 -7.6,7.9 -5.5,13 2,5.2 7.9,7.6 13,5.5 36.5,-14.8 74,-29.8 111.3,-44.4 5.2,-2.1 7.7,-7.9 5.7,-13 -1.6,-3.9 -5.3,-6.3 -9.3,-6.3 z m 8103.4,-58.6 c -4,0 -7.8,2.5 -9.3,6.5 -2,5.2 0.6,11 5.8,12.9 37.4,14 75.1,28.4 112,42.7 5.2,2 11,-0.6 13,-5.7 2,-5.2 -0.6,-11 -5.7,-13 -37,-14.3 -74.8,-28.7 -112.3,-42.7 -1.1,-0.4 -2.3,-0.7 -3.5,-0.7 z m -7879,-26.5 c -1.2,0 -2.3,0.2 -3.5,0.6 -37.2,13.6 -75.1,27.7 -112.5,41.9 -5.2,2 -7.8,7.7 -5.8,12.9 1.9,5.2 7.7,7.8 12.9,5.8 37.3,-14.2 75.1,-28.2 112.3,-41.8 5.2,-1.9 7.9,-7.7 6,-12.9 -1.5,-4 -5.3,-6.5 -9.4,-6.5 z m 7653.3,-55 c -4.1,0 -8,2.6 -9.4,6.7 -1.9,5.3 0.9,11 6.1,12.8 37.8,13.1 75.8,26.6 113,40 5.2,1.9 10.9,-0.8 12.8,-6 1.9,-5.2 -0.8,-10.9 -6,-12.8 -37.2,-13.4 -75.3,-26.9 -113.2,-40.1 -1.1,-0.4 -2.2,-0.6 -3.3,-0.6 z m -7427,-24.9 c -1.1,0 -2.2,0.2 -3.2,0.6 -37.6,12.7 -75.7,25.9 -113.5,39.3 -5.2,1.8 -8,7.5 -6.1,12.7 1.8,5.2 7.5,7.9 12.7,6.1 37.7,-13.3 75.8,-26.5 113.3,-39.2 5.2,-1.8 8,-7.5 6.3,-12.7 -1.4,-4.2 -5.3,-6.8 -9.5,-6.8 z m 7199.5,-51.4 c -4.3,0 -8.2,2.7 -9.6,6.9 -1.7,5.3 1.2,10.9 6.5,12.6 38.3,12.4 76.6,25 113.9,37.5 5.2,1.8 10.9,-1.1 12.6,-6.3 1.8,-5.2 -1,-10.9 -6.3,-12.7 -37.3,-12.5 -75.7,-25.1 -114.1,-37.5 -1,-0.3 -2,-0.5 -3,-0.5 z M 13138,3205.2 c -1,0 -2,0.1 -3,0.4 -38.4,12.1 -76.8,24.4 -114.4,36.7 -5.2,1.8 -8.1,7.4 -6.4,12.7 1.7,5.2 7.4,8.1 12.6,6.3 37.5,-12.2 75.9,-24.6 114.2,-36.6 5.3,-1.7 8.2,-7.3 6.5,-12.6 -1.3,-4.2 -5.3,-6.9 -9.5,-6.9 z m 6742.1,-47.9 c -4.3,0 -8.2,2.8 -9.5,7.1 -1.6,5.3 1.4,10.9 6.7,12.4 38.4,11.5 76.6,23.1 114.7,34.9 5.2,1.7 10.9,-1.3 12.5,-6.5 1.6,-5.3 -1.3,-10.9 -6.6,-12.6 -38.2,-11.8 -76.5,-23.4 -114.9,-34.9 -0.9,-0.3 -1.9,-0.4 -2.9,-0.4 z m -6512.4,-21.6 c -0.9,0 -1.9,0.1 -2.8,0.4 -38.6,11.1 -77.3,22.6 -115.2,34.1 -5.2,1.6 -8.2,7.2 -6.6,12.5 1.6,5.2 7.2,8.2 12.4,6.6 37.8,-11.4 76.5,-22.9 115,-34 5.3,-1.6 8.3,-7.1 6.8,-12.4 -1.3,-4.4 -5.3,-7.2 -9.6,-7.2 z m 6281.7,-44.5 c -4.4,0 -8.4,3 -9.6,7.4 -1.5,5.3 1.6,10.8 7,12.3 38.4,10.5 77.2,21.4 115.4,32.3 5.3,1.5 10.9,-1.5 12.4,-6.8 1.5,-5.3 -1.6,-10.9 -6.9,-12.4 -38.2,-10.9 -77.1,-21.8 -115.6,-32.4 -0.9,-0.2 -1.8,-0.4 -2.7,-0.4 z m -6050.5,-19.9 c -0.9,0 -1.7,0.1 -2.6,0.3 -38.7,10.3 -77.4,20.9 -115.9,31.6 -5.3,1.5 -8.4,7 -6.9,12.3 1.5,5.3 7,8.4 12.3,7 38.4,-10.7 77,-21.3 115.7,-31.6 5.3,-1.4 8.5,-6.9 7.1,-12.2 -1.2,-4.5 -5.3,-7.4 -9.7,-7.4 z m 5818.4,-41 c -4.5,0 -8.6,3.1 -9.7,7.6 -1.4,5.4 1.9,10.8 7.2,12.1 38.9,9.8 77.6,19.7 116.2,29.8 5.3,1.4 10.8,-1.8 12.2,-7.1 1.4,-5.3 -1.8,-10.8 -7.2,-12.2 -38.6,-10.2 -77.4,-20.1 -116.3,-29.9 -0.8,-0.2 -1.6,-0.3 -2.4,-0.3 z M 13831.5,3012 c -0.8,0 -1.6,0.1 -2.4,0.3 -39.1,9.5 -78.3,19.2 -116.6,29 -5.3,1.4 -8.5,6.8 -7.2,12.2 1.4,5.3 6.9,8.6 12.2,7.2 38.2,-9.8 77.3,-19.5 116.3,-29 5.4,-1.3 8.7,-6.7 7.4,-12.1 -1.1,-4.6 -5.2,-7.6 -9.7,-7.6 z m 5352.3,-37.5 c -4.5,0 -8.6,3.1 -9.7,7.8 -1.2,5.4 2.1,10.7 7.5,11.9 39.1,9 78,18 116.8,27.3 5.4,1.3 10.8,-2 12,-7.4 1.3,-5.4 -2,-10.8 -7.4,-12 -38.8,-9.3 -77.8,-18.4 -116.9,-27.3 -0.8,-0.2 -1.5,-0.3 -2.3,-0.3 z m -5118.5,-16.7 c -0.8,0 -1.5,0 -2.2,0.2 -39.2,8.6 -78.2,17.5 -117.2,26.5 -5.3,1.2 -8.7,6.6 -7.4,12 1.2,5.4 6.6,8.8 12,7.5 38.8,-9 77.8,-17.9 116.9,-26.5 5.4,-1.2 8.8,-6.5 7.6,-11.9 -1,-4.7 -5.2,-7.8 -9.7,-7.8 z m 4884,-34.1 c -4.7,0 -8.8,3.3 -9.8,8 -1.1,5.4 2.4,10.7 7.8,11.8 39.2,8.1 78.3,16.3 117.3,24.8 5.4,1.1 10.7,-2.3 11.9,-7.7 1.2,-5.4 -2.3,-10.7 -7.7,-11.9 -39,-8.4 -78.2,-16.7 -117.5,-24.8 -0.7,-0.1 -1.3,-0.2 -2,-0.2 z m -4649.1,-15.1 c -0.7,0 -1.3,0 -2,0.1 -39.3,7.8 -78.6,15.8 -117.7,24 -5.4,1.2 -8.9,6.5 -7.7,11.9 1.1,5.4 6.4,8.9 11.8,7.7 39.1,-8.2 78.2,-16.1 117.5,-23.9 5.4,-1.1 8.9,-6.4 7.9,-11.8 -1,-4.8 -5.2,-8 -9.8,-8 z m 4413.5,-30.7 c -4.7,0 -8.9,3.4 -9.8,8.2 -1,5.5 2.6,10.7 8,11.7 39.4,7.2 78.7,14.6 117.8,22.2 5.4,1.1 10.7,-2.5 11.7,-7.9 1.1,-5.4 -2.4,-10.7 -7.9,-11.7 -39.2,-7.7 -78.5,-15.1 -118,-22.3 -0.6,-0.1 -1.2,-0.2 -1.8,-0.2 z M 14536,2864.4 c -0.5,0 -1.1,0 -1.7,0.1 -39.5,7 -78.9,14.2 -118.2,21.5 -5.4,1 -9,6.3 -8,11.7 1.1,5.4 6.3,8.9 11.7,8 39.2,-7.4 78.5,-14.5 118,-21.5 5.4,-0.9 9,-6.1 8.1,-11.6 -0.9,-4.8 -5.1,-8.2 -9.9,-8.2 z m 3941.2,-27.3 c -4.8,0 -9.1,3.5 -9.9,8.4 -0.8,5.5 2.9,10.6 8.3,11.5 39.5,6.4 79,13 118.3,19.7 5.4,1 10.6,-2.7 11.5,-8.1 1,-5.4 -2.7,-10.6 -8.1,-11.6 -39.4,-6.8 -78.9,-13.3 -118.5,-19.8 -0.5,-0.1 -1.1,-0.1 -1.6,-0.1 z m -3704.4,-12 c -0.5,0 -1,0.1 -1.5,0.2 -39.7,6.1 -79.2,12.4 -118.6,19 -5.5,0.9 -9.2,6 -8.3,11.5 0.9,5.4 6,9.2 11.5,8.2 39.4,-6.5 78.9,-12.8 118.4,-19 5.5,-0.8 9.2,-5.9 8.4,-11.4 -0.8,-4.9 -5,-8.5 -9.9,-8.5 z m 3467.1,-23.8 c -4.9,0 -9.2,3.6 -9.9,8.6 -0.8,5.5 3.1,10.5 8.5,11.3 39.7,5.5 79.2,11.3 118.7,17.3 5.4,0.8 10.5,-3 11.3,-8.4 0.9,-5.5 -2.9,-10.6 -8.4,-11.4 -39.5,-6 -79.1,-11.8 -118.8,-17.3 -0.5,-0.1 -0.9,-0.1 -1.4,-0.1 z m -3229.5,-10.4 c -0.5,0 -0.9,0 -1.4,0.1 -39.7,5.3 -79.4,10.8 -119,16.5 -5.4,0.8 -9.2,5.9 -8.4,11.3 0.8,5.5 5.8,9.3 11.3,8.5 39.5,-5.7 79.1,-11.2 118.8,-16.5 5.4,-0.8 9.3,-5.8 8.5,-11.3 -0.6,-5 -4.9,-8.6 -9.8,-8.6 z m 2991.5,-20.6 c -5,0 -9.3,3.8 -9.9,8.9 -0.7,5.4 3.2,10.4 8.7,11.1 39.8,4.7 79.4,9.7 119,14.8 5.5,0.8 10.5,-3.1 11.2,-8.6 0.7,-5.5 -3.1,-10.5 -8.6,-11.2 -39.6,-5.2 -79.4,-10.1 -119.2,-14.9 -0.4,0 -0.8,-0.1 -1.2,-0.1 z m -2753.4,-8.8 c -0.3,0 -0.7,0 -1.1,0.1 -39.8,4.5 -79.6,9.2 -119.3,14.1 -5.5,0.6 -9.3,5.6 -8.7,11.1 0.7,5.5 5.7,9.5 11.2,8.7 39.6,-4.9 79.3,-9.6 119,-14 5.5,-0.7 9.5,-5.6 8.9,-11.1 -0.6,-5.1 -4.9,-8.9 -10,-8.9 z m 2514.8,-17.2 c -5,0 -9.4,3.9 -9.9,9 -0.6,5.5 3.5,10.4 9,11 39.8,3.9 79.5,8 119.2,12.4 5.5,0.6 10.4,-3.4 11,-8.9 0.6,-5.5 -3.3,-10.4 -8.8,-11 -39.7,-4.3 -79.6,-8.5 -119.5,-12.4 -0.3,-0.1 -0.6,-0.1 -1,-0.1 z m -2276,-7.2 c -0.3,0 -0.6,0 -0.9,0 -40,3.7 -79.8,7.6 -119.6,11.6 -5.5,0.6 -9.5,5.5 -8.9,11 0.6,5.5 5.5,9.5 11,8.9 39.7,-4 79.4,-7.9 119.3,-11.6 5.5,-0.5 9.5,-5.4 9,-10.9 -0.4,-5.2 -4.8,-9 -9.9,-9 z m 2037,-13.9 c -5.2,0 -9.6,3.9 -10,9.2 -0.4,5.5 3.7,10.3 9.2,10.7 39.9,3.2 79.7,6.5 119.5,10 5.6,0.5 10.3,-3.6 10.8,-9.1 0.5,-5.5 -3.6,-10.3 -9.1,-10.8 -39.8,-3.5 -79.7,-6.9 -119.6,-10 -0.3,0 -0.6,0 -0.8,0 z m -1797.8,-5.7 c -0.3,0 -0.5,0 -0.7,0 -40,2.9 -80,5.9 -119.8,9.2 -5.5,0.4 -9.6,5.3 -9.1,10.8 0.4,5.5 5.2,9.4 10.7,9.1 39.8,-3.2 79.7,-6.3 119.6,-9.2 5.5,-0.4 9.6,-5.2 9.2,-10.7 -0.3,-5.2 -4.7,-9.2 -9.9,-9.2 z m 1558.3,-10.6 c -5.2,0 -9.6,4.1 -9.9,9.4 -0.4,5.5 3.9,10.2 9.4,10.5 39.9,2.4 79.8,4.9 119.6,7.6 5.4,0.2 10.3,-3.8 10.7,-9.3 0.4,-5.5 -3.8,-10.3 -9.3,-10.7 -39.9,-2.7 -79.8,-5.2 -119.9,-7.5 -0.2,0 -0.4,0 -0.6,0 z m -1318.8,-4.2 c -0.2,0 -0.3,0 -0.5,0 -40.1,2.1 -80,4.3 -119.9,6.8 -5.5,0.3 -9.7,5.1 -9.4,10.6 0.4,5.5 5.2,9.5 10.6,9.3 39.8,-2.4 79.7,-4.7 119.7,-6.7 5.5,-0.3 9.8,-5 9.5,-10.5 -0.3,-5.4 -4.7,-9.5 -10,-9.5 z m 1079.1,-7.3 c -5.3,0 -9.8,4.2 -10,9.6 -0.2,5.5 4.1,10.2 9.6,10.4 40,1.5 80,3.2 119.8,5.1 5.5,0.2 10.2,-4 10.5,-9.5 0.3,-5.5 -4,-10.2 -9.5,-10.5 -39.9,-1.9 -79.9,-3.6 -120,-5.1 -0.1,0 -0.3,0 -0.4,0 z m -839.3,-2.7 c -0.1,0 -0.2,0 -0.3,0 -40.1,1.3 -80.1,2.8 -120,4.4 -5.6,0.2 -9.8,4.9 -9.6,10.4 0.2,5.5 4.9,9.8 10.4,9.6 39.9,-1.7 79.8,-3.1 119.8,-4.4 5.5,-0.2 9.9,-4.8 9.7,-10.3 -0.2,-5.4 -4.6,-9.7 -10,-9.7 z m 599.8,-4 c -5.5,0 -9.9,4.3 -10,9.8 -0.1,5.5 4.3,10.1 9.8,10.2 39.9,0.7 79.7,1.6 119.5,2.7 5.5,0.2 10.1,-4.2 10.3,-9.7 0.1,-5.5 -4.2,-10.1 -9.7,-10.3 -39.9,-1.1 -79.8,-2 -119.8,-2.7 z m -359.9,-1.2 c 0,0 0,0 -0.1,0 -40.1,0.5 -80.1,1.2 -120.1,2 -5.5,0.2 -9.9,4.7 -9.7,10.3 0.1,5.5 4.6,10 10.2,9.7 39.9,-0.8 79.8,-1.5 119.9,-2 5.5,0 9.9,-4.5 9.8,-10.1 0,-5.4 -4.5,-9.9 -10,-9.9 z m 141.5,-0.8 h -21.5 c -5.5,0 -10,4.5 -10,10 0,5.6 4.5,10 10,10 v 0 h 21.5 c 32.9,0 65.7,0.2 98.5,0.4 v 0 c 5.5,0 10,-4.4 10,-9.9 0.1,-5.5 -4.4,-10 -9.9,-10.1 -32.8,-0.2 -65.7,-0.4 -98.6,-0.4"
         style="fill:#102a54;fill-opacity:1;fill-rule:nonzero;stroke:none"
         id="path176" />
      <path
         d="m 16737.8,15913.1 c 0,0 0,0 -0.1,0 -39.9,0.5 -79.9,0.8 -120,0.9 -5.5,0 -10,4.5 -10,10 0,5.6 4.5,10 10,10 v 0 c 40.2,-0.1 80.3,-0.4 120.3,-0.9 5.5,-0.1 9.9,-4.6 9.8,-10.1 0,-5.5 -4.5,-9.9 -10,-9.9 z m -360,-0.9 c -5.4,0 -9.9,4.4 -10,9.9 -0.1,5.5 4.3,10 9.8,10.1 40,0.7 79.9,1.2 120,1.5 5.5,0.4 10,-4.4 10.1,-9.9 0,-5.5 -4.4,-10 -10,-10.1 -39.9,-0.3 -79.9,-0.8 -119.7,-1.5 -0.1,0 -0.1,0 -0.2,0 z m 600.2,-4.5 c -0.1,0 -0.2,0 -0.3,0.1 -39.9,1.2 -79.9,2.3 -120,3.2 -5.5,0.2 -9.9,4.7 -9.8,10.3 0.2,5.4 4.6,9.7 10,9.7 0.1,0 0.2,0 0.3,0 40.1,-0.9 80.1,-2 120.1,-3.3 5.6,-0.1 9.9,-4.8 9.7,-10.3 -0.2,-5.4 -4.6,-9.7 -10,-9.7 z m -839.7,-2 c -5.3,0 -9.7,4.3 -9.9,9.7 -0.3,5.5 4.1,10.1 9.6,10.3 39.8,1.5 79.8,2.8 119.8,3.9 5.6,0.1 10.1,-4.2 10.3,-9.7 0.1,-5.6 -4.2,-10.2 -9.8,-10.3 -39.9,-1.1 -79.8,-2.4 -119.6,-3.9 -0.1,0 -0.2,0 -0.4,0 z m 1079.7,-8.1 c -0.1,0 -0.3,0 -0.5,0 -39.9,2.1 -79.9,4 -119.9,5.7 -5.5,0.2 -9.8,4.9 -9.5,10.4 0.2,5.5 4.9,9.7 10.4,9.6 40.1,-1.7 80.1,-3.6 120,-5.7 5.6,-0.3 9.8,-5 9.5,-10.5 -0.3,-5.4 -4.7,-9.5 -10,-9.5 z m -1318.9,-3.2 c -5.3,0 -9.7,4.2 -10,9.5 -0.3,5.5 3.9,10.2 9.4,10.5 39.8,2.3 79.7,4.4 119.7,6.3 5.2,0.2 10.2,-4 10.5,-9.5 0.2,-5.6 -4,-10.2 -9.5,-10.5 -40,-1.9 -79.8,-4 -119.6,-6.2 -0.2,-0.1 -0.4,-0.1 -0.5,-0.1 z m 1558.7,-11.8 c -0.3,0 -0.5,0 -0.7,0 -39.9,2.9 -79.8,5.6 -119.8,8.1 -5.5,0.4 -9.7,5.1 -9.3,10.6 0.3,5.5 5,9.7 10.6,9.4 40,-2.5 80,-5.2 119.9,-8.1 5.5,-0.4 9.7,-5.2 9.3,-10.7 -0.4,-5.3 -4.8,-9.3 -10,-9.3 z m -1797.8,-4.2 c -5.1,0 -9.5,4 -9.9,9.2 -0.4,5.5 3.7,10.3 9.2,10.7 39.8,3.1 79.6,6 119.6,8.7 5.4,0.2 10.2,-3.8 10.6,-9.3 0.4,-5.5 -3.8,-10.3 -9.3,-10.7 -39.9,-2.6 -79.7,-5.5 -119.4,-8.6 -0.2,0 -0.5,0 -0.8,0 z m 2037.2,-15.6 c -0.3,0 -0.6,0 -0.9,0 -39.8,3.7 -79.7,7.2 -119.6,10.5 -5.5,0.5 -9.6,5.3 -9.1,10.8 0.4,5.5 5.3,9.7 10.8,9.2 40,-3.3 79.9,-6.9 119.7,-10.6 5.5,-0.5 9.6,-5.3 9,-10.8 -0.4,-5.2 -4.8,-9.1 -9.9,-9.1 z m -2275.8,-5.3 c -5.1,0 -9.4,3.8 -9.9,9 -0.6,5.5 3.4,10.4 8.9,10.9 39.7,3.9 79.5,7.6 119.4,11.1 5.5,0.6 10.4,-3.6 10.8,-9.1 0.5,-5.5 -3.5,-10.4 -9,-10.8 -39.8,-3.5 -79.6,-7.2 -119.2,-11.1 -0.3,0 -0.7,0 -1,0 z m 2514.8,-19.4 c -0.4,0 -0.8,0 -1.2,0.1 -39.7,4.5 -79.4,8.8 -119.3,12.9 -5.5,0.6 -9.5,5.5 -8.9,11 0.6,5.5 5.4,9.6 11,8.9 39.9,-4.1 79.7,-8.4 119.5,-13 5.5,-0.6 9.4,-5.6 8.8,-11 -0.6,-5.1 -4.9,-8.9 -9.9,-8.9 z m -2753,-6.4 c -5,0 -9.3,3.7 -9.9,8.8 -0.6,5.5 3.3,10.5 8.8,11.1 39.6,4.7 79.3,9.2 119.1,13.5 5.5,0.6 10.4,-3.3 11,-8.8 0.6,-5.5 -3.4,-10.4 -8.9,-11 -39.7,-4.4 -79.3,-8.8 -118.9,-13.5 -0.4,-0.1 -0.8,-0.1 -1.2,-0.1 z m 2991.3,-23.2 c -0.4,0 -0.8,0 -1.3,0.1 -39.6,5.3 -79.3,10.4 -119,15.4 -5.5,0.7 -9.4,5.7 -8.7,11.1 0.7,5.5 5.7,9.4 11.2,8.7 39.8,-4.9 79.5,-10.1 119.2,-15.4 5.4,-0.7 9.3,-5.8 8.5,-11.2 -0.6,-5.1 -4.9,-8.7 -9.9,-8.7 z m -3228.9,-7.4 c -4.9,0 -9.1,3.6 -9.8,8.6 -0.8,5.5 3,10.5 8.5,11.3 39.5,5.5 79.1,10.8 118.8,15.9 5.5,0.7 10.5,-3.1 11.2,-8.6 0.7,-5.5 -3.2,-10.5 -8.6,-11.2 -39.7,-5.1 -79.2,-10.4 -118.7,-15.9 -0.4,-0.1 -0.9,-0.1 -1.4,-0.1 z m 3466.7,-27.1 c -0.5,0 -1.1,0 -1.6,0.1 -39.4,6.1 -79,12.1 -118.7,17.8 -5.4,0.8 -9.2,5.9 -8.4,11.4 0.8,5.5 5.8,9.2 11.3,8.4 39.7,-5.7 79.4,-11.7 118.9,-17.8 5.5,-0.9 9.2,-6 8.3,-11.5 -0.7,-4.9 -5,-8.4 -9.8,-8.4 z m -3703.6,-8.5 c -4.8,0 -9,3.5 -9.8,8.4 -0.9,5.5 2.8,10.6 8.3,11.5 39.4,6.3 78.8,12.5 118.4,18.4 5.5,0.9 10.6,-2.9 11.4,-8.4 0.8,-5.5 -2.9,-10.6 -8.4,-11.4 -39.5,-5.9 -78.9,-12 -118.3,-18.3 -0.5,-0.1 -1,-0.2 -1.6,-0.2 z m 3940.5,-31 c -0.6,0 -1.1,0 -1.7,0.1 -39.4,7 -78.8,13.8 -118.3,20.4 -5.4,0.9 -9.1,6 -8.2,11.5 0.9,5.4 6,9.1 11.5,8.2 39.6,-6.6 79.1,-13.4 118.5,-20.4 5.4,-0.9 9,-6.1 8.1,-11.6 -0.9,-4.8 -5.1,-8.2 -9.9,-8.2 z m -4176.6,-9.5 c -4.7,0 -8.9,3.4 -9.8,8.2 -1,5.5 2.6,10.7 8.1,11.7 39.2,7.1 78.6,14.1 118,20.9 5.5,0.9 10.6,-2.8 11.6,-8.2 0.9,-5.5 -2.8,-10.6 -8.2,-11.6 -39.4,-6.7 -78.7,-13.7 -117.9,-20.8 -0.6,-0.1 -1.2,-0.2 -1.8,-0.2 z m 4412.7,-35 c -0.7,0 -1.3,0.1 -2,0.2 -39.1,7.8 -78.4,15.4 -117.8,22.9 -5.4,1 -9,6.2 -8,11.6 1,5.5 6.2,9 11.7,8 39.5,-7.4 78.8,-15 118,-22.9 5.4,-1.1 9,-6.3 7.9,-11.7 -1,-4.8 -5.1,-8.1 -9.8,-8.1 z m -4647.9,-10.4 c -4.6,0 -8.8,3.3 -9.8,8 -1.1,5.4 2.4,10.7 7.8,11.8 39.1,8 78.3,15.8 117.6,23.4 5.5,1 10.7,-2.5 11.7,-8 1.1,-5.4 -2.5,-10.6 -7.9,-11.7 -39.2,-7.6 -78.3,-15.3 -117.4,-23.3 -0.6,-0.1 -1.3,-0.2 -2,-0.2 z m 4883,-39.1 c -0.8,0 -1.5,0.1 -2.2,0.3 -39,8.6 -78.1,17.1 -117.3,25.3 -5.4,1.2 -8.9,6.5 -7.7,11.9 1.1,5.4 6.4,8.8 11.8,7.7 39.3,-8.3 78.4,-16.7 117.5,-25.4 5.4,-1.2 8.8,-6.5 7.6,-11.9 -1,-4.7 -5.2,-7.9 -9.7,-7.9 z m -5117.2,-11.3 c -4.5,0 -8.6,3.1 -9.7,7.7 -1.2,5.4 2.2,10.8 7.5,12 39,8.8 78,17.4 117.1,25.9 5.4,1.1 10.7,-2.3 11.9,-7.7 1.2,-5.4 -2.3,-10.7 -7.7,-11.9 -39,-8.4 -78,-17 -116.8,-25.8 -0.8,-0.2 -1.5,-0.2 -2.3,-0.2 z m 5351.1,-43.2 c -0.8,0 -1.6,0.1 -2.4,0.3 -38.8,9.5 -77.7,18.8 -116.7,27.9 -5.4,1.2 -8.7,6.6 -7.5,12 1.3,5.4 6.6,8.7 12,7.5 39.1,-9.2 78.1,-18.5 117,-28 5.3,-1.3 8.6,-6.7 7.3,-12 -1.1,-4.6 -5.2,-7.7 -9.7,-7.7 z m -5584.1,-12.3 c -4.5,0 -8.6,3 -9.7,7.6 -1.3,5.3 1.9,10.8 7.3,12.1 38.7,9.7 77.5,19.1 116.5,28.4 5.3,1.3 10.7,-2 12,-7.4 1.3,-5.4 -2,-10.8 -7.4,-12.1 -38.9,-9.2 -77.6,-18.7 -116.3,-28.3 -0.8,-0.2 -1.6,-0.3 -2.4,-0.3 z m 5816.7,-47.3 c -0.9,0 -1.7,0.2 -2.6,0.4 -38.5,10.3 -77.2,20.4 -116,30.4 -5.3,1.3 -8.6,6.8 -7.2,12.1 1.4,5.4 6.8,8.6 12.2,7.3 38.8,-10 77.6,-20.2 116.2,-30.5 5.3,-1.4 8.5,-6.9 7.1,-12.2 -1.2,-4.5 -5.3,-7.5 -9.7,-7.5 z m -6048.5,-13.2 c -4.4,0 -8.4,2.9 -9.6,7.4 -1.5,5.3 1.7,10.8 7,12.2 38.5,10.5 77.1,20.8 115.8,31 5.3,1.4 10.8,-1.9 12.2,-7.2 1.4,-5.3 -1.8,-10.8 -7.1,-12.2 -38.7,-10.1 -77.2,-20.4 -115.7,-30.9 -0.8,-0.2 -1.7,-0.3 -2.6,-0.3 z m -230.4,-65.6 c -4.3,0 -8.3,2.8 -9.6,7.2 -1.5,5.2 1.5,10.8 6.8,12.4 38.2,11.3 76.6,22.5 115.1,33.5 5.3,1.4 10.8,-1.6 12.4,-6.9 1.5,-5.4 -1.6,-10.9 -6.9,-12.4 -38.5,-10.9 -76.8,-22.1 -114.9,-33.4 -1,-0.3 -1.9,-0.4 -2.9,-0.4 z m -228.9,-70.7 c -4.2,0 -8.1,2.7 -9.5,6.9 -1.7,5.3 1.2,10.9 6.5,12.6 37.6,12.1 76.1,24.2 114.3,36 5.3,1.7 10.9,-1.3 12.5,-6.6 1.7,-5.2 -1.3,-10.8 -6.6,-12.5 -38.1,-11.7 -76.5,-23.9 -114.1,-35.9 -1,-0.4 -2.1,-0.5 -3.1,-0.5 z m -227.2,-75.9 c -4.1,0 -8,2.6 -9.4,6.8 -1.9,5.2 0.9,10.9 6.1,12.7 37.3,12.9 75.5,25.9 113.5,38.6 5.3,1.8 10.9,-1.1 12.7,-6.3 1.7,-5.3 -1.1,-10.9 -6.3,-12.7 -38,-12.7 -76.1,-25.6 -113.3,-38.5 -1.1,-0.4 -2.2,-0.6 -3.3,-0.6 z m -225.4,-81 c -4.1,0 -7.9,2.5 -9.4,6.5 -1.9,5.2 0.7,10.9 5.9,12.9 37.1,13.8 74.9,27.7 112.6,41.2 5.2,1.8 10.9,-0.8 12.8,-6 1.8,-5.2 -0.9,-11 -6.1,-12.8 -37.5,-13.5 -75.3,-27.4 -112.3,-41.2 -1.2,-0.4 -2.4,-0.6 -3.5,-0.6"
         style="fill:#102a54;fill-opacity:1;fill-rule:nonzero;stroke:none"
         id="path178" />
      <path
         d="m 24005.2,5353.1 c 0,-158.5 -128.5,-286.9 -286.9,-286.9 -158.4,0 -286.9,128.4 -286.9,286.9 0,158.4 128.5,286.8 286.9,286.8 158.4,0 286.9,-128.4 286.9,-286.8"
         style="fill:#80c0fe;fill-opacity:1;fill-rule:nonzero;stroke:none"
         id="path180" />
      <path
         d="m 12724,3490.7 c 0,-158.5 -128.5,-286.9 -286.9,-286.9 -158.4,0 -286.9,128.4 -286.9,286.9 0,158.4 128.5,286.8 286.9,286.8 158.4,0 286.9,-128.4 286.9,-286.8"
         style="fill:#80c0fe;fill-opacity:1;fill-rule:nonzero;stroke:none"
         id="path182" />
      <path
         d="m 8002.23,9923.7 c 0,-158.5 -128.44,-286.9 -286.87,-286.9 -158.44,0 -286.87,128.4 -286.87,286.9 0,158.4 128.43,286.9 286.87,286.9 158.43,0 286.87,-128.5 286.87,-286.9"
         style="fill:#80c0fe;fill-opacity:1;fill-rule:nonzero;stroke:none"
         id="path184" />
      <path
         d="m 15890.2,15924.1 c 0,-158.5 -128.5,-286.9 -286.9,-286.9 -158.4,0 -286.9,128.4 -286.9,286.9 0,158.4 128.5,286.8 286.9,286.8 158.4,0 286.9,-128.4 286.9,-286.8"
         style="fill:#80c0fe;fill-opacity:1;fill-rule:nonzero;stroke:none"
         id="path186" />
      <path
         d="m 7204.77,11825 c -813.31,50.8 -983.4,-628 -1796.72,-577.2 0,832 -288.77,1776.4 -288.77,2608.4 582.96,-101.4 1454.7,65.6 2037.66,179.9 230.36,-696 -182.52,-1429.8 47.83,-2211.1"
         style="fill:#f3f6fd;fill-opacity:1;fill-rule:nonzero;stroke:none"
         id="path188" />
      <path
         d="m 5386.73,13347.8 c 203.67,20.4 406.61,48.2 608.23,83.5 201.89,35.4 402.46,78.3 601.16,128.5 112.21,28.4 223.81,59.2 334.74,92.3 18.46,5.5 10.6,34.4 -7.98,28.9 -195.66,-58.3 -393.44,-109.4 -592.87,-153.2 -198.64,-43.5 -398.89,-79.7 -600.2,-108.4 -114.05,-16.3 -228.45,-30.1 -343.08,-41.6 -19.03,-1.9 -19.23,-32 0,-30 v 0"
         style="fill:#cce6ff;fill-opacity:1;fill-rule:nonzero;stroke:none"
         id="path190" />
      <path
         d="m 5474.5,12907.2 c 197.23,30.6 393.46,67.6 588.25,111.1 194.79,43.5 388.14,93.5 579.62,149.8 107.67,31.6 214.73,65.3 321.15,100.9 18.22,6.1 10.41,35.1 -7.97,29 -189.28,-63.4 -380.62,-120.5 -573.66,-171.2 -193.03,-50.8 -387.75,-95.1 -583.71,-133 -110.18,-21.3 -220.76,-40.5 -331.66,-57.7 -19.02,-3 -10.94,-31.9 7.98,-28.9 v 0"
         style="fill:#cce6ff;fill-opacity:1;fill-rule:nonzero;stroke:none"
         id="path192" />
      <path
         d="m 5551.54,12471.7 c 191.29,48.2 382.11,98.2 572.41,150.2 190.3,51.9 380.09,105.7 569.34,161.4 107.24,31.5 214.3,63.7 321.18,96.4 18.41,5.7 10.56,34.6 -7.98,29 -188.61,-57.8 -377.79,-113.8 -567.5,-167.8 -189.71,-54.1 -379.95,-106.2 -570.69,-156.5 -108.09,-28.6 -216.34,-56.5 -324.73,-83.8 -18.71,-4.7 -10.78,-33.6 7.97,-28.9 v 0"
         style="fill:#cce6ff;fill-opacity:1;fill-rule:nonzero;stroke:none"
         id="path194" />
      <path
         d="m 5565.36,12069.2 c 191.82,42.9 382.14,92.4 570.46,148.7 188.32,56.3 374.66,119.2 558.53,188.7 103.53,39.1 206.24,80.3 308.17,123.4 7.51,3.2 9.01,14.1 5.38,20.5 -4.43,7.8 -13.11,8.6 -20.53,5.4 -180.54,-76.4 -363.83,-146.3 -549.32,-209.7 -184.48,-63.1 -371.18,-119.7 -559.63,-169.7 -106.48,-28.2 -213.52,-54.3 -321.04,-78.3 -18.83,-4.3 -10.86,-33.2 7.98,-29 v 0"
         style="fill:#cce6ff;fill-opacity:1;fill-rule:nonzero;stroke:none"
         id="path196" />
      <path
         d="m 5645.05,11601.7 c 161.01,103 333.29,188 513.01,253.1 178.86,64.8 364.96,110.5 553.63,134.9 106.66,13.8 214.12,20.9 321.67,21.4 19.3,0 19.33,30 0,30 -193,-0.8 -385.85,-23.3 -573.98,-66.3 -188.11,-43.1 -371.4,-106.9 -545.68,-189.8 -97.79,-46.4 -192.59,-99.1 -283.79,-157.4 -16.22,-10.4 -1.19,-36.4 15.14,-25.9 v 0"
         style="fill:#cce6ff;fill-opacity:1;fill-rule:nonzero;stroke:none"
         id="path198" />
      <path
         d="m 13561.9,15975.3 c -332.9,431.4 -1065,483.9 -1397.9,915.2 418.3,366.7 909.8,1417.2 1328.1,1783.9 205.9,-337.9 841.9,-891.5 1156.3,-1134.2 -248.5,-422.6 -795.1,-1104.7 -1086.5,-1564.9"
         style="fill:#f3f6fd;fill-opacity:1;fill-rule:nonzero;stroke:none"
         id="path200" />
      <path
         d="m 13386.4,18326.1 c 136.1,-80.7 231.4,-210.4 334.7,-326.9 108.4,-122.4 232.3,-230.5 368.5,-321.1 76.5,-50.9 156.8,-96.1 240.1,-135.3 17.3,-8.1 32.6,17.7 15.1,25.9 -147.8,69.6 -286.6,158.4 -411.2,264.1 -62.4,52.9 -121.3,110 -176.2,170.7 -53.1,58.7 -102.8,120.4 -156.2,178.6 -59.3,64.6 -124,125 -199.7,169.9 -16.6,9.9 -31.7,-16.1 -15.1,-25.9 v 0"
         style="fill:#cce6ff;fill-opacity:1;fill-rule:nonzero;stroke:none"
         id="path202" />
      <path
         d="m 13182.1,18046.4 c 150.1,-80.7 267.9,-208.5 397.6,-316.6 133.4,-111.3 274.9,-212.8 423.1,-303.4 83.5,-51 169.1,-98.4 256.4,-142.4 17.2,-8.6 32.4,17.3 15.2,25.9 -154.8,77.8 -303.8,166.9 -445.5,266.4 -71.7,50.4 -141.4,103.4 -209,159 -66.2,54.3 -129.2,112.1 -193.4,168.7 -71.2,62.8 -145.3,123.2 -229.2,168.4 -17,9.1 -32.2,-16.8 -15.2,-26 v 0"
         style="fill:#cce6ff;fill-opacity:1;fill-rule:nonzero;stroke:none"
         id="path204" />
      <path
         d="m 12978.3,17714.6 c 280,-167.7 560.1,-335.3 840.2,-503 78.6,-47 157.2,-94.1 235.8,-141.1 16.6,-10 31.7,16 15.1,25.9 -280,167.6 -560.1,335.3 -840.2,503 -78.6,47 -157.2,94.1 -235.8,141.1 -16.6,9.9 -31.7,-16 -15.1,-25.9 v 0"
         style="fill:#cce6ff;fill-opacity:1;fill-rule:nonzero;stroke:none"
         id="path206" />
      <path
         d="m 12802.9,17444.1 c 76.8,-40.1 151.1,-84.8 225.8,-128.7 70.7,-41.5 141.3,-83.2 211.3,-126.1 140.2,-85.8 278.1,-175.9 408.7,-276 73.3,-56.2 144.1,-115.9 211.4,-179.1 14.1,-13.2 35.3,7.9 21.2,21.2 -120.1,112.8 -251.1,213.4 -387.1,306.2 -136.8,93.2 -278.6,178.7 -421.2,262.6 -84.3,49.6 -168.2,100.5 -254.9,145.7 -17.2,9 -32.3,-16.9 -15.2,-25.8 v 0"
         style="fill:#cce6ff;fill-opacity:1;fill-rule:nonzero;stroke:none"
         id="path208" />
      <path
         d="m 12600.6,17189.6 c 140.7,-67.3 272.4,-151.5 402.5,-237.3 130,-85.7 259,-173.5 395.7,-248.4 76.5,-41.9 155.5,-79.4 237.1,-110.3 18.1,-6.8 25.9,22.2 8,28.9 -144.2,54.5 -278.5,131.2 -408.4,213.5 -131.2,83.2 -258.6,172.5 -391.1,253.7 -74.3,45.4 -150.1,88.2 -228.7,125.8 -17.3,8.3 -32.6,-17.6 -15.1,-25.9 v 0"
         style="fill:#cce6ff;fill-opacity:1;fill-rule:nonzero;stroke:none"
         id="path210" />
      <path
         d="m 12448.1,16875.4 c 148,-26.3 292.9,-70.5 430.1,-132.1 140.5,-63.1 270,-146.2 397.8,-231.6 77.1,-51.6 154.2,-103.3 231.2,-154.9 16.1,-10.8 31.1,15.2 15.2,25.9 -135,90.4 -268.5,184.1 -407.3,268.6 -129.9,79.1 -267.3,144.4 -412,191.4 -80.8,26.2 -163.4,46.8 -247,61.7 -18.9,3.3 -27,-25.6 -8,-29 v 0"
         style="fill:#cce6ff;fill-opacity:1;fill-rule:nonzero;stroke:none"
         id="path212" />
      <path
         d="m 12860,6778.4 c -526.7,268.4 -1266.6,235.6 -1910.4,338.7 257.3,746.2 528.3,1511.8 829.8,2320.5 427.5,-370.3 1052.3,-461.8 1598.9,-663.8 -150.7,-634 -316.1,-1288.6 -518.3,-1995.4"
         style="fill:#ffffff;fill-opacity:1;fill-rule:nonzero;stroke:none"
         id="path214" />
      <path
         d="m 11799.4,9007.5 c 158.7,-76 317.8,-151.4 481.4,-216.2 162.1,-64.2 329.2,-118 501.2,-148 96.6,-16.8 194.5,-26.1 292.5,-26 19.3,0 19.4,30 0,30 -172,-0.1 -342.2,29.3 -507.2,76.8 -166.9,48 -328.4,113.4 -486.6,184.7 -89.3,40.2 -177.8,82.3 -266.1,124.6 -17.3,8.3 -32.6,-17.6 -15.2,-25.9 v 0"
         style="fill:#cce6ff;fill-opacity:1;fill-rule:nonzero;stroke:none"
         id="path216" />
      <path
         d="m 11694.3,8715.1 c 178.9,-29.3 353.2,-79.6 526.9,-130.4 172.4,-50.4 345.1,-101.7 522.2,-132.9 99.6,-17.6 200.5,-28.7 301.7,-29.9 19.3,-0.2 19.3,29.8 0,30 -178.7,2.1 -354.7,35.9 -527.2,80.4 -174,44.9 -345.1,100.3 -518.8,146.4 -97.9,26 -196.7,49 -296.8,65.4 -18.9,3.1 -27,-25.8 -8,-29 v 0"
         style="fill:#cce6ff;fill-opacity:1;fill-rule:nonzero;stroke:none"
         id="path218" />
      <path
         d="m 11583.1,8437.1 c 177.4,-60.7 356.6,-121.3 544.2,-141 95.1,-10 190.8,-9.9 286.3,-12.8 96.9,-3 193.7,-8.8 290.3,-17.3 109.2,-9.7 218,-22.9 326.3,-39.6 18.9,-3 27,25.9 8,28.9 -191.4,29.6 -384.3,48.6 -577.8,56.3 -95.6,3.8 -191.4,3.3 -286.8,10.4 -94.5,7 -187.6,24.4 -279.2,48.4 -102.6,27 -203,61.3 -303.3,95.6 -18.4,6.2 -26.2,-22.7 -8,-28.9 v 0"
         style="fill:#cce6ff;fill-opacity:1;fill-rule:nonzero;stroke:none"
         id="path220" />
      <path
         d="m 13009,8094.5 c -181.4,29.5 -364,51.5 -547.1,65.6 -182.7,14.1 -366,20.4 -549.2,18.8 -103.8,-0.9 -207.7,-4.3 -311.4,-10.2 -19.2,-1 -19.3,-31.1 0,-30 182.1,10.3 364.6,13 546.9,7.9 182.4,-5.1 364.5,-18 545.7,-38.6 102.7,-11.6 205.1,-25.8 307.1,-42.4 18.9,-3.1 27,25.8 8,28.9 v 0"
         style="fill:#cce6ff;fill-opacity:1;fill-rule:nonzero;stroke:none"
         id="path222" />
      <path
         d="m 11405.4,7949.6 c 203.4,8.7 407.1,9.8 610.5,3 201.8,-6.8 403.3,-21.2 604,-43.3 114.5,-12.6 228.7,-27.8 342.5,-45.4 18.9,-2.9 27.1,26 8,28.9 -201.6,31.2 -404.5,54.9 -607.9,70.6 -203.8,15.7 -408.1,23.6 -612.5,23.6 -114.9,0.1 -229.8,-2.5 -344.6,-7.4 -19.2,-0.8 -19.3,-30.8 0,-30 v 0"
         style="fill:#cce6ff;fill-opacity:1;fill-rule:nonzero;stroke:none"
         id="path224" />
      <path
         d="m 12868.4,7557.1 c -155.7,96.6 -330,159.9 -508.5,199 -190.6,41.8 -386,56.4 -580.7,60.6 -115.3,2.4 -230.6,1.3 -345.9,0.1 -19.3,-0.1 -19.4,-30.1 0,-30 200.7,2 401.9,4 602.1,-13.1 184.3,-15.7 368.1,-48.4 542.6,-110.8 96,-34.3 188.6,-77.9 275.2,-131.7 16.5,-10.2 31.6,15.8 15.2,25.9 v 0"
         style="fill:#cce6ff;fill-opacity:1;fill-rule:nonzero;stroke:none"
         id="path226" />
      <path
         d="m 11308.1,7496.3 c 186.7,-0.5 373.4,-5.6 559.9,-15.5 186.4,-9.8 372.6,-24.3 558.4,-43.4 105.2,-10.9 210.2,-23.2 315,-37 8.1,-1.1 15,7.6 15,15 0.1,8.9 -7,13.9 -15,15 -185.1,24.3 -370.8,44.1 -556.9,59.3 -186.1,15.1 -372.6,25.5 -559.2,31.3 -105.7,3.3 -211.5,5 -317.2,5.3 -19.3,0.1 -19.4,-29.9 0,-30 v 0"
         style="fill:#cce6ff;fill-opacity:1;fill-rule:nonzero;stroke:none"
         id="path228" />
      <path
         d="m 11181.4,7233.5 c 202.8,7 405.9,5.9 608.6,-3.5 202.7,-9.5 405,-27.2 606.3,-53.1 113.9,-14.7 227.5,-32.1 340.6,-52.1 18.9,-3.3 27,25.6 8,29 -201.2,35.4 -403.8,62.8 -607.2,81.8 -202.9,19 -406.5,29.7 -610.3,32 -115.3,1.3 -230.7,-0.1 -346,-4.1 -19.3,-0.7 -19.4,-30.7 0,-30 v 0"
         style="fill:#cce6ff;fill-opacity:1;fill-rule:nonzero;stroke:none"
         id="path230" />
      <path
         d="m 26917,3432.8 c -664.8,0 -1329.6,-797 -1994.4,-797.1 0,948.9 0,1897.7 0,2846.5 664.8,0 1329.6,797.1 1994.4,797 0,-948.8 0,-1897.6 0,-2846.4"
         style="fill:#ffffff;fill-opacity:1;fill-rule:nonzero;stroke:none"
         id="path232" />
      <path
         d="m 25098.2,5177.1 c 235.5,9.8 460.1,91.8 668.2,198.2 212.8,108.8 410.1,244.3 616,365.1 116.4,68.2 235.7,131.9 360.9,182.7 17.6,7.1 9.9,36.1 -8,28.9 -221.7,-89.9 -424,-218.1 -626.6,-343.7 -199.9,-123.9 -403.5,-246.3 -626.7,-324 -123.8,-43.1 -252.7,-71.7 -383.8,-77.2 -19.3,-0.8 -19.4,-30.8 0,-30 v 0"
         style="fill:#cce6ff;fill-opacity:1;fill-rule:nonzero;stroke:none"
         id="path234" />
      <path
         d="m 25099.6,4936 c 127.2,5.1 254.9,10.4 380.6,32.1 114.1,19.7 223.2,55.8 327.1,106.5 193.7,94.5 363.9,228.5 546.1,342 101.6,63.2 207.6,120.3 321.1,159 18.2,6.2 10.4,35.2 -8,29 -203.7,-69.5 -380.4,-194.6 -557.4,-313.6 -88.2,-59.3 -177.3,-117.6 -271.4,-167.3 -98.2,-51.9 -201.3,-92.3 -310.1,-115.9 -140.5,-30.4 -284.8,-36.1 -428,-41.8 -19.2,-0.8 -19.3,-30.8 0,-30 v 0"
         style="fill:#cce6ff;fill-opacity:1;fill-rule:nonzero;stroke:none"
         id="path236" />
      <path
         d="m 25135.7,4554.2 c 212.6,3.5 412.8,85.3 597.9,183.7 186.9,99.4 363.2,218.3 556.9,304.6 107.2,47.7 220.2,84.8 336.9,99.7 18.9,2.5 19.1,32.5 0,30 -209.6,-26.8 -401.3,-119.7 -583.3,-222.6 -184.6,-104.3 -364.1,-221 -563.9,-295.2 -110.5,-41.1 -226.3,-68.2 -344.5,-70.2 -19.3,-0.3 -19.4,-30.3 0,-30 v 0"
         style="fill:#cce6ff;fill-opacity:1;fill-rule:nonzero;stroke:none"
         id="path238" />
      <path
         d="m 25166.5,4108.9 c 192.6,134.2 392.6,257.8 598.9,370 206.4,112.2 419,213.3 636.6,302.1 122.6,50 246.8,96.2 372.3,138.5 18.2,6.2 10.4,35.1 -8,29 -223.7,-75.5 -443.2,-163.3 -657.3,-262.9 -214.2,-99.7 -422.9,-211.2 -624.8,-334 -113.2,-68.8 -224.2,-141.1 -332.9,-216.8 -15.7,-11 -0.7,-37 15.2,-25.9 v 0"
         style="fill:#cce6ff;fill-opacity:1;fill-rule:nonzero;stroke:none"
         id="path240" />
      <path
         d="m 26707,4713.6 c -220.7,-96.9 -425.6,-225 -626.7,-356.9 -200.1,-131.2 -397.8,-266.9 -608.3,-381.3 -118,-64.2 -239.8,-121.3 -366.5,-166.1 -18.1,-6.4 -10.3,-35.4 8,-28.9 227,80.3 437.5,198.8 640.4,327.2 203.8,129 401.3,268.1 608.5,391.8 116.3,69.4 235.7,133.9 359.7,188.3 17.7,7.8 2.4,33.6 -15.1,25.9 v 0"
         style="fill:#cce6ff;fill-opacity:1;fill-rule:nonzero;stroke:none"
         id="path242" />
      <path
         d="m 25133.3,3436.1 c 198,156.8 396.1,313.5 600.2,462.1 203.2,148 412.5,288.2 631.9,411.2 123.8,69.3 250.9,133.1 381.2,189.5 17.6,7.7 2.4,33.5 -15.2,25.9 -231.8,-100.4 -452.9,-224.1 -665.1,-360.9 -213.1,-137.5 -417.4,-288 -618.1,-442.9 -112.8,-86.9 -224.5,-175.3 -336.1,-263.7 -15.1,-11.9 6.3,-33 21.2,-21.2 v 0"
         style="fill:#cce6ff;fill-opacity:1;fill-rule:nonzero;stroke:none"
         id="path244" />
      <path
         d="m 25167,3183.1 c 201,106.9 399.4,218.5 595.1,334.8 194.3,115.5 385.8,235.5 574.5,360.1 106.8,70.5 212.7,142.5 317.6,215.9 15.7,10.9 0.7,37 -15.1,25.9 -186.6,-130.4 -376.2,-256.5 -568.7,-377.9 -191.2,-120.6 -385.2,-236.7 -581.8,-348.1 -111.4,-63.1 -223.7,-124.7 -336.7,-184.8 -17,-9.1 -1.9,-35 15.1,-25.9 v 0"
         style="fill:#cce6ff;fill-opacity:1;fill-rule:nonzero;stroke:none"
         id="path246" />
      <path
         d="m 25171.9,2887.4 c 178.7,149.1 371,281.7 573.7,396.1 202.7,114.3 415.6,210.4 635.6,286.4 124.1,42.8 250.3,79.3 378.1,109.2 18.8,4.4 10.9,33.4 -8,29 -229.1,-53.7 -453,-128.6 -668.6,-222.9 -214.4,-93.8 -420.3,-206.9 -614.3,-337.8 -109.9,-74.1 -215.9,-153.9 -317.7,-238.8 -14.8,-12.4 6.5,-33.5 21.2,-21.2 v 0"
         style="fill:#cce6ff;fill-opacity:1;fill-rule:nonzero;stroke:none"
         id="path248" />
      <path
         d="m 27473.4,15173.3 c -813.3,50.8 -1626.6,-640 -2440,-589.2 0,832 0,1664 0,2496 583,-101.5 1166,178 1748.9,292.3 230.4,-696 460.7,-1417.8 691.1,-2199.1"
         style="fill:#f3f6fd;fill-opacity:1;fill-rule:nonzero;stroke:none"
         id="path250" />
      <path
         d="m 25227.2,16726.1 c 197.9,-17.6 395.7,22.5 582.9,84.4 187.8,62.1 367,146.7 550.1,221 102.3,41.6 206,79.9 312.5,109.4 18.6,5.2 10.7,34.1 -8,29 -188.3,-52.3 -367.1,-132 -546.6,-208 -181.2,-76.8 -365.6,-150.1 -559.7,-186.9 -109.1,-20.7 -220.5,-28.8 -331.2,-18.9 -19.3,1.7 -19.1,-28.3 0,-30 v 0"
         style="fill:#cce6ff;fill-opacity:1;fill-rule:nonzero;stroke:none"
         id="path252" />
      <path
         d="m 25195.8,16444.6 c 194.8,-2.2 388.4,30.7 575.1,85.1 189.2,55 371.7,131.1 550.3,213.9 101.1,46.8 201,96 300.8,145.4 17.3,8.6 2.2,34.4 -15.1,25.9 -175.4,-86.8 -351.3,-173.1 -532.7,-246.8 -179.1,-72.7 -364,-133.3 -554.8,-166.7 -106.8,-18.6 -215.1,-28 -323.6,-26.8 -19.3,0.3 -19.3,-29.7 0,-30 v 0"
         style="fill:#cce6ff;fill-opacity:1;fill-rule:nonzero;stroke:none"
         id="path254" />
      <path
         d="m 25222.5,16137.9 c 217.1,59.9 433.3,122.9 648.5,189 215.3,66.1 429.5,135.3 642.8,207.6 120.5,40.8 240.7,82.7 360.6,125.5 18,6.4 10.2,35.4 -8,28.9 -212.1,-75.7 -425.2,-148.5 -639.3,-218 -214.1,-69.7 -429.3,-136.2 -645.3,-199.6 -122.1,-35.8 -244.6,-70.6 -367.2,-104.5 -18.6,-5.1 -10.7,-34.1 7.9,-28.9 v 0"
         style="fill:#cce6ff;fill-opacity:1;fill-rule:nonzero;stroke:none"
         id="path256" />
      <path
         d="m 26927.4,16438.1 c -223.5,-69.5 -445.7,-142.9 -666.6,-220.3 -220.8,-77.4 -440.3,-158.7 -658.3,-243.9 -122.2,-47.7 -243.9,-96.7 -365.1,-146.8 -17.6,-7.3 -9.9,-36.3 7.9,-28.9 216.3,89.4 434.1,175.1 653.4,256.8 219.3,81.8 440,159.7 662.1,233.6 124.4,41.4 249.3,81.6 374.6,120.6 18.3,5.7 10.5,34.7 -8,28.9 v 0"
         style="fill:#cce6ff;fill-opacity:1;fill-rule:nonzero;stroke:none"
         id="path258" />
      <path
         d="m 25176.7,15505.1 c 213.5,131.6 440,241.7 675.3,328.3 235.2,86.4 478.8,149.7 726.4,188.3 139.9,21.9 281,35.5 422.5,41.3 19.3,0.8 19.4,30.8 0,30 -253.1,-10.3 -505.2,-46.2 -751.2,-106.7 -245.2,-60.3 -484.5,-145 -713.1,-252.4 -128.7,-60.5 -253.9,-128.2 -375,-202.9 -16.4,-10.1 -1.4,-36.1 15.1,-25.9 v 0"
         style="fill:#cce6ff;fill-opacity:1;fill-rule:nonzero;stroke:none"
         id="path260" />
      <path
         d="m 27065.5,15974.7 c -258.3,-53.6 -512.9,-124.5 -761.6,-212.4 -248.5,-87.8 -491.1,-192.2 -725.6,-312.4 -132.1,-67.7 -261.5,-140.4 -388,-218 -16.4,-10 -1.3,-36 15.2,-25.9 223.6,137.1 456.4,259.1 696.3,364.9 240.8,106.2 488.9,195.9 741.9,268.7 141.8,40.8 285.2,76.2 429.8,106.1 18.9,4 10.9,32.9 -8,29 v 0"
         style="fill:#cce6ff;fill-opacity:1;fill-rule:nonzero;stroke:none"
         id="path262" />
      <path
         d="m 25266.5,14964.6 c 206.6,128.2 431.1,223.6 660.4,303 235.7,81.6 476.4,148.1 715.9,217.6 144.6,42 289.2,83.9 433.7,125.8 18.6,5.4 10.7,34.4 -7.9,29 -254.2,-73.8 -508.6,-146.7 -762.4,-221.4 -233.8,-68.9 -466.9,-142.3 -690.8,-239.4 -125.5,-54.4 -247.7,-116.5 -364,-188.7 -16.4,-10.2 -1.3,-36.1 15.1,-25.9 v 0"
         style="fill:#cce6ff;fill-opacity:1;fill-rule:nonzero;stroke:none"
         id="path264" />
      <path
         d="m 25315.8,14803.5 c 249.7,14.1 487.2,99.7 714.8,198.2 222.6,96.3 439.1,206.8 665.8,293.6 126.8,48.6 256.8,89.6 390.2,115.9 18.9,3.7 10.9,32.6 -8,28.9 -236.5,-46.7 -460.3,-139.2 -679,-238.2 -222.4,-100.6 -442,-210.6 -674.7,-286.2 -132.6,-43.1 -269.5,-74.3 -409.1,-82.2 -19.2,-1 -19.3,-31.1 0,-30 v 0"
         style="fill:#cce6ff;fill-opacity:1;fill-rule:nonzero;stroke:none"
         id="path266" />
    </g>
  </g>
</svg>
