<?xml version="1.0" encoding="UTF-8" standalone="no"?>
<!-- Created with Inkscape (http://www.inkscape.org/) -->

<svg
   version="1.1"
   id="svg2"
   width="4000"
   height="2666.6667"
  
   sodipodi:docname="NA_SEP._20.eps"
   xmlns:inkscape="http://www.inkscape.org/namespaces/inkscape"
   xmlns:sodipodi="http://sodipodi.sourceforge.net/DTD/sodipodi-0.dtd"
   xmlns="http://www.w3.org/2000/svg"
   xmlns:svg="http://www.w3.org/2000/svg">
  <defs
     id="defs6" />
  <sodipodi:namedview
     id="namedview4"
/>
  <g
     id="g8"
     inkscape:groupmode="layer"
     inkscape:label="ink_ext_XXXXXX"
     transform="matrix(1.3333333,0,0,-1.3333333,0,2666.6667)">
    <g
       id="g10"
       transform="scale(0.1)">
     
      
      <path
         d="m 17892.5,1474.6 h -5005.1 v 8770.8 h 5005.1 V 1474.6"
         style="fill:#e4e6ed;fill-opacity:1;fill-rule:nonzero;stroke:none"
         id="path16" />
      <path
         d="m 25233.9,1474.6 h -5005.1 v 5005.1 h 5005.1 V 1474.6"
         style="fill:#f6f2f5;fill-opacity:1;fill-rule:nonzero;stroke:none"
         id="path18" />
      <path
         d="M 10294.7,1474.6 H 5289.64 V 14736.7 H 10294.7 V 1474.6"
         style="fill:#eda35a;fill-opacity:1;fill-rule:nonzero;stroke:none"
         id="path20" />
      <path
         d="M 26966.6,1449.6 H 3502.46 c -13.81,0 -25,11.2 -25,25 0,13.8 11.19,25 25,25 H 26966.6 c 13.8,0 25,-11.2 25,-25 0,-13.8 -11.2,-25 -25,-25"
         style="fill:#1d2238;fill-opacity:1;fill-rule:nonzero;stroke:none"
         id="path22" />
      <path
         d="m 7712.63,18860.5 v -2120.8 l 3312.47,571.1 z"
         style="fill:#eda35a;fill-opacity:1;fill-rule:nonzero;stroke:none"
         id="path24" />
      <path
         d="m 7767.63,14736.7 h -110 v 4123.8 h 110 v -4123.8"
         style="fill:#1d2238;fill-opacity:1;fill-rule:nonzero;stroke:none"
         id="path26" />
      <path
         d="m 16167.8,10743 c 0,0 -151.8,39.5 -251.7,-249.9 l 392.2,164.3 -140.5,85.6"
         style="fill:#1d2238;fill-opacity:1;fill-rule:nonzero;stroke:none"
         id="path28" />
      <path
         d="m 16368.2,9221.6 c 16,10.1 28.8,24.5 36.7,41.7 l 322.6,697.9 -3.7,1.7 c 124.5,219 60.9,500.2 -151.5,643 v 0 c -190.3,127.9 -402.6,114.4 -584.4,-40.5 -46.5,-39.6 -86.6,-86.3 -120.7,-137 l -66.4,-98.8 c -149.8,-222.8 -90.6,-524.8 132.2,-674.6 v 0 c 17.8,-11.9 36.2,-22.4 54.9,-31.8 l -149.2,-285.6 c -48,-91.9 9.8,-203.6 112.6,-217.5 v 0 c 0.8,-0.1 1.6,-0.2 2.5,-0.3 135.4,-17.9 272.9,12.8 388.6,85.6 l 25.8,16.2"
         style="fill:#eb9481;fill-opacity:1;fill-rule:nonzero;stroke:none"
         id="path30" />
      <path
         d="m 15987.6,9623.3 c 0,0 158.2,-73 258.7,-52.9 0,0 -88,-75.2 -292.8,-12.9 l 34.1,65.8"
         style="fill:#1d2238;fill-opacity:1;fill-rule:nonzero;stroke:none"
         id="path32" />
      <path
         d="m 17001.2,10516.7 c 0,0 157.5,-30.8 257.5,-310.8 0,0 -29.4,346.5 -255.8,405.4 -23.3,257 -274.3,441.6 -427,468.9 -177.8,31.8 -187.7,174.7 -187.7,174.7 -60.3,-57.2 -44.4,-146.1 -44.4,-146.1 -79.5,9.5 -91.2,200.1 -91.2,200.1 -122.9,-60.3 -100.6,-196.9 -100.6,-196.9 -71,31.7 -52.1,152.4 -52.1,152.4 -320.1,-263.6 9.7,-629.7 9.7,-629.7 130.1,-155.4 571.2,-234.9 571.2,-234.9 0,0 -113.1,-129.1 -103.7,-221.9 6.4,-62.5 52.9,-176.5 52.9,-176.5 l 20.2,-207.4 -55.8,-120.8 c 0,0 271,37.9 507.2,396.6 101.7,154.4 26.2,383.4 -100.4,446.9"
         style="fill:#1d2238;fill-opacity:1;fill-rule:nonzero;stroke:none"
         id="path34" />
      <path
         d="m 16749.9,9853.1 c -36.9,-54.9 -102.8,-75.2 -147.2,-45.4 -44.3,29.8 -50.4,98.5 -13.5,153.4 36.9,54.9 102.8,75.2 147.2,45.4 44.3,-29.9 50.4,-98.5 13.5,-153.4"
         style="fill:#eb9481;fill-opacity:1;fill-rule:nonzero;stroke:none"
         id="path36" />
      <path
         d="m 16640.7,9967.3 c 7.3,9.4 18.4,15.9 31.4,18.6 12.9,2.4 28.3,0.2 40.6,-8.1 3.3,-1.9 6.1,-4.4 9,-6.8 2.6,-2.7 5.2,-5.5 7.2,-8.6 4.5,-6 7.7,-12.8 10.1,-19.7 4.2,-14 4.1,-28.5 1.3,-42 -1.6,-6.8 -4.1,-13.1 -6.9,-19.3 -1.6,-3 -3.1,-6 -4.9,-8.9 -2,-3 -3.1,-5.2 -6.4,-8.9 -2.9,-3.3 -6.5,-7.2 -13.2,-10.4 -6.4,-3.4 -16.4,-3.8 -22.6,-1.3 -12.7,5.1 -16,11.8 -20,17.1 -13.8,21.3 -16.6,41.1 -27.6,60.3 l -0.3,0.5 c -0.3,0.5 -0.1,1.2 0.5,1.6 0.4,0.2 0.8,0.2 1.2,-0.1 9.2,-6.4 15.6,-15.4 21.9,-24 6.3,-8.8 12,-17.9 18.9,-25.8 3.4,-3.9 7.3,-7.8 11.7,-9.2 4.3,-1.4 8.5,1.3 11.4,5.4 6,8.4 10.4,18.2 12.5,28.4 5.1,19.9 0.5,43.4 -15.8,56.6 -7.9,6.7 -18.3,10.1 -28.7,10.3 -10.4,0.1 -20.9,-2.8 -30.2,-7.8 -0.5,-0.3 -1.2,-0.1 -1.5,0.5 -0.3,0.4 -0.2,0.9 0.1,1.2 l 0.3,0.4"
         style="fill:#1d2238;fill-opacity:1;fill-rule:nonzero;stroke:none"
         id="path38" />
      <path
         d="m 16153,10364.1 c -6.8,-13 -14.4,-25.2 -22.4,-37.1 -3.8,-6.1 -8.1,-11.7 -12.3,-17.5 -4.1,-5.8 -8.2,-11.6 -12.7,-17.1 -8.7,-11.1 -17.4,-22.2 -26.8,-32.7 l -13.8,-16 -14.4,-15.3 -16.2,-17.1 -17.5,16.8 c -6.4,6.2 -13.2,12.2 -19.4,18.6 l -7.7,7.8 c -1.6,1.4 -3.4,2.6 -5.4,3.5 -3.9,1.6 -8.4,2.5 -13,2.3 -4.7,-0.3 -9.1,-2.1 -13.2,-5.1 -8.4,-5.6 -13.9,-17.3 -11.8,-30.2 0.7,-3.1 1.5,-6.4 2.9,-9.6 1.3,-2.9 4.3,-6.9 6.8,-10.7 4.9,-7.7 9.7,-15.6 14.1,-23.8 l 0.2,-0.4 c 0.4,-0.6 0.1,-1.4 -0.5,-1.8 -0.5,-0.3 -1.2,-0.2 -1.6,0.2 l -19.2,18.8 c -3.2,3.1 -6.4,6.1 -9.6,9.6 -2.9,3.6 -5.3,7.6 -7.2,11.9 -7.5,17.1 -3.5,38.5 9.8,51.9 13,13.6 34.4,18.3 52,11.1 4.4,-1.8 8.5,-4.1 12.3,-7 3.7,-3.1 6.8,-6.3 10,-9.4 l 19,-18.9 h -3.6 l 119.3,119.1 c 0.5,0.5 1.3,0.5 1.9,0 0.4,-0.4 0.4,-1 0.2,-1.5 l -0.2,-0.4"
         style="fill:#1d2238;fill-opacity:1;fill-rule:nonzero;stroke:none"
         id="path40" />
      <path
         d="m 16371.6,10284.9 c -10,-10.1 -41.3,4.4 -69.9,32.5 -28.5,28.1 -43.6,59.1 -33.5,69.3 10,10.2 41.2,-4.3 69.8,-32.4 28.6,-28.1 43.6,-59.2 33.6,-69.4"
         style="fill:#1d2238;fill-opacity:1;fill-rule:nonzero;stroke:none"
         id="path42" />
      <path
         d="m 16151.7,10466.3 c -5.9,-13 -40.2,-10.1 -76.7,6.5 -36.5,16.5 -61.3,40.5 -55.3,53.5 5.9,13 40.2,10.1 76.7,-6.5 36.5,-16.6 61.2,-40.5 55.3,-53.5"
         style="fill:#1d2238;fill-opacity:1;fill-rule:nonzero;stroke:none"
         id="path44" />
      <path
         d="m 16273.7,10253.7 c -10.1,-15 -30.6,-19 -45.7,-8.9 -15.1,10.1 -19.1,30.6 -8.9,45.7 10.1,15.1 30.6,19.1 45.7,8.9 15.1,-10.1 19.1,-30.6 8.9,-45.7"
         style="fill:#1d2238;fill-opacity:1;fill-rule:nonzero;stroke:none"
         id="path46" />
      <path
         d="m 16049,10406.3 c -10.1,-15.1 -30.6,-19.1 -45.7,-9 -15,10.1 -19,30.6 -8.9,45.7 10.1,15.1 30.6,19.1 45.7,8.9 15.1,-10.1 19.1,-30.5 8.9,-45.6"
         style="fill:#1d2238;fill-opacity:1;fill-rule:nonzero;stroke:none"
         id="path48" />
      <path
         d="m 15798.1,10094.9 c 0,0 144.8,101.4 314.1,-111.2 0,0 -139.6,288.7 -314.1,111.2"
         style="fill:#ffffff;fill-opacity:1;fill-rule:nonzero;stroke:none"
         id="path50" />
      <path
         d="m 16127.6,10031.1 c -0.6,-9.2 -2.1,-17.2 -3.6,-25.1 -1.5,-7.9 -3.2,-15.5 -5.1,-23 l -5.7,-22.6 c -2.4,-7.7 -4,-15.4 -7.3,-24.1 -9.9,15.5 -10.5,34.6 -6.4,51.4 2.1,8.5 5.4,16.7 10,24.1 4.7,7.3 10.3,14.3 18.1,19.3"
         style="fill:#1d2238;fill-opacity:1;fill-rule:nonzero;stroke:none"
         id="path52" />
      <path
         d="m 13268.3,10657.9 -248.5,210.7 -537.1,239.7 33.2,-225.2 404.1,-205.8 196.6,-145.4 151.7,126"
         style="fill:#1d2238;fill-opacity:1;fill-rule:nonzero;stroke:none"
         id="path54" />
      <path
         d="m 15944.3,9522 c 0,0 -313.1,41 -1000.9,-634.1 -687.8,-675 -694.9,-1439.4 -694.9,-1439.4 l 704.8,-332.5 991,2406"
         style="fill:#1d2238;fill-opacity:1;fill-rule:nonzero;stroke:none"
         id="path56" />
      <path
         d="M 15814.1,9491.9 14595,9623.3 13268.3,10657.9 14404.9,9376 h 1375.8 l 33.4,115.9"
         style="fill:#1d2238;fill-opacity:1;fill-rule:nonzero;stroke:none"
         id="path58" />
      <path
         d="m 12259.9,3016.1 v 0 l 61.9,119.2 -494.1,256.7 -41.7,-80 -730.3,53.9 c -109.2,8.1 -212.5,-50.5 -261.7,-148.3 l 1295.4,-678.9 170.5,477.4"
         style="fill:#f0c36a;fill-opacity:1;fill-rule:nonzero;stroke:none"
         id="path60" />
      <path
         d="m 12134.5,2624.7 c -109.8,50 -218.2,102.8 -326,156.6 -54.1,26.6 -107.6,54.3 -161.3,81.5 l -160.5,83.1 -159.7,84.6 c -52.9,28.8 -106.2,57 -158.8,86.3 -105.6,58 -210.7,117.1 -314.3,179 109.8,-50 218.2,-102.8 326,-156.6 54.1,-26.6 107.6,-54.3 161.3,-81.5 l 160.5,-83.1 159.7,-84.7 c 52.9,-28.8 106.1,-57 158.8,-86.3 105.6,-58 210.7,-117.1 314.3,-178.9"
         style="fill:#1d2238;fill-opacity:1;fill-rule:nonzero;stroke:none"
         id="path62" />
      <path
         d="m 12079.5,2898.1 c -34,-65 -114.3,-90.1 -179.3,-56 -64.9,34 -90,114.3 -56,179.3 34.1,65 114.4,90 179.4,56 64.9,-34.1 90,-114.4 55.9,-179.3"
         style="fill:#1d2238;fill-opacity:1;fill-rule:nonzero;stroke:none"
         id="path64" />
      <path
         d="m 11160.7,3370.5 c 18.6,-1.7 33.3,-9.4 46.1,-19 12.7,-9.8 23.1,-22.1 30.9,-36.1 7.9,-14 12.6,-30.1 13.8,-46.7 0.9,-16.6 -2.5,-34.2 -13,-49.2 l -3.2,-0.1 c -1.1,7 -1.3,14.1 -3.2,21 -0.8,3.5 -1.3,7 -2.3,10.4 l -3,10.2 c -4.6,13.4 -10.3,26.4 -17.4,38.7 -6.8,12.5 -14.5,24.5 -23.1,35.9 -4.3,5.7 -8.8,11.2 -13.5,16.6 -4.5,5.5 -9.3,10.9 -14.3,15.9 l 2.2,2.4"
         style="fill:#1d2238;fill-opacity:1;fill-rule:nonzero;stroke:none"
         id="path66" />
      <path
         d="m 11346.7,3355.3 c 18.6,-1.7 33.3,-9.4 46.1,-19 12.7,-9.8 23.2,-22.1 30.9,-36.1 7.9,-14 12.6,-30.1 13.8,-46.7 0.9,-16.6 -2.4,-34.2 -12.9,-49.2 l -3.3,-0.1 c -1,7 -1.3,14.1 -3.2,21 -0.8,3.5 -1.3,7 -2.3,10.4 l -3,10.2 c -4.6,13.4 -10.3,26.4 -17.4,38.7 -6.8,12.5 -14.5,24.5 -23.1,35.9 -4.3,5.7 -8.8,11.2 -13.4,16.6 -4.6,5.5 -9.4,10.9 -14.4,15.9 l 2.2,2.4"
         style="fill:#1d2238;fill-opacity:1;fill-rule:nonzero;stroke:none"
         id="path68" />
      <path
         d="m 11518.3,3340.1 c 18.5,-1.8 33.3,-9.5 46.1,-19 12.7,-9.8 23.1,-22.1 30.9,-36.1 7.8,-14 12.6,-30.2 13.7,-46.7 1,-16.6 -2.4,-34.2 -12.9,-49.2 l -3.2,-0.2 c -1.1,7.1 -1.4,14.2 -3.3,21.1 -0.8,3.4 -1.2,6.9 -2.2,10.3 l -3.1,10.2 c -4.6,13.4 -10.2,26.5 -17.3,38.8 -6.8,12.5 -14.5,24.5 -23.1,35.9 -4.3,5.6 -8.8,11.2 -13.5,16.6 -4.5,5.5 -9.3,10.8 -14.3,15.9 l 2.2,2.4"
         style="fill:#1d2238;fill-opacity:1;fill-rule:nonzero;stroke:none"
         id="path70" />
      <path
         d="m 10796.8,8033.4 v 0 l 142.8,-4.3 5.7,561.4 -105.5,-0.1 -290.1,672.3 c -43.4,100.6 -143.1,165.1 -252.6,163.4 l -2.4,-1462.5 502.1,69.8"
         style="fill:#f0c36a;fill-opacity:1;fill-rule:nonzero;stroke:none"
         id="path72" />
      <path
         d="m 10391.8,7963.4 c -6.5,120.5 -9.8,241 -12,361.5 -1.4,60.2 -1.6,120.5 -2.4,180.7 l -0.6,180.7 1.1,180.8 c 1,60.2 1.4,120.4 3,180.7 2.6,120.5 6.3,240.9 13.2,361.4 6.6,-120.5 9.9,-241 12.1,-361.5 1.4,-60.2 1.6,-120.4 2.4,-180.7 l 0.5,-180.7 -1.1,-180.7 c -1,-60.3 -1.4,-120.5 -3,-180.8 -2.6,-120.4 -6.3,-240.9 -13.2,-361.4"
         style="fill:#1d2238;fill-opacity:1;fill-rule:nonzero;stroke:none"
         id="path74" />
      <path
         d="m 10608.7,8138.6 c -73.3,0.2 -132.7,59.7 -132.6,133.1 0.1,73.3 59.7,132.7 133.1,132.6 73.3,-0.1 132.7,-59.7 132.6,-133.1 -0.2,-73.3 -59.7,-132.7 -133.1,-132.6"
         style="fill:#1d2238;fill-opacity:1;fill-rule:nonzero;stroke:none"
         id="path76" />
      <path
         d="m 10602.3,9171.8 c 7.1,-17.3 7.1,-33.9 4.5,-49.7 -2.8,-15.7 -8.8,-30.7 -17.7,-44.1 -8.7,-13.4 -20.9,-25.1 -35,-33.8 -14.3,-8.5 -31.5,-13.6 -49.6,-11.3 l -1.6,2.8 c 5.7,4.2 11.9,7.8 17.1,12.6 2.7,2.4 5.6,4.4 8.2,6.9 l 7.6,7.4 c 9.8,10.2 18.7,21.3 26.3,33.3 7.9,11.8 15,24.2 21.1,37.1 3.1,6.4 5.9,12.9 8.5,19.6 2.8,6.5 5.3,13.3 7.5,20 l 3.1,-0.8"
         style="fill:#1d2238;fill-opacity:1;fill-rule:nonzero;stroke:none"
         id="path78" />
      <path
         d="m 10674.9,8999.9 c 7.1,-17.3 7.1,-33.9 4.5,-49.7 -2.8,-15.8 -8.8,-30.7 -17.7,-44.1 -8.7,-13.5 -20.8,-25.1 -35,-33.8 -14.3,-8.5 -31.5,-13.7 -49.6,-11.3 l -1.6,2.8 c 5.8,4.2 11.9,7.7 17.1,12.6 2.7,2.3 5.6,4.3 8.2,6.8 l 7.6,7.4 c 9.8,10.3 18.7,21.3 26.3,33.4 8,11.7 15,24.1 21.1,37 3.1,6.5 5.9,13 8.5,19.6 2.8,6.6 5.4,13.3 7.5,20.1 l 3.1,-0.8"
         style="fill:#1d2238;fill-opacity:1;fill-rule:nonzero;stroke:none"
         id="path80" />
      <path
         d="m 10740.8,8840.7 c 7.1,-17.2 7.1,-33.9 4.5,-49.6 -2.8,-15.8 -8.8,-30.8 -17.7,-44.2 -8.7,-13.4 -20.9,-25.1 -35,-33.7 -14.3,-8.5 -31.5,-13.7 -49.6,-11.4 l -1.6,2.8 c 5.7,4.3 11.9,7.8 17.1,12.7 2.7,2.3 5.6,4.3 8.2,6.8 l 7.6,7.4 c 9.8,10.3 18.7,21.3 26.3,33.3 7.9,11.8 15,24.2 21.1,37.1 3.1,6.4 5.9,13 8.5,19.6 2.8,6.6 5.3,13.3 7.5,20 l 3.1,-0.8"
         style="fill:#1d2238;fill-opacity:1;fill-rule:nonzero;stroke:none"
         id="path82" />
      <path
         d="m 13195.5,7367.5 -2264.4,456.2 17.6,947.7 2818.7,-342.3 c 74.3,-10.6 1038.6,-478.2 1618.9,-762 379.5,-185.7 565.2,-627.6 420.7,-1024.6 -96.9,-266.3 -330.6,-478.6 -851.5,-408.8 -472.9,63.3 -1760,1133.8 -1760,1133.8"
         style="fill:#1d2238;fill-opacity:1;fill-rule:nonzero;stroke:none"
         id="path84" />
      <path
         d="m 13910.7,4932.2 -1382.3,-2065.6 -836.1,612 1471.1,2400 c 39.3,64.1 851.4,763.3 1342.3,1183.2 321,274.6 800.3,269.6 1107.4,-20.6 205.8,-194.7 307.9,-493.6 37.1,-943.9 -246,-408.9 -1739.5,-1165.1 -1739.5,-1165.1"
         style="fill:#1d2238;fill-opacity:1;fill-rule:nonzero;stroke:none"
         id="path86" />
      <path
         d="M 16472.1,9434.5 C 16312.1,8352.2 15951.9,7242 15856,6375.1 15195.7,6259 14792.6,7035 14515.7,7572.9 c -4.8,9.2 12,106.8 295.1,683.1 284.5,579.1 674,1163.8 1133.5,1266 175.6,-30.4 352,-58.7 527.8,-87.5"
         style="fill:#ffffff;fill-opacity:1;fill-rule:nonzero;stroke:none"
         id="path88" />
      <path
         d="m 16472.1,9434.5 v 0 c 51.9,-86.9 81.9,-184.2 95.6,-284.8 16.2,-118.9 7.7,-239.9 -20.7,-356.4 l -675.5,-2770.5 v 0 c -256,-44.9 -520.4,10.7 -733.6,159.2 -308.3,214.7 -551.9,517.3 -632.2,879.8 v 0 c 0,0 836.9,2407 1966.4,2372.7"
         style="fill:#4a4e60;fill-opacity:1;fill-rule:nonzero;stroke:none"
         id="path90" />
      <path
         d="m 15944.3,9522.5 c 0,0 -674.7,-454.2 -412.9,-1419.9 l -130.9,-512.1 -381.9,375.7 c 0,0 -294.1,954.6 733.4,1489.6 49.1,25.5 138.2,54.4 192.3,66.7 v 0"
         style="fill:#f0c36a;fill-opacity:1;fill-rule:nonzero;stroke:none"
         id="path92" />
      <path
         d="m 14912.1,7325.9 439.3,-444 92.4,197.2 -457.2,436.4 z m 442.3,-461.2 -454,458.8 82.3,209.5 473.2,-451.6 -101.5,-216.7"
         style="fill:#1d2238;fill-opacity:1;fill-rule:nonzero;stroke:none"
         id="path94" />
      <path
         d="m 14079.5,6696 c 24.7,31.2 52.1,59.3 80.1,86.6 28.2,27.1 57.4,52.9 87.4,77.8 30,24.9 60.9,48.6 92.8,71.2 32.1,22.4 64.8,44 100.2,62.4 -24.7,-31.3 -52.1,-59.3 -80.1,-86.6 -28.2,-27.1 -57.4,-53 -87.4,-77.8 -30.1,-24.8 -61,-48.6 -92.9,-71.2 -32.1,-22.4 -64.8,-44 -100.1,-62.4"
         style="fill:#4a4e60;fill-opacity:1;fill-rule:nonzero;stroke:none"
         id="path96" />
      <path
         d="m 21681.2,3194.5 c -798,78.6 -1543,225.6 -2214.3,437.1 -746.2,235.1 -1431.5,558.9 -2037.1,962.5 -564.3,376.1 -1100.3,829.9 -1593.1,1348.8 -467.3,492 -899.3,1046.1 -1284.1,1646.9 -708.5,1106.2 -1443.3,2377.7 -1935,3249.6 -326.5,578.9 -685.4,1140.2 -1032.6,1683 -448.7,701.7 -912.6,1427.2 -1307.7,2193.6 l -2572.2,811.5 15.05,47.7 2592.05,-817.8 4.8,-9.2 c 395,-767.8 860.2,-1495.3 1310.1,-2198.8 347.5,-543.4 706.9,-1105.3 1034.1,-1685.5 491.3,-871.3 1225.6,-2141.9 1933.5,-3247.1 383.1,-598.2 813.2,-1149.8 1278.2,-1639.5 490.2,-516.2 1023.4,-967.6 1584.6,-1341.6 601.7,-401 1282.7,-722.8 2024.4,-956.4 668.1,-210.4 1409.6,-356.8 2204.2,-435.1 l -4.9,-49.7"
         style="fill:#1d2238;fill-opacity:1;fill-rule:nonzero;stroke:none"
         id="path98" />
      <path
         d="m 7683.42,15529.6 c -12.05,0 -24.07,0.3 -36.09,1.1 -11.07,0.8 -19.46,10.3 -18.74,21.4 0.73,11.1 10.2,19.5 21.37,18.7 50.82,-3.3 102.16,1 152.53,12.8 10.81,2.5 21.62,-4.2 24.14,-15 2.52,-10.8 -4.19,-21.7 -14.99,-24.2 -42.34,-9.9 -85.33,-14.8 -128.22,-14.8"
         style="fill:#1d2238;fill-opacity:1;fill-rule:nonzero;stroke:none"
         id="path100" />
      <path
         d="m 7720.49,15456.1 c -28.26,0 -55.55,6.3 -82.07,12.4 -10.81,2.5 -17.56,13.2 -15.07,24.1 2.49,10.8 13.26,17.5 24.1,15 28.03,-6.4 57.06,-13.1 84.3,-10.9 28.88,2.4 52.87,14.6 71.3,36.4 7.16,8.5 19.85,9.6 28.32,2.4 8.47,-7.1 9.54,-19.8 2.38,-28.3 -25.23,-29.9 -59.37,-47.3 -98.74,-50.5 -4.87,-0.4 -9.71,-0.6 -14.52,-0.6"
         style="fill:#1d2238;fill-opacity:1;fill-rule:nonzero;stroke:none"
         id="path102" />
      <path
         d="m 7694.06,15376 c -19.78,0 -38.09,7 -54.34,13.3 -10.37,3.9 -15.54,15.6 -11.56,25.9 3.98,10.4 15.59,15.6 25.96,11.6 14.16,-5.5 28.76,-11 41.54,-10.6 33.15,1.3 67.35,43.4 92.31,74.2 7,8.7 19.66,10 28.26,3 8.63,-7 9.95,-19.6 2.96,-28.3 -29.81,-36.7 -70.64,-87.1 -122,-89.1 -1.04,0 -2.09,0 -3.13,0"
         style="fill:#1d2238;fill-opacity:1;fill-rule:nonzero;stroke:none"
         id="path104" />
      <path
         d="m 16472.1,9434.5 -2067.2,-58.5 -1136.6,1281.9 -509,-367.5 824.2,-1362.4 c 118.5,-195.9 294.4,-350.7 503.8,-443.3 v 0 c 130.1,-57.5 269.8,-89.6 411.9,-94.6 l 1760.6,-62.5 c 0,0 468.5,679.8 212.3,1106.9"
         style="fill:#4a4e60;fill-opacity:1;fill-rule:nonzero;stroke:none"
         id="path106" />
      <path
         d="m 13199.6,10609.2 -179.8,209.4 -349.9,47 -211.8,291.1 c 0,0 -77.3,-184.8 -77.6,-185.5 -39.5,-94.5 -24.1,-209.2 -0.6,-306.1 12.4,-51.2 32.9,-106.6 68.3,-146.8 35.6,-40.5 94.8,-57.7 142.2,-81.4 72.8,-36.2 147.1,-69.6 220.1,-105.3 0.9,-0.4 1.8,-0.9 2.7,-1.3 l 386.4,278.9"
         style="fill:#eb9481;fill-opacity:1;fill-rule:nonzero;stroke:none"
         id="path108" />
      <path
         d="m 13019.8,10818.6 c -15.1,30.2 -50.5,59.4 -72.4,85.3 -25.1,29.9 -50.2,59.7 -75.4,89.5 -25.2,29.8 -50.4,59.5 -75.8,89.1 -16.9,19.7 -45.7,87.6 -79.7,64.2 -9.5,-6.5 -15,-17.3 -19.3,-27.8 -28.4,-69.1 -35.7,-138.1 -3.7,-208.6 0.1,-0.2 84.4,-186.1 84.4,-186.1 l 241.9,94.4"
         style="fill:#eb9481;fill-opacity:1;fill-rule:nonzero;stroke:none"
         id="path110" />
      <path
         d="m 12392.5,10999.8 c 5.7,-10.6 10.9,-21.3 15.6,-32.2 5.1,-10.8 9.3,-21.8 13.9,-32.7 8.5,-22 16.7,-44.1 23.8,-66.5 l -3,5.5 c 24.2,-26.2 47.5,-53.2 69.4,-81.4 10.8,-14.2 21.6,-28.4 31.7,-43.2 10.2,-14.8 20.1,-29.8 29,-45.7 -14.7,10.8 -28.3,22.6 -41.6,34.6 -13.4,12 -26,24.6 -38.7,37.2 -25.1,25.4 -48.8,52 -71.6,79.5 l -2.2,2.7 -0.8,2.7 c -6,22.8 -11,45.8 -15.6,68.9 -2,11.7 -4.3,23.2 -5.9,35 -1.8,11.7 -3.2,23.6 -4,35.6"
         style="fill:#1d2238;fill-opacity:1;fill-rule:nonzero;stroke:none"
         id="path112" />
      <path
         d="m 12356.2,10793.8 c 5.7,-10.6 10.9,-21.3 15.7,-32.2 5,-10.8 9.3,-21.8 13.9,-32.7 8.4,-22 16.6,-44.1 23.7,-66.5 l -3,5.5 c 24.2,-26.2 47.5,-53.2 69.4,-81.4 10.9,-14.2 21.7,-28.4 31.8,-43.2 10.2,-14.8 20.1,-29.8 28.9,-45.8 -14.7,10.9 -28.3,22.7 -41.5,34.7 -13.4,12 -26.1,24.6 -38.7,37.2 -25.1,25.4 -48.8,52 -71.6,79.5 l -2.3,2.7 -0.7,2.7 c -6,22.8 -11,45.8 -15.7,68.9 -1.9,11.7 -4.3,23.2 -5.8,35 -1.8,11.7 -3.2,23.6 -4.1,35.6"
         style="fill:#1d2238;fill-opacity:1;fill-rule:nonzero;stroke:none"
         id="path114" />
      <path
         d="m 15347.9,8360 c 72.1,8.2 144.2,12.6 216.4,15.5 36,1.8 72.1,2.3 108.2,3.3 l 108.2,1.1 108.2,-1 c 36,-1.1 72.1,-1.5 108.2,-3.3 72.1,-3 144.2,-7.3 216.4,-15.6 -72.2,-8.4 -144.3,-12.7 -216.4,-15.7 -36.1,-1.8 -72.2,-2.2 -108.2,-3.3 l -108.2,-1 -108.2,1.1 c -36.1,1.1 -72.2,1.5 -108.2,3.3 -72.2,2.9 -144.3,7.3 -216.4,15.6"
         style="fill:#1d2238;fill-opacity:1;fill-rule:nonzero;stroke:none"
         id="path116" />
      <path
         d="m 20230.7,9493.3 h 6590.9 c 64.8,178.6 -106.7,503.9 -284.4,571.3 -381.4,144.8 -815.3,146.3 -1197.6,4 28.8,651.2 -630.9,1211.1 -1281.2,1165.7 -650.2,-45.5 -1198.5,-603.7 -1333.7,-1241.4 -839.7,380 -1931.5,230.5 -2494,-499.6"
         style="fill:#f6f2f5;fill-opacity:1;fill-rule:nonzero;stroke:none"
         id="path118" />
      <path
         d="m 17657.3,13178.9 h -6004.8 c 411.4,369.1 811.2,575.3 1358.4,498.1 -176.2,625.1 262.8,1331.4 884,1520.9 136,41.5 281.1,61.9 420.8,35.5 277.4,-52.5 493.4,-284.9 603.2,-545 109.8,-260 131.3,-547.5 151.5,-829.1 150.5,153.4 388.7,214 594.1,151.1 205.5,-62.8 369,-246.3 407.9,-457.6 181.3,260.4 565.7,321.4 856.8,195.3 291.2,-126 602.6,-277.8 728.1,-569.2"
         style="fill:#f6f2f5;fill-opacity:1;fill-rule:nonzero;stroke:none"
         id="path120" />
      <path
         d="m 19388.3,13822.7 h 2904.5 c -156.5,117.9 -358.4,289.5 -553,266.9 -17,279.9 -211.9,541 -475.4,636.9 -263.5,95.9 -580.7,21.2 -773.7,-182.3 -114.9,-121.1 -184.2,-277.6 -247,-432.3 -18.5,-45.4 -42.4,-96.4 -89.5,-109.7 -25.2,-7.1 -52,-1.6 -77.9,2.4 -203.9,31.7 -545.6,-32.5 -688,-181.9"
         style="fill:#f6f2f5;fill-opacity:1;fill-rule:nonzero;stroke:none"
         id="path122" />
    </g>
  </g>
</svg>
